<svg width="32" height="32" viewBox="0 0 32 32" fill="none" xmlns="http://www.w3.org/2000/svg">
<g clip-path="url(#clip0_96_1140)">
<path d="M16 30.6666C24.1002 30.6666 30.6667 24.1001 30.6667 15.9999C30.6667 7.89974 24.1002 1.33325 16 1.33325C7.89986 1.33325 1.33337 7.89974 1.33337 15.9999C1.33337 24.1001 7.89986 30.6666 16 30.6666Z" stroke="#D23731" stroke-width="1.5"/>
<path d="M16 20.4848C18.4769 20.4848 20.4848 18.4769 20.4848 16C20.4848 13.5231 18.4769 11.5151 16 11.5151C13.5231 11.5151 11.5151 13.5231 11.5151 16C11.5151 18.4769 13.5231 20.4848 16 20.4848Z" fill="#D23731" stroke="#D23731" stroke-width="1.5"/>
<path d="M10.9091 16H0" stroke="#D23731" stroke-width="1.5"/>
<path d="M30.2096 16H20.1398" stroke="#D23731" stroke-width="1.5"/>
</g>
<defs>
<clipPath id="clip0_96_1140">
<rect width="32" height="32" fill="white"/>
</clipPath>
</defs>
</svg>
