<svg width="24" height="24" viewBox="0 0 24 24" fill="none" xmlns="http://www.w3.org/2000/svg">
<path fill-rule="evenodd" clip-rule="evenodd" d="M4.56616 20.6553C4.48379 20.5779 4.40232 20.4989 4.3218 20.4183C0.0709573 16.1675 0.070958 9.27555 4.3218 5.02473C8.57261 0.773879 22.1174 0.489502 22.1174 0.489502C22.1174 0.489502 23.9663 16.1675 19.7155 20.4183C15.9401 24.1937 10.0816 24.616 5.84022 21.6854L9.25778 17.4915L14.7211 16.312L10.2614 15.8661L13.0956 12.9804L16.3217 12.2737L13.7707 11.5182L16.3217 6.91619L12.6931 10.9862L11.2919 9.00892L11.7851 12.2737L9.25778 15.1228L8.08624 11.5181V16.312L4.56616 20.6553Z" fill="#63BC5A"/>
</svg>
