<svg width="24" height="24" viewBox="0 0 24 24" fill="none" xmlns="http://www.w3.org/2000/svg">
<path fill-rule="evenodd" clip-rule="evenodd" d="M18.0143 1.83008L18.0881 8.31524L12.4317 11.0306L12.3619 4.90734L18.0143 1.83008Z" fill="#73CEC0"/>
<path fill-rule="evenodd" clip-rule="evenodd" d="M23.6845 12.0491L18.0851 15.2519L12.4823 12.044L18.0822 9.10254L23.6845 12.0491Z" fill="#73CEC0"/>
<path fill-rule="evenodd" clip-rule="evenodd" d="M11.4863 12.0491L5.88686 15.2519L0.284058 12.044L5.88395 9.10254L11.4863 12.0491Z" fill="#73CEC0"/>
<path fill-rule="evenodd" clip-rule="evenodd" d="M5.82385 1.80347L11.6357 4.68186L11.4871 10.9545L5.99963 8.23677L5.82385 1.80347Z" fill="#73CEC0"/>
<path fill-rule="evenodd" clip-rule="evenodd" d="M18.1724 22.1965L12.3606 19.3181L12.5092 13.0454L17.9967 15.7632L18.1724 22.1965Z" fill="#73CEC0"/>
<path fill-rule="evenodd" clip-rule="evenodd" d="M6.02456 22.2549L5.95068 15.7698L11.6071 13.0544L11.6769 19.1776L6.02456 22.2549Z" fill="#73CEC0"/>
</svg>
