<svg width="150" height="151" viewBox="0 0 150 151" fill="none" xmlns="http://www.w3.org/2000/svg">
<path d="M112.261 79.5598C114.792 81.5899 116.454 83.1863 117.245 84.3492L118.521 84.2309C119.807 84.4477 121.587 85.2657 123.862 86.6848L129.914 87.0691C131.536 87.01 132.733 86.7045 133.504 86.1526C134.137 85.719 134.592 85.5416 134.869 85.6205C135.383 85.7387 135.858 86.3399 136.293 87.4239C136.471 91.0111 134.839 94.8347 131.398 98.8949C130.132 100.373 128.797 101.684 127.392 102.827C126.146 103.832 125.246 104.394 124.692 104.512L122.793 105.961C121.191 107.045 119.599 107.873 118.017 108.444C116.85 108.878 115.455 109.095 113.833 109.095C112.389 109.095 111.41 108.947 110.896 108.651L107.217 108.888C104.804 109.164 102.677 109.154 100.838 108.858C99.0377 108.7 97.0795 108.336 94.9631 107.764C92.7477 107.153 91.4225 106.582 90.9873 106.05C90.0972 106.345 88.0698 106.385 84.905 106.168C81.6413 105.951 78.1996 105.527 74.5799 104.897C65.1646 103.261 59.468 101.231 57.49 98.8062C55.2944 99.2004 52.3571 99.1413 48.678 98.6288C44.9396 98.1361 42.8627 97.4857 42.4474 96.6776C41.1617 94.2336 39.0452 91.1687 36.098 87.483L27.7311 77.3424C20.4125 68.4337 15.9126 61.0721 14.2313 55.2577C13.4401 52.5181 13.2423 50.2219 13.6379 48.3692C13.9939 46.6742 14.8148 45.5015 16.1005 44.851C16.7532 44.516 18.8895 45.0679 22.5092 46.5067C23.7158 46.9994 26.8608 48.3791 31.9442 50.6457C36.8496 52.8335 41.3298 53.9766 45.3847 54.0752L51.4077 53.4543C53.3857 53.1981 58.3306 51.8184 66.2426 49.3153C74.9656 46.5756 80.494 44.4667 82.8281 42.9885C83.5599 42.5352 84.4401 42.2691 85.4687 42.1902L87.8126 42.3972C88.406 42.614 88.8511 43.156 89.1478 44.0232C89.4643 44.9102 89.5236 45.876 89.3258 46.9206C89.2269 47.4921 88.1884 50.5471 86.2104 56.0856C84.3511 61.2889 83.4511 64.1567 83.5105 64.6888C83.6489 65.5758 85.0434 66.3247 87.6939 66.9357L96.6839 68.5026C98.8597 68.8771 100.581 69.5078 101.846 70.3948C103.429 71.4591 104.566 73.0359 105.259 75.1251C107.177 75.8938 109.511 77.372 112.261 79.5598Z" fill="#6FB92C"/>
<path d="M86.9225 47.9553C87.417 47.1275 87.961 46.8811 88.5544 47.2162C89.128 47.5316 89.2763 48.1327 88.9994 49.0196C88.0698 51.2074 87.1896 53.4149 86.3588 55.6421C84.6775 60.0768 83.6984 63.3781 83.4215 65.5462C83.2435 66.847 83.6588 68.069 84.6676 69.2122C85.6368 70.2765 86.7049 70.8481 87.872 70.9269C88.9005 70.9861 89.0884 71.3014 88.4357 71.873C87.7434 72.4643 86.4973 72.8486 84.6973 73.026C82.7589 73.2231 81.0578 72.415 79.5941 70.6017C78.1304 68.7884 77.6161 66.8766 78.0512 64.8662C78.3084 63.723 79.8018 60.668 82.5314 55.7012L86.9225 47.9553Z" fill="#5FA124"/>
<path d="M58.9438 60.0176C58.9438 62.0083 58.2416 63.7132 56.8373 65.1323C55.4131 66.5711 53.6428 67.2905 51.5263 67.2905C49.4099 67.2905 47.6396 66.5612 46.2154 65.1027C44.8308 63.6836 44.1385 62.0083 44.1385 60.0768C44.1385 58.0861 44.8308 56.4206 46.2154 55.0804C47.6198 53.7204 49.3901 53.0404 51.5263 53.0404C53.7615 53.0404 55.5911 53.8091 57.0153 55.3464C58.301 56.7064 58.9438 58.2635 58.9438 60.0176Z" fill="#0D131A"/>
<path d="M57.1933 57.3864C57.6482 58.2339 57.8757 59.1504 57.8757 60.1359C57.8757 61.8309 57.2526 63.2697 56.0065 64.4523C54.7604 65.6546 53.2571 66.2557 51.4967 66.2557C49.756 66.2557 48.2824 65.6743 47.0759 64.5114C45.7902 63.2894 45.1572 61.7324 45.177 59.8402L45.1177 59.515L51.645 58.4507L57.1933 57.3864Z" fill="white"/>
<path d="M51.4967 54.0456C52.723 54.0456 53.8505 54.3511 54.879 54.9621C55.8878 55.5731 56.6592 56.3812 57.1933 57.3864L51.4967 58.5394L45.2067 59.4263C45.2462 58.027 45.8198 56.805 46.9275 55.7603C48.1341 54.6172 49.6571 54.0456 51.4967 54.0456Z" fill="#6FB92C"/>
<path d="M57.5197 57.7116L44.9396 59.9881C44.544 60.0866 44.3759 59.9782 44.4352 59.6629C44.4748 59.3672 44.7023 59.18 45.1177 59.1011L57.312 56.9134C57.6482 56.8345 57.8559 56.9331 57.935 57.209C58.0142 57.4849 57.8757 57.6525 57.5197 57.7116Z" fill="#0D131A"/>
<path d="M54.167 60.3133C54.167 61.0425 53.9197 61.6732 53.4252 62.2054C52.9505 62.7376 52.367 63.0036 51.6747 63.0036C51.0022 63.0036 50.4187 62.7376 49.9242 62.2054C49.4495 61.6929 49.2121 61.0622 49.2121 60.3133C49.2121 59.6037 49.4495 59.0519 49.9242 58.6577C50.3593 58.3029 50.9428 58.1255 51.6747 58.1255C52.4066 58.1255 52.9901 58.3029 53.4252 58.6577C53.9197 59.0519 54.167 59.6037 54.167 60.3133Z" fill="#0D131A"/>
<path d="M127.57 97.4758C128.421 97.5152 129.608 97.0816 131.131 96.175C132.99 95.091 134.483 93.7014 135.611 92.0064C134.147 96.1651 131.932 99.4172 128.965 101.763C128.055 102.492 127.115 103.083 126.146 103.537L124.989 104.01C123.862 105.783 121.755 107.163 118.669 108.149C115.623 109.114 113.032 109.282 110.896 108.651C109.116 109.302 105.516 109.282 100.096 108.592C94.7158 107.922 91.7587 107.134 91.2247 106.227C82.6204 106.542 74.7579 105.655 67.6371 103.566C64.8086 102.738 62.4943 101.822 60.6943 100.817C59.0131 99.8706 58.1032 99.0329 57.9647 98.3036L54.9977 98.8358L47.9363 98.5402C45.6418 98.0868 43.921 97.5645 42.7737 96.9732L41.7353 96.2341L43.8418 96.4411C45.3649 96.4017 46.4132 95.9286 46.9869 95.022L42.7144 92.8342L43.8418 92.982C44.7517 93.0214 45.5825 92.8933 46.3341 92.5977C48.7275 91.6319 49.8747 89.1189 49.7758 85.0587L52.2088 86.7439C54.167 87.9462 56.0362 88.7839 57.8164 89.2569C63.513 90.7548 67.1723 88.2616 68.7942 81.7771C69.0118 84.4379 70.4459 87.0888 73.0964 89.7299C75.4897 92.1148 78.615 94.2434 82.472 96.1159C86.1511 97.8897 89.8796 99.1314 93.6576 99.841C97.5542 100.59 100.808 100.629 103.419 99.9592C105.081 100.984 107.385 101.694 110.332 102.088C113.457 102.521 116.592 102.492 119.737 101.999C120.291 101.901 121.399 101.457 123.06 100.669C125.256 99.6045 126.759 98.5401 127.57 97.4758Z" fill="#5FA124"/>
<path d="M35.2969 75.1842C32.864 74.4155 31.5288 74.1494 31.2915 74.386C31.0541 74.6619 31.1926 75.943 31.7069 78.2293C32.2409 80.5748 32.775 82.0037 33.309 82.5162C33.8035 82.9892 35.0892 83.6199 37.1661 84.4083C39.1837 85.1573 40.2716 85.4726 40.4298 85.3544C40.588 85.2164 40.5683 83.8959 40.3705 81.3927C40.1727 78.8305 39.9353 77.4015 39.6584 77.1059C39.2035 76.5934 37.7496 75.9529 35.2969 75.1842ZM30.6684 73.6764C31.0442 73.2822 32.6464 73.4596 35.4749 74.2086C38.3035 74.9575 39.9947 75.6474 40.5485 76.2781C41.1023 76.8694 41.4287 78.6235 41.5276 81.5406C41.6265 84.3985 41.4781 85.9555 41.0825 86.2118C40.7067 86.468 39.421 86.2019 37.2255 85.4135C34.9705 84.6054 33.4673 83.8466 32.7156 83.1371C31.964 82.4275 31.331 80.7719 30.8168 78.1702C30.3025 75.608 30.253 74.11 30.6684 73.6764Z" fill="#0D131A"/>
<path d="M50.3396 66.9357L50.7846 66.8766C51.0615 66.9554 51.1802 67.054 51.1406 67.1722C50.1516 70.6805 49.7165 74.997 49.8352 80.1215C49.9538 85.2066 50.567 89.1091 51.6747 91.829L51.3483 92.1542C51.0912 92.2528 50.9428 92.2528 50.9033 92.1542C49.5582 88.8824 48.8066 85.1179 48.6484 80.8606C48.4703 76.1894 49.0341 71.5478 50.3396 66.9357Z" fill="#0D131A"/>
<path d="M67.9041 77.4311C68.458 77.5297 68.814 77.6676 68.9722 77.845C69.1305 78.0224 69.2393 78.3673 69.2986 78.8798C69.4371 80.1215 69.447 82.5556 69.3283 86.1822L68.8536 94.342C68.8536 94.4603 68.7151 94.5194 68.4382 94.5194C68.1613 94.5194 68.0228 94.4603 68.0228 94.342L68.1712 86.9509C68.2107 81.7278 68.1217 78.9882 67.9041 78.7319C67.6074 78.3772 63.9185 77.845 56.8373 77.1355C49.0835 76.3471 43.5847 76.2682 40.3408 76.8989C40.2419 76.9187 40.1628 76.7905 40.1034 76.5146C40.0441 76.2584 40.0738 76.1204 40.1924 76.1007C43.555 75.4503 48.2725 75.332 54.345 75.7459C59.1713 76.081 63.691 76.6427 67.9041 77.4311Z" fill="#0D131A"/>
<path d="M32.8343 83.5805C32.775 83.482 32.8442 83.3539 33.042 83.1962C33.22 83.0582 33.3387 83.0385 33.398 83.1371C35.4552 86.4483 38.6595 89.5328 43.0111 92.3907C47.8374 95.5443 52.8219 97.5152 57.9647 98.3036C58.0834 98.3233 58.0339 98.4318 57.8164 98.6288C57.579 98.8457 57.401 98.9442 57.2823 98.9245C51.7835 98.0967 46.8286 96.2243 42.4177 93.3072C38.4024 90.6661 35.2079 87.4239 32.8343 83.5805Z" fill="#0D131A"/>
<path d="M68.4975 93.662C68.6162 93.6817 68.6558 93.869 68.6162 94.2237C68.5766 94.5982 68.4975 94.7756 68.3788 94.7559L52.4758 92.4203C51.3681 92.302 50.4286 92.4006 49.6571 92.7159C49.0044 93.0116 48.5989 93.4058 48.4407 93.8985C48.322 94.2927 48.411 94.7263 48.7077 95.1994C49.0242 95.6921 49.4593 96.0863 50.0132 96.3819C50.1121 96.4411 50.0725 96.5495 49.8945 96.7071L49.4495 96.8254C48.6187 96.3721 47.9956 95.8202 47.5802 95.1698C47.2044 94.5588 47.0858 94.0069 47.2242 93.5142C47.422 92.8638 48.0055 92.3513 48.9747 91.9768C50.0033 91.5826 51.2099 91.4545 52.5945 91.5925L68.4975 93.662Z" fill="#0D131A"/>
<path d="M68.0821 94.6968C67.9832 94.6376 68.0327 94.4208 68.2305 94.0463C68.4283 93.6719 68.5766 93.5142 68.6755 93.5733L73.4821 96.648C76.9633 98.7767 79.4556 100.117 80.9589 100.669L88.1093 101.644C92.6785 102.315 95.7839 103.113 97.4257 104.039C97.5246 104.098 97.5246 104.226 97.4257 104.423C97.3268 104.601 97.2279 104.66 97.129 104.601C96.14 104.029 93.3016 103.399 88.6137 102.709L80.7215 101.467C79.1589 100.915 76.637 99.6537 73.1557 97.6828L68.0821 94.6968Z" fill="#0D131A"/>
<path d="M61.6735 94.7855C64.1262 93.9379 66.4009 93.6522 68.4975 93.9281C68.5964 93.9478 68.7349 94.1055 68.9129 94.4011C69.0711 94.7165 69.0909 94.8643 68.9722 94.8446C66.836 94.5489 64.5317 94.8544 62.0592 95.7611C59.5273 96.6677 58.3405 97.7025 58.4988 98.8654C58.4988 98.9639 58.3603 99.0329 58.0834 99.0723C57.8263 99.1117 57.6878 99.0723 57.668 98.9541C57.4504 97.1802 58.7856 95.7907 61.6735 94.7855Z" fill="#0D131A"/>
<path d="M58.1427 99.1314C58.0438 99.092 57.9944 98.9048 57.9944 98.5697C57.9944 98.2544 58.0438 98.1263 58.1427 98.1854C60.0614 99.1906 63.0877 100.373 67.2217 101.733C70.881 102.955 74.6194 104.049 78.4369 105.015C78.5556 105.054 78.5853 105.163 78.526 105.34C78.4468 105.517 78.3479 105.586 78.2293 105.547C67.8646 102.866 61.1691 100.728 58.1427 99.1314Z" fill="#0D131A"/>
<path d="M88.9104 42.4563C90.2752 43.5797 90.6708 45.1368 90.0972 47.1275L84.3709 63.9201C83.3226 67.2905 84.272 69.4585 87.2192 70.4243C88.4852 70.8185 89.039 71.124 88.8808 71.3408L86.3291 71.1634C84.7665 70.8283 83.7182 70.1976 83.1841 69.2713C82.5907 68.1873 82.5512 66.5021 83.0655 64.2158C83.56 62.0674 84.7369 58.4507 86.5962 53.3656C88.1588 49.0689 88.9401 46.4081 88.9401 45.3832C88.9401 44.516 88.5643 43.8655 87.8126 43.4319C86.9028 42.8998 85.7259 42.9195 84.2819 43.4911C76.4491 46.5855 70.5546 48.7437 66.5987 49.9657C61.1394 51.6607 54.701 53.1685 47.2836 54.489C43.2682 55.1986 37.0573 53.7105 28.6509 50.0248C24.7344 48.2312 22.0345 47.0388 20.551 46.4475C18.1181 45.5014 16.6247 45.2452 16.0708 45.6788C15.339 46.2504 14.884 47.0881 14.706 48.1918C14.5082 49.3941 14.5577 51.2665 14.8544 53.8091C15.3686 58.1058 17.5939 63.0332 21.5301 68.5913C22.3015 69.6753 25.7135 73.8932 31.7662 81.2449C34.931 85.108 37.6211 88.6065 39.8364 91.7403L43.1001 96.3523C43.5946 96.9633 45.2462 97.4955 48.055 97.9488L56.8966 98.3627C57.5296 98.3233 57.9548 98.4022 58.1724 98.5993C58.39 98.8161 58.1329 99.0033 57.401 99.161C55.423 99.6143 52.4857 99.6143 48.589 99.161C44.455 98.6682 42.1012 97.9193 41.5276 96.9141C38.7782 91.9078 35.0991 86.734 30.4904 81.3927C25.6048 75.8149 22.707 72.4248 21.7971 71.2225C17.1686 65.1125 14.4687 59.9191 13.6972 55.6421L13.1335 51.9761C12.9555 50.3204 12.9555 49.0196 13.1335 48.0735C13.4698 46.2208 14.1126 44.9693 15.0621 44.3189C16.0115 43.6684 17.1884 43.6586 18.5928 44.2893C25.496 47.3837 29.9761 49.335 32.0332 50.1431C39.2134 52.9418 44.0891 54.1146 46.6605 53.6612C53.7021 52.4195 60.6548 50.6654 67.5184 48.3988C72.6612 46.7037 78.071 44.6046 83.7479 42.1015C85.805 41.1949 87.5258 41.3131 88.9104 42.4563Z" fill="#0D131A"/>
<path d="M127.926 86.6552C130.616 86.8129 132.545 86.3596 133.712 85.2953C134.602 84.4872 135.453 84.7927 136.264 86.2118C137.134 87.7097 137.233 89.4934 136.56 91.5629C135.73 94.1646 134.127 96.8156 131.754 99.5158C129.301 102.275 126.809 104.177 124.277 105.222C123.723 105.458 123.397 105.508 123.298 105.37C123.219 105.251 123.456 105.025 124.01 104.69C126.918 102.955 129.43 100.777 131.546 98.1558C133.425 95.8301 134.741 93.4846 135.492 91.1195C135.967 89.6609 135.997 88.4094 135.581 87.3648C135.225 86.4778 134.869 86.1428 134.513 86.3596C133.109 87.1874 131.467 87.621 129.588 87.6604C127.61 87.7196 125.533 87.3549 123.357 86.5665C122.922 86.4089 122.635 86.2019 122.497 85.9457C122.358 85.6895 122.428 85.6106 122.704 85.7092C124.287 86.2413 126.027 86.5567 127.926 86.6552Z" fill="#0D131A"/>
<path d="M95.3191 67.7044C100.521 68.4731 104.151 71.1339 106.208 75.6868C107.573 78.7418 108.176 82.5261 108.018 87.0396C107.879 91.7502 106.366 95.9483 103.478 99.634C99.9575 104.148 95.151 106.532 89.0588 106.789L82.1457 106.316C74.57 105.389 69.3283 104.532 66.4206 103.743C62.8602 102.778 59.7251 101.201 57.0153 99.0132C56.5801 98.6781 56.5208 98.4515 56.8373 98.3332C57.1735 98.1952 57.7076 98.2938 58.4394 98.6288C60.2394 100.482 63.2163 101.901 67.3701 102.886L82.3237 105.429C89.3456 106.513 95.1312 105.32 99.6806 101.851C104.25 98.3628 106.613 93.3467 106.772 86.8031C106.89 81.0675 105.812 76.6723 103.538 73.6173C101.56 70.9959 98.652 69.3502 94.8147 68.68L88.7027 67.4087C86.9621 66.9554 85.2709 66.3346 83.6292 65.5462C83.2534 65.3688 83.0753 65.1027 83.0951 64.7479C83.1149 64.3932 83.3819 64.3538 83.8962 64.6297C84.9445 65.221 86.7148 65.832 89.2071 66.4627L95.3191 67.7044Z" fill="#0D131A"/>
<path d="M121.073 92.0951C122.16 97.6335 121.162 102.088 118.076 105.458C115.327 108.454 110.599 109.785 103.894 109.449C98.474 109.174 94.073 108.198 90.6906 106.523C89.8203 106.109 89.6027 105.921 90.0379 105.961L91.7587 106.375C97.1191 107.952 102.005 108.651 106.416 108.474C111.301 108.296 114.881 107.045 117.156 104.719C119.589 102.216 120.647 98.688 120.331 94.135C119.975 89.247 118.036 85.1869 114.516 81.9545C113.25 80.7916 111.984 79.7766 110.718 78.9093L105.822 75.7755C105.288 75.4404 105.001 75.0857 104.962 74.7112C104.922 74.317 105.081 74.2283 105.437 74.4451C108.839 76.4949 111.984 78.6531 114.872 80.9197C117.997 83.344 120.064 87.0691 121.073 92.0951Z" fill="#0D131A"/>
<path d="M117.008 84.1718L116.563 83.4031C119.273 83.6988 121.587 84.5266 123.506 85.8865C125.127 87.0494 126.344 88.5079 127.155 90.2621C128.421 93.0214 128.609 96.0469 127.719 99.3384C126.888 102.393 125.474 104.68 123.476 106.197C121.518 107.676 119.154 108.641 116.385 109.095L108.938 108.888L111.578 108.444C113.675 108.76 115.732 108.622 117.75 108.03C119.787 107.419 121.597 106.394 123.179 104.956C125.038 103.261 126.255 101.024 126.829 98.2445C127.382 95.564 127.194 93.0806 126.265 90.7943C125.671 89.3357 124.712 88.0645 123.387 86.9804C121.725 85.6402 119.599 84.704 117.008 84.1718Z" fill="#0D131A"/>
<path d="M120.954 92.2725C121.982 93.1594 123.1 93.4748 124.307 93.2185C125.454 92.982 126.245 92.3612 126.68 91.356C126.838 90.9618 126.987 90.8829 127.125 91.1195C127.264 91.356 127.234 91.6615 127.036 92.036C126.443 93.1397 125.493 93.8 124.188 94.0168C122.882 94.2533 121.765 93.9182 120.835 93.0116L120.954 92.2725Z" fill="#0D131A"/>
<path d="M120.301 92.9229C119.767 93.8098 118.788 94.342 117.364 94.5194C115.959 94.6968 114.496 94.4701 112.973 93.8394C109.116 92.2626 107.108 89.3062 106.95 84.9701C106.93 84.5167 107.029 84.2999 107.246 84.3196C107.464 84.3393 107.583 84.5266 107.602 84.8814C107.82 88.2714 109.59 90.8534 112.913 92.6273C114.338 93.3959 115.712 93.7409 117.037 93.662C118.462 93.5635 119.569 92.982 120.361 91.9177C120.736 91.425 120.875 91.3855 120.776 91.7994L120.301 92.9229Z" fill="#0D131A"/>
<path d="M117.957 104.601C112.34 105.862 107.039 105.054 102.054 102.177C101.599 101.92 101.411 101.704 101.49 101.526C101.589 101.329 101.945 101.388 102.559 101.704C104.655 102.788 107.068 103.527 109.798 103.921C112.646 104.335 115.356 104.286 117.928 103.773C118.481 103.655 118.758 103.734 118.758 104.01C118.758 104.286 118.491 104.483 117.957 104.601Z" fill="#0D131A"/>
<path d="M127.422 99.3975C126.393 100.639 124.959 101.743 123.12 102.709C121.537 103.517 120.024 104.069 118.58 104.364L118.996 103.448C121.824 102.857 124.564 101.339 127.214 98.8949C127.452 98.6584 127.61 98.6091 127.689 98.7471C127.748 98.8851 127.659 99.1019 127.422 99.3975Z" fill="#0D131A"/>
</svg>
