<svg width="129" height="126" viewBox="0 0 129 126" fill="none" xmlns="http://www.w3.org/2000/svg">
<g clip-path="url(#clip0_83_469)">
<path d="M99.3772 76.2616C97.3502 76.0843 95.573 75.2419 94.0454 73.7343C93.1347 72.8476 92.6353 71.5174 92.5472 69.7439L92.2387 65.7091C92.0625 65.0883 91.6365 64.3937 90.9609 63.6251L88.9779 61.6742C88.3023 61.0239 88.0085 60.551 88.0966 60.2554C88.1554 59.9598 88.6695 59.7972 89.6389 59.7677C95.8667 59.5312 100.405 60.8023 103.255 63.5808C105.076 65.3544 106.002 67.4678 106.031 69.9212C106.06 72.1677 105.399 73.8526 104.048 74.9758C102.814 75.9808 101.257 76.4094 99.3772 76.2616Z" fill="#0D131A"/>
<path d="M103.299 73.7344C102.212 74.7394 100.89 75.1975 99.3332 75.1089C97.7468 74.9611 96.2927 74.2516 94.9708 72.9806C94.2363 72.2712 93.7957 71.074 93.6488 69.3892L93.3404 65.443C93.1053 64.4676 92.2681 63.3444 90.8287 62.0733L89.7711 60.9648C89.7417 60.7579 90.2411 60.684 91.2693 60.7432C96.3515 61.0979 100.024 62.3837 102.286 64.6006C103.725 65.9899 104.518 67.6452 104.665 69.5665C104.782 71.3992 104.327 72.7885 103.299 73.7344Z" fill="#CAD3CC"/>
<path d="M103.299 73.7344C102.212 74.7394 100.89 75.1976 99.3332 75.1089C97.7468 74.9611 96.2927 74.2517 94.9708 72.9806C94.5007 72.5668 94.1776 72.0052 94.0013 71.2958C96.2046 72.419 98.3344 72.6407 100.391 71.9608C102.565 71.281 103.828 69.803 104.18 67.527C104.65 68.7093 104.797 69.8769 104.621 71.0297C104.445 72.1825 104.004 73.0841 103.299 73.7344Z" fill="#A6ADA8"/>
<path d="M95.6758 90.0953C93.0319 89.7997 91.0784 88.7652 89.8152 86.9916C88.3464 84.9225 87.656 82.7647 87.7441 80.5182C87.8029 78.0648 88.7723 76.173 90.6524 74.8428C92.4444 73.5422 94.486 73.1136 96.7774 73.557C99.2157 74.0004 101.213 75.3158 102.77 77.5032C104.151 79.4541 104.68 81.5971 104.357 83.9323C104.033 86.297 102.932 88.0705 101.052 89.2529C99.7591 90.0805 97.9672 90.3614 95.6758 90.0953Z" fill="#0D131A"/>
<path d="M96.7333 74.7985C98.6722 75.2714 100.259 76.3651 101.492 78.0795C102.726 79.8235 103.24 81.7005 103.035 83.7105C102.829 85.691 101.962 87.2281 100.435 88.3217C98.9072 89.4154 97.174 89.7406 95.2351 89.2972C93.2963 88.8538 91.71 87.7601 90.4761 86.0161C89.2423 84.3017 88.7282 82.4395 88.9339 80.4295C89.1395 78.4195 90.0061 76.8676 91.5337 75.7739C93.0613 74.6802 94.7945 74.3551 96.7333 74.7985Z" fill="#E3C582"/>
<path d="M101.801 78.6116C102.858 80.2964 103.255 82.07 102.991 83.9322C102.726 85.824 101.874 87.2872 100.435 88.3217C98.9072 89.4154 97.174 89.7406 95.2351 89.2972C93.2963 88.8538 91.7099 87.7601 90.4761 86.0161C89.5361 84.6564 89.022 83.2523 88.9339 81.8039L89.2423 82.2917C90.4761 84.0357 92.0625 85.1293 94.0013 85.5727C95.9402 86.0161 97.6734 85.691 99.2009 84.5973C100.141 83.947 100.831 83.075 101.272 81.9813C101.713 80.9467 101.889 79.8235 101.801 78.6116Z" fill="#BFA56F"/>
<path d="M84.3512 83.9322C86.1725 82.3065 88.4198 81.6709 91.0931 82.0257C93.7663 82.3508 96.0724 83.5627 98.0112 85.6614C99.9501 87.7897 100.875 90.3022 100.787 93.199C100.699 95.9184 99.8032 97.9875 98.0994 99.4064C96.3074 100.943 94.0601 101.594 91.3575 101.357C88.4786 101.121 86.0844 99.8941 84.1749 97.6772C82.2361 95.4011 81.3254 92.9034 81.4429 90.184C81.5604 87.5828 82.5298 85.4988 84.3512 83.9322Z" fill="#0D131A"/>
<path d="M85.1884 84.9077C86.8335 83.4593 88.8164 82.8829 91.1371 83.1785C93.4872 83.5036 95.4702 84.6121 97.0859 86.5039C98.7309 88.3957 99.5388 90.5239 99.5094 92.8886C99.5094 95.2534 98.6722 97.1599 96.9977 98.6083C95.3526 100.057 93.3697 100.618 91.049 100.293C88.7283 99.9976 86.7453 98.9039 85.1003 97.0121C83.4552 95.1203 82.6326 92.9921 82.6326 90.6274C82.662 88.2626 83.5139 86.3561 85.1884 84.9077Z" fill="#E3C582"/>
<path d="M91.049 100.293C88.7282 99.9976 86.7453 98.9039 85.1002 97.0121C83.8077 95.5341 83.0292 93.8936 82.7648 92.0905L83.2495 92.6669C84.8946 94.5587 86.8775 95.6524 89.1983 95.948C91.519 96.2731 93.5019 95.7115 95.147 94.2631C96.1458 93.4059 96.8508 92.327 97.2621 91.0264C97.6734 89.7849 97.7762 88.4695 97.5706 87.0803C98.9806 88.9425 99.6269 90.9821 99.5094 93.199C99.4213 95.4455 98.5841 97.2486 96.9977 98.6083C95.3526 100.057 93.3697 100.618 91.049 100.293Z" fill="#BFA56F"/>
<path d="M72.3656 92.7556C74.4219 90.5091 77.0364 89.2529 80.2091 88.9869C83.4992 88.6913 86.4956 89.7997 89.1983 92.3123C91.8715 94.7657 93.2816 97.6033 93.4285 100.825C93.6048 104.018 92.4444 106.634 89.9474 108.673C87.9498 110.328 85.9081 111.171 83.8224 111.2C79.9447 111.26 76.6839 110.255 74.04 108.185C71.2786 105.998 69.8098 103.16 69.6335 99.6725C69.516 97.1304 70.4267 94.8248 72.3656 92.7556Z" fill="#0D131A"/>
<path d="M75.5823 107.077C73.4084 105.096 72.1599 102.732 71.8368 99.9828C71.543 97.2042 72.2627 94.8543 73.9959 92.9329C75.6998 91.0116 77.9471 90.0657 80.7378 90.0953C83.4992 90.1248 85.9668 91.1298 88.1407 93.1103C90.3146 95.0908 91.5484 97.4555 91.8421 100.204C92.1653 102.983 91.4602 105.333 89.727 107.254C87.9938 109.176 85.7465 110.122 82.9851 110.092C80.2237 110.062 77.7561 109.057 75.5823 107.077Z" fill="#E3C582"/>
<path d="M91.9303 101.402C91.9009 103.678 91.1665 105.629 89.727 107.254C87.9938 109.176 85.7465 110.122 82.9851 110.092C80.2238 110.062 77.7561 109.057 75.5823 107.077C73.6434 105.363 72.439 103.249 71.969 100.737L73.7316 102.732C75.9054 104.712 78.373 105.717 81.1344 105.747C83.8958 105.776 86.1431 104.83 87.8763 102.909C89.8152 100.751 90.4908 98.1501 89.9033 95.1055C91.2546 97.0564 91.9303 99.1551 91.9303 101.402Z" fill="#BFA56F"/>
<path d="M60.7325 117.896C57.8242 116.477 55.5035 113.743 53.7702 109.693C52.5364 106.796 52.4924 103.722 53.638 100.47C54.8719 96.9234 57.2514 94.3813 60.7765 92.8443C64.6542 91.1594 68.7522 91.1298 73.0706 92.7556C77.3889 94.3518 80.3706 97.0712 82.0157 100.914C83.3964 104.136 83.3377 107.476 81.8395 110.934C80.1356 114.895 76.9483 117.393 72.2774 118.428C67.5478 119.492 63.6995 119.314 60.7325 117.896Z" fill="#0D131A"/>
<path d="M62.0985 93.3764C65.4768 92.1644 68.9432 92.2827 72.4978 93.7311C76.0229 95.1499 78.5934 97.4851 80.2091 100.737C81.8542 103.988 82.0451 107.18 80.7819 110.314C79.5187 113.477 77.198 115.664 73.8197 116.876C70.412 118.088 66.9309 117.97 63.3764 116.521C59.8218 115.073 57.2367 112.738 55.621 109.516C54.0053 106.294 53.829 103.101 55.0922 99.9385C56.3554 96.7757 58.6908 94.5883 62.0985 93.3764Z" fill="#E3C582"/>
<path d="M80.6497 101.668C81.8248 104.624 81.8688 107.506 80.7819 110.314C79.5187 113.477 77.198 115.664 73.8197 116.876C70.412 118.088 66.9309 117.969 63.3763 116.521C60.6443 115.427 58.4558 113.728 56.8107 111.422C55.195 109.176 54.3578 106.767 54.299 104.195C55.004 105.939 56.0469 107.491 57.4276 108.851C58.8671 110.269 60.5415 111.363 62.451 112.132C66.0055 113.58 69.4867 113.698 72.8943 112.486C76.2726 111.274 78.5934 109.087 79.8566 105.924C80.3853 104.653 80.6497 103.234 80.6497 101.668Z" fill="#BFA56F"/>
<path d="M60.7765 122.019C55.5181 122.108 51.3613 120.63 48.3062 117.585C45.6917 115.014 44.3844 111.999 44.3844 108.54C44.3844 104.491 45.7504 101.195 48.4825 98.6527C51.332 95.9628 55.1803 94.6179 60.0274 94.6179C64.6101 94.6179 68.4291 95.9628 71.4842 98.6527C74.3925 101.224 75.8466 104.298 75.8466 107.875C75.8466 111.629 74.4806 114.866 71.7486 117.585C68.8991 120.452 65.2417 121.93 60.7765 122.019Z" fill="#0D131A"/>
<path d="M60.0274 95.5933C63.9639 95.5933 67.3275 96.8347 70.1182 99.3177C72.909 101.801 74.3044 104.786 74.3044 108.274C74.3044 111.762 72.909 114.748 70.1182 117.23C67.3275 119.684 63.9639 120.911 60.0274 120.911C56.091 120.911 52.7421 119.684 49.9807 117.23C47.1899 114.748 45.7945 111.762 45.7945 108.274C45.7945 104.786 47.1899 101.801 49.9807 99.3177C52.7421 96.8347 56.091 95.5933 60.0274 95.5933Z" fill="#E3C582"/>
<path d="M71.5283 100.781C73.379 103.027 74.3044 105.525 74.3044 108.274C74.3044 111.762 72.909 114.748 70.1182 117.23C67.3275 119.684 63.9639 120.911 60.0274 120.911C56.6197 120.911 53.594 119.95 50.9501 118.029C48.365 116.107 46.7346 113.683 46.0589 110.757C47.3808 112.353 49.0406 113.61 51.0382 114.526C53.0652 115.472 55.239 115.945 57.5598 115.945C61.4962 115.945 64.8598 114.718 67.6506 112.265C70.4414 109.782 71.8368 106.796 71.8368 103.308C71.8368 102.421 71.7339 101.579 71.5283 100.781Z" fill="#BFA56F"/>
<path d="M72.3656 86.7699C75.3326 89.4598 76.8161 92.7113 76.8161 96.5244C76.8161 100.515 75.3473 103.766 72.4096 106.279C69.5307 108.762 65.8587 110.018 61.3934 110.048C56.5463 110.077 52.6099 108.747 49.5841 106.057C46.7052 103.486 45.2657 100.293 45.2657 96.4801C45.2657 92.4305 46.808 89.0903 49.8925 86.4595C52.8889 83.9175 56.5757 82.6464 60.9528 82.6464C65.5061 82.6464 69.3104 84.0209 72.3656 86.7699Z" fill="#0D131A"/>
<path d="M60.9528 83.6662C64.8892 83.6662 68.2381 84.9077 70.9995 87.3906C73.7903 89.844 75.1857 92.8147 75.1857 96.3027C75.1857 99.7907 73.7903 102.776 70.9995 105.259C68.2381 107.742 64.8892 108.984 60.9528 108.984C57.0163 108.984 53.6527 107.742 50.862 105.259C48.0712 102.806 46.6758 99.8202 46.6758 96.3027C46.6758 92.8147 48.0712 89.844 50.862 87.3906C53.6527 84.9077 57.0163 83.6662 60.9528 83.6662Z" fill="#E3C582"/>
<path d="M75.1857 96.3027C75.1857 99.7907 73.7903 102.776 70.9995 105.259C68.2381 107.742 64.8892 108.984 60.9528 108.984C57.7214 108.984 54.8131 108.112 52.228 106.368C49.731 104.624 48.0565 102.407 47.2046 99.7168C48.5265 101.224 50.1569 102.421 52.0958 103.308C54.1228 104.195 56.2525 104.638 58.4852 104.638C62.4216 104.638 65.7705 103.397 68.5319 100.914C71.3227 98.431 72.7181 95.4455 72.7181 91.9575C72.7181 90.8047 72.5418 89.6667 72.1893 88.5435C74.1869 90.8491 75.1857 93.4355 75.1857 96.3027Z" fill="#BFA56F"/>
<path d="M58.2648 65.5317C63.6407 65.5317 68.2234 67.3053 72.013 70.8524C75.3913 74.0152 77.0805 77.3554 77.0805 80.8729C77.0805 85.6023 75.2591 89.5928 71.6164 92.8443C68.0031 96.1254 63.582 97.7659 58.353 97.7659C53.5352 97.7659 49.3197 96.3175 45.7064 93.4207C41.8287 90.2875 39.8898 86.3857 39.8898 81.7153C39.8898 77.5475 41.4908 73.897 44.6929 70.7637C48.2181 67.2757 52.742 65.5317 58.2648 65.5317Z" fill="#0D131A"/>
<path d="M41.6084 81.7153C41.6084 77.6066 43.2388 74.1038 46.4996 71.2071C49.7897 68.3103 53.7409 66.8619 58.353 66.8619C62.9651 66.8619 66.9015 68.3103 70.1623 71.2071C73.4231 74.1038 75.0535 77.6066 75.0535 81.7153C75.0535 85.824 73.4231 89.3268 70.1623 92.2235C66.9015 95.1203 62.9651 96.5687 58.353 96.5687C53.7409 96.5687 49.7897 95.1203 46.4996 92.2235C43.2388 89.3268 41.6084 85.824 41.6084 81.7153Z" fill="#E3C582"/>
<path d="M56.7666 81.8483L47.9537 81.4049C45.1923 80.8433 43.1653 80.0157 41.8727 78.922C42.6365 75.4636 44.546 72.5963 47.6012 70.3203C50.7151 68.0147 54.299 66.8619 58.3529 66.8619C61.2612 66.8619 63.9785 67.4826 66.5049 68.7241C68.9432 69.936 70.9261 71.5913 72.4537 73.69C69.6923 78.449 64.4633 81.1685 56.7666 81.8483Z" fill="#BFA56F"/>
<path d="M74.4366 77.6362C74.8479 78.9663 75.0535 80.326 75.0535 81.7153C75.0535 85.824 73.4231 89.3268 70.1623 92.2236C66.9015 95.1203 62.9651 96.5687 58.353 96.5687C54.7984 96.5687 51.567 95.6672 48.6587 93.8641C45.8386 92.061 43.8263 89.7258 42.6219 86.8586C44.2082 88.4843 46.0736 89.7554 48.2181 90.6717C50.4801 91.6176 52.8596 92.0906 55.3566 92.0906C60.3212 92.0906 64.3751 91.0412 67.5184 88.9425C71.1905 86.5187 73.4965 82.7499 74.4366 77.6362Z" fill="#BFA56F"/>
<path d="M67.8709 80.2521C67.8709 78.7446 68.4144 77.4145 69.5013 76.2617C70.5883 75.1089 71.8368 74.5325 73.2468 74.5325C74.745 74.5325 76.0523 75.0793 77.1686 76.173C78.2849 77.2962 78.8431 78.5968 78.8431 80.0748C78.8431 81.5823 78.2996 82.8977 77.2127 84.0209C76.1257 85.1442 74.8919 85.7058 73.5112 85.7058C71.6018 85.7058 70.1329 85.0703 69.1048 83.7992C68.2822 82.7942 67.8709 81.6119 67.8709 80.2521Z" fill="#0D131A"/>
<path d="M73.2468 84.819C72.0424 84.819 71.0289 84.3608 70.2064 83.4445C69.3545 82.5282 68.9285 81.4197 68.9285 80.1191C68.9285 78.8481 69.3545 77.7544 70.2064 76.8381C71.0583 75.9217 72.0718 75.4636 73.2468 75.4636C74.4513 75.4636 75.4648 75.9217 76.2873 76.8381C77.1392 77.7544 77.5652 78.8481 77.5652 80.1191C77.5652 81.4197 77.1392 82.5282 76.2873 83.4445C75.4648 84.3608 74.4513 84.819 73.2468 84.819Z" fill="#E8528D"/>
<path d="M72.2334 78.6116L71.3961 79.0993C71.1024 79.1289 70.8527 79.055 70.647 78.8777C70.4708 78.7003 70.412 78.4638 70.4708 78.1682C70.5295 77.8431 70.6764 77.5475 70.9114 77.2815C71.1758 77.045 71.4696 76.8972 71.7927 76.8381L72.4977 77.0154C72.674 77.2223 72.7328 77.4736 72.674 77.7692L72.2334 78.6116Z" fill="#F3B3C9"/>
<path d="M76.3314 78.2569C76.3314 77.6361 76.2285 77.0745 76.0229 76.572C77.0511 77.4588 77.5652 78.6412 77.5652 80.1191C77.5652 81.4197 77.1392 82.5282 76.2873 83.4445C75.4648 84.3608 74.4513 84.819 73.2468 84.819C72.3655 84.819 71.5577 84.5382 70.8233 83.9766C70.0889 83.4445 69.5601 82.7351 69.2369 81.8483C70.0301 82.5873 70.9555 82.9568 72.013 82.9568C73.2175 82.9568 74.2309 82.4986 75.0535 81.5823C75.9054 80.6659 76.3314 79.5575 76.3314 78.2569Z" fill="#C9467C"/>
<path d="M68.2675 100.293C68.5613 98.8152 69.3544 97.692 70.647 96.9234C71.8221 96.1845 73.0559 95.948 74.3484 96.214C75.6998 96.4801 76.7573 97.219 77.5211 98.431C78.2849 99.6724 78.5199 101.032 78.2261 102.51C77.9618 103.722 77.2714 104.712 76.1551 105.481C74.9507 106.279 73.6287 106.53 72.1893 106.235C70.7204 105.909 69.6188 105.141 68.8844 103.929C68.2088 102.806 68.0031 101.594 68.2675 100.293Z" fill="#0D131A"/>
<path d="M72.3655 105.392C71.308 105.185 70.4854 104.594 69.8979 103.619C69.3398 102.643 69.1782 101.594 69.4132 100.471C69.6188 99.3177 70.177 98.4162 71.0877 97.7659C71.9983 97.1156 72.9824 96.8939 74.04 97.1008C75.0975 97.3373 75.9201 97.9284 76.5076 98.8743C77.0658 99.8498 77.2273 100.899 76.9923 102.022C76.7867 103.175 76.2285 104.077 75.3179 104.727C74.4072 105.377 73.4231 105.599 72.3655 105.392Z" fill="#E8528D"/>
<path d="M72.5859 99.7167L71.1317 99.6724C70.9849 99.4655 70.9702 99.229 71.0877 98.963C71.1758 98.697 71.3668 98.4753 71.6605 98.2979C71.9249 98.1206 72.1893 98.0467 72.4537 98.0762C72.7474 98.0762 72.9531 98.1797 73.0706 98.3866C73.2175 98.5639 73.2322 98.7856 73.1147 99.0517L72.5859 99.7167Z" fill="#F3B3C9"/>
<path d="M76.2432 100.16L76.2873 98.6083C77.0217 99.6428 77.2567 100.781 76.9923 102.022C76.7867 103.175 76.2285 104.077 75.3179 104.727C74.4072 105.377 73.4231 105.599 72.3655 105.392C71.5724 105.215 70.8967 104.816 70.3386 104.195C69.8098 103.574 69.4866 102.85 69.3691 102.022C69.9273 102.791 70.6764 103.293 71.6164 103.53C72.6446 103.737 73.614 103.515 74.5247 102.865C75.4648 102.185 76.0376 101.283 76.2432 100.16Z" fill="#C9467C"/>
<path d="M68.4879 116.078C69.3104 115.22 70.3386 114.777 71.5724 114.748C72.8062 114.718 73.9078 115.147 74.8772 116.033C75.7879 116.831 76.302 117.851 76.4195 119.093C76.537 120.334 76.2139 121.354 75.4501 122.152C74.6275 123.039 73.5259 123.453 72.1452 123.394C70.8233 123.364 69.7657 122.95 68.9726 122.152C68.0619 121.265 67.5478 120.26 67.4303 119.137C67.3128 117.984 67.6653 116.964 68.4879 116.078Z" fill="#0D131A"/>
<path d="M69.6335 121.487C68.8991 120.837 68.5025 120.053 68.4438 119.137C68.385 118.221 68.6788 117.423 69.3251 116.743C69.9714 116.063 70.7792 115.708 71.7486 115.679C72.6887 115.62 73.5259 115.915 74.2603 116.565C74.9947 117.216 75.3913 117.999 75.4501 118.915C75.5088 119.861 75.2151 120.659 74.5688 121.31C73.9225 121.99 73.1293 122.344 72.1893 122.374C71.2199 122.403 70.3679 122.108 69.6335 121.487Z" fill="#E8528D"/>
<path d="M72.1011 117.674L71.352 117.452C71.1464 117.334 71.0289 117.171 70.9995 116.964C70.9702 116.758 71.0583 116.595 71.2639 116.477C71.4402 116.329 71.6605 116.27 71.9249 116.299L72.674 116.521L73.0265 116.964L72.7621 117.452L72.1011 117.674Z" fill="#F3B3C9"/>
<path d="M75.406 118.605C75.5823 119.61 75.3032 120.512 74.5688 121.31C73.9225 121.989 73.1293 122.344 72.1893 122.374C71.2199 122.403 70.368 122.108 69.6335 121.487C69.0754 121.014 68.7229 120.438 68.576 119.758C68.3997 119.078 68.4291 118.428 68.6641 117.807C68.7522 118.575 69.1341 119.255 69.8098 119.846C70.5442 120.467 71.3961 120.763 72.3656 120.733C73.3056 120.704 74.0988 120.349 74.745 119.669C75.0682 119.374 75.2885 119.019 75.406 118.605Z" fill="#C9467C"/>
<path d="M78.5787 109.072C79.46 108.511 80.4588 108.318 81.5751 108.496C82.7208 108.673 83.6608 109.22 84.3952 110.136C85.0415 110.934 85.3206 111.866 85.2324 112.93C85.1443 114.053 84.6302 114.925 83.6902 115.546C82.897 116.048 81.8982 116.196 80.6938 115.989C79.5187 115.782 78.6374 115.324 78.0499 114.615C77.4036 113.816 77.0805 112.9 77.0805 111.866C77.0805 110.654 77.5799 109.722 78.5787 109.072Z" fill="#0D131A"/>
<path d="M82.6326 109.693L83.602 110.491C84.1308 111.171 84.3365 111.895 84.2189 112.664C84.1014 113.462 83.7049 114.082 83.0292 114.526C82.3535 114.969 81.5751 115.117 80.6938 114.969C79.8419 114.821 79.1515 114.408 78.6227 113.728L78.3583 113.284C78.8871 113.61 79.46 113.772 80.0769 113.772C80.7231 113.772 81.296 113.61 81.7954 113.284C82.4123 112.9 82.7942 112.353 82.9411 111.644C83.088 110.964 82.9851 110.314 82.6326 109.693Z" fill="#C9467C"/>
<path d="M81.7954 113.284C81.296 113.609 80.7232 113.772 80.0769 113.772C79.46 113.772 78.8871 113.609 78.3584 113.284C78.0058 112.664 77.903 112.013 78.0499 111.333C78.1968 110.624 78.5787 110.077 79.1956 109.693C79.695 109.368 80.2678 109.205 80.9141 109.205C81.531 109.205 82.1039 109.368 82.6326 109.693C82.9852 110.314 83.088 110.964 82.9411 111.644C82.7942 112.353 82.4123 112.9 81.7954 113.284Z" fill="#E8528D"/>
<path d="M80.7819 110.801L80.165 111.023L79.6362 110.801C79.5481 110.683 79.5481 110.535 79.6362 110.358C79.695 110.151 79.8272 109.989 80.0328 109.87C80.2678 109.723 80.4881 109.649 80.6938 109.649L81.1785 109.826C81.4135 110.122 81.2813 110.447 80.7819 110.801Z" fill="#F3B3C9"/>
<path d="M92.3269 100.914C93.3257 101.15 94.1335 101.668 94.7504 102.466C95.3967 103.293 95.6464 104.18 95.4995 105.126C95.382 105.983 94.912 106.663 94.0895 107.166C93.1788 107.727 92.1212 107.905 90.9168 107.698C89.9474 107.52 89.1836 107.018 88.6254 106.19C88.1554 105.422 87.9645 104.638 88.0526 103.84C88.1407 102.924 88.5961 102.155 89.4186 101.535C90.2705 100.884 91.2399 100.677 92.3269 100.914Z" fill="#0D131A"/>
<path d="M92.2828 105.303C92.841 104.949 93.1935 104.461 93.3404 103.84C93.4579 103.249 93.355 102.673 93.0319 102.111C93.4138 102.318 93.7076 102.554 93.9132 102.82C94.3832 103.412 94.5742 104.062 94.486 104.771C94.3685 105.481 94.016 106.028 93.4285 106.412C92.8116 106.826 92.1065 106.959 91.3134 106.811C90.5496 106.663 89.9327 106.294 89.4627 105.702L89.1983 105.348C90.3146 105.968 91.3428 105.954 92.2828 105.303Z" fill="#C9467C"/>
<path d="M92.2828 105.303C91.3427 105.954 90.3146 105.969 89.1983 105.348C88.8751 104.757 88.787 104.165 88.9339 103.574C89.0808 102.953 89.4333 102.466 89.9914 102.111C90.4321 101.815 90.9315 101.668 91.4896 101.668C92.0478 101.668 92.5619 101.815 93.0319 102.111C93.355 102.673 93.4578 103.249 93.3403 103.84C93.1935 104.461 92.8409 104.949 92.2828 105.303Z" fill="#E8528D"/>
<path d="M91.4015 103.086C90.9021 103.352 90.5643 103.352 90.388 103.086C90.1824 102.82 90.2999 102.54 90.7405 102.244L91.3134 102.022L91.754 102.2C91.989 102.495 91.8715 102.791 91.4015 103.086Z" fill="#F3B3C9"/>
<path d="M99.7738 89.3416C100.802 89.4894 101.61 89.918 102.197 90.6274C102.756 91.2777 103.02 92.0019 102.991 92.8C102.961 93.6276 102.506 94.3075 101.625 94.8395C100.802 95.3421 99.906 95.4898 98.9366 95.2829C97.9965 95.076 97.2768 94.6474 96.7774 93.9971C96.3368 93.4355 96.1311 92.8147 96.1605 92.1349C96.1899 91.189 96.6452 90.45 97.5265 89.918C98.2903 89.445 99.0394 89.2529 99.7738 89.3416Z" fill="#0D131A"/>
<path d="M101.404 90.8934C101.874 91.3959 102.08 91.9723 102.021 92.6226C101.962 93.2433 101.669 93.7606 101.14 94.1744C100.611 94.5587 99.9941 94.7065 99.2891 94.6178C98.6134 94.5291 98.0406 94.2336 97.5706 93.7311L97.3062 93.4207C98.3637 93.8936 99.2891 93.8197 100.082 93.199C100.552 92.8443 100.831 92.3861 100.919 91.8245C101.008 91.2924 100.89 90.7751 100.567 90.2726C100.89 90.4204 101.169 90.6274 101.404 90.8934Z" fill="#C9467C"/>
<path d="M97.8349 90.45C98.2168 90.1544 98.6575 89.9918 99.1569 89.9623L100.567 90.2726C100.89 90.7752 101.008 91.2924 100.919 91.8245C100.831 92.3861 100.552 92.8443 100.082 93.199C99.2891 93.8197 98.3637 93.8936 97.3062 93.4207C96.983 92.9182 96.8802 92.3861 96.9977 91.8245C97.0858 91.2629 97.3649 90.8047 97.8349 90.45Z" fill="#E8528D"/>
<path d="M99.1569 91.2481L98.2316 91.3368C98.0259 91.1299 98.114 90.8638 98.4959 90.5387L99.4213 90.45C99.6269 90.716 99.5388 90.9821 99.1569 91.2481Z" fill="#F3B3C9"/>
<path d="M35.3952 84.42C35.3952 82.7647 35.9975 81.3754 37.2019 80.2521C38.3182 79.188 39.5814 78.6559 40.9915 78.6559C42.4603 78.6559 43.7235 79.2176 44.781 80.3408C45.8386 81.4641 46.3673 82.7794 46.3673 84.2869C46.3967 85.8536 45.8973 87.1837 44.8691 88.2774C43.8116 89.4007 42.4897 89.9623 40.9033 89.9623C39.7576 89.9623 38.656 89.5928 37.5985 88.8538C36.1296 87.8193 35.3952 86.3413 35.3952 84.42Z" fill="#0D131A"/>
<path d="M40.9033 88.9425C39.6989 88.9425 38.6854 88.4843 37.8629 87.568C37.011 86.6517 36.585 85.5432 36.585 84.2426C36.585 82.9715 37.011 81.8779 37.8629 80.9615C38.7148 80.0452 39.7283 79.587 40.9033 79.587C42.1078 79.587 43.1213 80.0452 43.9438 80.9615C44.7957 81.8779 45.2217 82.9715 45.2217 84.2426C45.2217 85.5432 44.7957 86.6517 43.9438 87.568C43.1213 88.4843 42.1078 88.9425 40.9033 88.9425Z" fill="#E8528D"/>
<path d="M39.8458 82.7351L39.0086 83.1785C38.7148 83.2376 38.4798 83.1785 38.3035 83.0011C38.1273 82.7942 38.0685 82.543 38.1273 82.2474C38.1566 81.9222 38.3035 81.6414 38.5679 81.4049C38.8029 81.1389 39.082 80.9911 39.4051 80.9615L40.1102 81.1389C40.3158 81.3163 40.3892 81.5675 40.3305 81.8927L39.8458 82.7351Z" fill="#F3B3C9"/>
<path d="M40.9033 88.9425C39.9927 88.9425 39.1701 88.6617 38.4357 88.1001C37.7307 87.568 37.2166 86.8586 36.8934 85.9718C37.716 86.7108 38.6413 87.0803 39.6695 87.0803C40.8739 87.0803 41.8874 86.6221 42.71 85.7058C43.5619 84.7894 43.9879 83.681 43.9879 82.3804L43.6794 80.6512C44.7076 81.6266 45.2217 82.8238 45.2217 84.2426C45.2217 85.5432 44.7957 86.6517 43.9438 87.568C43.1212 88.4843 42.1078 88.9425 40.9033 88.9425Z" fill="#C9467C"/>
<path d="M42.4456 104.727C42.1812 103.338 42.475 102.022 43.3269 100.781C44.1788 99.5099 45.2951 98.7413 46.6758 98.4753C47.9096 98.2388 49.1141 98.564 50.2891 99.4508C51.4642 100.308 52.1839 101.402 52.4483 102.732C52.7127 104.032 52.4924 105.244 51.7873 106.368C51.0529 107.58 49.9954 108.318 48.6147 108.585C47.0871 108.91 45.7211 108.658 44.5167 107.831C43.4003 107.062 42.71 106.028 42.4456 104.727Z" fill="#0D131A"/>
<path d="M48.3062 107.742C47.2487 107.949 46.2792 107.712 45.3979 107.033C44.5167 106.382 43.9585 105.481 43.7235 104.328C43.5179 103.205 43.6941 102.17 44.2523 101.224C44.8398 100.278 45.6623 99.6872 46.7199 99.4507C47.7774 99.2438 48.7616 99.4803 49.6722 100.16C50.5829 100.81 51.1411 101.712 51.3467 102.865C51.5817 103.988 51.3907 105.037 50.7738 106.013C50.1863 106.959 49.3638 107.535 48.3062 107.742Z" fill="#E8528D"/>
<path d="M46.3674 102.421C45.9267 103.042 45.4714 103.22 45.0014 102.953C44.7957 102.835 44.6929 102.628 44.6929 102.333C44.6929 102.037 44.781 101.756 44.9573 101.49C45.1335 101.224 45.3539 101.047 45.6183 100.958L46.3233 101.003L46.6317 101.623L46.3674 102.421Z" fill="#F3B3C9"/>
<path d="M49.9366 101.446C49.7897 100.796 49.5988 100.308 49.3638 99.9828C50.4213 100.604 51.0823 101.564 51.3467 102.865C51.5817 103.988 51.3907 105.037 50.7738 106.013C50.1863 106.959 49.3638 107.535 48.3062 107.742L46.0148 107.432C45.2804 107.077 44.6929 106.545 44.2523 105.835C45.1336 106.338 46.0148 106.501 46.8961 106.323C47.9537 106.116 48.7762 105.525 49.3638 104.55C49.9807 103.604 50.1716 102.569 49.9366 101.446Z" fill="#C9467C"/>
<path d="M43.3269 120.113C43.0919 119.048 43.2828 118.029 43.8997 117.053C44.6048 115.989 45.6183 115.339 46.9402 115.102C48.2034 114.895 49.3638 115.117 50.4213 115.767C51.4201 116.418 52.037 117.275 52.272 118.339C52.5658 119.58 52.3308 120.689 51.567 121.664C50.8326 122.551 49.8632 123.098 48.6587 123.305C47.278 123.541 46.0883 123.334 45.0895 122.684C44.1494 122.093 43.5619 121.236 43.3269 120.113Z" fill="#0D131A"/>
<path d="M48.4384 122.462C47.4983 122.61 46.617 122.433 45.7945 121.93C45.0013 121.398 44.5019 120.674 44.2963 119.758C44.0907 118.841 44.2669 117.999 44.8251 117.23C45.3539 116.462 46.0883 116.004 47.0283 115.856C47.9684 115.679 48.8497 115.856 49.6722 116.388C50.4654 116.92 50.9648 117.644 51.1704 118.561C51.376 119.477 51.2145 120.305 50.6857 121.044C50.1275 121.812 49.3784 122.285 48.4384 122.462Z" fill="#E8528D"/>
<path d="M46.6758 118.206L46.103 118.649L45.4861 118.605C45.3098 118.487 45.2217 118.324 45.2217 118.117C45.1923 117.881 45.2658 117.659 45.442 117.452L46.0149 117.009L46.6318 117.053L46.9402 117.541L46.6758 118.206Z" fill="#F3B3C9"/>
<path d="M50.6857 121.044C50.1276 121.812 49.3785 122.285 48.4384 122.462L46.3674 122.196C45.7211 121.93 45.207 121.502 44.8251 120.911C45.5301 121.324 46.3233 121.457 47.2046 121.31C48.1446 121.162 48.8791 120.704 49.4078 119.935C49.9366 119.167 50.0982 118.324 49.8925 117.408L49.4078 116.211C50.3479 116.743 50.9354 117.526 51.1704 118.561C51.3761 119.477 51.2145 120.305 50.6857 121.044Z" fill="#C9467C"/>
<path d="M82.0598 45.3576C83.4699 52.777 82.0745 59.4869 77.8736 65.4874C73.6728 71.4879 67.6066 75.3897 59.6749 77.1928C51.2145 79.0845 43.6207 77.9761 36.8934 73.8674C30.46 69.936 26.4354 64.3493 24.8197 57.1074C23.3803 50.4861 24.5847 44.1309 28.433 38.0418C32.7807 31.2432 39.4051 26.898 48.3062 25.0062C56.4729 23.2918 63.8904 24.5776 70.5589 28.8637C76.9042 32.9428 80.7378 38.4408 82.0598 45.3576Z" fill="#0D131A"/>
<path d="M69.1488 29.7948C75.3473 33.6375 79.1074 39.0172 80.4294 45.9341C81.722 52.8213 80.2091 59.2209 75.8907 65.1327C71.543 71.0149 65.653 74.6802 58.2208 76.1286C50.7885 77.577 43.9585 76.3651 37.7307 72.4929C31.5322 68.6206 27.772 63.2409 26.4501 56.3536C25.1282 49.4664 26.641 43.0668 30.9888 37.155C35.3071 31.2728 41.1971 27.6074 48.6587 26.1591C56.1203 24.7107 62.9504 25.9226 69.1488 29.7948Z" fill="#E3C582"/>
<path d="M66.9897 28.5977C70.4855 30.3416 73.3937 32.6916 75.7145 35.6475C78.1233 38.6921 79.695 42.1209 80.4294 45.934C81.722 52.8213 80.2091 59.2208 75.8907 65.1327C71.543 71.0149 65.653 74.6802 58.2208 76.1286C53.7262 76.9858 49.3197 76.838 45.0014 75.6852C40.8299 74.5324 37.1872 72.552 34.0733 69.7439C39.8311 72.6407 45.9561 73.4535 52.4483 72.1825C59.8805 70.7341 65.7705 67.0688 70.1182 61.1865C74.4366 55.2747 75.9348 48.8752 74.6129 41.9879C73.614 36.6968 71.073 32.2334 66.9897 28.5977Z" fill="#BFA56F"/>
<path d="M40.1542 57.5065C39.6548 54.8757 40.4186 52.2006 42.4456 49.4812C44.737 46.4957 47.8803 44.6187 51.8755 43.8502C55.7532 43.0816 59.3077 43.5694 62.5391 45.3134C65.653 47.0278 67.4744 49.3334 68.0031 52.2302C68.5613 55.2156 67.7534 58.0533 65.5796 60.7432C63.2882 63.4922 60.1743 65.2509 56.2379 66.0195C52.9477 66.6402 49.7457 66.3003 46.6318 64.9997C42.9597 63.4626 40.8005 60.9649 40.1542 57.5065Z" fill="#0D131A"/>
<path d="M55.9735 64.8223C52.5364 65.5021 49.4225 65.1031 46.6318 63.6251C43.841 62.1472 42.1812 60.0485 41.6524 57.3291C41.1237 54.5801 41.8875 52.0084 43.9438 49.6141C46.0002 47.2199 48.7469 45.6828 52.1839 45.0029C55.621 44.3526 58.7349 44.7517 61.5256 46.2001C64.3164 47.678 65.9762 49.7767 66.5049 52.4962C67.0043 55.2451 66.2406 57.8168 64.2136 60.2111C62.1572 62.6349 59.4105 64.172 55.9735 64.8223Z" fill="#E8528D"/>
<path d="M49.2756 51.8754C48.365 52.3188 47.513 52.4962 46.7199 52.4075C46.0148 52.3188 45.5595 52.0971 45.3539 51.7424C45.1189 51.2399 45.2364 50.6635 45.7064 50.0132C46.1764 49.3629 46.8227 48.8309 47.6452 48.417C48.5265 47.9736 49.3784 47.7963 50.201 47.885C50.9354 47.9736 51.4054 48.2249 51.6111 48.6387C51.8461 49.1708 51.7726 49.7176 51.3907 50.2792C50.9501 50.9 50.245 51.432 49.2756 51.8754Z" fill="#F3B3C9"/>
<path d="M55.9735 64.8223L49.0994 64.6006C46.9842 64.0094 45.251 63.0044 43.8997 61.5856C46.5142 62.6793 49.3344 62.9453 52.3601 62.3837C55.7972 61.7334 58.5439 60.1963 60.6003 57.7724C62.6272 55.3782 63.391 52.8065 62.8916 50.0575C62.5978 48.4613 61.8487 47.0425 60.6443 45.801C62.2013 46.4513 63.4938 47.3529 64.522 48.5057C65.5502 49.688 66.2112 51.0182 66.5049 52.4962C67.0043 55.2451 66.2405 57.8168 64.2136 60.2111C62.1572 62.6349 59.4105 64.172 55.9735 64.8223Z" fill="#C9467C"/>
<path d="M65.3152 43.2738C64.4633 43.4216 63.6701 43.259 62.9357 42.7861C62.2013 42.2835 61.7606 41.6037 61.6137 40.7465C61.4375 39.8893 61.5991 39.0912 62.0985 38.3522C62.5979 37.6132 63.2735 37.1698 64.1254 37.022C64.9773 36.8447 65.7705 37.0073 66.5049 37.5098C67.2393 38.0123 67.68 38.6921 67.8269 39.5493C68.0031 40.4065 67.8416 41.2046 67.3422 41.9436C66.8428 42.653 66.1671 43.0964 65.3152 43.2738Z" fill="#0D131A"/>
<path d="M63.9933 40.3474L63.0679 40.1257C62.7741 39.9484 62.5979 39.6971 62.5391 39.372C62.5098 39.0468 62.5832 38.7365 62.7595 38.4409L63.5086 37.9088C63.8611 37.8792 64.1695 37.9531 64.4339 38.1305C64.7277 38.3078 64.9039 38.5591 64.9627 38.8842L64.7424 39.8154L63.9933 40.3474Z" fill="white"/>
<path d="M35.3512 45.801C35.2043 44.9438 35.3659 44.1457 35.8359 43.4068C36.3353 42.6678 37.0109 42.2244 37.8629 42.0766C38.7148 41.8992 39.5079 42.0618 40.2423 42.5643C40.9768 43.0668 41.4321 43.7467 41.6084 44.6039C41.7552 45.4611 41.579 46.2592 41.0796 46.9982C40.6096 47.7076 39.9486 48.151 39.0967 48.3283C38.2447 48.5057 37.4516 48.3431 36.7172 47.8406C35.9828 47.3381 35.5274 46.6583 35.3512 45.801Z" fill="#0D131A"/>
<path d="M37.7307 45.4907L36.8494 45.3133C36.5556 45.1064 36.3794 44.8404 36.3206 44.5152C36.2619 44.1901 36.3206 43.8797 36.4969 43.5841C36.7025 43.2885 36.9669 43.1112 37.29 43.052C37.6132 43.0225 37.9216 43.0964 38.2154 43.2737C38.4798 43.4511 38.6414 43.7023 38.7001 44.0275C38.7589 44.3526 38.7001 44.663 38.5239 44.9586C38.3182 45.2542 38.0538 45.4316 37.7307 45.4907Z" fill="white"/>
<path d="M53.5499 13.3452L59.9393 24.4298C60.4093 25.3462 60.6443 26.0852 60.6443 26.6468C60.6443 27.2675 60.3652 27.8291 59.8071 28.3316C57.7214 30.1347 54.6221 31.3319 50.5094 31.9231C46.4261 32.5143 43.1359 32.263 40.6389 31.1693C39.8164 30.8146 39.317 30.3564 39.1407 29.7948C38.9645 29.2628 38.9645 28.243 39.1407 26.7355C39.4639 23.8978 40.2424 20.0994 41.4762 15.3404C42.6219 10.9066 43.65 7.53685 44.5607 5.23124C45.1776 3.63505 45.6476 2.8074 45.9708 2.74828C46.3233 2.68916 46.9989 3.32468 47.9977 4.65484L53.5499 13.3452Z" fill="#0D131A"/>
<path d="M45.5742 5.89634L46.103 4.65486C46.2792 4.59574 46.6317 4.96523 47.1605 5.76332C49.8044 9.69468 53.4912 15.976 58.2208 24.6072C58.7495 25.5827 58.9552 26.3216 58.8377 26.8242C58.7202 27.3267 58.2061 27.8587 57.2954 28.4203C55.4447 29.6027 53.0799 30.4008 50.201 30.8146L43.0625 30.5929C41.9168 30.2973 41.1971 29.987 40.9033 29.6618C40.6389 29.3367 40.5508 28.7455 40.6389 27.8883C40.874 25.6418 41.4468 22.4642 42.3575 18.3555C43.3563 13.8329 44.4285 9.6799 45.5742 5.89634Z" fill="#CAD3CC"/>
<path d="M58.2208 24.6072C58.7495 25.5827 58.9552 26.3216 58.8377 26.8242C58.7202 27.3267 58.2061 27.8587 57.2954 28.4203C55.4447 29.6027 53.0799 30.4008 50.201 30.8146L43.0625 30.5929C41.9168 30.2973 41.1971 29.987 40.9033 29.6618C40.6389 29.3367 40.5508 28.7455 40.6389 27.8883L40.8152 26.3808C41.4321 27.0902 42.7541 27.5483 44.781 27.7553C46.8374 27.9326 48.7909 27.7405 50.6416 27.1789C55.6063 25.6122 56.7813 22.3312 54.1668 17.3357L58.2208 24.6072Z" fill="#A6ADA8"/>
<path d="M103.431 80.0304C104.342 80.1782 105.062 80.5773 105.59 81.2276C106.09 81.7892 106.325 82.4247 106.295 83.1341C106.266 83.9026 105.855 84.5234 105.062 84.9963C104.327 85.4397 103.519 85.5727 102.638 85.3954C101.815 85.218 101.169 84.8338 100.699 84.2426C100.317 83.7105 100.141 83.1489 100.17 82.5577C100.2 81.7301 100.596 81.065 101.36 80.5625C102.065 80.1191 102.756 79.9417 103.431 80.0304Z" fill="#0D131A"/>
<path d="M102.991 84.7747C102.344 84.7155 101.815 84.4495 101.404 83.9766L101.184 83.7105C102.095 84.1835 102.932 84.1244 103.696 83.5332C104.107 83.2376 104.357 82.8238 104.445 82.2917C104.533 81.7892 104.43 81.3162 104.136 80.8729L104.885 81.4493C105.297 81.8927 105.473 82.4099 105.414 83.0011C105.355 83.5627 105.091 84.0209 104.621 84.3756C104.151 84.7303 103.607 84.8633 102.991 84.7747Z" fill="#C9467C"/>
<path d="M103.696 83.5332C102.932 84.1244 102.095 84.1835 101.184 83.7106C100.89 83.2672 100.787 82.7942 100.875 82.2917C100.964 81.7597 101.213 81.3458 101.625 81.0502C102.418 80.4886 103.255 80.4295 104.136 80.8729C104.43 81.3163 104.533 81.7892 104.445 82.2917C104.357 82.8238 104.107 83.2376 103.696 83.5332Z" fill="#E8528D"/>
<path d="M102.858 81.7596L102.021 81.8483C101.815 81.6414 101.904 81.4049 102.285 81.1389L102.726 80.9615L103.079 81.0502C103.284 81.2571 103.211 81.4936 102.858 81.7596Z" fill="#F3B3C9"/>
</g>
<defs>
<clipPath id="clip0_83_469">
<rect width="84" height="121" fill="white" transform="translate(22.5 2.65961)"/>
</clipPath>
</defs>
</svg>
