<svg width="127" height="126" viewBox="0 0 127 126" fill="none" xmlns="http://www.w3.org/2000/svg">
<g clip-path="url(#clip0_83_564)">
<path d="M101.646 108.488C101.702 108.892 101.678 109.297 101.573 109.702C101.469 110.106 101.304 110.434 101.078 110.685C100.805 111.001 100.491 111.15 100.137 111.134C99.7584 111.126 99.2433 111.029 98.5913 110.843L96.7441 110.212C95.6092 109.807 94.8405 109.568 94.4381 109.495L91.9872 109.313L89.4276 109.41L88.8481 109.447L86.6387 107.067L87.5683 106.691C88.5342 106.416 89.8824 106.238 91.6129 106.157L93.8465 105.853L96.1163 105.659C96.897 105.708 97.9112 105.987 99.1588 106.497C100.712 107.12 101.541 107.784 101.646 108.488Z" fill="#0D131A"/>
<path d="M98.7 110.224L96.9494 109.629C95.6857 109.192 94.8848 108.945 94.5468 108.888L92.0114 108.706L89.4035 108.791L89.1017 108.815L87.2303 106.8C87.9547 106.889 88.7636 106.909 89.657 106.861L92.0234 106.618L93.8827 106.29L95.7662 106.145C96.4745 106.193 97.4726 106.481 98.7604 107.007C100.209 107.589 100.966 108.115 101.03 108.585C101.078 108.892 101.066 109.204 100.994 109.52C100.913 109.835 100.789 110.086 100.62 110.272C100.475 110.442 100.318 110.527 100.149 110.527C99.8108 110.519 99.3278 110.418 98.7 110.224Z" fill="#B6AED1"/>
<path d="M100.994 109.459C100.93 109.799 100.805 110.07 100.62 110.272C100.475 110.442 100.318 110.527 100.149 110.527C99.8108 110.519 99.3278 110.418 98.7 110.224L96.9494 109.629C95.6857 109.192 94.8848 108.945 94.5468 108.888C93.5004 108.694 91.9872 108.654 90.0072 108.767C90.3613 108.395 91.0737 108.132 92.1442 107.978C93.8264 107.719 95.5408 107.788 97.2874 108.184C98.374 108.427 99.6096 108.852 100.994 109.459Z" fill="#9B94B3"/>
<path d="M80.4571 90.7756L80.7589 91.1156L80.6261 92.0018C80.5537 92.3174 80.5255 92.5481 80.5416 92.6937C80.5658 92.9042 80.6664 93.1591 80.8435 93.4585L81.9542 95.4859C83.9262 99.1683 85.1698 101.451 85.6849 102.333C87.3752 105.214 88.5986 106.816 89.3552 107.14C89.9428 107.399 90.5183 107.585 91.0817 107.699L92.8927 107.905L95.3919 108.148C96.5429 108.221 97.6134 108.472 98.6034 108.9C99.7061 109.386 100.604 110.05 101.296 110.891C102.012 111.757 101.912 112.745 100.994 113.854C100.688 114.226 100.326 114.477 99.9074 114.606L98.8087 114.558C98.374 114.307 97.8026 113.898 97.0943 113.332C96.5872 112.927 96.2089 112.64 95.9594 112.47C95.5247 112.178 95.1102 111.964 94.7158 111.826C94.1282 111.616 93.4964 111.458 92.8203 111.353L90.9127 111.159L91.1058 111.304C92.0959 112.105 92.7961 112.725 93.2066 113.162C93.923 113.93 94.2812 114.61 94.2812 115.201L94.2329 115.541C94.0316 116.383 93.0376 116.986 91.2507 117.35C90.3412 117.536 89.5806 117.241 88.9689 116.464C88.6066 116.01 88.1801 115.157 87.6891 113.902C87.2625 112.801 86.9003 112.053 86.6025 111.656C85.9666 110.839 85.4756 110.39 85.1295 110.309C84.6546 110.195 83.7129 110.394 82.3043 110.904C81.3626 111.235 80.5094 111.333 79.7448 111.195C79.0043 111.065 78.3765 110.726 77.8613 110.175C77.2416 109.52 77.149 108.694 77.5836 107.699C77.8251 107.14 78.1954 106.784 78.6944 106.63L80.1915 106.521L80.771 106.679H81.1694L83.8739 106.436C83.1173 104.243 81.4109 101.119 78.7548 97.0641C78.5374 96.7404 78.2074 96.3276 77.7647 95.8258L76.9679 95.0125C76.6942 94.7373 76.5373 94.4985 76.497 94.2962C76.489 94.2234 76.5091 94.1101 76.5574 93.9563L76.6298 93.6406C76.6298 93.3574 76.6982 92.9568 76.8351 92.4388L77.1128 91.9168C77.2416 91.7145 77.3059 91.5243 77.3059 91.3462L77.1731 91.2248L77.0403 91.1034L77.3422 90.7756H80.4571Z" fill="#0D131A"/>
<path d="M80.0949 91.3947L80.0225 91.8803L79.9259 92.5844C79.9259 92.9325 80.0547 93.329 80.3122 93.7742L81.423 95.7772C83.234 99.1521 84.6627 101.669 85.709 103.328C87.2383 105.764 88.4095 107.156 89.2224 107.504C89.8261 107.763 90.5263 107.95 91.3232 108.063L93.4602 108.257L94.0397 108.293C95.1585 108.366 96.3779 108.666 97.6979 109.192C99.1628 109.766 100.205 110.43 100.825 111.183C100.978 111.361 101.062 111.583 101.078 111.85V112.457C101.078 112.66 101.006 112.862 100.861 113.064L100.523 113.453C100.322 113.704 100.08 113.886 99.7987 113.999L99.1105 114.024C98.7725 113.837 98.2292 113.449 97.4806 112.858C96.8045 112.316 95.9674 111.867 94.9693 111.511C93.3595 110.944 91.8946 110.612 90.5746 110.515L89.7778 110.042L89.3069 109.993L90.8644 111.656C91.6773 112.304 92.3293 112.923 92.8203 113.514C93.4803 114.299 93.7539 114.926 93.6413 115.395C93.5044 115.986 92.6673 116.435 91.13 116.743C90.4378 116.88 89.8663 116.727 89.4156 116.282C89.0051 115.893 88.5906 115.157 88.172 114.072L87.6891 112.591C87.4798 111.968 87.2786 111.531 87.0854 111.28C86.4254 110.438 85.6728 109.961 84.8277 109.847C84.1274 109.758 83.2179 109.916 82.0991 110.321C81.4069 110.572 80.7066 110.681 79.9983 110.649C79.2337 110.616 78.6783 110.414 78.3322 110.042C78.1229 109.815 77.9982 109.499 77.9579 109.095C77.9257 108.698 77.9861 108.318 78.139 107.954C78.3161 107.549 78.5334 107.286 78.791 107.164C79.0244 107.051 79.4268 107.003 79.9983 107.019L80.7952 107.152H80.9038L83.3185 106.995C84.3649 106.881 84.8921 106.752 84.9001 106.606C84.9082 106.477 84.8035 106.392 84.5862 106.351L84.2482 106.339C83.7813 104.882 83.0006 103.15 81.9059 101.143C81.1091 99.6701 80.2277 98.1971 79.2618 96.7241L78.2235 95.4252L77.6078 94.6725C77.4146 94.4216 77.3059 94.2193 77.2818 94.0655L77.2456 93.6406C77.2456 93.3816 77.3059 93.0336 77.4267 92.5966C77.5555 92.1515 77.6239 91.7508 77.6319 91.3947C77.9056 91.0548 78.3362 90.9496 78.9238 91.0791L80.0949 91.3947Z" fill="#B6AED1"/>
<path d="M84.6586 106.363L84.3809 106.339H84.2481C83.7894 104.882 83.0126 103.154 81.918 101.155C81.1211 99.6822 80.2398 98.2133 79.2739 96.7484C80.2881 97.7034 81.3586 99.2371 82.4854 101.349C83.4674 103.187 84.1918 104.858 84.6586 106.363Z" fill="#9B94B3"/>
<path d="M100.245 113.732C100.052 113.886 99.851 113.991 99.6417 114.048L99.1105 114.024C98.7725 113.837 98.2292 113.449 97.4806 112.858C96.8045 112.316 95.9674 111.867 94.9693 111.511C93.3595 110.944 91.8946 110.612 90.5746 110.515L89.7778 110.042C91.2185 109.945 92.8323 110.151 94.6192 110.661C96.9212 111.316 98.7966 112.34 100.245 113.732Z" fill="#9B94B3"/>
<path d="M87.6891 112.591C87.4798 111.968 87.2786 111.531 87.0854 111.28C86.4254 110.438 85.6728 109.961 84.8277 109.847C84.1274 109.758 83.2179 109.916 82.0991 110.321C81.4069 110.572 80.7066 110.681 79.9983 110.649C79.2337 110.616 78.6783 110.414 78.3322 110.042C78.1792 109.88 78.0706 109.653 78.0062 109.362L79.2256 109.398L79.9983 109.435L81.3264 109.556L82.8959 109.507L84.4775 109.337C85.1859 109.313 85.6768 109.37 85.9505 109.507C86.2886 109.669 86.687 110.005 87.1458 110.515C87.6448 111.065 87.9869 111.575 88.172 112.045C88.4698 112.838 88.8562 113.651 89.331 114.485C89.975 115.61 90.478 116.152 90.8402 116.112L93.3394 115.857C92.945 116.229 92.2085 116.524 91.13 116.743C90.4378 116.88 89.8663 116.727 89.4156 116.282C89.0051 115.893 88.5905 115.157 88.172 114.072L87.6891 112.591Z" fill="#9B94B3"/>
<path d="M76.2918 110.636C75.9296 110.774 75.7284 110.794 75.6881 110.697C75.6398 110.592 75.7525 110.272 76.0262 109.738C76.2757 109.261 76.6781 108.82 77.2335 108.415C77.8291 107.978 78.3724 107.771 78.8634 107.796C79.3222 107.82 79.6723 108.026 79.9138 108.415C80.0748 108.682 80.1553 108.961 80.1553 109.253L80.0828 109.665C80.0184 109.762 79.9098 109.807 79.7569 109.799C79.0566 109.758 77.9016 110.038 76.2918 110.636Z" fill="#0D131A"/>
<path d="M77.318 108.852C77.8573 108.423 78.3644 108.221 78.8393 108.245C79.1371 108.269 79.3665 108.411 79.5275 108.67C79.6402 108.848 79.7086 109.062 79.7327 109.313C78.5817 109.435 77.3663 109.827 76.0865 110.491C76.3522 109.835 76.7627 109.289 77.318 108.852Z" fill="white"/>
<path d="M90.6229 115.796C90.7919 115.472 91.0133 115.205 91.2869 114.995C91.7457 114.63 92.2448 114.554 92.7841 114.764C93.098 114.885 93.3917 115.177 93.6654 115.638C93.8505 115.962 93.9994 116.302 94.1121 116.658C94.5307 118.001 94.5468 119.045 94.1604 119.79C94.0558 119.984 93.9672 120.077 93.8948 120.069C93.7982 120.061 93.6936 119.923 93.5809 119.656C93.2428 118.968 92.8847 118.394 92.5064 117.933C92.0637 117.398 91.4962 116.897 90.804 116.427C90.7074 116.362 90.639 116.277 90.5988 116.172C90.5505 116.043 90.5585 115.917 90.6229 115.796Z" fill="#0D131A"/>
<path d="M92.615 115.201C92.7921 115.266 92.9813 115.448 93.1825 115.747C93.3757 116.039 93.5447 116.395 93.6896 116.816C93.9149 117.471 94.0276 118.127 94.0276 118.782C94.0276 119.074 93.9954 119.349 93.931 119.608C93.593 118.904 93.1704 118.228 92.6633 117.581C92.0918 116.852 91.5365 116.338 90.9972 116.039C91.2065 115.755 91.4238 115.537 91.6492 115.383C91.9953 115.148 92.3172 115.088 92.615 115.201Z" fill="white"/>
<path d="M98.8932 112.931C99.1669 112.308 99.686 112.041 100.451 112.13C100.982 112.186 101.388 112.603 101.67 113.38C101.992 114.206 101.891 115.092 101.368 116.039C101.151 116.435 101.002 116.638 100.922 116.646C100.833 116.646 100.736 116.443 100.632 116.039C100.503 115.561 100.298 115.104 100.016 114.667C99.7182 114.198 99.3802 113.841 99.0019 113.599C98.8006 113.461 98.7644 113.239 98.8932 112.931Z" fill="#0D131A"/>
<path d="M100.27 112.494C100.439 112.534 100.612 112.64 100.789 112.81C100.982 113.004 101.135 113.247 101.248 113.538C101.352 113.854 101.404 114.157 101.404 114.448C101.404 114.95 101.264 115.468 100.982 116.002C100.845 115.468 100.616 114.95 100.294 114.448C99.9476 113.882 99.5733 113.481 99.1709 113.247C99.4848 112.64 99.851 112.389 100.27 112.494Z" fill="white"/>
<path d="M100.185 109.435C100.233 109.03 100.33 108.726 100.475 108.524C100.773 108.103 101.276 107.998 101.984 108.208C102.564 108.378 103.022 108.698 103.36 109.168C103.787 109.75 103.96 110.487 103.88 111.377C103.855 111.644 103.751 111.733 103.566 111.644L102.564 111.037C101.863 110.632 101.284 110.377 100.825 110.272L100.294 110.151L100.197 109.884L100.185 109.435Z" fill="#0D131A"/>
<path d="M102.213 108.755C102.584 108.965 102.902 109.285 103.167 109.714C103.481 110.232 103.582 110.734 103.469 111.219C102.551 110.531 101.59 110.046 100.583 109.762C100.608 109.188 100.704 108.783 100.873 108.548L101.356 108.512C101.678 108.544 101.964 108.625 102.213 108.755Z" fill="white"/>
<path d="M76.0865 110.491L76.1952 110.248L77.6561 109.083C78.2115 108.702 78.7709 108.492 79.3343 108.451C79.5597 108.637 79.6925 108.925 79.7327 109.313C78.5817 109.435 77.3663 109.827 76.0865 110.491Z" fill="#DBDCDC"/>
<path d="M90.9972 116.039C91.2709 115.666 91.5566 115.407 91.8544 115.262C92.9008 116.468 93.5608 117.848 93.8344 119.401C93.4803 118.713 93.0658 118.074 92.5909 117.483C92.0435 116.803 91.5123 116.322 90.9972 116.039Z" fill="#DBDCDC"/>
<path d="M99.8349 112.518C100.326 112.899 100.656 113.417 100.825 114.072C100.946 114.525 101.002 115.161 100.994 115.978L100.982 116.002C100.845 115.468 100.616 114.95 100.294 114.448C99.9476 113.882 99.5733 113.481 99.1709 113.247C99.3721 112.866 99.5935 112.623 99.8349 112.518Z" fill="#DBDCDC"/>
<path d="M100.74 108.803C101.956 109.03 102.865 109.811 103.469 111.146V111.219C102.551 110.531 101.59 110.046 100.583 109.762C100.6 109.366 100.652 109.046 100.74 108.803Z" fill="#DBDCDC"/>
<path d="M60.6567 92.3294C61.6306 92.2404 62.4436 92.2202 63.0956 92.2688C64.0373 92.3416 64.5645 92.5601 64.6772 92.9243C64.7577 93.1752 64.6369 93.5556 64.315 94.0655C64.0655 94.462 63.5342 95.1742 62.7213 96.2021C61.9083 97.2299 61.3932 97.93 61.1759 98.3023C60.9022 98.7717 60.6205 99.5203 60.3307 100.548C60.1617 101.139 59.9323 102.062 59.6426 103.316L59.2321 105.04C58.8055 106.57 58.721 107.573 58.9785 108.051C59.2039 108.463 59.5178 108.763 59.9202 108.949C60.3227 109.135 60.7734 109.184 61.2725 109.095C62.0371 108.965 63.0674 108.993 64.3633 109.18C65.6994 109.374 66.5968 109.641 67.0556 109.981C67.2569 110.127 67.3695 110.288 67.3937 110.466C67.4661 110.968 67.3816 111.543 67.1401 112.19C66.9631 112.668 66.7297 113.117 66.4399 113.538C66.2628 113.805 66.0737 113.975 65.8724 114.048L65.6189 114.084L65.5223 114.121L64.5685 114.169L63.2042 114.036L61.2725 113.647C60.5078 113.493 60.0692 113.497 59.9565 113.659C59.6587 114.064 59.385 114.671 59.1355 115.48C58.8538 116.379 58.7411 117.135 58.7974 117.75L58.8216 118.115C58.9182 119.11 58.9504 119.891 58.9182 120.458C58.8779 121.275 58.7049 121.846 58.399 122.169C58.1897 122.388 57.8316 122.578 57.3245 122.74C56.753 122.926 56.1735 123.003 55.5859 122.971C54.4671 122.898 53.5817 122.424 52.9297 121.55C52.6883 121.218 52.5675 120.81 52.5675 120.324C52.5675 119.782 52.7366 119.053 53.0746 118.139C53.2598 117.629 53.4167 117.067 53.5455 116.451C53.6421 115.982 53.7427 115.594 53.8473 115.286C52.2858 116.281 51.1751 117.083 50.5151 117.69C50.338 117.852 50.0402 118.224 49.6216 118.807C49.2353 119.357 48.8811 119.753 48.5592 119.996C48.1406 120.32 47.6376 120.466 47.05 120.433C46.4866 120.409 45.9151 120.227 45.3356 119.887C44.9009 119.628 44.5428 119.32 44.261 118.964C43.9471 118.568 43.7902 118.175 43.7902 117.787C43.7902 117.617 43.8184 117.459 43.8747 117.313C44.1001 116.731 44.6836 116.031 45.6253 115.213C46.4946 114.444 47.5209 113.708 48.7041 113.004C48.3741 113.133 47.3679 113.651 45.6857 114.558C44.4784 115.189 43.4964 115.622 42.7398 115.857C42.3213 115.994 41.8906 116.075 41.4479 116.099C40.7477 116.148 40.1722 116.027 39.7214 115.735C39.2707 115.444 39.0091 115.019 38.9367 114.46C38.824 113.675 39.0091 112.992 39.492 112.409C40.1923 111.543 41.5244 110.899 43.4883 110.479C44.6071 110.244 46.1566 110.058 48.1366 109.92L49.1025 109.847C50.503 109.734 51.4487 109.572 51.9397 109.362C52.64 109.07 53.304 108.443 53.9318 107.48C55.2197 105.513 56.1493 103.721 56.7208 102.102C57.0428 101.188 57.2882 100.148 57.4573 98.9821L57.4693 98.2416C57.4613 97.9502 57.4814 97.7438 57.5297 97.6224C57.6424 97.3635 57.8517 97.064 58.1575 96.7241L58.8819 95.8864C59.3568 95.2228 59.6868 94.7089 59.872 94.3447C60.1859 93.7539 60.3589 93.1792 60.3911 92.6208L60.4032 92.3537L60.6567 92.3294Z" fill="#0D131A"/>
<path d="M59.389 96.2385C59.8397 95.6072 60.1657 95.0933 60.367 94.6967C60.6809 94.0897 60.874 93.4989 60.9465 92.9243C61.7111 92.8677 62.4033 92.8555 63.0231 92.8879C63.6429 92.9284 64.001 93.0052 64.0976 93.1186C64.0976 93.3613 63.4819 94.2637 62.2504 95.8257C61.4133 96.8698 60.8781 97.5941 60.6446 97.9988C60.3549 98.5006 60.0611 99.2816 59.7633 100.342C59.5862 100.949 59.3488 101.896 59.0509 103.183L58.6405 104.87C58.3587 105.93 58.2179 106.723 58.2179 107.249C58.2179 107.703 58.2943 108.067 58.4473 108.342C58.729 108.868 59.1355 109.252 59.6667 109.495C60.1899 109.746 60.7613 109.815 61.3811 109.702C62.2102 109.564 63.3048 109.617 64.6651 109.859C65.961 110.094 66.6693 110.329 66.79 110.564L66.8021 110.721C66.8021 111.207 66.6934 111.749 66.4761 112.348C66.2427 113.02 65.9771 113.425 65.6792 113.562L64.5443 113.635L63.2766 113.429L60.862 113.052C60.2261 112.963 59.8116 113.048 59.6184 113.307C59.2723 113.769 58.9463 114.416 58.6405 115.25C58.2782 116.245 58.1253 117.095 58.1817 117.799L58.2179 118.175C58.4191 120.158 58.3306 121.348 57.9523 121.744C57.7993 121.898 57.5176 122.04 57.1071 122.169C56.6081 122.323 56.1131 122.384 55.6221 122.351C54.6884 122.287 53.956 121.898 53.4247 121.186C53.2074 120.887 53.139 120.462 53.2195 119.911C53.2678 119.507 53.4127 118.985 53.6541 118.345C53.8634 117.763 54.0244 117.176 54.1371 116.585L54.3544 115.347C54.4751 114.715 54.616 114.218 54.777 113.853L54.4751 114.011C54.2578 114.189 54.0968 114.448 53.9922 114.788C53.7346 114.788 53.2195 115.059 52.4468 115.602C51.7465 116.095 51.0946 116.617 50.4909 117.168L49.4284 118.26L48.2211 119.414C47.8911 119.673 47.4846 119.79 47.0017 119.766C46.5429 119.749 46.0881 119.612 45.6374 119.353C45.2671 119.134 44.9613 118.871 44.7198 118.564C44.422 118.175 44.3335 117.831 44.4542 117.532C44.6957 116.893 45.404 116.079 46.5791 115.092C47.5772 114.242 48.539 113.558 49.4647 113.04C49.7705 112.878 49.9074 112.737 49.8752 112.615C49.843 112.502 49.7102 112.466 49.4767 112.506C48.7362 112.603 48.0078 112.797 47.2914 113.089C46.8407 113.275 46.2129 113.582 45.408 114.011L44.0679 114.679L42.5587 115.274C42.1079 115.411 41.6733 115.484 41.2547 115.492C40.7557 115.509 40.3573 115.42 40.0595 115.225C39.7617 115.031 39.5886 114.748 39.5403 114.376L39.5162 114.036C39.5162 113.566 39.6651 113.153 39.9629 112.797C40.5907 112.02 41.8463 111.442 43.7298 111.061C44.8084 110.843 46.2934 110.669 48.1849 110.539L49.1628 110.466C50.6277 110.337 51.6339 110.159 52.1812 109.932C52.9941 109.584 53.7467 108.88 54.4389 107.82C55.7589 105.805 56.7168 103.947 57.3124 102.248C57.6504 101.293 57.9 100.233 58.0609 99.0671C58.1334 98.541 58.2058 98.2011 58.2782 98.0474C58.4634 97.5941 58.8336 96.9912 59.389 96.2385Z" fill="#B6AED1"/>
<path d="M42.5587 115.274C41.9309 115.476 41.3352 115.541 40.7718 115.468L41.2548 114.655C41.8826 114.541 42.8042 114.278 44.0196 113.866C45.1947 113.461 46.0036 113.137 46.4463 112.894C46.8649 112.668 47.2874 112.526 47.714 112.47C48.1326 112.413 48.6517 112.425 49.2715 112.506L49.356 112.518C48.6477 112.623 47.9434 112.822 47.2432 113.113C46.8005 113.299 46.1888 113.599 45.408 114.011L44.0679 114.679L42.5587 115.274Z" fill="#9B94B3"/>
<path d="M60.0531 112.433L63.0593 112.53L65.9449 112.797L66.295 112.785C66.1018 113.198 65.8966 113.457 65.6793 113.562L64.5444 113.635L63.2767 113.429L60.862 113.052C60.2261 112.963 59.8116 113.048 59.6184 113.307C59.2723 113.768 58.9463 114.416 58.6405 115.25C58.2783 116.245 58.1253 117.095 58.1817 117.799L58.2179 118.175C58.4191 120.158 58.3306 121.348 57.9523 121.744C57.7994 121.898 57.5176 122.04 57.1071 122.169C56.6081 122.323 56.1131 122.384 55.6221 122.351C54.6884 122.287 53.956 121.898 53.4248 121.186C53.1833 120.862 53.1269 120.356 53.2557 119.668C53.4167 120.122 53.6381 120.49 53.9198 120.773C54.282 121.129 54.7206 121.32 55.2358 121.344C55.9602 121.376 56.5437 121.206 56.9864 120.834C57.3969 120.486 57.6022 120.065 57.6022 119.571L57.5418 117.896C57.5176 117.184 57.5378 116.718 57.6022 116.5C57.7953 115.853 58.069 115.165 58.4231 114.436C58.9866 113.295 59.5299 112.627 60.0531 112.433Z" fill="#9B94B3"/>
<path d="M45.6374 119.353C45.2752 119.134 44.9814 118.884 44.756 118.6C45.6334 118.107 46.3739 117.844 46.9775 117.811C47.5651 117.771 48.2251 117.572 48.9576 117.216C49.6337 116.893 50.1971 116.524 50.6479 116.112C51.6298 115.221 52.9257 114.509 54.5355 113.975C54.286 114.129 54.1049 114.4 53.9922 114.788C53.7346 114.788 53.2195 115.059 52.4468 115.602C51.7465 116.095 51.0946 116.617 50.4909 117.168L49.4285 118.26L48.2211 119.414C47.8911 119.673 47.4846 119.79 47.0017 119.766C46.5429 119.75 46.0881 119.612 45.6374 119.353Z" fill="#9B94B3"/>
<path d="M39.8784 113.684L40.7839 113.647C41.2588 113.866 41.6089 114.4 41.8343 115.25L41.8826 115.408L41.7498 115.492C40.3492 116.545 39.3633 117.528 38.7918 118.442C38.6388 118.693 38.5221 118.778 38.4416 118.697C38.3612 118.633 38.2766 118.402 38.1881 118.005C37.9144 116.84 38.0312 115.832 38.5382 114.983C38.8763 114.408 39.323 113.975 39.8784 113.684Z" fill="#0D131A"/>
<path d="M39.8784 116.427C39.3552 116.953 38.9528 117.512 38.671 118.103C38.5423 117.738 38.4779 117.411 38.4779 117.119C38.4779 116.795 38.5302 116.451 38.6348 116.087C38.7717 115.65 38.9729 115.246 39.2385 114.873C39.5041 114.509 39.7858 114.25 40.0836 114.096L40.5907 114.06C40.9046 114.206 41.1582 114.594 41.3513 115.225C40.7074 115.695 40.2164 116.095 39.8784 116.427Z" fill="white"/>
<path d="M45.2873 116.84C45.7863 116.589 46.2572 116.621 46.6999 116.937C46.9574 117.115 47.1747 117.354 47.3518 117.653C47.4243 117.775 47.4524 117.904 47.4363 118.042C47.4122 118.179 47.3438 118.293 47.2311 118.382C46.0398 119.248 45.1384 120.251 44.5266 121.392C44.414 121.611 44.3133 121.704 44.2248 121.672C44.1363 121.631 43.9874 121.433 43.7781 121.077C43.4722 120.559 43.3958 119.903 43.5487 119.11C43.7338 118.09 44.3133 117.334 45.2873 116.84Z" fill="#0D131A"/>
<path d="M44.8285 120.348C44.5629 120.729 44.3818 121.024 44.2852 121.235C43.9954 120.87 43.8505 120.45 43.8505 119.972C43.8505 119.818 43.8626 119.681 43.8867 119.559C43.9592 119.066 44.1483 118.596 44.4542 118.151C44.7601 117.706 45.0901 117.415 45.4442 117.277C45.8386 117.131 46.1968 117.168 46.5187 117.386C46.728 117.532 46.9011 117.734 47.0379 117.993C46.1203 118.77 45.3838 119.555 44.8285 120.348Z" fill="white"/>
<path d="M54.8132 119.596L56.2016 119.559C56.3224 119.6 56.6242 119.762 57.1071 120.045C57.5418 120.304 57.6665 120.555 57.4814 120.798C57.2802 121.057 57.0588 121.526 56.8174 122.206C56.592 122.861 56.419 123.493 56.2982 124.1L56.0085 125.399C55.8958 125.755 55.7871 125.917 55.6825 125.884C55.5698 125.852 55.3283 125.577 54.9581 125.059C54.4832 124.395 54.1572 123.82 53.9801 123.335C53.6904 122.542 53.626 121.7 53.787 120.81C53.8352 120.518 53.964 120.263 54.1733 120.045C54.3504 119.851 54.5637 119.701 54.8132 119.596Z" fill="#0D131A"/>
<path d="M54.3182 121.817C54.3182 121.477 54.3504 121.162 54.4148 120.87C54.5033 120.425 54.6925 120.142 54.9822 120.021C55.4651 119.826 56.1815 120 57.1313 120.543C56.8093 120.972 56.5357 121.558 56.3103 122.303C56.1815 122.732 56.0326 123.367 55.8636 124.209L55.61 125.35C54.7488 124.16 54.3182 122.983 54.3182 121.817Z" fill="white"/>
<path d="M66.3674 110.624C66.7296 110.479 67.1965 110.487 67.768 110.649C68.3314 110.802 68.8586 111.069 69.3496 111.45C69.9291 111.903 70.3074 112.425 70.4845 113.016C70.6213 113.469 70.6535 114.044 70.5811 114.74C70.5408 115.177 70.4845 115.375 70.412 115.335C70.1625 115.1 69.8567 114.829 69.4944 114.521C68.6493 113.833 67.7639 113.42 66.8383 113.283L65.6793 113.246C65.5424 113.077 65.4861 112.797 65.5102 112.409C65.5505 111.972 65.6108 111.64 65.6913 111.413C65.8282 111.017 66.0535 110.754 66.3674 110.624Z" fill="#0D131A"/>
<path d="M66.5365 111.061L67.6472 111.086C68.1463 111.223 68.6212 111.47 69.0719 111.826C69.9009 112.466 70.3155 113.348 70.3155 114.473L70.2792 114.91C69.6756 114.149 68.9632 113.599 68.1422 113.259C67.5466 113.008 66.8142 112.854 65.9449 112.797C65.9851 112.393 66.0535 112.033 66.1501 111.717C66.2709 111.337 66.3996 111.118 66.5365 111.061Z" fill="white"/>
<path d="M40.5907 114.06L40.8684 114.291L39.5283 116.014C39.0373 116.694 38.7475 117.378 38.659 118.066C38.5382 117.702 38.4779 117.386 38.4779 117.119C38.4779 116.795 38.5302 116.451 38.6348 116.087C38.7717 115.65 38.9729 115.246 39.2385 114.873C39.5041 114.509 39.7858 114.25 40.0836 114.096L40.5907 114.06Z" fill="#DBDCDC"/>
<path d="M45.4442 117.277L45.5891 117.228C44.8244 118.297 44.3576 119.588 44.1886 121.101C43.9632 120.777 43.8505 120.401 43.8505 119.972C43.8505 119.818 43.8626 119.681 43.8867 119.559C43.9592 119.066 44.1483 118.596 44.4542 118.151C44.7601 117.706 45.0901 117.415 45.4442 117.277Z" fill="#DBDCDC"/>
<path d="M54.9822 120.021L55.61 119.96C55.3605 120.915 55.2156 121.777 55.1754 122.546C55.1271 123.452 55.2156 124.31 55.441 125.119C54.6925 123.994 54.3182 122.894 54.3182 121.817C54.3182 121.477 54.3504 121.162 54.4148 120.87C54.5033 120.425 54.6925 120.142 54.9822 120.021Z" fill="#DBDCDC"/>
<path d="M68.1422 113.259C67.5466 113.008 66.8142 112.854 65.9449 112.797C66.0093 112.166 66.13 111.672 66.3071 111.316C67.112 111.276 67.8646 111.446 68.5648 111.826C69.2329 112.19 69.7641 112.696 70.1585 113.344C70.2631 113.692 70.3155 114.068 70.3155 114.473L70.2792 114.91C69.6756 114.149 68.9632 113.599 68.1422 113.259Z" fill="#DBDCDC"/>
<path d="M120.324 113.38C120.613 114.076 120.468 114.958 119.889 116.027C119.792 116.213 119.704 116.314 119.623 116.33C119.535 116.346 119.511 116.225 119.551 115.966C119.704 115.051 119.567 114.428 119.14 114.096C118.851 113.878 118.468 113.765 117.993 113.756C117.221 113.748 116.343 114.064 115.361 114.703C114.339 115.367 113.438 115.885 112.657 116.257C111.337 116.88 109.912 117.342 108.383 117.641C106.282 118.07 104.926 117.633 104.314 116.33C103.944 115.537 104.004 114.558 104.495 113.392C104.994 112.227 105.791 111.199 106.886 110.309C107.892 109.483 109.329 108.751 111.196 108.111C113.047 107.472 115.265 106.946 117.848 106.533C116.633 107.318 115.446 108.184 114.287 109.131C111.961 111.033 110.942 112.397 111.232 113.222C111.377 113.627 111.647 113.854 112.041 113.902C112.653 113.975 113.635 113.68 114.987 113.016C117.852 111.624 119.631 111.745 120.324 113.38Z" fill="#0D131A"/>
<path d="M117.462 113.077C117.092 113.093 116.701 113.206 116.291 113.417L115.035 114.181C114.021 114.813 113.168 115.29 112.476 115.614C111.244 116.18 109.892 116.609 108.419 116.901L106.101 116.974C105.489 116.828 105.079 116.528 104.87 116.075C104.757 115.849 104.701 115.569 104.701 115.238C104.701 114.558 104.934 113.805 105.401 112.98C105.884 112.146 106.507 111.418 107.272 110.794C108.914 109.451 111.767 108.362 115.832 107.529C114.102 108.476 112.778 109.459 111.86 110.479C111.023 111.401 110.604 112.247 110.604 113.016L110.629 113.344C110.677 114.064 111.248 114.376 112.343 114.278C113.172 114.206 113.985 113.971 114.782 113.574C115.635 113.162 116.553 112.89 117.535 112.761C118.863 112.583 119.603 112.866 119.756 113.611L119.853 114.133V114.193L119.647 113.744C119.301 113.243 118.573 113.02 117.462 113.077Z" fill="#00AEEB"/>
<path d="M106.741 114.703C106.025 115.343 105.348 115.61 104.713 115.505L104.701 115.238C104.701 114.558 104.934 113.805 105.401 112.98C105.884 112.146 106.507 111.418 107.272 110.794C108.914 109.451 111.767 108.362 115.832 107.529C114.102 108.476 112.778 109.459 111.86 110.479C111.023 111.401 110.604 112.247 110.604 113.016L110.629 113.344C110.661 113.514 110.733 113.692 110.846 113.878L110.761 113.963C110.455 114.173 110.049 114.019 109.542 113.502C109.027 112.992 108.616 112.838 108.31 113.04L106.741 114.703Z" fill="#0098CD"/>
<path d="M115.675 107.674C115.715 107.658 115.744 107.674 115.76 107.723C115.792 107.771 115.776 107.804 115.711 107.82C111.405 109.091 108.673 110.645 107.514 112.482C107.119 113.105 106.938 113.712 106.97 114.303C106.986 114.748 107.083 115.055 107.26 115.225C107.671 115.63 108.419 115.804 109.506 115.747C110.938 115.666 112.898 115.181 115.385 114.291L115.059 114.485C112.814 115.286 111.043 115.763 109.747 115.917C108.443 116.063 107.534 115.885 107.019 115.383C106.817 115.181 106.685 114.869 106.62 114.448C106.54 113.841 106.685 113.222 107.055 112.591C108.149 110.713 111.023 109.074 115.675 107.674Z" fill="#0D131A"/>
<path d="M114.963 108.269L115.277 108.221C113.933 108.577 112.617 109.269 111.329 110.297C110.25 111.146 109.594 111.85 109.361 112.409C108.966 113.348 108.962 114.011 109.349 114.4C110.073 115.169 112.52 114.796 116.689 113.283L117.124 113.234L116.883 113.331C116.585 113.429 116.359 113.505 116.206 113.562C114.009 114.363 112.375 114.833 111.305 114.97C110.258 115.108 109.526 114.954 109.107 114.509C108.898 114.299 108.793 114.027 108.793 113.696C108.793 113.364 108.898 112.943 109.107 112.433C109.365 111.818 110.033 111.09 111.111 110.248C112.367 109.269 113.651 108.609 114.963 108.269Z" fill="#0D131A"/>
<path d="M83.729 91.9653C87.9708 88.9789 92.4017 86.7654 97.0218 85.3248C100.869 84.127 104.511 83.5564 107.948 83.6131C113.566 83.7021 118.154 84.8635 121.712 87.0972C125.125 89.2339 126.863 91.8642 126.928 94.9882C126.968 97.0439 126.304 99.0591 124.936 101.034C123.785 102.709 122.312 104.142 120.517 105.331C119.639 105.914 117.997 106.792 115.591 107.966L112.621 110.09C114.343 108.358 115.22 106.553 115.253 104.676C115.293 102.936 114.621 101.341 113.236 99.8927C111.876 98.4602 110.049 97.4121 107.755 96.7485C105.324 96.0363 102.733 95.8663 99.9798 96.2386C97.0017 96.6352 93.4642 97.6347 89.3673 99.2371C86.6789 100.281 82.6665 102.054 77.3301 104.554C69.096 108.423 62.8058 111.122 58.4594 112.652C51.1509 115.217 44.6755 116.472 39.0332 116.415C32.8919 116.358 27.8009 114.489 23.7604 110.806C22.1345 109.325 20.8547 107.687 19.921 105.89C19.0598 104.239 18.6091 102.705 18.5688 101.289C18.4481 96.9427 20.3396 93.41 24.2433 90.6906C28.9278 87.4291 36.2966 85.5393 46.3497 85.0213L46.6033 84.997C49.2836 84.8433 52.314 84.8595 55.6945 85.0456L60.0168 85.3855L60.1134 85.9682C59.0349 86.4295 57.7953 86.9799 56.3948 87.6193C53.5938 88.8899 51.3079 90.0068 49.5371 90.9699C45.1665 93.3574 42.8444 96.36 42.5707 99.9777C42.4661 101.386 42.6955 102.758 43.2589 104.093C43.766 105.291 44.4461 106.25 45.2993 106.97C47.2633 108.646 49.4204 109.572 51.7707 109.75C53.9198 109.912 56.3304 109.455 59.0027 108.378C61.3046 107.448 64.0091 105.963 67.116 103.923C69.1846 102.555 72.215 100.399 76.2073 97.4526C79.4268 95.057 81.9341 93.2279 83.729 91.9653Z" fill="#0D131A"/>
<path d="M116.291 85.7618C118.786 86.5387 120.911 87.5666 122.666 88.8453C125.209 90.9657 126.32 93.4221 125.998 96.2142C125.837 97.6225 125.209 99.2694 124.115 101.155C123.422 102.353 122.163 103.539 120.336 104.712C119.273 105.4 117.603 106.302 115.325 107.419C115.639 106.448 115.796 105.615 115.796 104.919C115.796 102.895 115.128 101.07 113.792 99.4434C111.24 96.3275 106.733 94.9921 100.27 95.4373C97.5249 95.6234 93.9471 96.6027 89.5363 98.3751C87.3872 99.233 83.23 101.107 77.0645 103.996C68.4038 108.067 61.7956 110.875 57.2399 112.421C49.5613 115.019 42.8042 116.12 36.9687 115.723C33.9745 115.521 31.0769 114.626 28.2758 113.04C25.4829 111.454 23.3097 109.479 21.7562 107.116C20.6052 105.376 19.8929 103.632 19.6192 101.884C19.3214 99.9897 19.5508 98.2092 20.3074 96.542C22.2391 92.2607 26.2918 89.2459 32.4653 87.4978C35.7895 86.559 40.4257 85.9358 46.3739 85.6282L46.6274 85.6161C50.2494 85.3976 54.3222 85.4907 58.8457 85.8953C54.7729 87.8296 51.497 89.4644 49.018 90.7998C44.3496 93.3087 41.8705 96.4247 41.5807 100.148C41.4681 101.588 41.7055 102.988 42.2931 104.348C42.8082 105.538 43.4843 106.489 44.3214 107.201C48.1929 110.495 53.0666 111.021 58.9423 108.779C61.4133 107.84 64.2425 106.359 67.4299 104.336C69.7963 102.83 72.8428 100.698 76.5695 97.9381C79.789 95.5587 82.2923 93.7377 84.0791 92.4751C91.6451 87.1336 99.3761 84.4588 107.272 84.4507C110.443 84.4426 113.45 84.8796 116.291 85.7618Z" fill="#00AEEB"/>
<path d="M38.2726 95.4859C37.3872 96.1981 36.5864 96.3155 35.87 95.838L34.3488 94.2962C33.737 93.9886 32.7913 94.4661 31.5115 95.7287C30.9642 96.279 30.5899 96.5987 30.3887 96.6877C30.0587 96.8415 29.8494 96.6594 29.7609 96.1414C29.1411 92.5399 26.1107 92.4307 20.6696 95.8137C22.7704 91.8318 26.831 89.0275 32.8517 87.4007C36.0793 86.5266 40.5867 85.9358 46.3739 85.6283L46.6274 85.6162C50.2494 85.3976 54.3222 85.4907 58.8457 85.8954C54.7729 87.8297 51.497 89.4645 49.0179 90.7999C46.1847 92.3133 44.1403 94.106 42.8847 96.1779L42.2931 96.1414C41.8665 96.1414 41.5244 95.7449 41.2668 94.9517C41.0173 94.2153 40.7477 93.8956 40.4579 93.9927C40.1359 94.0574 39.7657 94.2557 39.3471 94.5875L38.2726 95.4859Z" fill="#0098CD"/>
<path d="M39.2626 104.761L42.4138 104.615C42.9289 105.692 43.5648 106.553 44.3214 107.201C46.4624 109.014 48.857 109.997 51.5051 110.151C49.5331 110.709 48.1889 111.393 47.4726 112.203C47.1747 112.542 47.1265 112.797 47.3277 112.967C47.545 113.145 48.0199 113.186 48.7523 113.089C49.8631 112.943 50.5231 113.004 50.7324 113.271C51.0221 113.651 51.5131 113.878 52.2053 113.951C46.6033 115.448 41.5244 116.039 36.9687 115.723C34.6345 115.561 32.3245 114.962 30.0386 113.926C27.7768 112.907 25.8048 111.583 24.1226 109.957C25.0482 109.876 26.7707 110.025 29.29 110.406C31.3344 110.721 32.3084 110.782 32.2118 110.588C32.0266 110.216 31.9341 109.892 31.9341 109.617C31.9421 109.269 32.1031 109.038 32.417 108.925C32.6343 108.852 33.568 108.973 35.218 109.289C36.9083 109.507 38.0432 109.325 38.6228 108.743C38.6871 108.613 38.5906 108.455 38.333 108.269L37.4758 107.747C36.6709 107.237 36.4415 106.748 36.7876 106.278C37.3269 105.469 38.1519 104.963 39.2626 104.761Z" fill="#9ED8F5"/>
<path d="M87.834 93.0336L85.697 93.9926L87.182 92.5722C87.7696 91.9814 88.1921 91.4311 88.4497 90.9212C87.838 90.9212 87.5321 90.816 87.5321 90.6056L87.5563 90.2292C93.1664 86.911 98.865 85.0172 104.652 84.5478C109.433 84.1674 113.856 84.7582 117.921 86.3202C118.122 86.5387 118.138 86.8584 117.969 87.2793C117.76 87.781 117.675 88.1129 117.716 88.2747C117.852 88.7684 117.861 89.0881 117.74 89.2338C117.643 89.339 117.434 89.3835 117.112 89.3673C116.219 89.3188 115.631 89.5292 115.349 89.9986C115.253 90.2818 115.442 90.7432 115.917 91.3825C116.359 91.9733 116.476 92.4306 116.267 92.7543C116.146 92.9081 115.792 92.9445 115.204 92.8636L113.333 92.5358C111.546 92.204 110.484 92.2647 110.146 92.7179C109.944 93.0578 110.001 93.4746 110.315 93.9683C110.5 94.2597 110.89 94.7048 111.486 95.3037C112.065 95.8945 112.436 96.3235 112.597 96.5906C112.87 97.0357 112.87 97.3958 112.597 97.671C112.5 97.8733 112.415 97.9947 112.343 98.0352C110.468 96.6512 107.993 95.7974 104.918 95.4737C100.74 95.0366 96.2209 95.7731 91.3594 97.6831L93.2911 95.3159C94.0638 94.377 94.1805 93.936 93.6413 93.9926C93.11 94.0493 92.2246 94.2273 90.9851 94.5268L88.1358 95.2187C87.5563 95.3401 87.6247 95.0893 88.341 94.4661C89.3391 93.5839 89.8824 93.0133 89.9709 92.7543C89.3351 92.6248 88.6228 92.7179 87.834 93.0336Z" fill="#9ED8F5"/>
<path d="M119.925 103.207C120.641 103.514 121.382 103.389 122.147 102.831L124.078 101.216C123.37 102.406 122.11 103.579 120.299 104.737C119.237 105.416 117.579 106.311 115.325 107.419C115.639 106.448 115.796 105.615 115.796 104.919C115.796 104.174 115.732 103.498 115.603 102.891C116.247 102.527 116.875 102.224 117.486 101.981C117.599 101.932 117.595 102.167 117.474 102.685C117.345 103.235 117.349 103.51 117.486 103.51C117.639 103.518 118.042 103.243 118.694 102.685C119.418 102.062 119.828 101.726 119.925 101.677C120.102 101.588 120.158 101.778 120.094 102.248L119.925 103.207Z" fill="#0098CD"/>
<path d="M103.505 91.8075C107.208 91.4433 110.419 91.6376 113.14 92.3902C117.341 93.5557 119.728 95.9553 120.299 99.5892C120.605 101.54 120.122 103.353 118.851 105.028C118.215 105.87 117.539 106.517 116.822 106.97C116.782 107.003 116.746 106.995 116.714 106.946C116.681 106.897 116.689 106.865 116.738 106.849C117.398 106.396 118.013 105.756 118.585 104.931C119.72 103.296 120.126 101.523 119.804 99.6135C119.233 96.2143 116.927 93.9401 112.886 92.7908C110.158 92.0058 107.035 91.7873 103.517 92.1353C99.5572 92.5157 95.3798 93.6366 90.9851 95.498C88.0955 96.712 84.0952 98.7515 78.9841 101.617C73.2291 104.846 68.7499 107.173 65.5464 108.597C60.218 110.968 54.9218 112.648 49.6578 113.635C45.0699 114.501 40.8402 114.242 36.9687 112.858C33.6525 111.676 31.093 109.9 29.29 107.529C27.97 105.797 27.1892 103.911 26.9478 101.871C26.7063 99.8563 27.0202 97.9422 27.8895 96.1293C29.3141 93.1591 32.1031 90.8161 36.2564 89.1003C40.3855 87.4007 45.4442 86.4943 51.4326 86.381L51.5171 86.4538C51.5171 86.5024 51.489 86.5267 51.4326 86.5267C45.5247 86.64 40.5666 87.5545 36.5582 89.2703C32.582 90.9699 29.8856 93.3048 28.469 96.275C27.6078 98.0717 27.2818 99.9332 27.4911 101.859C27.7084 103.818 28.465 105.651 29.7609 107.359C31.5558 109.722 34.0348 111.478 37.1981 112.627C40.9408 113.995 45.086 114.25 49.6337 113.392C54.8977 112.405 60.1818 110.746 65.4861 108.415C68.77 106.966 73.2452 104.656 78.9117 101.483C84.2401 98.4966 88.2444 96.4247 90.9247 95.2674C95.3677 93.3412 99.5612 92.1879 103.505 91.8075Z" fill="#0D131A"/>
<path d="M99.4244 88.6268C104.117 87.3966 108.773 87.2752 113.393 88.2626C118.013 89.2419 121.144 91.0224 122.786 93.6042C123.672 94.9962 124.022 96.538 123.837 98.2295C123.595 100.455 122.432 102.847 120.348 105.404L120.239 105.416C120.199 105.376 120.195 105.339 120.227 105.307C121.982 103.162 123.032 101.066 123.378 99.0186C123.7 97.0843 123.37 95.3645 122.388 93.8591C120.73 91.3178 117.663 89.5616 113.188 88.5904C108.681 87.6192 104.105 87.7406 99.4606 88.9546C96.1042 89.8287 92.3816 91.334 88.2927 93.4706C85.5561 94.895 81.9059 97.0317 77.3422 99.8805C73.7523 102.13 71.0398 103.781 69.2047 104.834C66.1541 106.574 63.3974 107.958 60.9344 108.985C54.7528 111.559 49.1588 112.36 44.1524 111.389C41.3272 110.839 39.0775 109.69 37.4033 107.941C35.7291 106.193 34.9041 104.129 34.9283 101.75C34.9524 98.7232 36.3006 95.9431 38.9729 93.4099C42.1844 90.375 46.8206 88.3233 52.8814 87.255C52.9378 87.255 52.966 87.2752 52.966 87.3157C52.982 87.3643 52.9619 87.3966 52.9056 87.4128C46.9172 88.4649 42.3896 90.4964 39.323 93.5071C36.8117 95.9674 35.54 98.7151 35.5078 101.75C35.4917 104.121 36.2362 106.137 37.7414 107.796C39.2787 109.495 41.4278 110.612 44.1886 111.146C49.1709 112.109 54.7407 111.324 60.8982 108.791C64.649 107.237 70.1062 104.227 77.2697 99.7591C82.1313 96.7241 85.7895 94.5511 88.2444 93.24C92.3735 91.0386 96.1002 89.5009 99.4244 88.6268Z" fill="#0D131A"/>
<path d="M27.6118 89.1488L25.342 90.0229C29.447 87.1336 34.6345 85.2317 40.9046 84.3172C46.8206 83.4431 52.5192 83.5888 58.0006 84.7542L58.2179 84.8027L58.5318 87.425L58.3145 87.5099C56.7852 88.1169 55.1995 88.4326 53.5576 88.4569C52.5595 88.4811 51.0986 88.3597 49.1749 88.0927L44.8526 87.6799C40.4579 87.5585 37.6327 87.5261 36.3771 87.5828C33.3024 87.7285 30.3806 88.2505 27.6118 89.1488Z" fill="#0D131A"/>
<path d="M34.4574 86.3445C36.0994 85.8913 37.9426 85.5068 39.9871 85.1912C47.054 84.1148 52.9539 84.0622 57.6867 85.0334L58.0972 87.4978C56.745 88.0157 55.2398 88.214 53.5817 88.0926L49.2594 87.4856L44.8647 87.0607C41.7417 86.9798 39.1741 86.996 37.1619 87.1093C34.3448 87.2793 31.7168 87.6596 29.278 88.2504C30.9199 87.4897 32.6464 86.8544 34.4574 86.3445Z" fill="#00AEEB"/>
<path d="M57.6867 85.0334L58.0972 87.4978C57.3245 87.7972 56.5035 87.9874 55.6342 88.0684C55.1835 87.8337 54.1653 87.5059 52.5796 87.085C51.2998 86.7451 50.3179 86.2798 49.6337 85.6889C49.2152 85.1467 48.4988 84.7218 47.4846 84.4143C51.324 84.22 54.7247 84.4264 57.6867 85.0334Z" fill="#0098CD"/>
<path d="M51.5292 82.9211L51.167 82.4355C52.0685 82.5002 53.0304 82.5002 54.0526 82.4355L56.7087 82.0834C57.6585 81.8649 58.4513 81.5857 59.0872 81.2458C59.8438 80.8411 60.2462 80.4162 60.2945 79.9711L60.8982 79.9832L61.4173 88.3355L61.0431 88.6511C59.9404 88.4002 58.725 88.4245 57.3969 88.7239C56.2459 88.9829 55.2076 89.3957 54.282 89.9622L53.5576 90.2778C53.6783 89.8246 53.964 89.2783 54.4148 88.639C54.8092 88.0967 55.2197 87.6233 55.6463 87.2186L53.3765 87.34L52.5434 87.425H52.1087C53.3483 86.4457 54.3705 85.7982 55.1754 85.4826C53.4288 84.6733 52.2134 83.8194 51.5292 82.9211Z" fill="#0D131A"/>
<path d="M56.8536 82.6782C58.5358 82.2978 59.7029 81.7677 60.3549 81.0879L60.7775 87.9834C59.8116 87.8296 58.7572 87.8822 57.6142 88.1412C56.6323 88.3597 55.6785 88.7036 54.7528 89.1731C55.115 88.5984 55.3605 88.2261 55.4893 88.0562C55.8032 87.6272 56.097 87.348 56.3707 87.2185C56.6363 87.089 56.7168 86.9676 56.6121 86.8543L56.3707 86.7208L55.0667 86.6722L53.7145 86.8179C53.8192 86.7694 54.0445 86.6682 54.3906 86.5144L55.5014 85.9924C55.9521 85.7577 56.1855 85.5594 56.2016 85.3976L56.093 85.2276C54.1371 84.3616 52.8171 83.5928 52.1329 82.921C54.2739 82.9858 55.8475 82.9048 56.8536 82.6782Z" fill="#7FCCEC"/>
<path d="M54.9339 83.8801C54.1934 83.4673 53.5576 83.1557 53.0263 82.9453C54.7086 82.9615 55.9843 82.8725 56.8536 82.6782C58.5358 82.2978 59.7029 81.7677 60.3549 81.0879L60.6688 86.0774C59.5339 86.0936 58.23 85.7091 56.757 84.9241L54.9339 83.8801Z" fill="#6DB2CD"/>
<path d="M84.1395 75.892L84.4051 75.7463L84.55 76.0134C85.2583 76.7661 85.383 78.2957 84.9243 80.6023C84.6747 81.8163 84.2763 83.269 83.729 84.9605L83.4754 86.0046L83.0287 87.7284C82.8356 88.3597 82.6102 88.906 82.3526 89.3673L81.6765 90.4963L80.9521 91.6132L80.3847 92.0017C80.1432 92.115 79.9943 92.2404 79.9379 92.378L79.2015 91.7103L78.9117 91.2975C78.8715 91.2733 78.8312 91.3178 78.791 91.4311C78.6461 91.8519 78.4408 92.1231 78.1752 92.2445L77.3784 91.7103L76.8351 92.4387C76.2314 91.4432 75.4547 90.4639 74.5049 89.5008C73.6598 88.643 72.7985 87.9227 71.9212 87.3399L72.1506 86.6722C79.8776 79.623 83.8739 76.0296 84.1395 75.892Z" fill="#0D131A"/>
<path d="M83.3668 84.2686L82.7511 86.0167L82.3889 87.5949C82.2359 88.1695 82.0468 88.6592 81.8214 89.0638L80.3605 91.4433C80.28 91.5485 80.0668 91.4392 79.7206 91.1155C79.3423 90.7675 79.0888 90.6299 78.96 90.7027L78.5616 90.8484C78.3604 90.9536 78.2155 91.1438 78.127 91.419C78.0223 91.4837 77.8251 91.4433 77.5354 91.2976C77.2456 91.1519 76.988 91.1276 76.7627 91.2247C75.5795 89.3471 74.2715 87.8984 72.8388 86.8787C79.1089 81.1648 82.8718 77.7656 84.1274 76.6812C84.2079 76.9482 84.2482 77.2598 84.2482 77.6159C84.2482 78.0691 84.1959 78.6802 84.0912 79.449L84.2723 79.8132C84.1677 80.7035 84.0349 81.5128 83.8739 82.2412L83.3668 84.2686Z" fill="#7FCCEC"/>
<path d="M81.7973 78.7571C81.8053 79.5583 81.6846 80.3757 81.4351 81.2093C81.2338 81.9135 80.9199 82.6904 80.4933 83.5402C79.6804 85.1831 79.0969 86.4497 78.7427 87.34C78.1551 88.8372 77.801 90.1807 77.6802 91.3704L77.2697 91.1883L76.7627 91.2248C75.5795 89.3471 74.2715 87.8984 72.8388 86.8787L81.7973 78.7571Z" fill="#6DB2CD"/>
<path d="M120.468 1.52306C121.185 2.5509 121.567 3.43307 121.615 4.16956C121.535 4.80893 120.364 6.73108 118.102 9.93601C115.736 13.3028 113.659 15.9088 111.872 17.7541C113.9 16.184 116.066 14.5937 118.368 12.9831C120.967 11.1621 122.489 10.2031 122.931 10.106C123.221 10.0493 123.68 10.713 124.308 12.0969C124.903 13.408 125.201 14.2578 125.201 14.6463C125.201 15.0267 125.08 15.3342 124.839 15.5689C122.875 17.3899 120.819 19.3525 118.669 21.4568C114.387 25.6491 111.812 28.4372 110.942 29.8212C113.856 28.4129 117.132 26.681 120.77 24.6253C123.491 23.0795 124.903 22.3228 125.008 22.3551C125.193 22.4118 125.491 23.0714 125.901 24.3339C126.304 25.5479 126.505 26.3208 126.505 26.6526C126.505 27.6319 126.119 28.502 125.346 29.2627C124.638 29.9587 122.887 31.2213 120.094 33.0504C120.424 32.9452 121.076 32.6579 122.05 32.1884C122.807 31.8242 123.213 31.6786 123.269 31.7514C123.672 32.3179 123.901 33.1232 123.958 34.1673C124.022 35.2275 123.869 36.0368 123.499 36.5952C122.726 37.7526 121.491 38.8411 119.792 39.8609C119.438 40.0794 116.573 41.6171 111.196 44.474C112.049 44.4012 114.134 44.0613 117.45 43.4543C120.46 42.9039 122.018 42.649 122.122 42.6895C122.404 42.7947 122.328 43.5716 121.893 45.0203C121.475 46.4447 121.092 47.3067 120.746 47.6061C119.861 48.3507 117.627 49.2855 114.045 50.4104L108.262 52.0736C109.832 52.3569 112.049 52.9234 114.915 53.7732C117.7 54.6068 119.1 55.0964 119.116 55.2421C119.14 55.4283 118.134 56.3549 116.098 58.0222C115.961 58.1274 115.687 58.2123 115.277 58.2771L114.057 58.3742L106.065 57.658C106.668 57.9331 107.86 58.3095 109.639 58.787L112.138 59.4911C112.258 59.6206 112.057 60.005 111.534 60.6444C111.14 61.1219 110.745 61.5427 110.351 61.9069C110.198 62.0526 109.88 62.1052 109.397 62.0647L108.214 61.9312C106.725 61.8017 104.519 61.3768 101.598 60.6565L105.968 64.517C107.514 65.909 108.278 66.6941 108.262 66.8721C108.246 67.0826 107.707 67.6288 106.644 68.511C105.566 69.4013 104.821 69.899 104.411 70.0042C104.266 70.0366 104.061 69.9921 103.795 69.8707L103.167 69.4458C102.604 69.9961 101.867 70.4898 100.958 70.9269C100.137 71.3153 99.6418 71.4732 99.4727 71.4003C99.344 71.3437 99.0059 70.506 98.4586 68.8874C97.9112 67.2849 97.5007 65.9212 97.2271 64.7962C97.1466 65.4113 97.0661 66.9854 96.9856 69.5186C96.9132 71.7038 96.8287 72.845 96.7321 72.9421C96.6033 73.0635 95.9956 73.1606 94.909 73.2334C93.9029 73.3063 93.2147 73.3225 92.8444 73.282C92.5788 73.2496 92.446 72.9825 92.446 72.4808L92.6996 67.8676L91.0334 73.282L90.5988 73.197C89.6973 73.0513 88.9125 72.5455 88.2445 71.6795C87.8501 71.1616 87.347 70.2551 86.7353 68.9602C86.0431 67.471 85.4555 66.4634 84.9726 65.9374C84.1757 65.0633 83.1897 64.6789 82.0146 64.7841L81.7369 64.2985C82.4372 63.3273 83.2662 62.2913 84.224 61.1907L86.856 58.3014L89.6571 55.2178C90.6793 54.0362 91.5486 52.9234 92.2649 51.8794C94.1001 49.2086 95.5167 45.8782 96.5148 41.8882C97.1104 39.5169 97.7422 35.8466 98.4103 30.8773L98.9536 26.9926C99.3319 24.4756 99.6699 22.7355 99.9678 21.7724C100.451 20.2266 101.179 19.0774 102.153 18.3247C105.268 15.921 108.918 12.2385 113.104 7.27737C115.188 4.80893 117.08 2.4983 118.778 0.34549C119.173 0.0703188 119.736 0.462842 120.468 1.52306Z" fill="#0D131A"/>
<path d="M120.649 4.77654C120.271 5.51303 119.012 7.41495 116.87 10.4823C114.126 14.3994 111.856 17.2604 110.061 19.0652C109.683 19.4456 109.53 19.6722 109.602 19.745C109.667 19.826 110.005 19.6317 110.616 19.1623C111.687 18.3449 113.84 16.8153 117.076 14.5734C120.754 12.0402 122.69 10.8101 122.883 10.8829C123.02 10.9315 123.35 11.5263 123.873 12.6675C124.38 13.7843 124.634 14.4399 124.634 14.6341C124.634 14.8122 124.557 14.9741 124.404 15.1197C122.376 17.0136 120.247 19.0693 118.017 21.2868C113.574 25.7138 110.874 28.7367 109.916 30.3553C109.723 30.6871 109.687 30.8571 109.808 30.8652L110.496 30.6102C113.112 29.461 116.267 27.8626 119.961 25.815L124.73 23.1563C124.819 23.1563 125.024 23.7269 125.346 24.8681C125.66 25.993 125.817 26.681 125.817 26.9319C125.817 27.2961 125.676 27.6886 125.394 28.1094C124.557 29.372 121.841 31.4398 117.245 34.3129C112.729 36.9999 110.371 38.4041 110.17 38.5255C109.888 38.7035 109.743 38.8532 109.735 38.9746L110.049 38.9868C111.087 38.4688 112.661 37.6069 114.77 36.401C116.879 35.2032 118.295 34.3655 119.02 33.888C119.519 33.799 120.315 33.4955 121.41 32.9775C122.392 32.5162 122.899 32.2936 122.931 32.3098C122.996 32.3503 123.084 32.7104 123.197 33.3903L123.354 34.5557C123.442 35.446 122.96 36.4212 121.905 37.4814C120.875 38.5336 118.722 39.9539 115.446 41.7425C113.723 42.6894 111.92 43.6121 110.037 44.5104C109.49 44.7613 109.18 44.9313 109.107 45.0203C109.027 45.1255 109.2 45.1619 109.626 45.1296C110.681 45.0486 112.999 44.7087 116.581 44.1098C119.849 43.5676 121.535 43.3126 121.639 43.345C121.817 43.4016 121.708 44.0006 121.314 45.1417C120.927 46.2829 120.613 46.9586 120.372 47.1691C119.623 47.7518 117.273 48.6906 113.321 49.9855C110.625 50.8677 108.584 51.4949 107.2 51.8672C106.91 51.9481 106.741 52.0372 106.693 52.1343C106.644 52.2314 106.761 52.3002 107.043 52.3407C108.194 52.4944 110.363 53.0164 113.55 53.9067C116.601 54.7646 118.146 55.2461 118.186 55.3514C118.219 55.4485 117.78 55.8815 116.87 56.6503C115.937 57.4435 115.349 57.8522 115.108 57.8765C114.198 57.9736 112.13 57.8441 108.902 57.488L103.819 56.881L103.179 56.9295C103.107 56.9862 103.167 57.0631 103.36 57.1602C104.02 57.4839 105.562 57.9776 107.984 58.6413C110.238 59.2564 111.393 59.6003 111.45 59.6732C111.514 59.746 111.276 60.0819 110.737 60.6808C110.19 61.2878 109.832 61.6115 109.663 61.652C109.461 61.7005 108.081 61.482 105.521 60.9964C102.849 60.4865 101.147 60.0859 100.414 59.7946C99.9879 59.6327 100.028 59.7824 100.535 60.2437L104.785 64.0799C106.612 65.7391 107.542 66.6212 107.574 66.7264C107.606 66.8559 107.115 67.3415 106.101 68.1832C105.079 69.0168 104.467 69.4377 104.266 69.4458C103.799 69.462 102.873 68.7255 101.489 67.2363C100.121 65.7552 99.0703 64.3673 98.3378 63.0723C98.1849 62.7972 98.1084 62.7405 98.1084 62.9024C98.1084 63.0723 98.1728 63.2949 98.3016 63.5701C98.527 64.0395 99.0904 64.8771 99.9919 66.083C101.119 67.5965 102.068 68.6445 102.841 69.2273C102.27 69.6967 101.638 70.0892 100.946 70.4048C100.229 70.7286 99.8269 70.7974 99.7383 70.6112C98.8047 68.6122 98.0963 66.5969 97.6134 64.5655C97.3237 63.044 97.1426 62.2873 97.0701 62.2954C96.9252 62.3116 96.7643 63.9666 96.5872 67.2606C96.4181 70.6031 96.3055 72.3027 96.2491 72.3594C96.1445 72.4646 95.6253 72.5455 94.6916 72.6021L93.1463 72.5415C93.0658 72.4686 93.0497 71.0361 93.098 68.2439L93.1825 63.8007C93.1905 63.5741 93.1302 63.5498 93.0014 63.7279C92.8726 63.9059 92.7921 64.1811 92.7599 64.5534C92.4299 67.8069 91.6773 70.4655 90.5022 72.5293C89.7939 72.3594 89.1661 71.898 88.6187 71.1454C88.2726 70.6759 87.8299 69.8585 87.2907 68.6931C86.6226 67.2768 86.0431 66.2813 85.5521 65.7067C84.7391 64.7436 83.7572 64.2337 82.6062 64.1771C83.6042 62.8498 85.1698 61.0328 87.3027 58.7262L90.1279 55.6063C91.1582 54.4085 92.0395 53.2835 92.772 52.2314C94.6474 49.504 96.0922 46.121 97.1063 42.0825C97.71 39.6626 98.3459 35.9558 99.0139 30.9623L99.5572 27.0775C99.9114 24.69 100.237 23.0188 100.535 22.0638C100.986 20.5989 101.65 19.5144 102.527 18.8103C105.884 16.1233 109.63 12.2992 113.768 7.33806L117.486 2.70062C118.468 1.45426 118.983 0.835125 119.032 0.843218C119.217 0.859405 119.494 1.10625 119.865 1.58375C120.283 2.126 120.625 2.74514 120.891 3.44116C120.988 3.68395 121.004 3.92271 120.939 4.15741L120.649 4.77654Z" fill="#7FCCEC"/>
<path d="M100.523 22.0516C100.974 20.5786 101.642 19.4982 102.527 18.8102C104.161 17.5477 105.944 15.9331 107.876 13.9664C108.133 15.0671 108.25 16.1314 108.226 17.1592C108.202 18.2275 108.029 19.1461 107.707 19.915C105.429 24.6334 103.694 29.7483 102.503 35.2598C101.594 39.4602 100.873 44.6723 100.342 50.896C97.3558 59.661 92.3011 64.4644 85.1778 65.3061C84.4454 64.5938 83.5881 64.2175 82.6062 64.177C83.6042 62.8498 85.1698 61.0328 87.3027 58.7262L90.1279 55.6063C91.1582 54.4085 92.0395 53.2835 92.772 52.2314C94.6474 49.504 96.0922 46.121 97.1063 42.0824C97.71 39.6625 98.3459 35.9558 99.0139 30.9623L99.5572 27.0775C99.9194 24.6576 100.241 22.9823 100.523 22.0516Z" fill="#6DB2CD"/>
<path d="M104.821 17.2685C103.131 19.1785 102.141 20.3642 101.851 20.8255C101.61 21.2221 101.207 23.0552 100.644 26.3249C100.169 29.0766 99.6659 32.3179 99.1347 36.0489L98.0843 42.4952C97.5691 45.4331 97.2069 47.2945 96.9977 48.0796C96.7964 48.8565 96.0801 49.9855 94.8486 51.4666L91.3715 55.4728C90.1802 56.9053 89.4598 57.7955 89.2103 58.1435C88.6469 58.9448 88.1962 59.8148 87.8581 60.7536C87.6649 61.304 87.4557 62.085 87.2303 63.0966L86.8802 64.4684C86.7353 64.9621 86.5703 65.383 86.3851 65.731L86.2644 65.9495L86.0229 65.8767C85.1698 65.6096 84.2602 65.1564 83.2943 64.517C82.2721 63.8372 81.5276 63.1654 81.0608 62.5018L80.94 62.3318L81.0608 62.1618C82.244 60.3975 83.4392 58.8112 84.6466 57.403L90.4418 50.5925C92.6392 47.8327 93.9793 45.7163 94.4622 44.2434C95.5569 40.9413 96.4101 37.6473 97.0218 34.3615C97.3679 32.5081 97.714 30.0801 98.0601 27.0775C98.4384 23.7269 98.8006 21.6267 99.1467 20.7769C99.5411 19.8057 100.567 18.6484 102.225 17.3049L108.347 12.5582L108.552 12.7525C108.608 12.9791 108.411 13.3271 107.96 13.7965L104.821 17.2685Z" fill="#0D131A"/>
<path d="M106.077 15.0105L105.002 16.2245L103.867 17.3899L102.394 18.9195C101.807 19.5508 101.372 20.0971 101.091 20.5584C100.785 21.0521 100.326 23.3506 99.7142 27.4539C99.3842 29.6472 98.9898 32.4839 98.531 35.964C98.3378 37.3398 97.9595 39.436 97.3961 42.2524C96.881 44.8746 96.5147 46.6026 96.2974 47.4362C96.1043 48.1969 95.412 49.3745 94.2208 50.9689C93.5527 51.8672 92.45 53.235 90.9127 55.0722C89.7939 56.3995 89.0614 57.3059 88.7153 57.7915C88.1197 58.6332 87.6448 59.5437 87.2907 60.523C87.0894 61.0814 86.8681 61.8948 86.6266 62.9631C86.3852 64.0233 86.1598 64.7679 85.9505 65.1968C85.202 64.9298 84.4293 64.5291 83.6324 63.995C82.7712 63.4285 82.1273 62.87 81.7007 62.3197C82.1756 61.6398 83.4594 60.0778 85.5521 57.6337C88.1519 54.6149 90.0515 52.3204 91.2507 50.7504C93.263 48.1039 94.5267 45.9996 95.0418 44.4376C96.1445 41.1113 97.0057 37.793 97.6255 34.4829C97.9716 32.6133 98.3177 30.1692 98.6638 27.1504C98.9133 24.9814 99.0904 23.6055 99.195 23.0228C99.3963 21.9302 99.6981 21.0359 100.101 20.3399C100.527 19.6034 101.207 18.8305 102.141 18.0212C102.898 17.3656 104.21 16.3621 106.077 15.0105Z" fill="#7FCCEC"/>
<path d="M81.7248 55.8855L81.749 56.5411L81.8697 57.8886C83.1897 58.5927 84.4011 59.8229 85.5038 61.5792C86.5421 63.2221 87.1699 64.7962 87.3872 66.3016C87.4919 67.0138 87.5442 67.7624 87.5442 68.5475C87.5442 72.3918 86.695 75.9447 84.9967 79.2063C83.1616 82.7269 80.5939 85.3734 77.2939 87.1458C76.8109 87.4048 76.0141 87.7123 74.9033 88.0684L72.5007 88.7725C71.3819 89.0558 70.573 89.3026 70.074 89.5131C69.4944 89.7478 68.9351 90.0998 68.3958 90.5692C68.0738 90.8525 67.6191 91.3219 67.0315 91.9775L66.138 92.9487C65.5907 93.5152 65.0353 93.9037 64.4719 94.1141L62.4194 94.5633L62.1659 93.7256C61.9888 93.7418 61.8198 93.8187 61.6588 93.9563L60.9344 94.5875L60.7412 93.8956L60.1496 94.2112C59.1274 93.1267 58.6083 91.593 58.5922 89.6102C58.5841 88.639 58.7733 87.0487 59.1596 84.8392L59.3407 82.047C59.6144 79.9266 59.876 78.401 60.1255 77.4703C60.6165 75.6088 61.7997 72.4929 63.6751 68.1226C65.969 62.7729 67.6875 59.7865 68.8304 59.1633C69.0799 59.0338 69.2208 58.9165 69.253 58.8113L69.2288 58.6534C69.1805 58.5078 69.0236 58.3297 68.758 58.1193L67.8404 57.4273L66.6813 56.4561C66.2869 56.0838 66.0213 55.7399 65.8845 55.4242C65.2325 53.9108 65.2003 52.2233 65.7879 50.3619C66.3433 48.5976 67.2488 47.2581 68.5044 46.3436C70.1947 45.1134 71.9735 44.4457 73.8409 44.3405C75.5955 44.2434 77.3502 44.64 79.1049 45.5302C79.6925 45.8297 80.2881 47.4807 80.8918 50.4833C81.3103 52.5794 81.588 54.3802 81.7248 55.8855Z" fill="#0D131A"/>
<path d="M81.423 58.3257C82.6947 58.9488 83.8699 60.1102 84.9484 61.8098C85.9626 63.4042 86.5743 64.9338 86.7836 66.3987C86.8882 67.0785 86.9405 67.8029 86.9405 68.5717C86.9405 72.505 86.2443 75.8921 84.8518 78.7328C83.1133 82.2777 80.28 85.0456 76.3521 87.0365C75.9175 87.255 75.2615 87.4735 74.3842 87.6921L72.3438 88.1777C71.2411 88.4528 70.408 88.7078 69.8446 88.9425C69.6031 89.0396 69.8446 88.6592 70.569 87.8013C70.3758 87.7204 69.8486 88.1534 68.9874 89.1003C67.8203 90.3871 67.0194 91.2086 66.5848 91.5647L65.7034 92.5237C65.1963 93.0417 64.6812 93.4221 64.158 93.6649C63.7153 93.8672 63.3048 93.9562 62.9265 93.932C62.5482 93.3897 62.2786 93.0943 62.1176 93.0458C61.9325 92.9972 61.6588 93.1631 61.2966 93.5435L60.9465 93.2036C60.8257 93.1469 60.5843 93.24 60.2221 93.4828C59.7713 93.1429 59.4816 92.6168 59.3528 91.9046C59.2723 91.4918 59.2321 90.7473 59.2321 89.6709C59.2321 88.5783 59.4091 87.0041 59.7633 84.9484L60.1859 82.1199C60.4595 80.0318 60.7171 78.5305 60.9586 77.6159C61.3369 76.1753 62.5241 73.1768 64.5202 68.6203C66.7739 63.4649 68.3716 60.4785 69.3134 59.661L69.6635 59.3333L69.8204 58.9933L70.4 59.5032C70.4483 59.5518 70.4885 59.5639 70.5207 59.5396L70.5328 59.4182C70.404 58.9488 69.6152 58.0707 68.1664 56.7839C67.3212 56.0555 66.8101 55.4809 66.6331 55.06C66.4882 54.7282 66.3715 54.3114 66.2829 53.8096C66.2105 53.3645 66.1743 52.9315 66.1743 52.5106C66.1743 51.3857 66.4721 50.289 67.0677 49.2207C67.6231 48.2172 68.3394 47.3957 69.2168 46.7563C70.7702 45.6152 72.4162 44.992 74.1548 44.8868C75.7968 44.7897 77.3985 45.1579 78.96 45.9915C79.3866 46.2181 79.8575 47.7923 80.3726 50.7139C80.7267 52.7211 80.9763 54.4652 81.1211 55.9462V55.9584C81.2821 56.2659 81.3063 56.6827 81.1936 57.2088L80.9763 57.9008L81.423 58.3257Z" fill="#7FCCEC"/>
<path d="M74.1548 44.8868C75.7968 44.7897 77.3985 45.1579 78.96 45.9915C74.1628 46.6956 70.9111 48.0836 69.2047 50.1555C67.7398 51.9279 67.6191 53.8056 68.8425 55.7884L70.0981 57.6094C70.565 58.2569 70.8628 58.7546 70.9916 59.1026C71.1364 59.5073 69.9251 62.5949 67.3575 68.3653C64.8784 73.9659 63.4738 76.9685 63.1438 77.3731C61.5421 79.3236 60.6084 82.4921 60.3428 86.8787C60.2382 88.6026 60.2784 90.1119 60.4635 91.4069C60.5843 92.2567 60.7453 92.8556 60.9465 93.2036C60.8257 93.1469 60.5843 93.24 60.2221 93.4828C59.7713 93.1429 59.4816 92.6168 59.3528 91.9046C59.2723 91.4918 59.2321 90.7473 59.2321 89.6709C59.2321 88.5783 59.4091 87.0041 59.7633 84.9484L60.1859 82.1199C60.4595 80.0318 60.7171 78.5305 60.9586 77.6159C61.3369 76.1753 62.5241 73.1768 64.5202 68.6203C66.7739 63.4649 68.3716 60.4785 69.3133 59.661L69.6635 59.3333L69.8204 58.9933L70.4 59.5032C70.4482 59.5518 70.4885 59.5639 70.5207 59.5396L70.5328 59.4182C70.404 58.9488 69.6152 58.0707 68.1664 56.7839C67.3212 56.0555 66.8101 55.4809 66.6331 55.06C66.4882 54.7282 66.3715 54.3114 66.2829 53.8096C66.2105 53.3645 66.1743 52.9315 66.1743 52.5106C66.1743 51.3857 66.4721 50.289 67.0677 49.2207C67.6231 48.2172 68.3394 47.3957 69.2168 46.7563C70.7702 45.6152 72.4162 44.992 74.1548 44.8868Z" fill="#6DB2CD"/>
<path d="M72.8026 86.4173C73.1406 86.2474 73.5793 86.2716 74.1186 86.4902C74.8913 86.8139 75.6358 86.996 76.3521 87.0365C75.9175 87.255 75.2615 87.4735 74.3842 87.692L72.3438 88.1776C71.2411 88.4528 70.408 88.7077 69.8446 88.9424C69.6031 89.0395 69.8446 88.6592 70.569 87.8013C70.5126 87.777 70.7461 87.603 71.2692 87.2793C71.8005 86.9555 72.3116 86.6682 72.8026 86.4173Z" fill="#6DB2CD"/>
<path d="M59.7512 37.7849C59.7512 37.623 61.8278 37.5826 65.9811 37.6635C70.2551 37.7444 72.7342 38.0439 73.4183 38.5619C73.9737 38.9665 75.1126 40.1522 76.8351 42.1189C78.7266 44.2879 79.5999 45.5625 79.455 45.9429C79.4228 46.0239 77.9539 45.5585 75.0482 44.5468C72.0057 43.4866 69.6393 42.5964 67.9491 41.8761C62.508 39.5533 59.7754 38.1896 59.7512 37.7849Z" fill="#0D131A"/>
<path d="M67.8887 38.3434C71.0278 38.5295 72.8227 38.7318 73.2734 38.9504C73.6678 39.1365 74.5532 40.0672 75.9296 41.7425C77.2174 43.3207 78.1229 44.5347 78.6461 45.3845C76.2636 44.6156 73.0521 43.3774 69.0115 41.6697C65.1239 40.0187 62.5965 38.8492 61.4294 38.1613C62.7414 38.1046 64.8945 38.1653 67.8887 38.3434Z" fill="#00AEEB"/>
<path d="M54.8977 40.8563C54.117 40.5893 53.7226 40.391 53.7145 40.2615C53.7065 40.2048 53.8393 40.1239 54.1129 40.0187L54.789 39.7516C55.4652 39.4683 58.0368 38.9504 62.504 38.1977C67.1884 37.4126 69.8406 37.1253 70.4603 37.3358C71.4503 37.6595 73.1849 38.9949 75.664 41.3419C78.2316 43.7699 79.5637 45.4371 79.6603 46.3436C72.5611 45.4209 68.5568 44.8544 67.6472 44.644L64.822 43.8913L60.4273 42.5923L54.8977 40.8563Z" fill="#0D131A"/>
<path d="M61.2966 42.2767C57.9966 41.2974 55.9521 40.6095 55.1633 40.2129C56.6041 39.784 59.1838 39.2498 62.9024 38.6104C66.959 37.9225 69.3657 37.6676 70.1223 37.8456C71.0318 38.0641 72.7221 39.3267 75.1931 41.6333C77.5997 43.8751 78.8634 45.2995 78.9842 45.9065L73.7443 45.1296L67.78 44.0491C66.3232 43.7092 64.162 43.1184 61.2966 42.2767Z" fill="#00AEEB"/>
<path d="M78.7185 45.3845C78.8715 45.6192 78.96 45.7932 78.9841 45.9065L73.7443 45.1296L67.78 44.0491C66.5968 43.7739 64.814 43.2924 62.4315 42.6045C59.6707 41.8113 57.6223 41.1679 56.2861 40.6742L63.7958 39.5331C66.7819 39.1122 68.6815 39.0394 69.4944 39.3146C70.2752 39.6545 71.6636 40.5164 73.6598 41.9003L78.7185 45.3845Z" fill="#0098CD"/>
<path d="M78.6944 45.8701C79.451 46.4366 79.7166 46.7118 79.4912 46.6956C78.9117 46.6713 77.8975 46.7765 76.4487 47.0112L72.4645 47.6547C68.8264 48.1241 66.7699 48.3021 66.295 48.1888C63.8401 47.5494 61.2 46.8008 58.3748 45.9429C55.4933 45.0689 54.0445 44.5711 54.0284 44.4497C54.0123 44.3607 54.2981 44.1827 54.8856 43.9156C56.1574 43.3167 57.9523 42.6126 60.2704 41.8032C63.836 40.5488 66.2749 40.0025 67.5869 40.1643C67.9732 40.2129 68.9713 40.5973 70.5811 41.3176C71.9977 41.9408 73.0038 42.4183 73.5994 42.7501C75.9577 44.0532 77.6561 45.0931 78.6944 45.8701Z" fill="#0D131A"/>
<path d="M67.5989 40.6743C68.9109 41.0627 70.8628 41.9368 73.4545 43.2965C75.6519 44.4457 77.4307 45.4614 78.791 46.3436L72.38 47.0477C68.7499 47.5171 66.794 47.7033 66.5123 47.6061C64.2828 47.0963 62.186 46.5459 60.2221 45.9551C57.9764 45.2672 56.4552 44.6845 55.6583 44.207C57.252 43.4867 59.1636 42.7502 61.3932 41.9975C64.4437 40.9778 66.5123 40.5367 67.5989 40.6743Z" fill="#00AEEB"/>
<path d="M61.7433 42.9444C64.0051 42.216 65.47 41.9166 66.138 42.046C67.9088 42.3941 69.8929 42.993 72.0902 43.8427C73.1607 44.2555 75.1488 45.1053 78.0545 46.3921L72.38 47.0477C68.7499 47.5171 66.794 47.7032 66.5123 47.6061C64.484 47.1448 62.5482 46.643 60.705 46.1008C58.6203 45.4776 57.0951 44.9313 56.1292 44.4619C57.1675 44.3243 59.0389 43.8185 61.7433 42.9444Z" fill="#0098CD"/>
<path d="M81.6886 50.9689C81.8335 50.9446 82.0749 51.1267 82.413 51.5152L84.1636 53.7004L85.1537 55.0964L85.9746 56.1769L83.4996 55.4485L79.8293 53.0327C80.0869 52.628 80.7066 51.9401 81.6886 50.9689Z" fill="#0D131A"/>
<path d="M80.3364 53.0691L81.5558 51.4423C81.7892 51.5637 82.5418 52.4337 83.8135 54.0524L85.1657 55.7277L80.3364 53.0691Z" fill="#922F00"/>
<path d="M79.8896 52.7899L80.1673 52.6927C80.61 53.1136 81.5759 53.757 83.065 54.623C84.385 55.3919 85.3468 55.9058 85.9505 56.1648L85.9988 56.3347C85.1376 56.4966 84.0791 56.5087 82.8235 56.3711C81.8174 56.2578 81.1533 56.1324 80.8314 55.9948C80.4048 55.8168 80.1231 55.2624 79.9862 54.3316L79.8896 52.7899Z" fill="#0D131A"/>
<path d="M81.0849 55.6063C80.8193 55.493 80.606 55.1571 80.445 54.5987C80.3323 54.194 80.2559 53.7125 80.2156 53.1541C80.6503 53.5911 81.4471 54.1455 82.6062 54.8172C83.7411 55.4728 84.6426 55.9098 85.3106 56.1283L82.7752 55.8977L81.0849 55.6063Z" fill="#6C9BD2"/>
<path d="M81.0849 55.6063C80.8193 55.493 80.606 55.1571 80.445 54.5987C80.3323 54.194 80.2559 53.7125 80.2156 53.1541C80.6503 53.5911 81.4471 54.1455 82.6062 54.8172C83.7411 55.4728 84.6426 55.9098 85.3106 56.1283L82.7752 55.8977L81.0849 55.6063Z" fill="#6C9BD2"/>
<path d="M81.0849 55.6063C80.7952 55.4849 80.5698 55.1005 80.4088 54.453C81.8335 55.2138 83.3748 55.7722 85.0329 56.1283L82.6182 55.8855L81.0849 55.6063Z" fill="#5D86B6"/>
<path d="M82.244 45.7487L85.6728 45.6516C86.8238 45.8944 87.7696 46.5904 88.5101 47.7397L88.3531 47.8368C87.7011 48.031 86.8761 48.3912 85.8781 48.9172C83.8739 49.9694 81.9542 51.3452 80.119 53.0448L79.8897 53.0084C79.4631 52.2152 79.1733 51.0134 79.0204 49.4028C78.8755 47.7923 78.9721 46.8777 79.3101 46.6592C79.7528 46.376 80.7308 46.0725 82.244 45.7487Z" fill="#0D131A"/>
<path d="M88.0513 47.6183C86.6025 48.1119 85.5279 48.5368 84.8277 48.8929C82.8879 49.8722 81.3023 51.1348 80.0708 52.6806C79.8293 52.1707 79.6442 51.0984 79.5154 49.4635C79.3866 47.9015 79.3665 47.0922 79.455 47.0355C79.8655 46.7766 80.6503 46.5297 81.8093 46.295C83.3789 46.0684 84.5218 45.9996 85.2382 46.0886C86.4053 46.2262 87.343 46.7361 88.0513 47.6183Z" fill="#6C9BD2"/>
<path d="M73.9375 47.946L76.7506 47.6668L78.4892 47.7275L78.2356 47.9096C78.4046 48.379 78.4972 48.7715 78.5133 49.0872C78.5294 49.4514 78.457 49.8034 78.296 50.1433C78.1189 50.4995 77.8533 50.8232 77.4991 51.1145C77.1369 51.3978 76.7305 51.6163 76.2797 51.7701C75.8048 51.9239 75.3138 52.0048 74.8068 52.0129C74.2836 52.0129 73.853 51.9239 73.5149 51.7458C73.0481 51.503 72.6537 51.1105 72.3317 50.5682C71.9856 49.9855 71.7844 49.3259 71.728 48.5894L71.1968 48.5409C70.9071 48.5004 70.9312 48.4357 71.2693 48.3466L73.9375 47.946Z" fill="#0D131A"/>
<path d="M77.8975 47.9218C78.0183 48.2779 78.0786 48.6178 78.0786 48.9415C78.0786 49.3381 78.0022 49.6942 77.8492 50.0098C77.5273 50.6573 76.9478 51.1226 76.1107 51.4059L73.9133 51.3452C73.1889 50.9729 72.5893 50.1069 72.1144 48.7473L72.1385 48.638C72.1707 48.5814 72.1989 48.553 72.223 48.553C72.9313 48.3912 73.9737 48.2374 75.3501 48.0917L77.8975 47.9218Z" fill="white"/>
<path d="M77.8975 47.9218C78.0183 48.2779 78.0786 48.6178 78.0786 48.9415C77.5072 48.8201 76.815 48.8161 76.002 48.9294C74.843 49.0831 73.7443 49.4635 72.706 50.0705C72.4967 49.7063 72.2995 49.2652 72.1144 48.7473L72.1506 48.6259L72.2472 48.5409C72.9716 48.3871 74.0139 48.2374 75.3742 48.0917L77.8975 47.9218Z" fill="#DBDCDC"/>
<path d="M79.8172 57.3665C80.7348 57.0833 81.2177 56.8607 81.266 56.6989C81.3546 56.8607 81.4552 56.9578 81.5679 56.9902C81.745 57.1683 83.1414 57.8845 85.7574 59.139C88.325 60.5634 89.7054 61.8502 89.8985 62.9995C89.9066 63.1775 89.8704 63.3353 89.7899 63.4729C89.6289 63.7481 89.3432 63.7966 88.9327 63.6186C89.7858 64.8326 90.4257 66.0951 90.8523 67.4062C91.2548 68.6202 91.456 69.814 91.456 70.9875C91.456 73.4479 90.7517 75.7464 89.3432 77.883C88.82 78.668 88.2968 79.2831 87.7736 79.7282C87.2907 80.1329 86.9808 80.2543 86.844 80.0924C86.7393 79.9548 86.7836 79.5623 86.9768 78.9149L87.3993 77.3852C87.1901 78.1379 86.7715 78.9351 86.1437 79.7768C85.5159 80.6104 85.1054 80.9301 84.9122 80.7358C84.8478 80.6711 84.8357 80.5214 84.876 80.2867L84.9484 79.7282V79.7161C84.1274 80.5254 82.9322 81.3955 81.3626 82.3262C79.5114 83.4269 78.2517 83.8598 77.5837 83.6251C77.4629 83.5766 77.5716 83.3823 77.9096 83.0424L78.4892 82.5083L76.2073 83.9893C75.008 84.7582 74.0059 85.1345 73.201 85.1184C72.9354 85.1022 72.9072 84.9241 73.1165 84.5842C73.5833 83.8153 73.7121 82.8158 73.5028 81.5856C73.3177 80.4607 72.9273 79.5016 72.3317 78.7085C72.2271 78.838 72.1063 79.1739 71.9695 79.7161C71.8488 80.1936 71.7482 80.4283 71.6677 80.4202C71.1365 80.3878 70.6777 79.6028 70.2913 78.0651C69.8486 76.2603 69.8526 74.2734 70.3034 72.1044C70.1585 72.2905 70.0297 72.5131 69.917 72.7721L69.6152 73.549C69.5025 73.8242 69.41 73.9375 69.3375 73.889C69.2812 73.8485 69.2128 73.6988 69.1323 73.4398C68.6332 71.7321 68.5044 70.1903 68.7459 68.8145C68.9471 67.6409 69.4341 66.5322 70.2068 65.4881C70.6495 64.8892 71.4946 64.0759 72.7422 63.048C73.7805 62.2063 74.348 61.5872 74.4446 61.1906L73.4425 61.5184C72.8469 61.6722 72.5531 61.6438 72.5611 61.4334C72.5772 60.268 74.0059 59.2118 76.8472 58.2649L79.8172 57.3665Z" fill="#0D131A"/>
<path d="M85.3106 59.4546C87.7334 60.9195 89.0614 62.1011 89.2948 62.9995C89.319 63.1209 89.2546 63.1978 89.1017 63.2301L88.5584 63.1452C88.3732 63.0723 88.2485 63.0561 88.1841 63.0966C88.1197 63.1371 88.1398 63.2261 88.2445 63.3637C89.1218 64.5453 89.7778 65.8524 90.2124 67.2849C90.5827 68.4827 90.7879 69.7209 90.8282 70.9997C90.8845 72.7316 90.4177 74.589 89.4277 76.5719C88.6067 78.2229 87.9104 79.2063 87.339 79.5219C87.5643 79.0363 87.7374 78.2674 87.8581 77.2153C87.8742 76.5112 87.8098 76.236 87.6649 76.3898L86.8802 77.8587C86.3489 78.8056 85.866 79.4571 85.4314 79.8132C85.3831 79.8537 85.3388 79.7121 85.2986 79.3884C85.2583 79.0808 85.1979 78.9796 85.1175 79.0849C84.7874 79.5138 83.7129 80.2988 81.8939 81.44C79.9702 82.6459 78.7266 83.2448 78.1632 83.2367L78.6703 82.8604C79.1532 82.5204 79.4188 82.2817 79.4671 82.1441L79.5999 81.9863C79.6321 81.8892 79.5234 81.877 79.2739 81.9499C78.9681 82.0308 78.5495 82.1967 78.0183 82.4476C77.4629 82.6985 76.9639 82.9615 76.5212 83.2367L75.0603 84.1472C74.5049 84.4547 74.0421 84.6206 73.6719 84.6449C73.8248 84.3698 73.9455 83.8235 74.0341 83.006L74.1186 81.8649C74.1105 81.3065 73.9455 80.6833 73.6236 79.9953C73.3499 79.4207 73.0038 78.8744 72.5853 78.3565L72.5732 78.1622L72.6094 78.0044C72.5933 77.9478 72.4685 78.0287 72.2351 78.2472C72.0178 78.4576 71.8528 78.7935 71.7401 79.2548L71.5952 79.8132C71.3055 79.6514 71.06 79.008 70.8588 77.883C70.6575 76.7985 70.5569 75.6331 70.5569 74.3867C70.5569 73.2698 70.6656 72.2501 70.8829 71.3275L71.0157 71.0604C71.0479 70.9228 70.9232 70.9633 70.6414 71.1818C70.3436 71.4084 70.0981 71.7038 69.905 72.068L69.4945 73.0635C69.3576 72.4079 69.2892 71.7078 69.2892 70.9633C69.2892 68.9157 69.7963 67.212 70.8105 65.8524C70.9634 65.65 71.5188 65.0552 72.4766 64.0678L74.348 62.1011C74.8229 61.5508 75.0724 61.1583 75.0965 60.9236C75.1287 60.7698 75.0643 60.7131 74.9033 60.7536L74.3359 60.8629L73.2855 61.1057C74.0341 60.1507 75.1046 59.398 76.497 58.8476C77.3502 58.5077 78.6783 58.1435 80.4813 57.7551L80.8435 57.6458C81.101 57.5487 81.2862 57.4556 81.3988 57.3666C82.6867 57.9655 83.9906 58.6615 85.3106 59.4546Z" fill="white"/>
<path d="M80.3967 57.7672C80.598 57.8724 80.3324 58.1759 79.5999 58.6777C78.1028 59.7055 77.1691 60.3611 76.7989 60.6444C73.8288 62.9671 72.2351 65.468 72.0178 68.1468C71.9937 68.4706 72.219 69.0775 72.6939 69.9678C73.1366 70.8095 73.3056 71.3922 73.201 71.716C73.201 72.1287 73.0159 72.6264 72.6456 73.2092C72.4122 73.8971 72.5973 74.8804 73.201 76.1592C73.6598 77.1303 74.1266 77.8871 74.6015 78.4293C74.8993 78.7692 75.0402 79.0201 75.0241 79.182C74.9355 79.9994 75.0845 80.4729 75.4708 80.6024C75.6479 80.659 75.7525 80.7157 75.7847 80.7723C75.8491 80.8937 75.829 81.1284 75.7243 81.4764C75.5392 82.1158 75.338 82.6095 75.1207 82.9575C74.847 83.3864 74.4083 83.8437 73.8047 84.3293C73.9174 83.9732 74.0019 83.4552 74.0582 82.7754L74.1186 81.8649C74.1105 81.3065 73.9455 80.6833 73.6236 79.9954C73.3499 79.4207 73.0038 78.8744 72.5853 78.3565L72.5732 78.1622L72.6094 78.0044C72.5933 77.9478 72.4685 78.0287 72.2351 78.2472C72.0178 78.4576 71.8528 78.7935 71.7401 79.2548L71.5952 79.8133C71.3055 79.6514 71.06 79.008 70.8588 77.883C70.6575 76.7985 70.5569 75.6331 70.5569 74.3867C70.5569 73.2699 70.6656 72.2501 70.8829 71.3275L71.0157 71.0604C71.0479 70.9228 70.9232 70.9633 70.6414 71.1818C70.3436 71.4084 70.0981 71.7038 69.905 72.068L69.4945 73.0635C69.3576 72.4079 69.2892 71.7079 69.2892 70.9633C69.2892 68.9157 69.7963 67.2121 70.8105 65.8524C70.9634 65.6501 71.5188 65.0552 72.4766 64.0678L74.348 62.1012C74.8229 61.5508 75.0724 61.1583 75.0965 60.9236C75.1287 60.7698 75.0643 60.7132 74.9033 60.7536L74.3359 60.8629L73.2855 61.1057C74.0341 60.1588 75.0925 59.4101 76.4608 58.8598C77.306 58.5199 78.6179 58.1557 80.3967 57.7672Z" fill="#DBDCDC"/>
<path d="M2.17314 11.0165C2.479 10.5228 2.76474 10.2274 3.03035 10.1303C3.29597 10.0331 3.6461 10.11 4.08074 10.3609C4.66831 10.6927 5.85553 11.4859 7.64239 12.7403C9.70292 14.1809 11.2322 15.3302 12.2303 16.1881C14.1942 17.8634 17.2609 19.6156 21.4302 21.4446C22.9273 22.1002 25.0442 23.1321 27.7808 24.5403C30.7106 26.0538 32.7792 27.199 33.9866 27.9759L34.0228 28.0002L54.5476 53.4333L66.8504 62.8296L67.1281 63.1452L65.7638 71.2911C65.6269 72.1004 65.4096 72.9542 65.1118 73.8526C64.7577 74.9209 64.4558 75.4753 64.2063 75.5157C63.9648 75.5562 62.8138 75.3863 60.7533 75.0059L57.5418 74.3382C57.3567 74.2411 57.413 73.7474 57.7108 72.8571L56.5759 74.4717C56.2057 74.9492 55.9441 75.2042 55.7911 75.2365C55.6141 75.2689 54.8333 74.929 53.4489 74.2168C52.0484 73.5046 51.324 73.0675 51.2757 72.9057C51.2354 72.76 51.332 72.4079 51.5654 71.8495L52.314 70.1256L50.9738 71.7645C50.507 72.2501 50.1408 72.5131 49.8752 72.5536C49.4969 72.6103 48.3137 72.2703 46.3256 71.5339C44.3375 70.8055 43.3314 70.3522 43.3072 70.1742C43.2831 69.988 43.7097 69.4337 44.587 68.511L46.6999 66.253L43.9109 68.159C42.9128 68.8307 42.2729 69.1625 41.9912 69.1544C41.5566 69.1464 40.5625 68.6648 39.0091 67.7098C37.3913 66.7224 36.695 66.0709 36.9204 65.7553C37.1216 65.472 38.1398 64.7234 39.975 63.5094C41.6813 62.3763 43.2147 61.4173 44.5749 60.6322C42.4098 61.0612 40.3694 61.4132 38.4537 61.6884C34.719 62.2226 32.2118 62.2752 30.932 61.8462C30.5295 61.7167 30.0104 61.3606 29.3745 60.7779C28.795 60.2438 28.4851 59.8917 28.4449 59.7217C28.4127 59.568 29.4188 59.3494 31.4632 59.0662C34.224 58.6777 36.3087 58.3054 37.7173 57.9493L32.4049 58.6534C29.0324 59.05 27.0162 59.1835 26.3562 59.054C26.0906 58.9974 25.6398 58.5118 25.004 57.5973C24.3681 56.6827 24.1186 56.1445 24.2554 55.9827C24.3439 55.8774 26.2556 55.6023 29.9903 55.1571C34.063 54.6715 36.518 54.3235 37.355 54.1131L27.5514 54.453C23.8087 54.4287 21.3014 54.0079 20.0297 53.1905C19.5226 52.8587 18.7298 52.0898 17.6512 50.8839C16.5646 49.678 16.0455 48.986 16.0938 48.808C16.126 48.6623 17.8162 48.5247 21.1646 48.3952L27.2858 48.1646L17.6995 47.2298C13.6831 46.7847 11.4737 46.3962 11.0712 46.0644C10.7654 45.8135 10.0209 44.5873 8.83766 42.386C7.62227 40.1279 7.07494 38.8816 7.19568 38.6469C7.30836 38.4284 9.37292 38.4122 13.3893 38.5983L20.5972 39.0475C19.2691 38.6995 16.287 38.2624 11.6508 37.7364C7.56995 37.267 5.44503 36.9311 5.27601 36.7288C4.98624 36.3808 4.5677 35.2113 4.02037 33.2203C3.465 31.1727 3.28792 30.0316 3.48914 29.7969C3.7789 29.4489 5.55369 29.1616 8.81351 28.935C12.5643 28.6679 16.0978 28.7448 19.414 29.1656C18.0295 28.6396 14.81 26.9804 9.75524 24.1883L1.62984 19.7086C0.961775 19.393 0.515059 19.0126 0.289689 18.5675C0.104564 18.1952 0.0602944 17.7298 0.156882 17.1714C0.277616 16.4835 0.567377 15.4233 1.02617 13.9907C1.5091 12.4773 1.89143 11.4859 2.17314 11.0165Z" fill="#0D131A"/>
<path d="M1.66605 14.622C2.34217 12.5097 2.92169 11.2066 3.40462 10.713C4.7327 11.3199 7.46934 13.3149 11.6145 16.6979C12.9346 17.7743 14.4961 18.7819 16.299 19.7208C17.3776 20.2873 19.0075 21.0481 21.1887 22.0031C22.6295 22.6343 24.7182 23.6581 27.4548 25.0745C30.3686 26.5798 32.421 27.7129 33.6123 28.4736L54.125 53.8824L69.1685 64.0071L69.1564 66.945C69.1564 67.1958 69.0316 67.7057 68.7821 68.4746C68.5004 69.3163 68.1905 70.0811 67.8525 70.769C66.8866 72.6952 66.1219 73.112 65.5585 72.0194C65.3412 71.9061 65.0555 72.327 64.7013 73.282C64.3149 74.3422 64.0614 74.9047 63.9407 74.9694C63.7636 75.018 62.7374 74.848 60.862 74.4595C58.9705 74.063 58.0086 73.7999 57.9764 73.6705C57.9603 73.5652 58.234 72.8935 58.7974 71.6552L59.7271 69.555C59.8236 69.207 59.8639 68.9602 59.8478 68.8145C59.8236 68.5879 59.6506 68.7255 59.3286 69.2273L59.3045 69.2758L59.3166 69.2515C57.087 72.7559 55.8515 74.5445 55.61 74.6174C55.441 74.6659 54.8172 74.3948 53.7386 73.804C52.6923 73.2375 52.0967 72.8692 51.9518 72.6993C51.8471 72.5779 52.1892 71.7038 52.978 70.077L54.3302 67.2727C54.4429 66.9895 54.4711 66.7912 54.4148 66.6779C54.3504 66.5484 54.2296 66.6293 54.0526 66.9207C53.7869 67.3253 53.0907 68.2156 51.9639 69.5915C50.7324 71.0806 50.02 71.8535 49.8269 71.9102C49.6176 71.9749 48.6718 71.7078 46.9896 71.1089C45.2993 70.51 44.4099 70.1216 44.3214 69.9435C44.2409 69.7897 44.9009 68.9278 46.3014 67.3577C47.3317 66.2004 48.1446 65.3223 48.7403 64.7234C49.0381 64.4239 49.1749 64.2135 49.1508 64.0921C49.1266 63.9545 48.7966 64.1083 48.1607 64.5534L44.7077 66.945C43.0819 68.0375 42.1603 68.5677 41.9429 68.5353C41.6773 68.4948 40.8925 68.074 39.5886 67.2727C38.2766 66.4796 37.6247 66.0223 37.6327 65.9009C37.6408 65.7957 39.0332 64.8367 41.8101 63.0238C44.2972 61.4051 45.8064 60.438 46.3377 60.1223C46.5952 59.9686 46.6516 59.8633 46.5067 59.8067L45.577 59.8795C43.7016 60.2923 41.5324 60.6727 39.0695 61.0207C34.9967 61.5953 32.3486 61.6762 31.1252 61.2635C30.8354 61.1664 30.4531 60.9236 29.9782 60.5351C29.5033 60.1547 29.3101 59.9362 29.3987 59.8795L33.8538 59.1269C37.0653 58.5684 39.3311 58.0666 40.6511 57.6215C41.126 57.4677 41.295 57.3423 41.1582 57.2452L39.5645 57.2937C37.6649 57.6094 35.2261 57.9169 32.248 58.2164C28.7065 58.5887 26.7828 58.6655 26.4769 58.447C26.2354 58.2771 25.9255 57.8845 25.5472 57.2695C25.1529 56.6382 25.0321 56.2983 25.185 56.2497L31.4149 55.497C35.697 54.9467 38.4859 54.449 39.7818 54.0038C40.1601 53.8743 40.3613 53.7165 40.3855 53.5304C40.4096 53.328 40.1158 53.2795 39.5041 53.3847C36.3409 53.7408 32.6665 53.8703 28.4811 53.7732C24.0622 53.668 21.402 53.3361 20.5006 52.7777L18.7982 51.1388C17.6714 50.0219 17.124 49.3947 17.1562 49.2571C17.1884 49.1276 19.249 48.9334 23.3378 48.6744L29.9903 48.2859C30.3927 48.2536 30.4088 48.1645 30.0386 48.0189C29.6603 47.8651 29.117 47.7882 28.4086 47.7882L19.8245 46.8049C14.6087 46.1169 11.8842 45.6597 11.6508 45.4331C11.3932 45.1822 10.7734 44.1139 9.79146 42.2281C8.80949 40.3343 8.36277 39.3469 8.45131 39.266C8.5318 39.1932 10.5561 39.1851 14.5242 39.2417C18.4521 39.3065 20.6414 39.3712 21.0922 39.4359L22.6013 39.703L24.7987 40.1643C25.4587 40.3424 25.9296 40.4233 26.2113 40.4071C26.5654 40.391 26.2757 40.1684 25.342 39.7394C22.7422 38.8168 18.6896 37.9549 13.1841 37.1536L7.99252 36.4495C6.54371 36.2472 5.78711 36.1015 5.72272 36.0125C5.52954 35.7616 5.20356 34.7985 4.74477 33.1232C4.26989 31.3912 4.10488 30.416 4.24976 30.1975C4.44294 29.9223 6.42298 29.6917 10.1899 29.5055C14.2304 29.3032 17.4983 29.3517 19.9935 29.6512L21.8649 29.7362C22.2271 29.6795 21.9695 29.5217 21.0922 29.2627C20.2551 29.028 16.79 27.2596 10.697 23.9576C5.00636 20.866 1.77069 19.0652 0.989944 18.5553C0.748476 18.094 0.973846 16.7829 1.66605 14.622Z" fill="#7FCCEC"/>
<path d="M18.1463 22.2944C17.5989 21.5256 17.2367 20.8012 17.0597 20.1214C17.9933 20.5827 19.3697 21.2099 21.1888 22.0031C22.6295 22.6344 24.7182 23.6582 27.4549 25.0745C30.3686 26.5798 32.4211 27.7129 33.6123 28.4736L54.125 53.8825L69.1685 64.0071L69.0598 64.7234C68.9471 65.2818 68.8023 65.7796 68.6252 66.2166C68.0537 67.6086 67.2408 68.1104 66.1864 67.7219C62.6931 66.4351 58.9141 63.7765 54.8494 59.746C50.664 55.6023 46.6476 50.463 42.8002 44.3284C41.5445 42.3293 40.0796 40.5893 38.4054 39.1082C37.2947 38.137 35.5964 36.8947 33.3105 35.3813C30.598 33.5926 28.5535 32.1642 27.1772 31.0959C24.6096 29.1049 22.1104 26.8145 19.6796 24.2247C18.9793 23.383 18.4682 22.7396 18.1463 22.2944Z" fill="#6DB2CD"/>
<path d="M47.0741 47.7154C46.4544 46.9708 43.9793 43.8306 39.649 38.2948C35.4716 32.9451 33.1414 29.9992 32.6585 29.4569L28.2396 26.9683C25.2857 25.3011 22.7301 23.5691 20.573 21.7724C19.7279 21.0683 19.422 20.7081 19.6554 20.6919C19.7681 20.6838 19.9653 20.7445 20.247 20.874C22.7744 21.5943 25.5835 22.6262 28.6743 23.9697C30.2277 24.6334 31.5236 25.2282 32.5619 25.7543C33.2219 26.0699 34.0349 26.6648 35.0007 27.5388C36.0712 28.5019 36.9606 29.4934 37.6689 30.5131C39.158 32.6578 41.6491 35.9113 45.1424 40.2736C49.6498 45.8903 52.9941 49.6658 55.1754 51.6001C56.0125 52.1828 58.5922 53.7853 62.9144 56.4075C66.9711 58.8679 69.088 60.179 69.2651 60.3408C69.917 60.9236 70.3436 61.6034 70.5448 62.3803C70.73 63.0683 70.7179 63.736 70.5086 64.3834C70.3396 64.9176 70.1746 65.1078 70.0136 64.954C69.8446 64.7921 69.8607 64.3511 70.0619 63.6308L68.8183 65.4639C68.263 66.2408 68.0295 66.8236 68.1181 67.212C68.2147 67.6167 68.1382 67.7179 67.8887 67.5155L67.4782 67.0906C65.0877 64.088 62.6166 61.6236 60.0651 59.6974C58.6083 58.5887 56.6162 57.3463 54.0888 55.9705C53.3724 55.582 52.2295 54.3802 50.6599 52.3649L47.0741 47.7154Z" fill="#0D131A"/>
<path d="M21.3578 21.736C24.0622 22.7476 26.6017 23.7755 28.9761 24.8195C31.0608 25.7259 32.3647 26.3491 32.8879 26.689C33.6686 27.1746 34.2522 27.5874 34.6385 27.9273C35.4676 28.6476 36.3087 29.6269 37.1619 30.8652C38.6429 32.9856 41.291 36.4576 45.1062 41.2812C49.8068 47.2217 52.9056 50.7867 54.4027 51.9764L58.9544 54.9993C60.862 56.2214 62.4798 57.2047 63.8079 57.9493L67.5144 60.0738C68.6493 60.7536 69.3013 61.219 69.4703 61.4698C69.7198 61.8259 69.8969 62.2185 70.0015 62.6474C70.0901 63.0521 70.1102 63.4325 70.0619 63.7886C69.9331 64.6384 69.744 65.4194 69.4945 66.1316C69.1322 67.1918 68.762 67.6248 68.3837 67.4305C68.3032 67.3901 68.2066 67.2727 68.0939 67.0785L67.7197 66.4351C65.305 63.4325 62.8863 60.96 60.4635 59.0176C58.7974 57.6903 56.8456 56.4197 54.6079 55.2057C53.6179 54.6796 49.839 50.2485 43.271 41.9125C36.8238 33.5926 33.4634 29.3193 33.1897 29.0927C32.8275 28.7852 32.24 28.421 31.427 28.0001L28.8674 26.7619C27.7325 26.2358 26.3361 25.3779 24.678 24.1882L21.3578 21.736Z" fill="#7FCCEC"/>
<path d="M77.2456 48.201C77.5836 48.5004 77.7929 48.897 77.8734 49.3907C77.9539 49.8925 77.8774 50.3416 77.644 50.7382C77.4106 51.1348 77.0926 51.3614 76.6902 51.418C76.2878 51.4828 75.9135 51.3654 75.5674 51.066C75.2293 50.7584 75.02 50.3578 74.9396 49.8641C74.8591 49.3705 74.9355 48.9253 75.1689 48.5288C75.3943 48.1322 75.7123 47.9015 76.1228 47.8368C76.5252 47.772 76.8995 47.8934 77.2456 48.201Z" fill="#AD181F"/>
<path d="M76.9679 48.0067C77.2335 48.1524 77.4508 48.375 77.6198 48.6744C77.2818 48.4802 76.7626 48.5894 76.0624 49.0022C75.338 49.4311 75.012 49.8965 75.0844 50.3983L74.9396 49.8641C74.8591 49.3704 74.9355 48.9253 75.1689 48.5287C75.3943 48.1322 75.7123 47.9015 76.1228 47.8368C76.4125 47.7882 76.6942 47.8449 76.9679 48.0067Z" fill="#920E14"/>
<path d="M77.1731 48.286C76.8592 48.0027 76.5131 47.8894 76.1348 47.946C75.8048 48.0108 75.5432 48.1848 75.35 48.4681C75.0603 48.8484 74.9597 49.3098 75.0482 49.852C75.1207 50.3133 75.3179 50.6856 75.6398 50.9689C75.9537 51.2602 76.2998 51.3735 76.6781 51.3088C76.992 51.2602 77.2536 51.0903 77.4629 50.7989C77.7366 50.4104 77.8372 49.9491 77.7647 49.415C77.6842 48.9456 77.487 48.5692 77.1731 48.286ZM76.0986 47.7275C76.5332 47.6547 76.9437 47.7801 77.3301 48.1039C77.7164 48.4276 77.9499 48.8525 78.0303 49.3786C78.0867 49.7347 78.0585 50.0786 77.9458 50.4104C77.8653 50.6532 77.5917 50.9163 77.1248 51.1995C76.7063 51.4423 76.4447 51.5597 76.3401 51.5516C75.9537 51.5111 75.6076 51.3371 75.3018 51.0296C74.9878 50.7139 74.7947 50.3336 74.7222 49.8884C74.6256 49.3138 74.7102 48.8282 74.9758 48.4316C75.2333 48.0432 75.6076 47.8085 76.0986 47.7275Z" fill="#0D131A"/>
<path d="M77.1489 49.5121C77.165 49.6415 77.1449 49.7548 77.0886 49.8519C77.0242 49.9571 76.9397 50.0178 76.835 50.034C76.7224 50.0502 76.6218 50.0178 76.5332 49.9369C76.4447 49.8641 76.3884 49.7629 76.3642 49.6334C76.3481 49.5121 76.3723 49.3988 76.4367 49.2936C76.5011 49.1964 76.5856 49.1398 76.6902 49.1236C76.7948 49.1074 76.8914 49.1358 76.9799 49.2086C77.0684 49.2814 77.1248 49.3826 77.1489 49.5121Z" fill="#0D131A"/>
<path d="M76.0865 48.9172L76.0503 49.1357C76.01 49.2004 75.9537 49.2369 75.8813 49.245C75.8169 49.2611 75.7565 49.245 75.7002 49.1964L75.5915 49.0022C75.5754 48.9213 75.5875 48.8484 75.6277 48.7837C75.668 48.7189 75.7243 48.6825 75.7968 48.6744L75.9778 48.723C76.0422 48.7715 76.0784 48.8363 76.0865 48.9172Z" fill="white"/>
<path d="M76.7506 47.6668L78.4892 47.7275L78.2356 47.9096C78.4046 48.379 78.4972 48.7715 78.5133 49.0872C78.5294 49.4514 78.457 49.8034 78.296 50.1433C78.1189 50.4995 77.8533 50.8232 77.4991 51.1145C77.1369 51.3978 76.7305 51.6163 76.2797 51.7701C75.8048 51.9239 75.3138 52.0048 74.8068 52.0129C74.2836 52.0129 73.853 51.9239 73.5149 51.7458C73.0481 51.503 72.6537 51.1105 72.3317 50.5682C71.9856 49.9855 71.7844 49.3259 71.728 48.5894L71.1968 48.5409C70.9071 48.5004 70.9312 48.4357 71.2693 48.3466L73.9375 47.946L76.7506 47.6668ZM75.3501 48.0917C73.9737 48.2374 72.9314 48.3912 72.2231 48.553C72.1989 48.553 72.1707 48.5813 72.1385 48.638L72.1144 48.7473C72.5893 50.1069 73.1889 50.9729 73.9133 51.3452L76.1107 51.4059C76.9478 51.1226 77.5273 50.6573 77.8493 50.0098C78.0022 49.6942 78.0787 49.3381 78.0787 48.9415C78.0787 48.6178 78.0183 48.2779 77.8976 47.9217L75.3501 48.0917Z" fill="#0D131A"/>
</g>
<defs>
<clipPath id="clip0_83_564">
<rect width="127" height="126" fill="white" transform="translate(0 -0.0672607)"/>
</clipPath>
</defs>
</svg>
