<svg width="129" height="125" viewBox="0 0 129 125" fill="none" xmlns="http://www.w3.org/2000/svg">
<path d="M41.2926 24.975C41.481 24.9886 42.1675 25.7683 43.3518 27.3143C45.0073 29.484 46.3532 31.1486 47.3895 32.3081C51.6291 37.0544 55.3605 39.2174 58.5839 38.797C61.8881 38.3698 62.4332 40.2989 60.2192 44.5841C59.1156 46.7267 57.6788 48.91 55.909 51.134C53.6815 47.4929 50.9292 45.852 47.652 46.2114C46.3734 46.347 45.1183 46.7877 43.8868 47.5336C42.8034 48.1913 41.905 48.9711 41.1917 49.8729C39.045 48.5846 36.8344 49.0999 34.5598 51.4188C33.0995 52.9105 31.8714 54.7751 30.8754 57.0127C30.539 55.8668 30.2631 54.4768 30.0477 52.8427C29.617 49.5745 29.7045 46.7233 30.3102 44.2891C31.2254 40.587 32.6419 36.8442 34.5598 33.0607C36.9084 28.4025 39.1527 25.7073 41.2926 24.975Z" fill="#5DC1CF"/>
<path d="M41.2926 24.975C41.481 24.9886 42.1675 25.7683 43.3518 27.3143C45.0073 29.484 46.3532 31.1486 47.3895 32.3081C51.6291 37.0544 55.3605 39.2174 58.5839 38.797C61.8881 38.3698 62.4332 40.2989 60.2192 44.5841C59.1156 46.7267 57.6788 48.91 55.909 51.134C55.2495 50.0627 54.5328 49.1575 53.7589 48.4184C53.1802 44.9468 51.1748 41.0989 47.7428 36.8747C46.5113 35.3627 45.3067 34.0642 44.1291 32.9793C43.0524 31.9894 42.4265 31.5521 42.2516 31.6673C40.8317 32.5963 39.7583 35.6169 39.0315 40.7294C38.8633 41.9296 38.685 43.3941 38.4965 45.1231C38.3619 46.1131 38.2341 46.2758 38.113 45.6113C37.615 42.872 37.7294 39.6174 38.4562 35.8475L39.1123 32.7353C39.2603 32.0165 39.2368 31.7317 39.0416 31.8809C37.8909 32.7759 36.3902 35.0508 34.5396 38.7054C32.7294 42.272 31.5282 45.2554 30.936 47.6556C30.7947 47.9675 30.6534 48.0896 30.512 48.0218C30.3707 47.9608 30.2597 47.7472 30.1789 47.381C29.9703 46.4928 30.0141 45.4622 30.3102 44.2891C31.2254 40.587 32.6419 36.8442 34.5598 33.0607C36.9084 28.4025 39.1527 25.7073 41.2926 24.975Z" fill="#50A8B4"/>
<path d="M77.349 107.968C78.594 111.121 80.2259 114.036 82.2447 116.715C83.9809 119.034 85.8416 120.969 87.8268 122.522C88.1498 122.773 88.0186 122.942 87.4331 123.031L85.0004 122.878C79.0045 121.78 73.6983 119.362 69.0819 115.626C65.2057 112.487 61.9318 108.527 59.2603 103.747C57.0866 99.8686 55.4648 95.7664 54.3949 91.4404C53.5066 87.8468 53.1667 84.9956 53.3754 82.8869L76.2286 83.0089C73.8463 91.749 74.2198 100.069 77.349 107.968Z" fill="#F9BE00"/>
<path d="M76.2286 83.0089C75.522 85.6059 75.0644 88.1689 74.8558 90.698C69.7414 94.9358 66.7333 99.8719 65.8316 105.507C65.5557 107.263 65.5018 109.002 65.6701 110.724C65.7508 111.578 65.8585 112.277 65.9931 112.819C61.4776 108.222 58.0422 102.54 55.6869 95.7732C54.7784 93.1559 54.1223 90.6098 53.7186 88.135C53.3619 85.9652 53.2475 84.2159 53.3754 82.8869L76.2286 83.0089Z" fill="#D7A400"/>
<path d="M77.349 107.968C78.594 111.121 80.2259 114.036 82.2447 116.715C83.9809 119.034 85.8416 120.969 87.8268 122.522C88.17 122.786 88.0354 122.973 87.423 123.081C86.7837 123.203 85.9762 123.136 85.0004 122.878C80.135 121.624 75.7979 119.159 71.989 115.484C68.6916 112.29 65.9863 108.395 63.8733 103.798C61.9958 99.7228 60.8114 95.6375 60.3201 91.5421C59.8491 87.6434 60.088 84.6125 61.0368 82.4496L76.2286 83.0089C73.8463 91.749 74.2198 100.069 77.349 107.968Z" fill="#FFF3C2"/>
<path d="M76.2286 83.0089C75.5623 85.4431 75.1148 87.8671 74.886 90.281C69.6101 94.3425 66.5415 99.9194 65.6801 107.012C62.948 102.109 61.1714 97.6039 60.3504 93.4949C59.4756 89.169 59.7044 85.4872 61.0368 82.4496L76.2286 83.0089Z" fill="#DBD2A9"/>
<path d="M56.9083 93.0372C57.0564 92.766 57.5039 93.0135 58.2508 93.7797C58.621 94.1594 58.9776 94.5662 59.3208 95.0002L58.9978 96.5258C58.7152 97.5835 58.3922 98.2209 58.0288 98.4379C57.5577 98.0988 57.1943 97.2208 56.9386 95.8037C56.6963 94.4476 56.6862 93.5254 56.9083 93.0372Z" fill="#DBDCDC"/>
<path d="M67.5072 85.7347C68.133 86.806 68.4258 88.0875 68.3854 89.5792C68.3585 90.8404 68.1061 92.0541 67.6283 93.2203C67.4197 93.7289 66.9991 94.2103 66.3666 94.6646C65.7407 95.1053 65.0139 95.4477 64.1862 95.6918C62.2414 96.2681 60.5994 96.1359 59.2603 95.2951C57.625 94.2645 56.5281 92.5389 55.9696 90.1183C55.5591 88.3553 55.4783 86.7585 55.7273 85.3279L67.5072 85.7347Z" fill="#F9BE00"/>
<path d="M68.3652 88.674C66.2993 88.8028 64.3544 89.3555 62.5308 90.3318C60.7273 91.2947 59.2064 92.5863 57.9682 94.2069C56.878 93.0135 56.1613 91.3964 55.8181 89.3555C55.5557 87.8231 55.5254 86.4805 55.7273 85.3279L67.5072 85.7347C68.0052 86.5822 68.2912 87.562 68.3652 88.674Z" fill="#D7A400"/>
<path d="M59.3814 95.1121C59.7851 94.5154 60.485 94.2645 61.481 94.3594C62.45 94.4544 63.1061 94.7968 63.4493 95.3867C63.3753 96.1664 63.0792 97.1428 62.561 98.3158C62.0294 99.4956 61.6189 100.072 61.3296 100.045C61.0267 100.011 60.6331 99.3871 60.1485 98.1734C59.6506 96.9462 59.3948 95.9257 59.3814 95.1121Z" fill="white"/>
<path d="M61.0873 94.3493C60.7239 94.6205 60.5658 95.4036 60.6129 96.6987C60.6465 97.553 60.7643 98.5803 60.9662 99.7804C60.623 99.1702 60.2865 98.404 59.9568 97.4818C59.5799 96.4376 59.3881 95.6477 59.3814 95.1121C59.5429 94.8612 59.7818 94.6713 60.0981 94.5425C60.3874 94.4204 60.7172 94.356 61.0873 94.3493Z" fill="#DBDCDC"/>
<path d="M63.8228 95.346C64.0382 94.8171 64.4789 94.2984 65.1452 93.7899C65.9527 93.1796 66.6021 93.1084 67.0933 93.5763C67.2145 94.8307 67.1438 96.0952 66.8814 97.3699C66.6189 98.6582 66.2993 99.2719 65.9224 99.2108C65.5388 99.1498 65.0577 98.5803 64.4789 97.5022C63.8935 96.4241 63.6748 95.7053 63.8228 95.346Z" fill="white"/>
<path d="M63.8228 95.346C63.9641 95.0137 64.2434 94.6374 64.6606 94.217C64.7683 96.2173 65.1653 97.8751 65.8517 99.1905C65.4547 99.0549 64.9803 98.465 64.4285 97.4208C63.8834 96.3766 63.6815 95.685 63.8228 95.346Z" fill="#DBDCDC"/>
<path d="M43.8868 28.9416C42.9111 27.4228 42.265 26.5311 41.9487 26.2667C41.0134 25.4802 39.5396 26.7006 37.5275 29.9281C35.9528 32.464 34.3041 35.7559 32.5814 39.8039C31.3028 42.8076 30.6164 46.5911 30.5221 51.1544C30.4347 55.1955 30.7678 58.1586 31.5215 60.0435C31.6426 60.3419 31.683 60.5588 31.6426 60.6945C31.6022 60.8165 31.508 60.8301 31.36 60.7351C30.9696 60.5046 30.5625 59.8842 30.1386 58.8739C28.8532 55.7752 28.5269 51.5137 29.1594 46.0894C29.7516 41.0854 31.7301 35.9255 35.0948 30.6096C36.3128 28.6771 37.5746 26.9583 38.8801 25.453C40.0107 24.1444 40.835 23.3681 41.3532 23.124C42.2347 22.7036 42.8673 22.5544 43.2509 22.6764C43.6143 22.7917 43.7792 23.1612 43.7455 23.785C43.7119 24.4699 43.8061 25.0835 44.0281 25.6259C44.3377 26.3718 45.0779 27.6363 46.2489 29.4196C47.6755 31.5961 49.5934 33.5862 52.0025 35.3898C54.7078 37.4239 56.7939 38.163 58.2609 37.607L59.1593 38.6139C59.6102 39.2716 59.4689 39.57 58.7354 39.5089C54.1728 39.1157 50.2495 37.0069 46.9655 33.1828C46.0571 32.1318 45.0308 30.7181 43.8868 28.9416Z" fill="#F9BE00"/>
<path d="M41.3532 23.124C41.8175 22.907 42.2146 22.7612 42.5443 22.6866C41.8175 23.1002 41.3666 23.4935 41.1917 23.8664C40.9158 24.4563 40.4683 25.0496 39.8492 25.6463C36.5114 28.8806 33.8667 33.1523 31.9151 38.4613C30.3404 42.7398 29.5295 46.5708 29.4824 49.9542C29.4555 52.0968 29.5666 53.9106 29.8155 55.3955C30.1453 57.4297 30.7509 59.0977 31.6325 60.3995C31.6729 60.6097 31.6493 60.7351 31.5618 60.7758C31.4744 60.8165 31.3499 60.7623 31.1884 60.6131C30.7711 60.2266 30.3707 59.5181 29.9872 58.4874C28.8297 55.3888 28.5538 51.2561 29.1594 46.0894C29.7516 41.0854 31.7301 35.9255 35.0948 30.6096C36.3128 28.6771 37.5746 26.9583 38.8801 25.453C40.0107 24.1444 40.835 23.3681 41.3532 23.124Z" fill="#D7A400"/>
<path d="M43.8868 28.9416C42.9111 27.4228 42.265 26.5311 41.9487 26.2667L41.6863 26.1141C41.9016 25.9989 42.1405 25.9582 42.403 25.9921C42.8068 26.0599 43.1432 26.3345 43.4124 26.8159C44.2401 28.3347 45.4817 30.1044 47.1372 32.125C49.4655 34.9796 51.0705 36.0577 51.9521 35.3593C53.1903 36.295 54.3309 36.9629 55.374 37.3629C56.5382 37.8104 57.5005 37.8918 58.2609 37.607L59.1593 38.6139C59.6102 39.2716 59.4689 39.57 58.7354 39.5089C54.1728 39.1157 50.2495 37.0069 46.9655 33.1828C46.0571 32.1318 45.0308 30.7181 43.8868 28.9416Z" fill="#D7A400"/>
<path d="M77.2481 13.3906C79.9937 13.9534 82.7931 15.8553 85.6464 19.0964C87.2615 20.9339 89.2299 23.6969 91.5515 27.3855C92.7965 29.3518 93.6107 31.9928 93.9943 35.3084C94.1895 36.9629 94.2568 38.4207 94.1962 39.6818C91.4237 36.651 89.3846 35.1932 88.0791 35.3084C87.4869 35.3627 86.9385 35.722 86.4338 36.3865C86.0771 36.8544 85.6195 37.6782 85.061 38.858C82.8672 37.4138 80.7642 37.4239 78.7521 38.8885C77.9849 39.4513 77.3524 40.1463 76.8544 40.9735C76.3901 41.7465 76.1613 42.4245 76.168 43.0076L71.3228 39.2038L75.1182 29.0128C75.4614 27.5279 75.8046 25.7616 76.1478 23.7139C76.8409 19.6185 77.2077 16.1774 77.2481 13.3906Z" fill="#5DC1CF"/>
<path d="M77.2481 13.3906C79.9937 13.9534 82.7931 15.8553 85.6464 19.0964C87.2615 20.9339 89.2299 23.6969 91.5515 27.3855C92.4196 28.7551 93.0825 30.4875 93.5401 32.5827C91.5885 29.4298 89.1154 26.1887 86.1208 22.8595C82.81 19.1709 80.8921 17.7945 80.3672 18.7302C80.2595 18.9269 80.7339 20.1541 81.7904 22.412C82.9883 24.975 83.6781 26.8498 83.8598 28.0364C83.1599 26.1853 82.3052 24.4224 81.2958 22.7476C80.1855 20.8966 79.4721 20.205 79.1559 20.6728C78.133 22.1713 77.7595 28.4432 78.0354 39.4886C77.4634 40.0378 77.0024 40.6514 76.6525 41.3295C76.3228 41.9736 76.1613 42.533 76.168 43.0076L71.3228 39.2038L75.1182 29.0128C75.4614 27.5279 75.8046 25.7616 76.1478 23.7139C76.8409 19.6185 77.2077 16.1774 77.2481 13.3906Z" fill="#50A8B4"/>
<path d="M76.7535 12.3837C77.4264 12.3362 78.594 12.7939 80.2561 13.7568C82.2481 14.9094 84.203 16.4316 86.1208 18.3234C88.5233 20.683 90.5455 23.6189 92.1875 27.1312C94.0986 31.2266 95.0205 35.2338 94.9533 39.153C94.9331 40.2988 94.8826 40.9769 94.8018 41.1871C94.7278 41.3837 94.6067 41.2108 94.4384 40.6684L92.9546 34.8813C91.5683 29.7349 89.4957 25.3683 86.7366 21.7814C84.2803 18.5878 81.6592 16.4452 78.8732 15.3536C78.3618 15.1501 78.0354 15.4654 77.8941 16.2994L77.672 19.7168C77.45 23.8664 76.5179 27.0397 74.8759 29.2365C74.4789 29.7654 74.1155 30.1621 73.7858 30.4265L73.4022 30.6604C74.4183 29.0941 75.1687 26.4837 75.6532 22.829C76.0839 19.5879 76.1579 17.1538 75.8753 15.5265C75.6465 14.2178 75.5994 13.3635 75.7339 12.9634C75.8483 12.6176 76.1882 12.4244 76.7535 12.3837Z" fill="#F9BE00"/>
<path d="M78.8732 15.3536L78.4695 15.262L78.096 15.2518C78.0758 15.1027 78.0758 14.9942 78.096 14.9264C78.1364 14.7976 78.3046 14.6958 78.6007 14.6213C78.816 14.5738 79.2669 14.7026 79.9533 15.0077C80.7743 15.3807 81.639 15.896 82.5475 16.5537C85.1182 18.4115 87.2951 20.8593 89.0784 23.8969C90.9492 27.077 92.2749 29.84 93.0555 32.186C93.8765 34.6541 94.1928 36.9459 94.0044 39.0614L92.9546 34.8813C91.5683 29.7349 89.4957 25.3683 86.7366 21.7814C84.2803 18.5878 81.6592 16.4452 78.8732 15.3536Z" fill="#D7A400"/>
<path d="M77.026 24.5173C76.5684 26.3548 75.8517 27.9279 74.8759 29.2365C74.4789 29.7654 74.1155 30.1621 73.7858 30.4265L73.4022 30.6604C74.0146 29.7247 74.5395 28.3483 74.9769 26.5311C75.3605 24.9648 75.6431 23.2324 75.8248 21.3339C75.9863 22.3171 76.279 22.5273 76.703 21.9645C77.0058 21.5645 77.3255 20.8695 77.6619 19.8795C77.561 21.6831 77.349 23.2291 77.026 24.5173Z" fill="#D7A400"/>
<path d="M83.0724 79.2865C85.8247 77.9643 87.8638 77.6422 89.1895 78.3203C91.5784 79.5407 93.53 80.829 95.0441 82.1851C97.1235 84.0497 97.3489 85.3346 95.7204 86.0398C92.9277 87.2467 91.0939 87.918 90.2191 88.0536L88.816 87.9824C88.4661 87.8671 88.0589 87.6332 87.5946 87.2806L83.0421 84.1989C80.8079 82.7004 79.5765 81.7885 79.3477 81.463L80.4378 80.7409C81.3396 80.1781 82.2178 79.6933 83.0724 79.2865Z" fill="#F9BE00"/>
<path d="M79.3477 81.463L80.4378 80.7409C81.3396 80.1781 82.2178 79.6933 83.0724 79.2865C85.8247 77.9643 87.8638 77.6422 89.1895 78.3203C89.9095 78.6864 90.6329 79.0932 91.3597 79.5407C90.135 79.7916 89.1054 80.3815 88.2709 81.3104C87.1942 82.497 86.5145 84.1684 86.2319 86.3246L82.063 83.5378C80.4547 82.4394 79.5495 81.7478 79.3477 81.463Z" fill="#D7A400"/>
<path d="M81.2252 70.1532C81.9318 67.6648 82.8133 64.9153 83.8698 61.9048L85.2427 58.1416C87.6989 59.3824 89.637 60.8674 91.0569 62.5964C93.0152 64.9831 93.8631 67.7122 93.6006 70.7838C93.2911 74.4045 91.7231 77.1913 88.8967 79.1441C86.7433 80.629 84.0818 81.5206 80.9123 81.819C78.853 82.0156 78.9574 78.127 81.2252 70.1532Z" fill="#F9BE00"/>
<path d="M81.1141 70.2956C81.8476 67.78 82.7561 64.9967 83.8396 61.9455L85.2427 58.1416C85.8618 58.4535 86.4809 58.8027 87.1 59.1892C84.6168 66.2951 84.0246 71.5093 85.3234 74.8317C85.8281 76.12 86.5885 77.0252 87.6047 77.5473C88.4795 77.9948 89.4149 78.1101 90.4109 77.8931C89.1794 79.1068 87.6182 80.0933 85.7272 80.8528C84.0717 81.5172 82.3961 81.9309 80.7003 82.0936C78.6411 82.2902 78.779 78.3576 81.1141 70.2956Z" fill="#D7A400"/>
<path d="M94.9028 85.4397C95.2258 85.0804 95.4344 84.8668 95.5286 84.799C95.892 84.5549 96.316 84.504 96.8005 84.6464C97.1235 84.8227 97.4734 85.2906 97.8503 86.05C98.2204 86.7958 98.355 87.2874 98.2541 87.5247C98.0993 87.5722 97.7527 87.4976 97.2144 87.301C96.7029 87.1043 96.2857 86.9009 95.9627 86.6907L94.9028 85.4397Z" fill="white"/>
<path d="M94.9028 85.4397L95.2864 85.0024C95.717 85.2804 96.3328 85.7652 97.1336 86.4568C97.9008 87.1213 98.2742 87.4773 98.2541 87.5247C98.0993 87.5722 97.7527 87.4976 97.2144 87.301C96.7029 87.1043 96.2857 86.9009 95.9627 86.6907L94.9028 85.4397Z" fill="#DBDCDC"/>
<path d="M94.7514 88.7045C94.139 88.3994 93.5805 88.0638 93.0757 87.6976L92.0159 86.1517C92.3321 85.5821 92.7359 85.216 93.2271 85.0532C93.8395 84.8498 94.4957 85.016 95.1955 85.5516C95.5724 85.85 95.9526 86.5348 96.3362 87.6061C96.713 88.6638 96.8039 89.23 96.6087 89.3046C96.1915 89.3249 95.5724 89.1249 94.7514 88.7045Z" fill="white"/>
<path d="M96.6794 89.1724L96.6087 89.3046C96.1915 89.3249 95.5724 89.1249 94.7514 88.7045C94.139 88.3994 93.5805 88.0638 93.0757 87.6976L92.0159 86.1517C92.211 85.7991 92.4499 85.5211 92.7325 85.3177C93.9708 86.9992 95.2864 88.2841 96.6794 89.1724Z" fill="#DBDCDC"/>
<path d="M88.9472 87.8807C89.25 87.1688 89.5125 86.7043 89.7346 86.4873C90.1518 86.0873 90.7776 85.9178 91.6121 85.9788C92.1504 86.0195 92.6989 86.667 93.2574 87.9214C93.7823 89.0808 93.9943 89.7792 93.8934 90.0165C93.4559 90.0165 92.5845 89.7419 91.279 89.1927C89.9398 88.6367 89.1626 88.1994 88.9472 87.8807Z" fill="white"/>
<path d="M93.9035 89.9454L93.8934 90.0165C93.4559 90.0165 92.5845 89.7419 91.279 89.1927C89.9398 88.6367 89.1626 88.1994 88.9472 87.8807L89.2601 87.1688C89.388 86.9179 89.5226 86.7145 89.6639 86.5585C90.1619 87.1823 90.8281 87.8027 91.6626 88.4198L93.9035 89.9454Z" fill="#DBDCDC"/>
<path d="M95.0744 26.6227C95.4041 26.5888 96.0636 26.704 97.0528 26.9685C98.069 27.2329 98.5501 27.4363 98.4963 27.5787C98.4156 27.7753 97.8166 28.1856 96.6995 28.8094L95.0744 26.6227Z" fill="white"/>
<path d="M98.4257 27.6804L97.386 28.3924L96.6995 28.8094L95.9021 27.7313L97.1639 27.7211L98.4257 27.6804Z" fill="#DBDCDC"/>
<path d="M100.313 31.4334C100.239 31.5894 99.2399 31.786 97.3153 32.0233L97.0831 29.1755C97.857 29.4196 98.6242 29.8332 99.3846 30.4163C100.078 30.952 100.387 31.291 100.313 31.4334Z" fill="white"/>
<path d="M97.2043 30.7215C97.9647 31.0469 98.715 31.2605 99.4553 31.3622L100.313 31.4334C100.239 31.5894 99.2399 31.786 97.3153 32.0233L97.2043 30.7215Z" fill="#DBDCDC"/>
<path d="M97.1942 32.2064C98.2641 33.6642 98.7958 34.4948 98.789 34.6982L97.0125 34.6372L95.2561 34.3422L97.1942 32.2064Z" fill="white"/>
<path d="M96.4977 32.9692C97.0427 33.593 97.5912 34.0642 98.143 34.3829C98.4122 34.5456 98.6275 34.6507 98.789 34.6982L97.0125 34.6372L95.2561 34.3422L96.4977 32.9692Z" fill="#DBDCDC"/>
<path d="M84.314 25.6463C86.4338 24.7716 88.3315 24.4461 90.0071 24.6699C94.7985 25.314 97.3119 27.2329 97.5475 30.4265C97.709 32.5556 96.9048 33.949 95.1349 34.6067C93.715 35.1287 92.1235 35.1186 90.3604 34.5761C89.5596 34.332 88.4324 34.288 86.9789 34.4439C85.4647 34.5999 83.9472 34.9389 82.4264 35.461C78.6175 36.7696 76.2959 38.6139 75.4614 40.9938C75.0711 40.865 74.6438 40.6616 74.1794 40.3836C73.2575 39.8208 72.6182 39.1563 72.2616 38.3901C71.1175 35.9424 73.0085 32.9387 77.9345 29.3789C80.3167 27.6635 82.4432 26.4193 84.314 25.6463Z" fill="#F9BE00"/>
<path d="M75.4614 40.9938C75.0711 40.865 74.6471 40.6616 74.1895 40.3836C73.2676 39.8208 72.6249 39.1563 72.2616 38.3901C71.1108 35.9492 72.9883 32.9556 77.8941 29.4094C78.1431 31.0503 78.668 32.1013 79.4688 32.5623C80.3773 33.0777 81.8645 33.0166 83.9304 32.3793C85.1821 31.9928 86.6525 31.847 88.3416 31.9419L92.4297 32.3996C93.89 32.5691 94.9701 32.5556 95.6699 32.3589C96.6121 32.0877 97.2379 31.4436 97.5475 30.4265C97.8032 32.5149 97.0259 33.8947 95.2157 34.566C93.742 35.1152 92.1235 35.1186 90.3604 34.5761C89.5596 34.332 88.4324 34.288 86.9789 34.4439C85.4647 34.5999 83.9472 34.9389 82.4264 35.461C78.6175 36.7696 76.2959 38.6139 75.4614 40.9938Z" fill="#D7A400"/>
<path d="M37.5881 52.1511L39.1224 56.0058L38.1735 56.4838C37.514 56.7754 37.1204 56.8737 36.9925 56.7787C36.8579 56.6635 36.8747 56.0092 37.043 54.8158C37.2045 53.7038 37.3862 52.8156 37.5881 52.1511Z" fill="#DBDCDC"/>
<path d="M39.294 56.3618L42.1203 58.0806C40.9427 59.4638 40.2361 60.1554 40.0006 60.1554C39.8121 60.1554 39.617 59.674 39.4151 58.7112C39.2132 57.7144 39.1728 56.9313 39.294 56.3618Z" fill="white"/>
<path d="M41.01 57.1042C40.687 57.7619 40.4716 58.2433 40.364 58.5484C40.1755 59.1112 40.1116 59.6231 40.1722 60.0842L40.0006 60.1554C39.8121 60.1554 39.617 59.674 39.4151 58.7112C39.2132 57.7144 39.1728 56.9313 39.294 56.3618L41.01 57.1042Z" fill="#DBDCDC"/>
<path d="M44.3209 60.786C44.0786 60.9216 43.7119 60.5724 43.2206 59.7384C42.7697 58.9722 42.5207 58.3993 42.4736 58.0196L45.5423 56.8398L45.1284 58.701C44.8121 59.9689 44.5429 60.6639 44.3209 60.786Z" fill="white"/>
<path d="M44.3713 57.2873C44.1291 57.7958 44.0248 58.3688 44.0584 59.0061C44.0921 59.4943 44.2098 60.0605 44.4117 60.7046L44.3209 60.786C44.0786 60.9216 43.7119 60.5724 43.2206 59.7384C42.7697 58.9722 42.5207 58.3993 42.4736 58.0196L44.3713 57.2873Z" fill="#DBDCDC"/>
<path d="M73.5435 21.6492L73.7353 21.8933C73.8968 22.1306 74.0516 22.4222 74.1996 22.768C74.6707 23.88 74.9937 25.3446 75.1687 27.1617C76.0502 27.5821 76.8006 28.1991 77.4197 29.0128C78.0388 29.8332 78.4055 30.7011 78.5199 31.6165C78.9641 33.9286 78.5368 35.8271 77.238 37.3121C76.8342 37.7799 76.3699 38.1766 75.845 38.502L75.1687 38.858C75.4244 40.865 76.0199 42.9432 76.9553 45.0926C77.7696 46.9505 78.6074 48.3913 79.4688 49.4152L81.5886 51.968C82.7595 53.514 83.7252 55.0836 84.4856 56.677C86.7736 61.5047 87.1235 66.3256 85.5354 71.1397C83.8598 76.1844 81.6525 79.8086 78.9136 82.0122C76.3093 84.1074 72.6451 85.3482 67.9211 85.7347C67.4567 86.189 66.7198 86.606 65.7104 86.9857C64.4251 87.4806 63.0994 87.7146 61.7333 87.6875C57.837 87.6129 54.4622 85.5008 51.6089 81.3511C50.263 79.3916 49.4454 76.9201 49.156 73.9367C48.8262 70.4448 49.4184 67.3122 50.9326 64.539C51.269 62.2201 51.8545 59.4096 52.6889 56.1075L54.9299 47.6251C55.7778 44.3705 56.3666 41.7227 56.6963 39.6818C57.1337 36.9832 57.2448 34.7084 57.0294 32.8573L56.444 27.9652C56.2757 26.2633 56.2455 24.8598 56.3531 23.7545C56.6156 20.9746 57.9312 18.7845 60.3 17.1843C61.8343 16.1536 63.3989 15.5807 64.9937 15.4654C66.5079 15.3569 67.9412 15.6688 69.2939 16.4011C70.1822 16.8825 71.0671 17.625 71.9486 18.6285C72.9513 19.7676 73.4829 20.7745 73.5435 21.6492Z" fill="#F9BE00"/>
<path d="M71.1916 38.6648C72.524 38.5427 73.816 38.2105 75.0677 37.668C76.3463 37.112 77.4028 36.4137 78.2373 35.5729C78.0287 36.2916 77.4567 37.0544 76.5213 37.8613L75.1687 38.858C75.458 41.1159 76.1579 43.4179 77.2683 45.7639C76.5011 46.5911 75.2326 46.92 73.4628 46.7505C71.7737 46.6284 70.1182 46.225 68.4964 45.5401C66.8679 44.8553 65.4513 43.9637 64.2468 42.8652C62.9816 41.7126 62.0799 40.4446 61.5415 39.0614C60.9561 37.5629 60.8417 36.0272 61.1983 34.4541C61.4742 35.0576 61.8444 35.5695 62.3087 35.9899C63.022 36.6408 63.8363 36.929 64.7515 36.8544C64.8457 36.929 64.7919 36.7425 64.59 36.295C65.2562 37.2239 66.1983 37.8884 67.4163 38.2884C68.5402 38.6614 69.7986 38.7868 71.1916 38.6648Z" fill="#D7A400"/>
<path d="M72.1 78.0151C72.6653 78.1779 74.3948 77.7948 77.2884 76.8658C80.0071 75.9912 82.3759 75.0961 84.3947 74.1808C82.7528 78.0728 80.6195 80.9104 77.995 82.6936C75.5186 84.3752 72.1606 85.3889 67.9211 85.7347C67.4029 86.2364 66.6559 86.6907 65.6801 87.0975C64.415 87.6264 63.1095 87.8841 61.7636 87.8705C57.9547 87.8298 54.5698 85.6567 51.6089 81.3511C50.263 79.3916 49.4454 76.9201 49.156 73.9367C48.8262 70.4448 49.4184 67.3122 50.9326 64.539C51.3498 61.6709 52.2785 57.5415 53.7186 52.1511C55.2529 46.4148 56.2118 42.4482 56.5954 40.2514C56.5752 40.882 56.7805 41.7092 57.2111 42.733C57.6149 43.6959 57.763 44.7129 57.6553 45.7842C56.3901 48.1167 55.3572 50.7747 54.5564 53.7581C53.769 56.6669 53.3754 59.2197 53.3754 61.4166C53.3754 61.6946 53.4998 61.7827 53.7488 61.681L54.4958 61.2335C54.7852 61.0504 54.9601 61.003 55.0207 61.0911C55.1082 61.2199 55.0241 61.6166 54.7684 62.2811C53.0994 66.6477 52.7731 70.4176 53.7892 73.5909C54.6506 76.3031 56.38 78.3372 58.9776 79.6933C61.2993 80.907 63.7724 81.3477 66.3968 81.0155C69.0213 80.6832 70.9224 79.6831 72.1 78.0151Z" fill="#D7A400"/>
<path d="M59.1997 19.9914C58.9978 20.3846 58.9305 20.7915 58.9978 21.2119C59.0516 21.578 59.1896 21.8764 59.4117 22.1069C58.1802 22.2628 57.5207 23.9613 57.4332 27.2024C57.4063 28.2398 57.5476 31.2571 57.8572 36.2543C57.8841 36.6205 57.763 36.912 57.4938 37.129C57.2313 37.3527 57.09 37.2883 57.0698 36.9357L57.1304 35.3695C57.1708 34.4677 57.1337 33.6099 57.0193 32.7963L56.4238 30.0299C56.094 28.4025 55.9258 26.938 55.9191 25.6361C55.8854 21.5746 57.3457 18.7573 60.3 17.1843C61.8679 16.3435 63.308 15.8214 64.6203 15.618C66.0267 15.401 67.3289 15.54 68.5267 16.035C66.9924 15.8248 65.8181 15.8248 65.0038 16.035C63.954 16.2994 63.2878 16.9368 63.0052 17.9471C60.9931 18.2725 59.7246 18.954 59.1997 19.9914Z" fill="#D7A400"/>
<path d="M71.8982 39.9869C73.1498 39.7632 74.24 39.3869 75.1687 38.858C75.4244 40.865 76.0199 42.9432 76.9553 45.0926C77.7696 46.9505 78.6074 48.3913 79.4688 49.4152L81.5886 51.968C82.7595 53.514 83.7252 55.0836 84.4856 56.677C86.7736 61.5047 87.1235 66.3256 85.5354 71.1397C83.8598 76.2048 81.6222 79.8662 78.8228 82.1241C76.1377 84.2938 72.5038 85.4974 67.9211 85.7347C72.1943 82.2292 73.2373 77.7337 71.0503 72.2484C70.2966 70.3498 69.2064 68.4784 67.7797 66.6341C66.6761 65.2102 65.7138 64.1864 64.8928 63.5626C63.1566 61.6505 62.201 57.8772 62.0261 52.2426C61.8713 47.1844 62.3289 42.3398 63.3989 37.7087L64.6707 38.3596C65.1081 38.5291 65.4715 38.5088 65.7609 38.2986C67.3491 39.8581 69.3948 40.4209 71.8982 39.9869Z" fill="#FFF3C2"/>
<path d="M71.8982 39.9869C73.1498 39.7632 74.24 39.3869 75.1687 38.858C75.3706 40.4446 75.7979 42.1024 76.4506 43.8315C77.0092 45.3232 77.6586 46.6793 78.3988 47.8997C77.5038 48.4761 76.4002 48.7846 75.0879 48.8253C73.7555 48.8592 72.3726 48.6117 70.9392 48.0828C67.6149 46.8623 64.9063 44.5773 62.8134 41.2278L63.0759 39.4072C63.1566 38.8512 63.2643 38.2851 63.3989 37.7087L64.6707 38.3596C65.1081 38.5291 65.4715 38.5088 65.7609 38.2986C67.3491 39.8581 69.3948 40.4209 71.8982 39.9869Z" fill="#DBD2A9"/>
<path d="M72.0092 75.7674C72.1976 76.4726 72.8605 76.9133 73.9977 77.0896C75.0812 77.2591 76.3631 77.1574 77.8436 76.7845C79.3981 76.3912 80.8281 75.7776 82.1336 74.9436C83.6007 74.0079 84.7009 72.9196 85.4344 71.6788C83.779 76.6896 81.5616 80.2595 78.7824 82.3885C76.1915 84.3752 72.5711 85.4906 67.9211 85.7347C71.2118 83.0428 72.5745 79.7204 72.0092 75.7674Z" fill="#DBD2A9"/>
<path d="M57.4332 37.0781C57.8168 36.556 58.2845 36.7018 58.8363 37.5155C59.3747 38.2952 59.765 39.3225 60.0072 40.5972C60.2697 42.0075 60.2327 43.1873 59.8962 44.1366C59.4924 45.2689 58.6916 45.8622 57.4938 45.9165C55.2731 46.0182 53.0557 47.2895 50.8417 49.7305C49.7381 50.9509 48.4898 52.7037 47.0968 54.9887L46.0571 56.6465C45.6264 57.2703 45.1923 57.728 44.7549 58.0196C43.5773 58.7993 42.0531 58.623 40.1823 57.4907C38.4999 56.4736 37.6015 54.9378 37.4871 52.8834C37.3996 51.3442 37.726 49.7542 38.4663 48.1133C39.4959 45.8283 41.6224 43.8755 44.8458 42.255C46.9992 41.1701 49.2132 40.3938 51.4877 39.9259C53.3182 39.5462 54.4554 39.2682 54.8996 39.0919C55.8888 38.7054 56.7333 38.0342 57.4332 37.0781Z" fill="#F9BE00"/>
<path d="M57.9682 45.8554L57.4938 45.9165C55.2731 46.0182 53.0557 47.2895 50.8417 49.7305C49.7381 50.9509 48.4898 52.7037 47.0968 54.9887L46.0571 56.6465C45.6264 57.2703 45.1923 57.728 44.7549 58.0196C43.5773 58.7993 42.0531 58.623 40.1823 57.4907C38.9575 56.7516 38.1466 55.7312 37.7496 54.4293C37.4266 53.358 37.3895 52.1443 37.6385 50.7882C38.0827 52.9647 38.9676 54.4293 40.2933 55.1819C41.6325 55.9414 42.8639 55.6295 43.9878 54.2462C49.8558 46.9912 54.516 44.1942 57.9682 45.8554Z" fill="#D7A400"/>
<path d="M55.1317 19.8592C56.6122 19.7981 58.1734 20.1236 59.8154 20.8356C59.9971 20.9101 60.125 21.0424 60.199 21.2322C60.2663 21.4153 60.2629 21.595 60.1889 21.7713C60.1149 21.9543 59.987 22.0832 59.8053 22.1577L59.2603 22.1476C57.8134 21.5238 56.444 21.2424 55.1519 21.3034C54.3511 21.3373 53.1667 21.5712 51.5988 22.0052L49.8323 22.5849C49.0786 22.8019 48.1836 22.9205 47.1472 22.9409C44.8525 22.9951 42.6452 21.9509 40.5255 19.8083C38.8633 18.1132 37.6049 16.2011 36.7502 14.072C36.6762 13.889 36.6796 13.7059 36.7603 13.5228C36.8344 13.3398 36.9622 13.2143 37.1439 13.1465L37.689 13.1567C37.8707 13.2313 37.9952 13.3601 38.0625 13.5432C38.8633 15.5366 40.0847 17.3504 41.7267 18.9845C43.6042 20.8491 45.3606 21.6967 46.9958 21.5272C47.7293 21.4526 48.4797 21.3271 49.2468 21.1508L51.2253 20.6321C52.9211 20.1575 54.2233 19.8998 55.1317 19.8592Z" fill="#FFF3C2"/>
<path d="M37.3054 13.8788C39.1829 17.3165 40.973 19.6863 42.6755 20.9881C43.981 21.9848 45.7105 22.6256 47.8639 22.9104L47.1472 22.9409C44.8525 22.9951 42.6452 21.9509 40.5255 19.8083C38.8633 18.1132 37.6049 16.2011 36.7502 14.072C36.6762 13.889 36.6796 13.7059 36.7603 13.5228C36.8344 13.3398 36.9622 13.2143 37.1439 13.1465L37.154 13.3398C37.1607 13.5228 37.2112 13.7025 37.3054 13.8788Z" fill="#DBD2A9"/>
<path d="M57.5947 20.8559C58.2206 20.9779 58.769 21.1102 59.2401 21.2526C59.9332 21.456 60.2495 21.6289 60.1889 21.7713C60.1149 21.9543 59.987 22.0832 59.8053 22.1577L59.2603 22.1476C57.9817 21.5984 56.7771 21.3102 55.6465 21.2831C54.7986 21.2695 53.7791 21.4187 52.588 21.7306C52.8841 21.2627 53.7051 20.9644 55.051 20.8356C56.121 20.7271 56.9689 20.7338 57.5947 20.8559Z" fill="#DBD2A9"/>
<path d="M64.8322 31.291C64.4083 31.352 63.9339 31.3588 63.409 31.3114C62.3524 31.2232 61.5651 30.9215 61.0469 30.4062C60.5086 29.0297 60.2966 27.8771 60.411 26.9481C60.5254 26.026 60.9393 25.4937 61.6526 25.3513C62.3592 25.2157 63.1162 25.9209 63.9238 27.4668C64.7178 28.9992 65.0207 30.2739 64.8322 31.291Z" fill="white"/>
<path d="M74.4823 27.7211C73.8362 26.9346 73.3282 25.7548 72.958 24.1817C72.5745 22.5544 72.6384 21.6662 73.1498 21.517C73.4459 21.4288 73.8194 21.9509 74.2703 23.0833C74.7481 24.297 75.0543 25.6429 75.1889 27.121C75.1081 27.3448 74.8726 27.5448 74.4823 27.7211Z" fill="white"/>
<path d="M60.7946 17.6623C60.7609 17.2283 60.8383 16.5401 61.0267 15.5976C61.2353 14.567 61.4541 14.0076 61.6829 13.9195C61.9251 13.8246 62.3995 14.0212 63.1061 14.5094C63.7791 14.9772 64.3141 15.4586 64.7111 15.9536C64.812 16.2723 64.775 16.6012 64.6001 16.9402C64.4318 17.2724 64.1627 17.5436 63.7925 17.7538C62.8975 18.2691 61.8982 18.2386 60.7946 17.6623Z" fill="#F9BE00"/>
<path d="M60.7946 17.6623C60.7609 17.2283 60.8383 16.5401 61.0267 15.5976C61.2353 14.567 61.4541 14.0076 61.6829 13.9195L61.9251 13.9093C61.9386 14.7026 62.0765 15.5027 62.339 16.3096C62.6754 17.3267 63.1061 17.8386 63.631 17.8454C63.2407 18.0284 62.8134 18.1132 62.3491 18.0996C61.8376 18.0793 61.3195 17.9335 60.7946 17.6623Z" fill="#D7A400"/>
<path d="M33.0659 53.6055C32.2112 54.8463 31.4811 56.1583 30.8754 57.5415L30.7947 56.9923C31.5013 55.3921 32.1944 54.0801 32.8741 53.0563C34.3075 50.8865 35.8317 49.544 37.4467 49.0287L38.1231 48.8863L37.9414 49.5271L37.6385 49.6084C36.0908 50.1034 34.5665 51.4357 33.0659 53.6055Z" fill="#0D131A"/>
<path d="M53.234 47.6658C53.7387 48.0794 54.1728 48.493 54.5362 48.9066L54.3646 49.3745C54.1694 49.1439 53.907 48.8897 53.5772 48.6117L52.7596 47.9506L53.012 47.8184L53.234 47.6658Z" fill="#0D131A"/>
<path d="M75.6532 84.2294L76.5314 83.67C74.3174 92.3016 74.7683 100.503 77.884 108.273C79.1155 111.344 80.707 114.182 82.6585 116.786C84.3409 119.017 86.1141 120.864 87.9782 122.329C88.4829 122.722 88.678 123 88.5636 123.163C88.4694 123.298 88.1229 123.373 87.5239 123.387L85.8584 123.326L84.8793 123.224C78.5738 122.064 73.0018 119.447 68.1633 115.372C64.4554 112.246 61.3397 108.425 58.8161 103.91C56.7771 100.262 55.2394 96.3291 54.2031 92.1117C53.3484 88.6333 52.9783 85.7143 53.0927 83.3548L53.5772 83.7921C53.5436 86.1246 53.981 88.9757 54.8895 92.3456C55.9729 96.3393 57.5005 100.099 59.4722 103.625C61.9756 108.1 65.0274 111.863 68.6277 114.914C73.3585 118.915 78.8329 121.488 85.0509 122.634C86.0939 122.824 86.8947 122.871 87.4533 122.776L87.6249 122.736L87.5138 122.593C84.1357 119.895 81.2689 116.338 78.9136 111.924C75.9459 106.344 74.4621 100.384 74.4621 94.0441C74.4621 90.8099 74.8591 87.5383 75.6532 84.2294Z" fill="#0D131A"/>
<path d="M85.1619 122.705L85.0812 123.051C81.4405 122.217 77.9816 120.518 74.7043 117.955C72.1741 115.982 69.8861 113.613 67.8403 110.846C66.306 108.778 64.9837 106.595 63.8733 104.296C63.059 102.608 62.4298 101.025 61.9857 99.5465L62.2178 99.0481C62.588 100.492 63.3013 102.255 64.3578 104.337C65.6499 106.873 67.1707 109.259 68.9204 111.497C73.6781 117.572 79.0919 121.308 85.1619 122.705Z" fill="#0D131A"/>
<path d="M75.1081 87.1382L75.1283 87.1281V87.4942C74.3813 88.1248 73.6276 88.5859 72.8672 88.8774C71.6559 89.3385 70.162 89.5317 68.3854 89.4572V89.1724C71.2992 89.152 73.5401 88.474 75.1081 87.1382Z" fill="#0D131A"/>
<path d="M71.3531 94.3899C72.7124 93.9153 73.8396 93.2949 74.7346 92.5287L74.7548 92.8847C72.8235 94.5323 70.3134 95.424 67.2246 95.5596L67.2044 95.2748C68.732 95.1188 70.1149 94.8239 71.3531 94.3899Z" fill="#0D131A"/>
<path d="M70.6364 100.858C72.8167 100.275 74.2434 99.6617 74.9163 99.0176L75.1081 99.221C74.2737 100.001 72.81 100.682 70.7171 101.265C68.0859 101.998 65.5355 102.15 63.0658 101.723L62.9042 101.459C65.3605 101.784 67.9379 101.584 70.6364 100.858Z" fill="#0D131A"/>
<path d="M72.8268 106.452C74.4688 105.883 75.5388 105.208 76.0368 104.428L76.1074 104.784C75.5623 105.652 74.4587 106.351 72.7965 106.88C70.7441 107.53 68.3854 107.673 65.7205 107.307L65.7609 107.022C68.3517 107.375 70.707 107.185 72.8268 106.452Z" fill="#0D131A"/>
<path d="M78.1061 109.961L78.2474 110.185C77.9446 110.944 76.952 111.589 75.2696 112.117C73.419 112.707 71.4607 112.873 69.3948 112.616L69.3544 112.362C71.279 112.606 73.1969 112.409 75.1081 111.772C76.7837 111.216 77.7831 110.612 78.1061 109.961Z" fill="#0D131A"/>
<path d="M73.5637 116.837L73.4123 116.582C75.209 116.745 76.8073 116.538 78.207 115.962C79.4183 115.453 80.1653 114.836 80.4479 114.111L80.67 114.304C80.3672 115.084 79.7043 115.725 78.6814 116.226C77.3221 116.898 75.6162 117.101 73.5637 116.837Z" fill="#0D131A"/>
<path d="M77.6518 119.725C78.8833 119.82 80.0307 119.661 81.0939 119.247C82.1236 118.847 82.746 118.339 82.9614 117.721L83.1532 117.925C82.8436 118.705 82.2413 119.278 81.3463 119.644C80.4311 120.01 79.2837 120.125 77.9042 119.99L77.6518 119.725Z" fill="#0D131A"/>
<path d="M59.0887 95.2951L59.4218 95.468L59.1492 97.0241C58.981 97.7022 58.7051 98.265 58.3215 98.7125C58.1196 98.9498 57.8942 98.9125 57.6452 98.6006C57.228 98.0853 56.915 97.1326 56.7064 95.7426C56.5045 94.3866 56.518 93.461 56.7468 92.966V92.9559C56.7737 92.9152 56.8309 92.9152 56.9184 92.9559L57.0799 93.1084L57.1506 95.2036C57.2852 96.6953 57.5846 97.6852 58.049 98.1734C58.1768 98.3158 58.3686 97.9836 58.6243 97.1767C58.8329 96.519 58.9877 95.8918 59.0887 95.2951Z" fill="#0D131A"/>
<path d="M67.7192 85.6126C68.3854 86.745 68.7084 88.1248 68.6882 89.7521C68.6748 91.1557 68.4325 92.4304 67.9614 93.5763C67.7865 94.0238 67.5173 94.4238 67.1539 94.7764L67.1337 93.5763L67.3962 93.1186C67.8538 92.0066 68.1027 90.8438 68.1431 89.6301C68.1902 88.1655 67.9076 86.9111 67.2952 85.8669L67.7192 85.6126Z" fill="#0D131A"/>
<path d="M63.8431 95.5291C63.8498 95.685 63.9104 95.841 64.0248 95.997L63.2071 96.1699L63.3585 95.6308L63.8431 95.5291Z" fill="#0D131A"/>
<path d="M55.7475 90.5658C55.3639 88.952 55.2596 87.3213 55.4346 85.6737C55.4817 85.7415 55.5591 85.7822 55.6667 85.7957C55.7879 85.8161 55.872 85.8398 55.9191 85.8669C55.798 87.4739 55.9662 89.0707 56.4238 90.6573C57.0227 92.7389 58.0119 94.2136 59.3915 95.0815H59.4016L59.4419 95.6816L59.129 95.5087C57.4467 94.6205 56.3195 92.9728 55.7475 90.5658Z" fill="#0D131A"/>
<path d="M60.2394 94.6849C59.9433 94.8002 59.7179 94.9663 59.5631 95.1833C59.59 95.9833 59.8457 96.9733 60.3302 98.1531C60.7878 99.2719 61.1243 99.8414 61.3396 99.8618C61.5483 99.855 61.8948 99.3159 62.3793 98.2446C62.8841 97.1326 63.1768 96.1969 63.2575 95.4375C63.096 95.1799 62.8302 94.9663 62.4601 94.7968C62.0833 94.6273 61.6761 94.5357 61.2387 94.5222C60.8619 94.5154 60.5288 94.5696 60.2394 94.6849ZM59.23 95.0205C59.4319 94.7222 59.6977 94.4916 60.0274 94.3289C60.3841 94.1594 60.7811 94.0814 61.2185 94.095C61.7232 94.1085 62.201 94.234 62.6519 94.4713C63.096 94.6951 63.4123 94.9697 63.6007 95.2951L63.631 95.346L63.6209 95.407C63.5604 96.119 63.3114 97.0445 62.874 98.1836C62.4298 99.3431 62.0361 100.065 61.6929 100.35C61.5584 100.452 61.4372 100.499 61.3296 100.492C60.9527 100.452 60.5052 99.7465 59.987 98.3768C59.4756 97.0411 59.2131 95.9562 59.1997 95.1222V95.0612L59.23 95.0205Z" fill="#0D131A"/>
<path d="M66.9217 93.6678C66.6997 93.478 66.4406 93.4169 66.1445 93.4847C65.7273 93.5729 65.2764 93.8577 64.7919 94.3391C64.3814 94.7459 64.1122 95.1019 63.9843 95.407C63.9305 95.5358 63.9641 95.7935 64.0853 96.18C64.2199 96.5936 64.4217 97.0445 64.6909 97.5327C64.9399 97.9734 65.1855 98.3362 65.4278 98.6209C65.6499 98.8786 65.8215 99.0176 65.9426 99.0379C65.9897 99.0379 66.0368 99.0142 66.0839 98.9668C66.3194 98.743 66.5247 98.2141 66.6997 97.3801C66.8814 96.5258 66.9722 95.624 66.9722 94.6747L66.9217 93.6678ZM66.094 93.0169C66.4574 92.9288 66.8309 93.0711 67.2145 93.4441L67.2649 93.4949L67.3457 93.7797C67.4534 94.8917 67.4062 96.0511 67.2044 97.2581C67.0092 98.4718 66.74 99.2414 66.3968 99.5668C66.269 99.6889 66.1243 99.7431 65.9628 99.7296C65.5927 99.6685 65.0577 99.0379 64.3578 97.8378C64.0886 97.3564 63.88 96.8919 63.732 96.4444C63.5503 95.902 63.5065 95.5189 63.6007 95.2951C63.7421 94.9493 64.0483 94.5357 64.5193 94.0543C65.0846 93.4644 65.6095 93.1186 66.094 93.0169Z" fill="#0D131A"/>
<path d="M41.8074 26.4396C41.6257 26.2769 41.4003 26.226 41.1311 26.287C40.1553 26.5176 38.8128 28.1042 37.1035 31.0469C35.6904 33.4879 34.2469 36.434 32.7731 39.8852C31.5147 42.8483 30.8384 46.6013 30.7442 51.1442C30.6567 55.1718 30.9797 58.1111 31.7133 59.9622C31.8277 60.247 31.905 60.5046 31.9454 60.7351C31.9993 61.0199 31.9824 61.1962 31.8949 61.264C31.7334 61.3861 31.4239 61.2166 30.9663 60.7555C30.152 59.9418 29.5195 58.5722 29.0686 56.6465C28.4024 53.7987 28.3216 50.2322 28.8263 45.947C29.1561 43.1534 29.9737 40.2548 31.2792 37.251C32.2079 35.1152 33.4192 32.8641 34.9131 30.4977C36.1581 28.5382 37.4333 26.8024 38.7388 25.2903C39.8895 23.9749 40.7307 23.1884 41.2623 22.9307C42.3592 22.4154 43.1197 22.2967 43.5436 22.5747C43.8532 22.7849 43.9911 23.1952 43.9575 23.8054C43.9238 24.4156 44.0517 25.0462 44.3411 25.6971C44.7045 26.5108 45.4447 27.7143 46.5618 29.3077C47.9077 31.213 49.5429 32.9692 51.4676 34.5761C53.6075 36.3594 55.4144 37.3426 56.8881 37.5256L56.5651 37.9121C54.9231 37.6273 52.985 36.5391 50.7509 34.6473C48.7724 32.9726 47.2112 31.2673 46.0672 29.5315C44.829 27.6465 44.0685 26.4057 43.7859 25.809C43.5167 25.2327 43.3989 24.6123 43.4326 23.9478C43.4528 23.4664 43.3821 23.1714 43.2206 23.0629C42.9514 22.8731 42.3592 22.9917 41.444 23.4189C40.9864 23.6359 40.2025 24.3783 39.0921 25.6463C37.8 27.1312 36.5484 28.8195 35.3371 30.7113C31.9454 35.9933 29.9569 41.1295 29.3714 46.1199C29.1695 47.8557 29.0686 49.4796 29.0686 50.9916C29.0686 53.7852 29.3546 56.077 29.9266 57.867C30.2294 58.8027 30.6365 59.6198 31.148 60.3181C31.3566 60.5961 31.4575 60.6707 31.4508 60.5419C31.4441 60.447 31.4003 60.308 31.3196 60.1249C31.0168 59.3519 30.7711 58.2535 30.5827 56.8296C30.3876 55.3243 30.29 53.7072 30.29 51.9782C30.29 49.7949 30.4481 47.6997 30.7644 45.6927C31.1211 43.4145 31.6594 41.4244 32.3795 39.7225C33.6715 36.6849 34.9198 34.0642 36.1244 31.8606C38.1634 28.1042 39.792 26.0802 41.01 25.7887C41.3666 25.7005 41.7233 25.8056 42.08 26.104C42.3088 26.2938 42.5813 26.6159 42.8976 27.0702L43.8868 28.5551C45.4682 31.0096 46.8814 32.8709 48.1264 34.1388C50.3 36.3696 52.7461 37.885 55.4648 38.6851C55.1957 38.8139 54.9198 38.9224 54.6371 39.0106C51.9588 38.1901 49.59 36.6476 47.5308 34.3829C46.6223 33.3862 45.2899 31.5215 43.5335 28.789L42.5746 27.3448C42.265 26.9108 42.0093 26.6091 41.8074 26.4396Z" fill="#0D131A"/>
<path d="M40.7475 27.6194C40.8821 27.3617 41.0066 27.26 41.121 27.3143C41.2354 27.3685 41.2422 27.5211 41.1412 27.772C40.4279 29.5552 39.728 32.0674 39.0416 35.3084C38.0793 39.7903 37.8202 43.2551 38.2644 45.7029C38.3384 46.1097 38.3283 46.2928 38.2341 46.2521C38.1466 46.2182 38.0759 46.0758 38.0221 45.8249C37.4905 43.4111 37.5679 40.187 38.2543 36.1526C38.8868 32.4776 39.7179 29.6332 40.7475 27.6194Z" fill="#0D131A"/>
<path d="M85.3133 38.98L85.1518 39.214L84.9196 39.1021C83.7218 38.2817 82.6316 37.8884 81.6491 37.9223C81.0233 37.9359 80.3032 38.1698 79.489 38.6241C78.5536 39.1394 77.773 39.9022 77.1471 40.9125C76.6088 41.7872 76.343 42.5364 76.3497 43.1602L76.0166 42.6618C76.0099 41.9567 76.3093 41.1735 76.915 40.3124C77.5543 39.397 78.3517 38.6783 79.3073 38.1562C80.0475 37.7494 80.8551 37.5494 81.7299 37.5562C82.7999 37.5765 83.8867 37.9257 84.9903 38.6037C85.4883 37.5595 85.9661 36.7696 86.4237 36.234C86.962 35.5898 87.5307 35.2237 88.1296 35.1355C88.8429 35.027 89.6538 35.3017 90.5623 35.9594C91.4371 36.5832 92.6451 37.7392 94.1861 39.4276L94.3375 40.1904C92.8368 38.5495 91.5818 37.346 90.5724 36.5798C89.4889 35.7593 88.6309 35.4 87.9984 35.5017C87.5004 35.5763 86.9486 36.0848 86.3429 37.0273C85.9392 37.6511 85.596 38.302 85.3133 38.98Z" fill="#0D131A"/>
<path d="M79.0448 17.4894C78.8429 17.225 78.7622 17.0588 78.8026 16.991C78.8497 16.9164 79.0145 17.0012 79.2972 17.2453C79.9365 17.7945 80.6734 18.937 81.5078 20.6728C82.2144 22.1645 82.8268 23.7105 83.345 25.3107C83.4997 25.7988 83.5132 26.0396 83.3853 26.0328C83.2642 26.026 83.1397 25.8327 83.0118 25.453C82.3725 23.5206 81.5717 21.6899 80.6094 19.9609C80.0307 18.9099 79.5092 18.0861 79.0448 17.4894Z" fill="#0D131A"/>
<path d="M78.8329 15.0586C80.5085 15.7163 82.1908 16.8181 83.8799 18.3641C85.7575 20.0863 87.4331 22.1747 88.9068 24.6292L88.4324 24.5987C86.9923 22.2527 85.3772 20.2829 83.5872 18.6895C82.026 17.3063 80.4547 16.3028 78.8732 15.679C78.6781 15.6044 78.5435 15.6044 78.4695 15.679C78.2878 15.7943 78.1532 16.1197 78.0657 16.6554C77.9917 17.0758 77.9378 17.7132 77.9042 18.5675C77.8302 20.3846 77.7057 21.8391 77.5307 22.9307C77.2279 24.7818 76.7164 26.3955 75.9964 27.772L75.7138 27.5482C76.4069 26.2057 76.8981 24.6292 77.1875 22.8188C77.3557 21.7543 77.4769 20.3304 77.5509 18.5471C77.5711 17.4352 77.598 16.6791 77.6316 16.2791C77.6855 15.6417 77.8302 15.2451 78.0657 15.0891L78.8329 15.0586Z" fill="#0D131A"/>
<path d="M93.641 38.3088L92.8234 35.0847L93.1969 35.105L93.9842 38.2274L94.4284 40.0581C94.5899 40.7158 94.6773 40.9905 94.6908 40.882C94.7312 40.6175 94.7615 40.0378 94.7816 39.1428V38.797C94.7816 37.5019 94.674 36.2035 94.4586 34.9016L94.8927 34.749C95.1349 36.234 95.246 37.6714 95.2258 39.0614C95.2056 40.0446 95.1518 40.7396 95.0643 41.1464C94.997 41.4583 94.8994 41.621 94.7716 41.6346C94.6235 41.6549 94.4788 41.4481 94.3375 41.0142C94.2298 40.6887 93.9977 39.7869 93.641 38.3088Z" fill="#0D131A"/>
<path d="M75.7743 15.7706C75.6195 14.8755 75.5388 14.1805 75.5321 13.6856C75.5321 13.1838 75.6128 12.8312 75.7743 12.6278C75.9762 12.3634 76.3631 12.2447 76.9351 12.2718C77.5677 12.3057 78.3214 12.5092 79.1962 12.8821C81.3833 13.8313 83.779 15.5841 86.3833 18.1403C88.2541 19.9778 89.9163 22.2086 91.3698 24.8326L90.7743 24.7614C89.3544 22.2866 87.7628 20.1812 85.9997 18.4454C84.1357 16.6079 82.2581 15.1434 80.3672 14.0517C78.7992 13.1431 77.6821 12.7126 77.0159 12.76C76.6121 12.7872 76.3564 12.8753 76.2487 13.0245C76.1343 13.1601 76.0771 13.4143 76.0771 13.7873C76.0771 14.2212 76.1512 14.8552 76.2992 15.6892C76.3329 15.8926 76.343 16.235 76.3295 16.7164L76.2992 18.0386C76.2992 19.2591 76.1915 20.6423 75.9762 22.1883C75.7676 23.7071 75.4782 25.2191 75.1081 26.7244C75.0139 26.5277 74.9432 26.3209 74.8961 26.104C75.3268 24.2122 75.6229 22.2188 75.7844 20.1236C75.9392 18.1641 75.9358 16.713 75.7743 15.7706Z" fill="#0D131A"/>
<path d="M79.2871 81.7173L79.5495 81.3206C79.6909 81.5172 80.9829 82.4733 83.4257 84.1887L87.534 87.0467C87.9849 87.3857 88.4661 87.623 88.9775 87.7586C89.065 87.9756 89.1794 88.1655 89.3207 88.3282C88.4863 88.2536 87.783 88.0333 87.211 87.6671C86.4304 87.1586 84.9836 86.1212 82.8705 84.5549C80.6565 82.9005 79.4621 81.9546 79.2871 81.7173Z" fill="#0D131A"/>
<path d="M89.8557 78.5745C90.0105 78.5881 90.4344 78.7881 91.1276 79.1746C91.9351 79.6221 92.7157 80.1171 93.4694 80.6595C95.6497 82.2122 96.8039 83.5514 96.9317 84.6769L96.427 84.6363C96.2655 83.8158 95.283 82.7276 93.4795 81.3715C92.0192 80.273 90.6128 79.3916 89.2601 78.7271L89.3712 78.6254L89.8557 78.5745Z" fill="#0D131A"/>
<path d="M85.1316 58.3654L85.0307 57.6738C87.7965 59.0434 89.9398 60.6673 91.4607 62.5455C93.4324 64.9661 94.2837 67.7258 94.0145 70.8245C93.7117 74.3978 92.1269 77.1913 89.2601 79.2051C87.2615 80.6019 85.1888 81.3918 83.0421 81.5749L82.1337 81.4935C81.9452 81.3986 82.1101 81.307 82.6283 81.2189C84.6673 80.8595 86.6087 80.0594 88.4526 78.8186C91.4338 76.8184 93.069 74.1333 93.3584 70.7634C93.6074 67.8072 92.8133 65.1797 90.9762 62.8812C89.5764 61.1318 87.6283 59.6265 85.1316 58.3654Z" fill="#0D131A"/>
<path d="M95.9829 86.9653L95.892 86.4568C96.1746 86.6534 96.5717 86.8501 97.0831 87.0467C97.5004 87.2162 97.8099 87.3145 98.0118 87.3417L98.1127 87.3518C98.2608 87.3722 98.1363 86.9958 97.7392 86.2229C97.3422 85.4363 97.0057 84.9685 96.7298 84.8193L95.7911 84.86C95.6094 84.9482 95.4243 85.1007 95.2359 85.3177C95.1215 85.2499 95.0071 85.2024 94.8927 85.1753C95.1551 84.8634 95.3705 84.6532 95.5387 84.5447C95.8752 84.3277 96.2722 84.2599 96.7298 84.3413C97.1874 84.4227 97.682 85.0566 98.2137 86.2432C98.7386 87.423 98.8496 87.9892 98.5468 87.9417C98.1296 87.8739 97.6652 87.7417 97.1538 87.5451C96.6625 87.3552 96.2722 87.162 95.9829 86.9653Z" fill="#0D131A"/>
<path d="M95.2662 85.2973C95.5623 85.5753 95.9055 86.1076 96.2958 86.8941C96.7601 87.8298 97.0057 88.6435 97.0327 89.3351C97.0394 89.5589 97.0125 89.6911 96.9519 89.7318C96.8711 89.7792 96.6693 89.7487 96.3463 89.6402C96.0098 89.5317 95.5286 89.3148 94.9028 88.9893C94.3039 88.6842 93.7857 88.3892 93.3483 88.1044V87.6773C93.7588 87.9485 94.3543 88.2672 95.1349 88.6333C95.9425 89.0063 96.4001 89.169 96.5078 89.1215C96.6154 89.0741 96.464 88.5486 96.0535 87.5451C95.6363 86.5483 95.3133 85.9313 95.0845 85.694C94.896 85.5042 94.6706 85.3516 94.4082 85.2363C94.1121 85.1143 93.8463 85.0804 93.6107 85.1346C93.3416 85.1889 93.069 85.355 92.7931 85.633C92.6047 85.8296 92.4364 86.0534 92.2884 86.3042L92.0966 86.1415L91.9048 85.9889C92.0731 85.7177 92.2783 85.4669 92.5206 85.2363C92.857 84.9244 93.1935 84.7312 93.53 84.6566C93.8126 84.6023 94.1222 84.643 94.4586 84.7786C94.7547 84.9007 95.0239 85.0736 95.2662 85.2973Z" fill="#0D131A"/>
<path d="M92.3187 86.6704C92.0293 86.2975 91.6592 86.1008 91.2083 86.0805C90.8853 86.0669 90.4815 86.3144 89.997 86.823C89.499 87.345 89.3039 87.7654 89.4116 88.0841C89.4721 88.2604 90.172 88.5994 91.5111 89.1012C92.7763 89.569 93.5098 89.8064 93.7117 89.8131C93.853 89.8267 93.7487 89.4199 93.3988 88.5927C93.0354 87.7383 92.6753 87.0976 92.3187 86.6704ZM94.3577 89.7724C94.425 90.1318 94.4317 90.342 94.3779 90.403L93.8025 90.3929C93.0017 90.1894 92.1235 89.8979 91.1679 89.5182C90.0508 89.0775 89.3106 88.691 88.9472 88.3587C88.8126 88.2367 88.7453 88.1248 88.7453 88.0231C88.7386 87.9485 88.7723 87.8332 88.8463 87.6773C89.0212 87.2501 89.25 86.8602 89.5327 86.5077C90.0374 85.8703 90.5791 85.5787 91.1578 85.633C91.6693 85.6872 92.1 85.8466 92.4499 86.111C92.7325 86.328 92.9815 86.6399 93.1969 87.0467C93.8564 88.3079 94.2433 89.2164 94.3577 89.7724Z" fill="#0D131A"/>
<path d="M97.3254 27.2227L95.9425 26.8973L95.5387 26.4803C96.0838 26.5481 96.6895 26.6769 97.3557 26.8668C98.0824 27.0702 98.503 27.2499 98.6174 27.4058C98.678 27.4804 98.6915 27.5584 98.6578 27.6397C98.5771 27.8432 98.1026 28.1991 97.2345 28.7077L97.0629 28.3924C97.6821 28.0262 98.0858 27.755 98.2742 27.5787C98.1396 27.4838 97.8234 27.3651 97.3254 27.2227Z" fill="#0D131A"/>
<path d="M100.475 31.2707C100.508 31.3724 100.508 31.4537 100.475 31.5148C100.367 31.725 99.3947 31.9453 97.5575 32.1759L97.5878 31.8097C98.9337 31.6334 99.7749 31.4809 100.111 31.352C99.9835 31.1418 99.674 30.8537 99.1827 30.4875C98.5771 30.04 97.9647 29.6976 97.3456 29.4603V29.084C98.0387 29.3349 98.7217 29.7112 99.3947 30.2129C100 30.6537 100.36 31.0062 100.475 31.2707Z" fill="#0D131A"/>
<path d="M97.5172 32.3488C98.4929 33.7049 98.9741 34.4914 98.9606 34.7084L98.8799 34.8711C98.6578 35.0474 97.4936 34.9389 95.3873 34.5456L95.7709 34.2609C97.2379 34.5185 98.1699 34.6304 98.567 34.5965C98.4458 34.3185 98.0185 33.6608 97.285 32.6234L97.5172 32.3488Z" fill="#0D131A"/>
<path d="M77.8234 29.2467C79.0886 27.9245 80.993 26.7515 83.5367 25.7276C86.1612 24.6767 88.3281 24.2665 90.0374 24.497C92.4734 24.8225 94.3577 25.4937 95.6901 26.5108C97.0293 27.5346 97.7594 28.8636 97.8806 30.4977C98.0017 32.1318 97.5542 33.3591 96.538 34.1795C95.8113 34.7694 94.8187 35.1152 93.5603 35.2169C92.4364 35.305 91.353 35.1898 90.3099 34.8711C89.5024 34.627 88.3786 34.5761 86.9385 34.7185C85.4445 34.8609 83.9506 35.183 82.4567 35.6847C78.7151 36.9459 76.4405 38.7326 75.633 41.0447L75.4008 40.5362C76.4372 38.0681 78.8194 36.2407 82.5475 35.0542C84.0347 34.5863 85.5253 34.2948 87.0192 34.1795C88.4391 34.0778 89.5697 34.1558 90.4109 34.4134C91.4136 34.7185 92.4196 34.8338 93.429 34.7592C94.573 34.6846 95.4849 34.3727 96.1646 33.8235C97.0865 33.0912 97.4903 31.9623 97.3759 30.4367C97.2615 28.884 96.6087 27.6669 95.4176 26.7854C94.2399 25.9175 92.46 25.3242 90.0778 25.0055C88.4358 24.7886 86.39 25.1581 83.9405 26.1141C81.6323 27.0227 79.6673 28.1584 78.0455 29.5213L77.8234 29.2467Z" fill="#0D131A"/>
<path d="M37.1338 55.5074C37.0531 56.1855 37.0463 56.5618 37.1136 56.6364C37.1809 56.7042 37.3525 56.677 37.6284 56.555L38.5369 56.1075L38.7186 56.4431L37.5578 57.094C37.154 57.2907 36.8949 57.3449 36.7805 57.2568C36.5248 57.0534 36.6628 55.66 37.1944 53.0766L37.3862 53.7682C37.2718 54.4056 37.1877 54.9853 37.1338 55.5074Z" fill="#0D131A"/>
<path d="M39.617 58.9248C39.7516 59.5757 39.8862 59.9249 40.0208 59.9723C40.1352 60.0062 40.364 59.8367 40.7072 59.4638L41.7166 58.284L42.2112 58.4264C40.9461 59.9384 40.1789 60.6945 39.9097 60.6945C39.8222 60.6945 39.7381 60.647 39.6574 60.5521C39.4689 60.3148 39.3074 59.7316 39.1728 58.8027C39.0383 57.8602 39.0113 57.0974 39.0921 56.5143C39.3007 56.8059 39.405 56.9923 39.405 57.0737C39.405 57.65 39.4757 58.2671 39.617 58.9248Z" fill="#0D131A"/>
<path d="M44.442 61.3861L44.0281 61.3759C43.7792 61.2471 43.4763 60.8301 43.1197 60.1249C42.8303 59.5553 42.5948 58.9993 42.4131 58.4569L42.7967 58.4874C43.0255 59.057 43.2879 59.5723 43.584 60.0334C43.981 60.6436 44.2469 60.786 44.3814 60.4605C44.6775 59.7554 44.9602 58.7654 45.2294 57.4907L45.6533 57.1754L45.1587 59.6062C44.8962 60.6707 44.6573 61.264 44.442 61.3861Z" fill="#0D131A"/>
<path d="M56.5752 21.2627L57.1001 21.3644C56.6627 22.5239 56.4642 24.0597 56.5045 25.9717C56.5315 27.416 56.693 29.023 56.9891 30.7927C57.2179 32.1962 57.339 33.5014 57.3525 34.7084C57.3525 35.5085 57.2986 36.4475 57.1909 37.5256L56.6862 38.0647C56.7872 37.3324 56.8276 36.4035 56.8074 35.2779C56.7804 33.8133 56.6425 32.4267 56.3935 31.1181C56.0368 29.2535 55.8619 27.4634 55.8686 25.748C55.8686 23.8223 56.1041 22.3273 56.5752 21.2627Z" fill="#0D131A"/>
<path d="M74.9264 38.919C75.0408 38.8648 75.1216 38.8444 75.1687 38.858L75.3706 38.8173C75.6532 40.7972 76.2656 42.8686 77.2077 45.0316C78.022 46.9166 78.8295 48.3337 79.6303 49.283L79.9735 49.6796C80.9425 50.7848 81.7232 51.7544 82.3153 52.5884C83.4392 54.1479 84.351 55.7278 85.0509 57.328C85.6363 58.6705 86.0906 60.0368 86.4136 61.4267C86.7433 62.8642 86.9082 64.2339 86.9082 65.5357C86.9082 67.3257 86.5751 69.2989 85.9089 71.455C84.4082 76.3505 82.1841 79.9442 79.2366 82.236C76.3564 84.4735 72.4533 85.7313 67.5274 86.0093L67.911 85.7449C68.133 85.6228 68.2609 85.5381 68.2945 85.4906C72.8773 85.0295 76.4506 83.7311 79.0145 81.5952C81.6323 79.4051 83.7386 75.8962 85.3335 71.0686C85.9728 69.1293 86.2924 67.1834 86.2924 65.2306C86.2924 62.6405 85.7305 60.0537 84.6067 57.4704C83.9203 55.8837 83.032 54.331 81.9419 52.8122C81.3497 51.985 80.5859 51.0357 79.6505 49.9644L79.3073 49.5576C78.4997 48.5947 77.6754 47.1539 76.8342 45.235C75.8652 43.0314 75.2292 40.926 74.9264 38.919Z" fill="#0D131A"/>
<path d="M57.1102 19.8693C57.4803 19.232 58.0355 18.5675 58.7757 17.8759C59.4756 17.2114 60.1452 16.7063 60.7845 16.3604L60.7138 17.1334C59.5025 17.8047 58.4897 18.7777 57.6755 20.0524L57.1102 19.8693Z" fill="#0D131A"/>
<path d="M73.3315 37.1188C73.2575 37.0713 73.2306 36.99 73.2508 36.8747C73.271 36.7594 73.3484 36.7255 73.4829 36.773C73.9607 36.9493 74.2804 37.0849 74.4419 37.1798C74.5361 37.2341 74.5765 37.2883 74.563 37.3426L74.4419 37.4138L73.8968 37.3019C73.5872 37.2273 73.3988 37.1663 73.3315 37.1188Z" fill="#0D131A"/>
<path d="M76.6525 36.0104C76.6121 35.7933 76.6323 35.5492 76.7131 35.2779C76.74 35.1627 76.7838 35.1118 76.8443 35.1254C76.9049 35.1389 76.9554 35.1966 76.9958 35.2983C77.016 35.3593 76.9823 35.6069 76.8948 36.0409C76.8746 36.1833 76.8309 36.2409 76.7636 36.2138C76.7097 36.1867 76.6727 36.1189 76.6525 36.0104Z" fill="#0D131A"/>
<path d="M55.0005 38.3901C56.2253 37.8138 56.9722 37.346 57.2414 36.9866C57.3895 36.7832 57.5308 36.6645 57.6654 36.6306C57.8202 36.5832 57.8101 36.7594 57.6351 37.1595C57.3659 37.7426 56.6391 38.319 55.4547 38.8885C54.3511 39.4174 53.1028 39.8242 51.7098 40.109C49.2065 40.6311 46.8242 41.4888 44.5631 42.6822C41.5685 44.262 39.6035 46.1029 38.6681 48.2049C38.0625 49.5203 37.7327 50.8526 37.6789 52.2019C37.5847 54.5276 38.4528 56.2295 40.2832 57.3076C41.8646 58.2365 43.2913 58.2772 44.5631 57.4297C45.337 56.9211 46.2354 55.8634 47.2583 54.2564C48.7522 51.9036 49.9871 50.2119 50.9628 49.1812C53.0826 46.9301 55.2865 45.7402 57.5745 45.6113C57.8572 45.591 57.9884 45.6418 57.9682 45.7639C57.9547 45.8859 57.8134 45.9537 57.5442 45.9673C55.4245 46.1233 53.3047 47.3641 51.1849 49.6898C49.9736 51.012 48.7152 52.7783 47.4097 54.9887C46.4945 56.555 45.5591 57.6026 44.6035 58.1315C43.2644 58.8773 41.7334 58.7654 40.0107 57.7958C38.0053 56.6635 36.9959 54.8768 36.9824 52.4359C36.969 50.795 37.3155 49.2897 38.0221 47.9201C39.2267 45.5944 41.2388 43.6823 44.0584 42.1838C46.0907 41.0989 48.3922 40.2921 50.9628 39.7632C52.2751 39.4987 53.621 39.0411 55.0005 38.3901Z" fill="#0D131A"/>
<path d="M60.0274 21.2932C59.9736 21.1576 59.8794 21.0593 59.7448 20.9983C58.123 20.2999 56.5819 19.9812 55.1216 20.0422C54.2266 20.0829 52.9413 20.3372 51.2657 20.805L49.2872 21.3237L47.016 21.7001C45.3404 21.8764 43.5436 21.0186 41.6257 19.1269C39.9568 17.4724 38.7152 15.6316 37.901 13.6042C37.8471 13.4686 37.7529 13.3737 37.6183 13.3194L37.2146 13.3092C36.9925 13.4042 36.8815 13.5703 36.8815 13.8076L36.9218 14.011C37.7496 16.0858 39.0484 18.0149 40.8182 19.7981C42.9851 21.995 45.088 22.985 47.1271 22.768C47.9009 22.6866 48.6984 22.551 49.5194 22.3612L51.5584 21.8323C53.1398 21.3915 54.3377 21.1542 55.1519 21.1203C56.4642 21.0593 57.8572 21.3475 59.3309 21.9848C59.4655 22.0391 59.6035 22.0391 59.7448 21.9848C59.8794 21.9306 59.9736 21.8357 60.0274 21.7001C60.0812 21.5644 60.0812 21.4288 60.0274 21.2932ZM55.1317 19.6049C56.6593 19.5168 58.2441 19.8727 59.8861 20.6728C60.1149 20.7813 60.2899 20.961 60.411 21.2119C60.5321 21.4695 60.5456 21.7068 60.4514 21.9238C60.3572 22.1476 60.1788 22.2933 59.9164 22.3612L59.1896 22.3103C57.763 21.7001 56.4171 21.4221 55.1519 21.4763C54.3579 21.5102 53.1903 21.7441 51.6493 22.1781L49.5598 22.7375C48.6849 22.9477 47.8639 23.0934 47.0968 23.1748C44.9501 23.3986 42.7899 22.4222 40.6163 20.2456C38.8128 18.4488 37.4703 16.4147 36.5887 14.1432C36.4945 13.9059 36.4844 13.655 36.5585 13.3906C36.6392 13.1126 36.7873 12.9295 37.0026 12.8414L37.7294 12.8719C37.9784 12.9872 38.1466 13.1601 38.2341 13.3906C39.0618 15.4926 40.2933 17.3334 41.9286 18.9133C43.7321 20.6559 45.4447 21.4424 47.0665 21.2729C48.3787 21.1305 49.7482 20.8593 51.1748 20.4592C53.0322 19.9371 54.3511 19.6524 55.1317 19.6049Z" fill="#0D131A"/>
<path d="M61.8343 25.0259C62.265 25.1344 62.6754 25.3818 63.0658 25.7683C63.6445 26.3447 64.1391 27.1956 64.5496 28.3212C64.9466 29.4196 65.1283 30.3892 65.0947 31.23C65.0812 31.5419 64.7111 31.6945 63.9843 31.6877C63.1297 31.6877 62.201 31.3995 61.1983 30.8232C61.0637 30.7486 60.9695 30.6604 60.9157 30.5587L60.734 30.0909C60.5052 29.5078 60.337 28.928 60.2293 28.3517C60.0341 27.2939 60.088 26.4464 60.3908 25.809C60.7138 25.1242 61.195 24.8631 61.8343 25.0259ZM62.7327 26.0124C62.3423 25.6327 61.9386 25.4802 61.5214 25.5547C61.1512 25.6158 60.909 25.8158 60.7946 26.1548C60.6129 26.6769 60.586 27.3753 60.7138 28.25C60.8148 28.9755 60.9897 29.6637 61.2387 30.3146C61.6829 30.7418 62.3322 31.0164 63.1869 31.1385C63.6781 31.2063 64.1828 31.2164 64.701 31.169L64.7313 30.7825C64.7313 30.0366 64.5227 29.1755 64.1055 28.1991C63.695 27.2431 63.2374 26.5142 62.7327 26.0124Z" fill="#0D131A"/>
<path d="M64.8221 31.3317L62.8336 31.2402L62.238 30.9656C61.693 29.8129 61.4641 28.7721 61.5516 27.8432C61.6257 27.0024 61.9016 26.5176 62.3794 26.3887C63.0254 26.2125 63.6075 26.6701 64.1256 27.7618C64.6371 28.8331 64.8692 30.0231 64.8221 31.3317Z" fill="#0D131A"/>
<path d="M73.3416 21.7611C73.0321 21.5441 72.8773 21.8085 72.8773 22.5544C72.8773 23.2528 73.0455 24.1139 73.382 25.1377C73.7185 26.1819 74.0987 26.982 74.5226 27.538C74.7918 27.4024 74.9634 27.2533 75.0374 27.0905C74.9365 25.9039 74.7077 24.7886 74.351 23.7444C73.9944 22.6459 73.6579 21.9848 73.3416 21.7611ZM72.9782 21.3441C73.133 21.2831 73.3013 21.3136 73.4829 21.4356C73.8396 21.6865 74.203 22.3578 74.5731 23.4494C74.9634 24.6021 75.2158 25.8226 75.3302 27.1109L75.3201 27.2126C75.2191 27.4906 74.9735 27.7042 74.5832 27.8533H74.4318L74.3712 27.8126C73.8463 27.1685 73.3786 26.1752 72.9681 24.8326C72.5442 23.4426 72.4264 22.4357 72.6148 21.8119C72.6956 21.5611 72.8167 21.4051 72.9782 21.3441Z" fill="#0D131A"/>
<path d="M74.5327 27.7211C74.0549 27.26 73.631 26.4566 73.2609 25.3107L72.8369 23.724C72.7494 23.1952 72.7965 22.846 72.9782 22.6764C73.1532 22.5205 73.3685 22.5612 73.6243 22.7985C73.88 23.029 74.1559 23.5138 74.452 24.2529C74.8019 25.1344 75.061 26.104 75.2292 27.1617C75.0677 27.3312 74.8356 27.5177 74.5327 27.7211Z" fill="#0D131A"/>
<path d="M61.1176 15.7095C60.8551 16.7402 60.8047 17.3301 60.9662 17.4792C61.1815 17.6826 61.5146 17.8081 61.9655 17.8555C62.4096 17.903 62.847 17.8657 63.2777 17.7437C63.7286 17.6081 64.0785 17.3707 64.3275 17.0317C64.5631 16.6995 64.6371 16.3672 64.5496 16.035C64.489 15.8112 64.0516 15.4146 63.2374 14.845C62.4164 14.2687 61.9184 14.0144 61.7434 14.0822C61.5752 14.15 61.3666 14.6925 61.1176 15.7095ZM60.5018 17.4996C60.4278 17.2216 60.4917 16.5537 60.6936 15.4959C60.9224 14.3433 61.1849 13.7093 61.481 13.594C61.7905 13.4788 62.4197 13.7669 63.3686 14.4585C64.2771 15.1162 64.7717 15.5773 64.8524 15.8417C65.0005 16.3503 64.9466 16.8012 64.6909 17.1944C64.4352 17.5877 64.0011 17.8894 63.3888 18.0996C62.7024 18.337 62.0395 18.3471 61.4002 18.1301C60.8753 17.9471 60.5759 17.7369 60.5018 17.4996Z" fill="#0D131A"/>
<path d="M80.2359 64.6407C81.7164 64.0033 82.9479 63.2168 83.9304 62.2811C84.8187 61.4471 85.3671 60.63 85.5758 59.83L85.7272 60.0232C85.4849 60.9318 84.9163 61.8234 84.0213 62.6981C83.032 63.6541 81.7904 64.4508 80.2965 65.0882C76.5886 66.6477 72.1572 66.9088 67.0025 65.8713L67.053 65.5866C72.0866 66.563 76.4809 66.2477 80.2359 64.6407Z" fill="#0D131A"/>
<path d="M70.5455 71.3432L70.596 71.0584C74.0348 71.5195 77.3221 71.2042 80.458 70.1125C83.4257 69.0819 85.4277 67.6749 86.4641 65.8917L86.5145 66.2578C85.4445 68.0953 83.4089 69.5328 80.4076 70.5702C77.2178 71.6754 73.9305 71.9331 70.5455 71.3432Z" fill="#0D131A"/>
<path d="M71.8275 75.4928L71.8982 75.2182C74.4082 75.6657 77.0361 75.5233 79.7817 74.791C82.312 74.113 84.0953 73.201 85.1316 72.0551L85.2225 72.4314C84.1256 73.6384 82.2884 74.5876 79.711 75.2792C76.8578 76.0454 74.2299 76.1166 71.8275 75.4928Z" fill="#0D131A"/>
<path d="M71.6761 80.5985L71.7064 80.3137C73.9338 80.4425 75.9728 80.273 77.8234 79.8052C79.7682 79.3102 81.3867 78.5203 82.6787 77.4354L82.7696 77.7914C81.4304 78.9169 79.7817 79.7238 77.8234 80.212C75.9055 80.6866 73.8564 80.8155 71.6761 80.5985Z" fill="#0D131A"/>
<path d="M70.2427 83.2835C71.5953 83.5005 73.2811 83.3954 75.2999 82.9683C77.2649 82.5479 78.7656 81.9987 79.8019 81.3206L79.1761 82.0224C78.1599 82.6936 76.7602 83.1785 74.9769 83.4768C73.2205 83.7683 71.6256 83.7989 70.1922 83.5683L70.2427 83.2835Z" fill="#0D131A"/>
<path d="M54.8895 46.5979L55.5355 46.2521L54.092 51.7646C53.3249 54.6463 52.7663 56.8194 52.4164 58.284C51.8377 60.6979 51.407 62.8405 51.1244 64.7119L50.8316 64.8339C50.6836 64.9017 50.5624 64.9967 50.4682 65.1187L50.337 65.4543C50.6264 63.488 51.0638 61.2471 51.6493 58.7315C52.0665 56.9347 52.6452 54.6632 53.3854 51.9172L54.8895 46.5979Z" fill="#0D131A"/>
<path d="M63.2777 37.6579L63.6209 37.7189C62.5846 43.306 62.0765 47.9438 62.0967 51.6324C62.1236 56.8262 63.1297 60.7996 65.1149 63.5524L64.5799 63.4202C62.5409 60.5928 61.5213 56.6736 61.5213 51.6629C61.5213 48.0014 62.1068 43.3331 63.2777 37.6579Z" fill="#0D131A"/>
<path d="M75.209 39.7835L75.4412 39.9564C74.5395 41.2108 73.1835 41.9804 71.3733 42.2652C69.812 42.5025 68.0422 42.4177 66.0637 42.0109C64.3814 41.6651 63.2643 41.2854 62.7125 40.8718L62.8841 40.6379C63.3686 41.004 64.4049 41.3498 65.9931 41.6753C67.9244 42.0753 69.6842 42.1533 71.2723 41.9092C73.096 41.6244 74.4082 40.9159 75.209 39.7835Z" fill="#0D131A"/>
<path d="M73.4628 45.8249C74.203 45.5605 74.8221 45.2384 75.3201 44.8587C75.8181 44.4858 76.1545 44.0891 76.3295 43.6687L76.5919 43.7704C76.3968 44.2451 76.0502 44.6892 75.5522 45.1028C75.0274 45.5368 74.3881 45.8859 73.6344 46.1504C72.1135 46.6928 70.4109 46.903 68.5267 46.781C66.3194 46.6318 64.24 46.0182 62.2885 44.9401L62.4298 44.696C64.2872 45.6791 66.2925 46.2453 68.446 46.3945C70.3369 46.5301 72.0092 46.3402 73.4628 45.8249Z" fill="#0D131A"/>
<path d="M78.3887 48.0625L78.6512 48.1642C78.456 48.6592 78.0825 49.1473 77.5307 49.6288C76.9654 50.1305 76.2925 50.5475 75.5119 50.8797C73.8295 51.5985 71.8746 51.9545 69.6472 51.9477C67.0563 51.9409 64.4823 51.4154 61.9251 50.3712L62.0261 50.1068C64.5294 51.1238 67.0799 51.6154 69.6774 51.5815C71.8712 51.5612 73.8093 51.1883 75.4917 50.4628C76.2521 50.1305 76.8813 49.761 77.3793 49.3541C77.8773 48.9405 78.2137 48.51 78.3887 48.0625Z" fill="#0D131A"/>
<path d="M80.8113 51.2154L81.0839 51.2561C80.9896 51.8934 80.6936 52.5376 80.1956 53.1885C79.6774 53.8733 79.0078 54.4666 78.1868 54.9684C76.4035 56.0532 74.2064 56.694 71.5953 56.8906C68.5536 57.1212 65.4278 56.6736 62.2178 55.5481L62.127 55.1921C65.2831 56.2973 68.3888 56.7313 71.4439 56.494C74.0549 56.2906 76.2387 55.6532 77.995 54.5819C78.8026 54.0869 79.452 53.5479 79.9432 52.9647C80.4345 52.3748 80.7238 51.7917 80.8113 51.2154Z" fill="#0D131A"/>
<path d="M80.7911 58.6196C81.5717 58.0501 82.1841 57.4331 82.6283 56.7686C83.0724 56.1041 83.3079 55.4532 83.3349 54.8158L83.6175 54.826C83.5838 55.5379 83.3517 56.2465 82.921 56.9517C82.4634 57.6907 81.8308 58.3552 81.0233 58.9451C79.2198 60.2605 76.8914 61.1115 74.0381 61.498C70.6734 61.9522 67.1102 61.6505 63.3484 60.5928L63.2575 60.247C66.9722 61.2911 70.5052 61.5861 73.8564 61.1318C76.7097 60.7521 79.0213 59.9147 80.7911 58.6196Z" fill="#0D131A"/>
<path d="M61.5113 36.1526C61.3228 35.7593 61.1983 35.3559 61.1378 34.9423C61.0974 34.6168 61.1075 34.4405 61.1681 34.4134C61.2353 34.3863 61.3262 34.5558 61.4406 34.9219C61.7098 35.7424 62.1472 36.4204 62.7528 36.9561C63.2441 37.39 63.7757 37.7324 64.3477 37.9833C64.913 38.241 65.3941 38.3529 65.7912 38.319L65.983 38.6444C65.3773 38.6851 64.775 38.6037 64.1761 38.4003C63.557 38.1833 62.985 37.8477 62.4601 37.3934C62.0631 37.0544 61.7468 36.6408 61.5113 36.1526Z" fill="#0D131A"/>
<path d="M69.5361 68.9022C71.5146 72.2382 72.4601 75.3538 72.3726 78.2491C72.3187 79.9442 71.7535 81.5783 70.6768 83.1513C69.5799 84.7515 68.1633 85.9551 66.4271 86.7619C66.0503 86.9382 65.8383 86.9823 65.7912 86.8941C65.7508 86.806 65.8955 86.6704 66.2252 86.4873C67.773 85.6533 69.018 84.5515 69.9601 83.1818C70.9762 81.724 71.5415 80.1035 71.6559 78.3203C71.8376 75.642 70.9628 72.6111 69.0314 69.2277C68.3114 67.9597 67.5106 66.7698 66.629 65.6578C65.8753 64.7017 65.2326 64.0067 64.701 63.5728C63.8464 62.8744 63.5099 62.5354 63.6916 62.5557C63.8666 62.5828 64.2703 62.8235 64.9029 63.2778C65.5085 63.7118 66.2151 64.4068 67.0227 65.3628C67.9379 66.4409 68.7757 67.6207 69.5361 68.9022Z" fill="#0D131A"/>
<path d="M51.2556 64.6814C49.8828 67.0206 49.3175 69.9735 49.5598 73.54C49.7818 76.7811 50.5153 79.3034 51.7603 81.107C53.6243 83.8192 55.808 85.7042 58.3114 86.7619C58.7488 86.945 58.9642 87.0976 58.9574 87.2196C58.9574 87.3417 58.7286 87.3281 58.271 87.1789C56.8982 86.7246 55.6364 86.0364 54.4857 85.1143C53.3148 84.1786 52.2246 82.975 51.2152 81.5037C50.4548 80.3917 49.8424 79.1068 49.3781 77.649C48.8464 75.9674 48.5806 74.235 48.5806 72.4518C48.5806 70.9669 48.7791 69.4989 49.1762 68.0479C49.654 66.2782 50.3471 64.9153 51.2556 63.9593C51.6795 63.5185 51.9016 63.3185 51.9218 63.3592C51.9554 63.4202 51.7334 63.8609 51.2556 64.6814Z" fill="#0D131A"/>
<path d="M77.3086 29.44C76.6761 28.4839 75.9661 27.8059 75.1788 27.4058C75.098 27.3109 75.0711 27.2126 75.098 27.1109C75.1249 27.0024 75.2158 26.9753 75.3705 27.0295C76.2992 27.4906 77.0765 28.1144 77.7023 28.9009C78.3685 29.7417 78.7723 30.6638 78.9136 31.6673C79.3443 34.705 78.5199 36.9764 76.4405 38.4817C75.3436 39.275 73.9574 39.8039 72.2817 40.0683C70.9022 40.2717 69.6943 40.2717 68.6579 40.0683C67.8167 39.8988 67.0462 39.5835 66.3464 39.1224C65.6129 38.6342 65.0745 38.1088 64.7313 37.546C64.4621 37.0917 64.2636 36.512 64.1357 35.8068C64.0954 35.583 64.1155 35.4237 64.1963 35.3288C64.2771 35.2271 64.3511 35.3017 64.4184 35.5525C64.5328 35.9661 64.7582 36.4509 65.0947 37.0069C65.559 37.7664 66.0873 38.3393 66.6795 38.7258C67.3591 39.1801 68.1902 39.475 69.1727 39.6106C70.384 39.7801 71.703 39.6818 73.1296 39.3157C75.5186 38.7054 77.1168 37.4951 77.9244 35.6848C78.4627 34.4846 78.6141 33.2268 78.3786 31.9114C78.244 31.1249 77.8874 30.3011 77.3086 29.44Z" fill="#0D131A"/>
<path d="M73.8766 22.2391C73.8161 22.1171 73.7252 22.0018 73.6041 21.8933L73.3315 21.5678C73.1835 20.5915 72.5745 19.5337 71.5045 18.3946C70.2663 17.0792 68.8632 16.235 67.2952 15.8621C66.3733 15.6383 65.4345 15.5943 64.4789 15.7299L64.1055 15.2824C65.2225 15.14 66.3194 15.1942 67.3962 15.4451C69.1324 15.8587 70.6263 16.7435 71.878 18.0996C73.0893 19.4083 73.7555 20.7881 73.8766 22.2391Z" fill="#0D131A"/>
<path d="M63.3585 27.3651C63.4056 27.5957 63.3854 27.7957 63.2979 27.9652C63.2104 28.1212 63.0759 28.2161 62.8942 28.25C62.7192 28.2907 62.5577 28.2602 62.4096 28.1584C62.2481 28.0432 62.1438 27.8703 62.0967 27.6397C62.0496 27.4092 62.0732 27.2092 62.1674 27.0397C62.2616 26.8769 62.3962 26.7786 62.5711 26.7447C62.7461 26.704 62.9076 26.7379 63.0557 26.8464C63.2104 26.9617 63.3114 27.1346 63.3585 27.3651Z" fill="white"/>
<path d="M73.7252 23.5918C73.7858 23.7952 73.806 23.9783 73.7858 24.141C73.7656 24.3038 73.7084 24.3987 73.6142 24.4258C73.52 24.4529 73.4224 24.4021 73.3214 24.2732C73.2138 24.1512 73.133 23.9885 73.0792 23.785C73.0186 23.5884 72.9984 23.4087 73.0186 23.246C73.0455 23.0833 73.1027 22.9883 73.1902 22.9612C73.2777 22.9273 73.3753 22.9748 73.4829 23.1036C73.5906 23.2257 73.6714 23.3884 73.7252 23.5918Z" fill="white"/>
<path d="M75.6128 1.79603L76.1579 1.77569C76.3396 1.85027 76.4675 1.97571 76.5415 2.152C77.4769 4.27429 77.8066 6.23723 77.5307 8.04083C77.2481 9.83765 76.4035 11.2209 74.9971 12.1905C73.7521 13.0516 72.9042 13.9398 72.4533 14.8552C72.0092 15.7502 71.8376 16.9063 71.9385 18.3234C71.952 18.5268 71.9049 18.6997 71.7972 18.8421C71.6895 18.9913 71.5381 19.0828 71.343 19.1167C71.1344 19.1574 70.9527 19.0557 70.7979 18.8116C70.6431 18.5743 70.559 18.2725 70.5455 17.9064C70.4917 16.3672 70.7171 15.0993 71.2218 14.1026C71.7669 13.0312 72.7595 12.0006 74.1996 11.0107C75.3033 10.2513 75.9493 9.12909 76.1377 7.64417C76.3261 6.15925 76.03 4.52177 75.2494 2.73173C75.1687 2.55544 75.1653 2.37576 75.2393 2.19269C75.3066 2.00283 75.4311 1.87062 75.6128 1.79603Z" fill="#FFF3C2"/>
<path d="M71.8275 14.7331C72.09 14.1568 72.5139 13.6517 73.0994 13.2177C73.5772 12.8651 74.0213 12.6482 74.4318 12.5668C74.1021 12.7702 73.7319 13.1058 73.3214 13.5737C72.8437 14.1161 72.4971 14.6416 72.2817 15.1501C72.0529 15.7061 71.9251 16.3265 71.8982 17.0114L71.9385 18.3234C71.952 18.5336 71.9318 18.6861 71.878 18.7811C71.8174 18.8828 71.6963 18.9506 71.5146 18.9845C71.3531 19.0116 71.2757 18.5404 71.2824 17.5708C71.2824 16.4994 71.4641 15.5536 71.8275 14.7331Z" fill="#DBD2A9"/>
<path d="M76.703 2.08081C77.6922 4.36582 78.059 6.39318 77.8032 8.16288C77.5543 9.93258 76.7064 11.3124 75.2595 12.3023C74.4856 12.838 73.8934 13.3092 73.4829 13.7161C72.958 14.2382 72.5846 14.7942 72.3625 15.3841C72.2548 15.6621 72.1741 16.0723 72.1202 16.6147C72.0731 17.1368 72.063 17.686 72.0899 18.2624C72.1034 18.5539 72.0327 18.798 71.878 18.9947C71.7299 19.1709 71.5482 19.2591 71.3329 19.2591C70.8618 19.2727 70.5826 18.9608 70.4951 18.3234C70.4345 17.7877 70.4143 17.2182 70.4345 16.6147C70.4547 15.8214 70.5489 15.1807 70.7171 14.6925C70.9594 13.9873 71.343 13.3296 71.8679 12.7193C72.3793 12.1294 73.0657 11.5362 73.9271 10.9395C75.0038 10.1936 75.6431 9.14265 75.845 7.78656C76.0536 6.40335 75.8012 4.74214 75.0879 2.80293C74.9668 2.47747 74.9466 2.19269 75.0274 1.94859C75.1014 1.73162 75.2528 1.56889 75.4816 1.4604C75.7239 1.36547 75.9493 1.36208 76.1579 1.45023L76.4809 1.71466L76.703 2.08081ZM76.0872 1.94859L75.6835 1.95876C75.4749 2.04013 75.3706 2.20286 75.3706 2.44695L75.4109 2.66054C76.0502 4.11834 76.3699 5.49816 76.3699 6.80001C76.3699 7.74249 76.1983 8.58666 75.8551 9.33251C75.4984 10.0851 74.9802 10.6954 74.3006 11.1632C73.2239 11.9023 72.4163 12.6448 71.878 13.3906C71.3194 14.1568 70.9796 14.8484 70.8585 15.4654C70.7508 16.0282 70.7474 16.9639 70.8484 18.2725C70.8955 18.7065 71.0603 18.9201 71.343 18.9133C71.4708 18.9133 71.5785 18.8489 71.666 18.72C71.7467 18.598 71.7804 18.4658 71.7669 18.3234C71.6593 16.73 71.8611 15.462 72.3726 14.5196C72.81 13.7262 73.6512 12.899 74.8961 12.0379C76.2689 11.0954 77.0866 9.74611 77.349 7.98998C77.6182 6.23384 77.2952 4.31158 76.38 2.2232C76.3261 2.09437 76.2286 2.00283 76.0872 1.94859Z" fill="#0D131A"/>
</svg>
