<svg width="129" height="125" viewBox="0 0 129 125" fill="none" xmlns="http://www.w3.org/2000/svg">
<path d="M56.0554 77.0014L65.2468 79.9213C64.7157 81.8297 64.3173 84.3583 64.0517 87.5071C63.7671 90.9613 63.8809 92.9938 64.3932 93.6044C64.7915 94.0816 65.5788 94.6254 66.755 95.2361C67.8933 95.8277 68.5193 96.2189 68.6332 96.4098C68.8608 96.7533 68.9841 97.2495 69.0031 97.8983C69.041 98.5854 68.9557 99.196 68.747 99.7304C68.5762 100.188 68.3581 100.475 68.0925 100.589L67.751 100.618L67.5234 101.706C67.1439 102.469 66.3472 102.946 65.133 103.137C65.0192 103.557 64.6682 103.9 64.0801 104.167C63.549 104.415 62.9893 104.54 62.4012 104.54C61.7562 104.54 61.2155 104.435 60.7792 104.225C60.1532 103.957 59.5461 103.423 58.958 102.622C58.6165 102.164 57.8102 101.457 56.5392 100.503C55.5527 99.7781 55.0215 99.1292 54.9456 98.5567C54.8887 98.156 54.9172 97.3258 55.031 96.0663C55.1259 94.8449 55.0974 93.7857 54.9456 92.8888L53.9781 88.7667L52.8399 85.1598C52.726 84.8354 52.7735 83.6999 52.9822 81.7533C53.1719 80.0167 52.8968 78.5472 52.1569 77.3449L56.0554 77.0014Z" fill="#485157"/>
<path d="M57.5636 87.364C56.5392 85.1312 55.0026 83.4804 52.9537 82.4117C53.0865 81.782 53.1244 81.0377 53.0675 80.1789C52.9916 78.9766 52.7166 78.0606 52.2423 77.4308L55.6001 76.9155L65.1046 79.9499C64.6113 81.572 64.2509 84.0339 64.0232 87.3354C63.7576 90.9041 63.8809 92.9938 64.3932 93.6044C64.7915 94.0816 65.5788 94.6254 66.755 95.2361C67.8933 95.8277 68.5193 96.2189 68.6332 96.4098C68.8608 96.7533 68.9841 97.2495 69.0031 97.8983C69.041 98.5854 68.9557 99.196 68.747 99.7304C68.5762 100.188 68.3581 100.475 68.0925 100.589L67.751 100.618L67.5234 101.706C67.1439 102.469 66.3472 102.946 65.133 103.137C65.0192 103.557 64.6682 103.9 64.0801 104.167C63.549 104.415 62.9893 104.54 62.4012 104.54C61.7562 104.54 61.2155 104.435 60.7792 104.225C60.1532 103.957 59.5461 103.423 58.958 102.622C58.92 102.564 59.1667 102.078 59.6979 101.162C60.229 100.284 60.1911 99.5586 59.584 98.9861C58.958 98.3754 58.7209 97.8792 58.8726 97.4976L59.3564 96.8392C59.2236 92.8506 58.626 89.6922 57.5636 87.364Z" fill="#30353A"/>
<path d="M64.2509 87.4499L64.9907 88.0796C65.2563 88.4613 65.4366 89.0911 65.5314 89.969L65.7306 92.717C65.6737 93.5758 65.4745 94.177 65.133 94.5205C64.7346 94.9403 63.8999 95.3983 62.6289 95.8945C61.263 96.448 59.9634 96.7915 58.7303 96.925L55.2302 96.8392C54.1109 96.5338 53.3141 95.8659 52.8399 94.8354C52.5553 94.2056 52.3846 93.3182 52.3277 92.1731C52.2707 91.0472 52.3466 90.2457 52.5553 89.7686C52.726 89.3678 52.9632 88.9766 53.2667 88.5949L53.6651 88.1369L54.5473 90.656C55.0784 91.6292 56.7099 91.9155 59.4417 91.5147C62.0028 91.1331 63.4731 90.656 63.8525 90.0835L64.2509 87.4499Z" fill="#DBDCDC"/>
<path d="M62.0597 90.9422C63.0842 90.6178 63.6817 90.3315 63.8525 90.0835L64.2509 87.4499L64.9907 88.0796C65.2563 88.4613 65.4366 89.0911 65.5314 89.969L65.7306 92.717C65.6737 93.5758 65.4745 94.177 65.133 94.5205C64.7346 94.9403 63.8999 95.3983 62.6289 95.8945C61.263 96.448 59.9634 96.7915 58.7303 96.925L55.2302 96.8105C55.2871 95.2457 55.4579 94.2342 55.7424 93.7762C55.9321 93.5281 56.9091 93.2418 58.6734 92.9174C59.0339 92.8411 59.1572 92.6693 59.0434 92.4022L58.7303 91.6006C59.8686 91.4861 60.9784 91.2667 62.0597 90.9422Z" fill="#B4B4B5"/>
<path d="M52.3277 83.2419C52.4794 82.593 52.5363 81.7247 52.4984 80.6369C52.4605 79.2247 52.2043 78.2037 51.7301 77.5739L52.5553 77.3449C53.1055 78.1083 53.3995 79.2342 53.4375 80.7228C53.4754 81.7915 53.3995 82.7075 53.2098 83.4709C53.058 84.1388 53.0486 84.6636 53.1813 85.0453C53.7505 86.5338 54.2817 88.3277 54.7749 90.427C54.8508 90.8086 54.8034 90.99 54.6326 90.9709C54.4619 90.9518 54.2722 90.7896 54.0635 90.4842L52.3277 85.2171C52.119 84.7209 52.119 84.0625 52.3277 83.2419Z" fill="#0D131A"/>
<path d="M65.5314 80.0644C65.2279 81.0758 64.7631 84.2724 64.137 89.6541L63.8809 90.0548C63.7102 90.1312 63.5679 90.2552 63.4541 90.427C63.492 89.2056 63.6533 87.3545 63.9379 84.8736C64.2604 82.3163 64.5354 80.6465 64.7631 79.864L65.5314 80.0644Z" fill="#0D131A"/>
<path d="M68.6616 97.9556C68.6237 97.3449 68.5098 96.8964 68.3201 96.6102C68.2442 96.4957 67.7795 96.2094 66.9258 95.7514C66.0531 95.2934 65.4176 94.9212 65.0192 94.635L65.503 94.2342C65.8634 94.4823 66.4515 94.7686 67.2673 95.093C68.1399 95.551 68.709 95.9709 68.9746 96.3525C69.2592 96.7915 69.4015 97.5071 69.4015 98.4995L69.1454 99.9022C68.9367 100.475 68.5952 100.828 68.1209 100.961C68.083 101.457 67.9028 101.906 67.5803 102.307C67.106 102.879 66.3756 103.261 65.3891 103.452C65.1994 103.891 64.801 104.253 64.194 104.54L62.4012 104.912C61.7183 104.912 61.1396 104.807 60.6654 104.597C59.9824 104.291 59.3184 103.709 58.6734 102.851C58.313 102.354 57.649 101.763 56.6815 101.076L55.2587 99.988C54.8034 99.5873 54.5473 99.1579 54.4903 98.6999C54.4524 98.4708 54.4809 97.8697 54.5757 96.8964L55.2871 97.1827V98.4995C55.344 98.8239 55.5527 99.1579 55.9132 99.5014L57.1083 100.475C58.1707 101.276 58.8821 101.925 59.2425 102.421C59.7927 103.165 60.3523 103.662 60.9215 103.91C61.3009 104.101 61.7941 104.196 62.4012 104.196L63.9094 103.881C64.4026 103.652 64.6872 103.375 64.7631 103.051L65.0761 102.793C66.1195 102.622 66.8404 102.192 67.2388 101.505L67.5234 100.532L67.9787 100.16C68.1115 100.179 68.2537 99.9976 68.4055 99.6159C68.5952 99.1388 68.6806 98.5854 68.6616 97.9556Z" fill="#0D131A"/>
<path d="M62.9134 99.3869C62.8186 99.196 62.8281 99.0625 62.9419 98.9861C63.0367 98.9098 63.16 98.9766 63.3118 99.1865L64.4501 100.188C64.8674 100.475 65.114 100.704 65.1899 100.875C65.4176 101.467 65.4366 102.259 65.2468 103.251L64.5354 103.566C64.839 102.402 64.8959 101.572 64.7062 101.076L64.1655 100.618L63.4541 100.045C63.1695 99.7781 62.9893 99.5586 62.9134 99.3869Z" fill="#0D131A"/>
<path d="M65.1615 97.5835C65.0476 97.4689 65.0571 97.3735 65.1899 97.2972C65.3038 97.2018 65.446 97.2304 65.6168 97.3831C65.8255 97.5739 66.2523 97.8125 66.8973 98.0987C67.4475 98.3277 67.751 98.5281 67.8079 98.6999L68.064 99.53L68.0071 100.618C67.9312 101.076 67.8174 101.295 67.6656 101.276C67.5328 101.238 67.4759 101.019 67.4949 100.618C67.5518 99.8926 67.5139 99.3773 67.3811 99.072C67.3431 98.9766 67.0396 98.7571 66.4705 98.4136L65.1615 97.5835Z" fill="#0D131A"/>
<path d="M53.5228 88.8239C53.2383 89.1865 53.0201 89.5491 52.8683 89.9117C52.7166 90.2552 52.6407 90.8086 52.6407 91.572C52.6407 92.8888 52.8114 93.9289 53.1529 94.6922C53.5892 95.6464 54.3575 96.2571 55.4579 96.5243C56.2546 96.7151 57.336 96.7342 58.7019 96.5815C59.8781 96.467 61.1396 96.1426 62.4866 95.6083C63.7007 95.1312 64.507 94.6922 64.9054 94.2915C65.2279 93.967 65.3891 93.3086 65.3891 92.3163L65.1899 89.3964C65.133 88.8812 65.0097 88.509 64.82 88.28L64.3647 87.9079L64.1371 89.5968C64.2509 89.5587 64.2888 89.6255 64.2509 89.7972L63.8809 90.3411C63.5964 90.5892 62.7522 90.9136 61.3483 91.3144C59.7168 91.7915 58.3225 92.0109 57.1652 91.9728C55.4958 91.8774 54.4714 91.4861 54.092 90.7991L53.9497 90.5415C53.8928 90.3697 53.9402 90.3125 54.092 90.3697L53.5228 88.8239ZM52.1 89.3392C52.2707 88.9384 52.5458 88.5854 52.9252 88.28L53.4375 87.9079L54.0066 88.28L54.8318 90.5128C55.1353 91.009 55.8183 91.2762 56.8807 91.3144C58.0758 91.3907 59.4607 91.238 61.0353 90.8564C62.4581 90.5128 63.2928 90.198 63.5395 89.9117L63.9379 87.3926L64.5354 87.1922L65.3607 87.7648C65.6263 88.0892 65.8065 88.6617 65.9013 89.4823C66.2238 92.364 66.0531 94.1388 65.3891 94.8067C64.9528 95.2457 64.0991 95.7132 62.8281 96.2094C61.4242 96.7628 60.0678 97.1159 58.7588 97.2686C55.2871 97.6693 53.2193 97.0014 52.5553 95.2647C52.2897 94.5396 52.0905 93.5186 51.9577 92.2018C51.8439 90.8086 51.8913 89.8545 52.1 89.3392Z" fill="#0D131A"/>
<path d="M25.038 58.5377C24.355 57.0492 24.061 56.0663 24.1559 55.5892C24.2507 55.0549 24.8293 54.9499 25.8917 55.2744C29.8566 56.4385 34.1156 55.9996 38.6686 53.9576L33.2619 68.1274C32.0477 67.364 30.5396 65.9327 28.7373 63.8335C26.8971 61.6961 25.664 59.9308 25.038 58.5377Z" fill="#485157"/>
<path d="M34.5709 64.7495L33.2619 68.1274C32.1805 67.4213 30.8146 66.1427 29.1642 64.2915C27.5327 62.4595 26.2901 60.8087 25.4364 59.3392C27.9216 61.8583 30.9664 63.6618 34.5709 64.7495Z" fill="#30353A"/>
<path d="M25.8632 54.616C27.7414 55.1885 29.8946 55.3316 32.3228 55.0454C34.7321 54.7782 37.0466 54.1484 39.2662 53.156L38.8109 54.2725C34.163 56.3526 29.8282 56.7915 25.8063 55.5892L24.5258 55.5034C24.3171 55.7705 24.5827 56.7343 25.3226 58.3946C25.9296 59.7114 27.0869 61.324 28.7942 63.2324C30.4637 65.1026 31.915 66.4289 33.1481 67.2114L33.0912 68.4137C31.5735 67.4404 30.0937 66.2381 28.652 64.8068C26.8687 62.9938 25.5028 61.1236 24.5542 59.1961C24.042 58.2038 23.7195 57.2782 23.5867 56.4194C23.435 55.6179 23.4824 55.0835 23.729 54.8164C24.0895 54.3774 24.8009 54.3106 25.8632 54.616Z" fill="#0D131A"/>
<path d="M77.1131 12.0206L72.1333 19.4634C70.7674 17.7649 69.7904 15.7038 69.2023 13.2802C68.5952 10.7802 68.709 9.10078 69.5438 8.24201C70.056 7.70766 71.2891 8.05117 73.2431 9.27254C74.2865 9.94048 75.5765 10.8565 77.1131 12.0206Z" fill="#485157"/>
<path d="M73.3854 9.6733C74.7702 10.4557 76.0128 11.2382 77.1131 12.0206L75.6334 14.0531C74.8556 12.7744 73.9355 11.6867 72.8731 10.7897L69.4299 8.09888C70.0939 8.04163 71.4124 8.56643 73.3854 9.6733Z" fill="#30353A"/>
<path d="M72.5317 8.61414C74.258 9.45384 75.8516 10.4939 77.3123 11.7344L76.7148 12.1924C74.8556 10.8374 73.2621 9.81643 71.9341 9.12941C70.7958 8.55689 70.1034 8.33743 69.8568 8.47101C69.3825 8.71911 69.2876 9.95956 69.5722 12.1924C69.9137 14.7496 70.8338 16.8298 72.3325 18.4328L72.1902 19.8069C70.388 17.5931 69.2876 15.0645 68.8893 12.221C68.5098 9.70193 68.728 8.22292 69.5438 7.78399C69.9421 7.57407 70.9381 7.85079 72.5317 8.61414Z" fill="#0D131A"/>
<path d="M87.6135 85.8755L89.577 78.6331C90.0703 77.9842 90.9335 77.1732 92.1666 76.1999L94.5 74.1961C94.1585 76.1999 92.8021 79.2438 90.4307 83.3277C88.268 87.0682 87.1582 90.0644 87.1013 92.3163C86.5891 91.5148 86.7599 89.3678 87.6135 85.8755Z" fill="#30353A"/>
<path d="M98.7684 6.86796C101.937 6.23819 104.109 6.18094 105.285 6.69621C105.361 6.73438 104.611 8.50918 103.037 12.0206C101.254 16.0664 100.125 18.8622 99.6506 20.408C99.2143 21.8584 99.034 25.742 99.1099 32.0588C99.2238 39.0244 99.1194 43.5855 98.7969 45.7419C98.4365 48.2229 98.3795 50.5034 98.6262 52.5835C99.0246 55.8087 99.2238 58.8812 99.2238 61.8011C99.2238 65.9805 97.6302 69.9976 94.4431 73.8526C92.8495 75.7991 91.256 77.3163 89.6624 78.4041L87.1013 88.0224C86.7978 89.2438 86.9021 91.0186 87.4144 93.3468L89.0933 99.759C89.5865 101.629 90.7343 103.146 92.5365 104.311C93.6368 105.017 95.1071 105.646 96.9472 106.2C98.0665 106.524 98.8538 106.963 99.3091 107.517C99.6127 107.898 99.9636 108.7 100.362 109.921C100.722 110.971 100.732 111.906 100.39 112.727C100.049 113.509 99.5178 113.862 98.7969 113.786C98.8538 114.358 98.4744 114.873 97.6587 115.331L95.2399 116.362C95.126 117.183 94.2344 117.784 92.565 118.165L89.3779 118.08C88.4862 117.297 86.7978 116.2 84.3126 114.788C82.5863 113.833 81.6377 112.936 81.467 112.097L80.9548 109.062C80.7271 107.936 80.2623 106.457 79.5604 104.625C78.9913 103.156 77.7771 100.885 75.918 97.8124C74.2296 95.0262 73.2621 93.1464 73.0154 92.1731L72.0764 87.7934L70.5966 80.4079C68.8703 80.5033 66.6886 80.1884 64.0517 79.4632L57.7059 77.5453L53.2383 76.6007C51.9103 76.3717 51.123 76.1617 50.8764 75.9709C50.6108 76.4098 50.2503 77.6884 49.795 79.8068L48.7137 84.6159C48.5619 85.1503 47.4711 86.677 45.4412 89.1961C43.4872 91.6006 42.311 93.738 41.9126 95.6083C41.5142 97.4785 41.372 98.8907 41.4858 99.8449C41.6565 101.066 42.2731 102.278 43.3354 103.48C44.0753 104.32 44.9954 105.064 46.0957 105.713C46.8735 106.171 47.3383 106.667 47.4901 107.202C47.7746 108.366 47.7746 109.282 47.4901 109.95C47.1676 110.694 46.4941 111.066 45.4697 111.066C45.5456 111.543 45.1946 111.982 44.4168 112.383C43.639 112.746 42.994 112.832 42.4818 112.641C42.4818 113.194 42.1877 113.595 41.5996 113.843L39.3231 114.501C38.4884 114.769 37.6631 114.644 36.8474 114.129C36.1644 113.69 35.7281 113.185 35.5384 112.612C35.2349 111.696 34.4191 110.379 33.0912 108.662C31.9529 107.211 31.3838 106.066 31.3838 105.227C31.3838 103.624 31.5735 101.534 31.9529 98.9575C32.1616 97.6025 32.2659 95.8468 32.2659 93.6903C32.2849 91.6483 32.2185 90.2838 32.0667 89.5968C31.7442 88.6617 31.5261 87.9174 31.4122 87.364C31.2225 86.3525 31.3648 85.4556 31.8391 84.6732L33.518 81.8106C34.0492 80.7037 34.2863 79.7781 34.2294 79.0339C33.812 76.7629 33.4895 74.5587 33.2619 72.4213C32.8256 68.261 32.9489 64.7209 33.6318 61.8011C34.8649 56.6293 37.1509 52.908 40.4898 50.637C42.2731 49.4347 44.4547 48.5187 47.0348 47.8889C47.7936 47.5645 52.3371 47.0683 60.6654 46.4003C68.6142 45.7515 72.7024 45.2267 72.9301 44.8259C73.3854 44.1007 79.3138 32.5359 90.7153 10.1313C92.6314 8.64277 95.3157 7.55499 98.7684 6.86796Z" fill="#485157"/>
<path d="M63.2834 79.406L56.3115 77.2877C55.2871 76.9823 54.0919 76.7056 52.726 76.4575C51.7016 76.2858 51.0851 76.1236 50.8764 75.9709C50.6108 76.4098 50.2503 77.6884 49.795 79.8068L48.7137 84.6159C48.5619 85.1503 47.4711 86.677 45.4412 89.1961C43.4872 91.6006 42.311 93.738 41.9126 95.6083C41.5142 97.4785 41.372 98.8907 41.4858 99.8449C41.6565 101.066 42.2731 102.278 43.3354 103.48C44.0753 104.32 44.9954 105.064 46.0957 105.713C46.8735 106.171 47.3383 106.667 47.4901 107.202C47.7746 108.366 47.7746 109.282 47.4901 109.95C47.1676 110.694 46.4941 111.066 45.4697 111.066C45.5456 111.543 45.1946 111.982 44.4168 112.383C43.639 112.746 42.994 112.832 42.4818 112.641C42.4818 113.194 42.1877 113.595 41.5996 113.843L39.3231 114.501C39.2472 114.52 39.1713 114.311 39.0954 113.872L38.9247 112.555C38.8678 112.02 39.0006 111.562 39.3231 111.181C39.7594 110.627 40.6036 110.141 41.8557 109.721L43.2216 109.234C43.8477 109.024 43.9994 108.7 43.6769 108.261C43.2216 107.65 42.2731 107.125 40.8313 106.686C39.2188 106.19 37.6157 106.038 36.0222 106.228C36.0222 104.778 36.2877 103.528 36.8189 102.478L38.5832 99.6445C39.0575 98.6903 39.2188 96.5338 39.067 93.1751C38.9342 90.2934 39.4085 88.49 40.4898 87.7648C43.5821 85.6274 45.5456 82.2304 46.3803 77.5739C46.6459 73.49 46.9873 71.4862 47.4047 71.5625C50.9333 72.3068 55.5053 72.7552 61.1207 72.9079C65.5978 73.0415 68.0261 73.2991 68.4055 73.6808C69.0885 74.3869 69.6955 75.532 70.2267 77.1159C70.7958 78.8907 71.0425 80.5987 70.9666 82.24L70.5966 80.4079C68.6806 80.5224 66.2428 80.1884 63.2834 79.406Z" fill="#30353A"/>
<path d="M105.228 6.83934L102.952 12.1065C101.263 15.9615 100.163 18.7286 99.6506 20.408C99.2143 21.8584 99.034 25.742 99.1099 32.0588C99.2238 39.0244 99.1194 43.5855 98.7969 45.7419C98.4365 48.2229 98.3795 50.5034 98.6262 52.5835C99.0246 55.8087 99.2238 58.8812 99.2238 61.8011C99.2238 65.9805 97.6302 69.9976 94.4431 73.8526C92.8495 75.7991 91.256 77.3163 89.6624 78.4041L87.1013 88.0224C86.7978 89.2438 86.9021 91.0186 87.4144 93.3468L89.0933 99.759C89.5865 101.629 90.7343 103.146 92.5365 104.311C93.6368 105.017 95.1071 105.646 96.9472 106.2C98.0665 106.524 98.8538 106.963 99.3091 107.517C99.6127 107.898 99.9636 108.7 100.362 109.921C100.722 110.971 100.732 111.906 100.39 112.727C100.049 113.509 99.5178 113.862 98.7969 113.786C98.8538 114.358 98.4744 114.873 97.6587 115.331L95.2399 116.362C95.145 116.992 94.5474 117.583 93.4471 118.137C92.3278 118.69 91.5216 118.757 91.0283 118.337C90.9145 118.223 90.9524 117.822 91.1421 117.135L91.4836 115.761C91.4457 114.998 92.5839 113.967 94.8984 112.669C96.9662 111.486 97.8294 110.78 97.4879 110.551C95.5149 109.177 92.8969 108.576 89.6339 108.748L87.3859 108.919C87.0634 108.938 87.2246 108.776 87.8697 108.433C89.1217 107.784 89.4253 106.877 88.7803 105.713C87.7179 104.396 87.0065 103.461 86.646 102.908C85.8303 101.629 85.0904 99.8831 84.4264 97.6693L82.5199 91.4003C82.1973 90.5033 82.776 87.4499 84.2557 82.24C85.7165 76.9919 86.2856 73.8049 85.9631 72.6789C85.5837 71.3621 86.0864 69.1961 87.4713 66.1808L89.7762 61.0282C89.9659 55.9709 88.8751 51.7057 86.5037 48.2324C84.8153 45.7515 81.4101 42.4881 76.2879 38.4423L89.8901 12.0779C90.7248 10.3412 92.195 9.72101 94.3008 10.2172C95.3632 10.4844 96.4255 10.847 97.4879 11.305C99.9921 9.28208 102.003 7.92712 103.521 7.2401C104.507 6.78209 105.076 6.6485 105.228 6.83934Z" fill="#30353A"/>
<path d="M72.7593 44.7114C72.3799 45.0549 72.0669 45.4652 71.8203 45.9423L71.0235 47.2591C67.3621 50.5225 64.4785 54.4442 62.3728 59.0244C61.8605 60.1121 61.2914 61.448 60.6654 63.032C60.2101 64.0434 59.8117 64.5492 59.4702 64.5492C58.6165 64.5492 57.8482 63.1751 57.1652 60.427C56.5771 58.0988 56.2831 56.0854 56.2831 54.387C54.2532 55.3221 52.0336 56.9538 49.6243 59.282C48.524 60.3507 46.6174 62.4118 43.9046 65.4652C43.4493 62.9461 43.62 59.9404 44.4168 56.448C44.91 54.3106 45.8491 51.3526 47.234 47.574L60.0962 46.1427L72.7593 44.7114Z" fill="#30353A"/>
<path d="M41.7703 56.9633C42.1498 53.8908 43.4588 50.8851 45.6973 47.9461C47.841 45.1599 50.4116 43.2324 53.409 42.1637C55.7234 41.324 58.1802 41.0377 60.7792 41.3049L54.0635 51.6102C53.096 52.0683 51.9957 52.9461 50.7626 54.2438C49.15 55.9041 47.7557 57.8602 46.5795 60.1121C45.8965 61.4289 45.1851 63.0701 44.4452 65.0358C43.8951 65.99 43.2596 65.532 42.5387 63.6618C41.7419 61.5434 41.4858 59.3106 41.7703 56.9633Z" fill="#DBDCDC"/>
<path d="M55.4863 41.6198L60.7792 41.3049L54.0635 51.6102C53.096 52.0683 51.9957 52.9461 50.7626 54.2438C49.15 55.9041 47.7557 57.8602 46.5795 60.1121C46.2759 60.6847 45.7258 61.8774 44.929 63.6904C44.3978 64.8545 44.0374 65.4843 43.8477 65.5797C43.6959 65.656 43.5821 65.4366 43.5062 64.9213C43.4303 64.406 43.4113 63.7667 43.4493 63.0034C43.7338 58.5759 45.8017 54.3011 49.6528 50.179L54.8887 44.9977C56.4633 43.2229 56.6625 42.0969 55.4863 41.6198Z" fill="#B4B4B5"/>
<path d="M74.5805 41.7343L72.987 44.7114C68.7375 45.7419 65.2753 48.7858 62.6004 53.8431C60.912 57.011 59.8781 59.9499 59.4987 62.6598C59.3279 63.8812 59.1098 64.5396 58.8442 64.635C58.4078 64.7877 57.5447 64.0816 56.2546 62.5167C54.8318 60.7801 54.1299 58.2228 54.1489 54.845C54.1678 51.448 54.9077 48.5091 56.3685 46.0282C57.5257 44.0816 59.29 42.3927 61.6613 40.9614C63.9189 39.6255 66.5464 38.6236 69.5438 37.9557L74.5805 41.7343Z" fill="#DBDCDC"/>
<path d="M69.686 37.9557L74.5805 41.7343L72.7593 44.5969C69.0979 45.9709 66.1005 48.4041 63.7671 51.8965C62.515 53.824 61.4621 56.0282 60.6085 58.5091C59.9824 60.2839 59.6125 61.6675 59.4987 62.6598C59.309 63.9766 58.9864 64.6064 58.5311 64.5492C58.0569 64.511 57.7913 63.719 57.7344 62.1732C57.6205 58.2419 58.5122 54.406 60.4093 50.6656C62.0408 47.4404 64.0517 44.8927 66.442 43.0225C67.5234 42.1828 67.9976 41.324 67.8648 40.4461C67.77 39.7019 67.3336 39.1484 66.5558 38.7858L69.686 37.9557Z" fill="#B4B4B5"/>
<path d="M51.4455 74.3106L62.2589 74.8545L69.4868 75.656C69.7714 76.3239 70.018 77.135 70.2267 78.0892C70.4733 79.177 70.5492 79.9881 70.4544 80.5224C69.2782 80.6178 67.3906 80.3411 64.7915 79.6923C62.553 79.1388 60.1057 78.3946 57.4498 77.4594C56.1598 77.0968 55.012 76.9633 54.0066 77.0587C53.3995 77.0968 52.1095 77.3545 50.1365 77.8316C50.0227 77.8507 50.1839 77.2686 50.6203 76.0854C51.0376 74.9022 51.3127 74.3106 51.4455 74.3106Z" fill="#CE723F"/>
<path d="M97.4879 62.2018C98.1709 64.511 98.3985 66.6484 98.1709 68.614L96.7196 71.5052L95.0407 74.1102C94.5474 74.6446 92.7736 76.1331 89.7193 78.5759L90.4307 72.7648C91.3982 71.906 92.4511 70.1217 93.5894 67.4117C94.9743 64.1102 95.6667 60.9995 95.6667 58.0797C96.3497 59.0721 96.9567 60.4461 97.4879 62.2018Z" fill="#CE723F"/>
<path d="M71.9341 26.7343L90.573 27.9366C92.2235 28.4137 93.2574 30.4366 93.6748 34.0053C93.8076 34.9595 93.2005 36.2191 91.8535 37.7839L88.0688 41.4767C87.0824 42.3545 85.2801 42.6599 82.6621 42.3927L79.0482 41.7629C78.5929 42.24 78.0522 42.4977 77.4262 42.5358C75.6998 42.6122 74.0304 42.1255 72.4178 41.0759C71.5642 40.5225 70.701 39.5206 69.8283 38.0702C68.9936 36.7343 68.5478 35.7133 68.4909 35.0072C68.396 34.1103 68.6332 32.803 69.2023 31.0855C69.9042 28.9862 70.8148 27.5359 71.9341 26.7343Z" fill="#EF834A"/>
<path d="M81.4954 31.8011C81.7231 31.4385 81.7231 31.0473 81.4954 30.6275L80.4995 29.3107L90.573 27.9366C91.5595 28.2229 92.4511 29.282 93.2479 31.1141C93.855 32.5454 94.2534 33.9862 94.4431 35.4366C94.5948 36.658 93.8739 38.3183 92.2804 40.4175C90.554 42.6885 88.6854 44.1389 86.6745 44.7687C85.3655 45.1694 83.0985 44.9595 79.8734 44.1389C77.3503 43.49 75.5386 42.8984 74.4383 42.3641C72.8257 41.5626 71.7539 40.761 71.2227 39.9595C72.304 40.9519 73.4612 41.4194 74.6944 41.3622C76.3828 41.2858 77.2839 39.8927 77.3977 37.1828C77.4167 36.6294 77.8435 35.9328 78.6782 35.0931C79.9493 33.7954 80.8884 32.6981 81.4954 31.8011Z" fill="#CE723F"/>
<path d="M87.0729 24.7019C89.0458 23.2134 90.6204 22.221 91.7966 21.7248C91.9674 22.4882 91.9389 23.6237 91.7113 25.1313C91.4457 26.8679 90.9999 27.8412 90.3738 28.0511C89.1028 28.4901 87.4144 28.9099 85.3086 29.3107L81.6377 29.7114L83.2597 28.0511C84.5877 26.7534 85.8587 25.637 87.0729 24.7019Z" fill="white"/>
<path d="M94.9268 18.2038C94.8889 18.5855 94.3482 19.3489 93.3048 20.4939C92.1096 21.7916 90.6868 23.0607 89.0364 24.3011L84.6541 27.6217L81.5239 29.7114C80.12 30.2458 78.4221 30.513 76.4302 30.513C73.945 30.513 72.4368 29.9309 71.9056 28.7668C71.033 26.8202 70.682 24.3966 70.8527 21.4958C71.0235 18.5378 71.6875 16.2286 72.8447 14.5683C74.0588 12.8508 75.548 11.5244 77.3123 10.5893C79.1715 9.59697 81.2773 9.09124 83.6297 9.07216C86.0769 9.03399 88.2491 9.29162 90.1462 9.84506C92.1191 10.4176 93.2859 11.1714 93.6463 12.1065C94.2154 13.5569 94.6043 14.9023 94.813 16.1428C94.9458 17.0588 94.9837 17.7458 94.9268 18.2038Z" fill="#DBDCDC"/>
<path d="M93.5894 12.3641C94.6707 14.7878 95.1165 16.7344 94.9268 18.2038C94.8889 18.5855 94.3482 19.3489 93.3048 20.4939C92.1096 21.7916 90.6868 23.0607 89.0364 24.3011L84.8533 27.45L82.1784 29.282L80.0726 29.9691L77.853 30.513C77.7012 28.7763 78.6782 25.7133 80.784 21.324C82.8139 17.1065 84.6446 14.1485 86.2761 12.45C87.4333 11.2477 88.7233 10.3508 90.1462 9.75918C91.0947 10.1218 91.7871 10.4462 92.2235 10.7325C92.8305 11.1523 93.2859 11.6962 93.5894 12.3641Z" fill="#B4B4B5"/>
<path d="M90.7722 12.8222C91.6449 12.9176 92.0148 14.5302 91.882 17.6599C91.863 18.2324 91.4077 18.9767 90.5161 19.8927L88.268 21.8393C87.0729 22.8698 86.0579 23.0798 85.2232 22.4691C84.8059 22.1828 84.7774 21.0473 85.1378 19.0626C85.4604 17.2496 85.8303 15.9233 86.2476 15.0836C86.6081 14.3584 87.2057 13.7859 88.0404 13.366C88.9131 12.908 89.8237 12.7267 90.7722 12.8222Z" fill="#30353A"/>
<path d="M88.5526 37.2114L87.642 39.2439C87.2436 40.0072 86.9116 40.3603 86.646 40.303C86.2856 40.2267 85.9441 39.7496 85.6216 38.8717L85.2517 37.5549L88.5526 37.2114Z" fill="white"/>
<path d="M42.3395 94.4346L43.0509 95.0644C43.3165 95.4651 43.5062 96.0949 43.62 96.9537L43.8192 100.446C43.8192 101.82 43.6864 102.707 43.4208 103.108C42.9465 103.795 42.1592 104.406 41.0589 104.94C39.8827 105.494 38.5832 105.837 37.1604 105.971C33.5939 106.257 31.4027 105.503 30.587 103.709C30.3214 103.099 30.1696 101.83 30.1317 99.9021C30.0937 98.0319 30.1791 96.8583 30.3878 96.3812C30.5585 95.9804 30.9 95.5701 31.4122 95.1502L32.1521 94.6063V97.4689L33.0058 98.7571C33.8974 99.5777 35.14 99.9021 36.7336 99.7304C39.6741 99.425 41.4004 98.4708 41.9126 96.8678L42.3395 94.4346Z" fill="#DBDCDC"/>
<path d="M43.62 96.9537L43.8192 100.446C43.8192 101.82 43.6864 102.707 43.4208 103.108C42.9465 103.795 42.1592 104.406 41.0589 104.94C39.8827 105.494 38.5832 105.837 37.1604 105.971L33.1765 105.713C33.0437 105.083 32.9394 104.253 32.8635 103.223C32.7686 102.04 32.7876 101.4 32.9204 101.305L36.4205 101.19C38.5453 100.961 39.5413 100.284 39.4085 99.1579C40.7364 98.6808 41.5711 97.9174 41.9126 96.8678L42.3395 94.4346L43.0509 95.0644C43.3165 95.4651 43.5062 96.0949 43.62 96.9537Z" fill="#B4B4B5"/>
<path d="M88.5241 97.0968L89.7193 97.2399C90.3264 97.3735 90.7722 97.822 91.0568 98.5854L92.2235 101.992C92.6029 103.309 92.7262 104.186 92.5934 104.625C92.0812 106.381 90.4782 107.851 87.7843 109.034C85.8113 109.893 83.8383 110.427 81.8654 110.637C80.765 110.77 79.826 110.36 79.0482 109.406C78.6118 108.872 78.0332 107.832 77.3123 106.286C76.9519 105.465 76.6673 104.644 76.4587 103.824C76.1931 102.793 76.1456 102.068 76.3164 101.648C76.4871 101.248 76.7148 100.904 76.9993 100.618L77.3693 100.303L77.7961 100.961L78.8205 102.736C79.7691 103.251 81.4006 103.385 83.715 103.137C86.5037 102.812 88.3819 101.849 89.3494 100.246C89.4063 99.9212 89.283 99.301 88.9795 98.385L88.5241 97.0968Z" fill="#DBDCDC"/>
<path d="M88.5241 97.0968L89.7193 97.2399C90.3264 97.3735 90.7722 97.822 91.0568 98.5854L92.2235 101.992C92.6029 103.309 92.7262 104.186 92.5934 104.625C91.9294 106.896 89.5201 108.652 85.3655 109.893C84.8912 109.282 84.4075 108.337 83.9142 107.059C83.383 105.723 83.2408 104.978 83.4874 104.826L86.4184 103.853C88.0309 103.185 88.6285 102.402 88.2111 101.505C88.6664 101.162 89.0458 100.742 89.3494 100.246C89.4063 99.9212 89.283 99.301 88.9795 98.385L88.5241 97.0968Z" fill="#B4B4B5"/>
<path d="M87.3859 25.3317C87.8222 25.8088 88.0309 26.3431 88.0119 26.9347C87.993 27.5645 87.7084 28.0416 87.1582 28.366L85.5647 28.4805C84.9956 28.2515 84.692 27.8985 84.6541 27.4214C85.4319 26.6962 86.3425 25.9996 87.3859 25.3317Z" fill="#0D131A"/>
<path d="M86.2761 26.305C86.4089 26.305 86.5322 26.3622 86.646 26.4767L86.8168 26.8775L86.646 27.3069C86.5512 27.4214 86.4374 27.4786 86.3046 27.4786C86.1338 27.4786 86.001 27.4214 85.9062 27.3069C85.7923 27.1924 85.7354 27.0683 85.7354 26.9347C85.7354 26.763 85.8018 26.6103 85.9346 26.4767C86.0484 26.3622 86.1623 26.305 86.2761 26.305Z" fill="white"/>
<path d="M93.0203 77.5167C93.6273 76.1617 93.9973 75.0453 94.1301 74.1675L94.8415 74.2533C94.7087 75.1885 94.3293 76.3621 93.7032 77.7743L91.6544 81.782C90.4023 84.1102 89.5201 85.8659 89.0079 87.0491C88.1352 89.072 87.623 90.8373 87.4713 92.3449L86.9021 91.1426C87.0539 89.6159 87.5566 87.9842 88.4103 86.2476L90.9999 81.4384L93.0203 77.5167Z" fill="#0D131A"/>
<path d="M43.3354 103.337C43.5062 103.204 43.6105 103.156 43.6485 103.194C44.3124 103.938 45.1851 104.654 46.2665 105.341L47.2624 105.999C47.566 106.286 47.7746 106.648 47.8885 107.087C48.0402 107.603 48.1161 108.156 48.1161 108.748C48.1161 109.32 48.0307 109.778 47.86 110.122C47.5185 110.904 46.8356 111.353 45.8111 111.467L45.4128 112.183C45.2989 112.335 44.948 112.536 44.3599 112.784L42.8232 113.127C42.7284 113.547 42.4533 113.881 41.998 114.129L40.5183 114.616L39.4654 114.931C38.4789 115.236 37.5303 115.093 36.6197 114.501C35.8609 114.005 35.3677 113.414 35.14 112.727C34.8554 111.849 34.1346 110.675 32.9773 109.206C32.2944 108.347 31.8296 107.698 31.583 107.259C31.1656 106.553 30.9569 105.875 30.9569 105.227V104.597L31.8106 105.427C31.8486 105.885 32.0478 106.41 32.4082 107.001L33.6318 108.69C34.846 110.198 35.6238 111.457 35.9652 112.469C36.117 112.927 36.4869 113.356 37.075 113.757C37.777 114.215 38.4884 114.33 39.2093 114.101L40.2906 113.786L41.685 113.328C41.9316 113.175 42.0549 112.946 42.0549 112.641L42.624 112.24L43.9899 112.011C44.6539 111.763 45.0428 111.524 45.1567 111.295L45.612 110.551C46.3898 110.551 46.883 110.293 47.0917 109.778C47.3762 109.148 47.3668 108.328 47.0632 107.316L46.6648 106.601L45.8396 106.057C44.7583 105.446 43.8097 104.683 42.994 103.767L42.9655 103.709L43.3354 103.337Z" fill="#0D131A"/>
<path d="M69.1454 75.6846C68.747 74.7304 68.7185 74.3201 69.06 74.4537C69.4204 74.5873 69.8188 75.198 70.2552 76.2858C70.6156 77.1827 71.2037 79.8831 72.0195 84.3869L73.4138 92.0586C73.6794 93.0319 74.6469 94.8926 76.3164 97.6407L79.4466 102.822L78.536 102.793L76.9709 100.188L75.605 98.0987L73.0154 93.719C72.3894 92.4976 71.9815 90.8564 71.7918 88.7953C71.678 87.593 71.1658 84.9499 70.2552 80.8659C68.1873 80.9423 65.7685 80.551 62.9988 79.6923L56.34 77.6598L53.7505 77.4881C52.9537 77.5644 51.9388 77.7743 50.7056 78.1178L49.795 81.6674L48.856 85.5033C48.7422 85.9232 48.4196 86.4193 47.8885 86.9919L46.2664 88.7094C45.1851 90.0262 44.3978 91.0854 43.9046 91.8869C43.1078 93.1464 42.5766 94.4155 42.311 95.6941L42.0265 97.1827L41.6281 97.6979L41.1158 98.0987L41.5711 95.4651C41.8557 94.1102 42.4628 92.7075 43.3924 91.2571C43.9615 90.3602 44.8341 89.2151 46.0103 87.822L47.4901 85.99L48.3153 84.5014L49.169 80.78C49.7381 78.051 50.1839 76.1904 50.5064 75.198C50.6772 74.6636 50.9048 74.2343 51.1894 73.9098C51.474 73.5663 51.6352 73.5377 51.6732 73.824C51.7111 74.2438 51.4265 75.4365 50.8195 77.4022C51.6732 77.0968 52.6881 76.8965 53.8643 76.801L56.5107 76.8869L62.7996 78.8621C65.5504 79.74 67.9787 80.1217 70.0844 80.0071C69.9516 78.3659 69.6386 76.9251 69.1454 75.6846Z" fill="#0D131A"/>
<path d="M81.0686 112.354L80.7556 110.408H81.6093L81.8938 112.011C81.9887 112.507 82.3491 112.994 82.9752 113.471L85.1948 114.816C87.1867 115.923 88.6759 116.906 89.6624 117.765L91.0852 117.965C91.901 117.908 92.6693 117.736 93.3902 117.45C93.7886 117.297 94.1206 117.068 94.3862 116.763L94.7846 116.019L95.2968 115.904C96.1125 115.618 96.8144 115.265 97.4025 114.845C98.1424 114.349 98.4839 113.891 98.427 113.471L98.8254 113.356C99.1668 113.394 99.4704 113.261 99.736 112.956C100.039 112.593 100.191 112.078 100.191 111.41C100.191 111.009 100.115 110.551 99.9636 110.036C99.5842 108.891 99.2522 108.146 98.9676 107.803C98.5693 107.307 97.8484 106.906 96.805 106.601C95.0596 106.104 93.6273 105.503 92.508 104.797L92.7072 104.082C93.3712 104.501 94.168 104.874 95.0976 105.198L97.0611 105.799C98.2942 106.162 99.1479 106.601 99.6221 107.116C99.9636 107.498 100.334 108.28 100.732 109.463C101.017 110.246 101.159 110.98 101.159 111.667L101.073 112.526L100.675 113.185L99.9636 113.814L99.1668 114.186C99.072 114.74 98.6451 115.246 97.8863 115.704L95.5813 116.706H95.5529C95.3442 117.373 94.7276 117.889 93.7032 118.251C92.8685 118.576 91.9674 118.776 90.9999 118.852C89.9565 118.948 89.2545 118.843 88.8941 118.538C87.3954 117.24 86.02 116.248 84.7679 115.561L82.3207 114.101C81.6187 113.585 81.2014 113.003 81.0686 112.354Z" fill="#0D131A"/>
<path d="M98.6546 27.9939C98.6546 24.1389 98.8443 21.5626 99.2237 20.2649C99.717 18.7 100.817 15.9519 102.525 12.0206L104.687 6.83934L99.736 7.03972C96.435 7.61224 93.6084 8.68094 91.256 10.2458L90.4307 9.75918C92.5555 8.13705 95.5719 6.99201 99.4799 6.32407C103.103 5.71339 105.105 5.74201 105.484 6.40995C105.617 6.65804 104.915 8.58552 103.378 12.1924C101.538 16.5054 100.428 19.2821 100.049 20.5225C99.6885 21.6485 99.5083 24.1198 99.5083 27.9366L99.6506 39.2152C99.6506 41.5816 99.4988 43.7763 99.1953 45.7992C98.9676 47.574 98.8538 49.0625 98.8538 50.2648C98.8538 51.1427 98.9487 52.6503 99.1384 54.7877C99.2143 55.5511 99.385 56.5816 99.6506 57.8793C99.8783 59.2343 99.9541 60.7896 99.8782 62.5453C99.6316 68.9385 96.3497 74.3106 90.0323 78.6617L87.5282 88.1083C87.4144 88.5663 87.3574 89.0816 87.3574 89.6541C87.3574 91.1808 88.0688 94.5586 89.4917 99.7876L89.0364 100.646C87.2721 95.2647 86.3899 91.8106 86.3899 90.2838C86.3899 89.5014 86.4943 88.7094 86.7029 87.9079L88.4672 81.0091C89.302 77.5739 89.7573 75.1503 89.8331 73.7381C89.8901 72.2877 90.0418 71.3717 90.2885 70.99C90.5351 70.5892 90.7058 71.0854 90.8007 72.4785C90.8576 73.5854 90.7058 75.2171 90.3454 77.3736C91.7871 76.3812 93.21 74.9881 94.6138 73.1942C97.4025 69.6255 98.7969 65.8278 98.7969 61.8011L98.6262 57.5644L98.3131 54.8736C98.1045 52.8889 98.0001 51.3526 98.0001 50.2648C98.0001 48.948 98.1234 47.4213 98.3701 45.6847C98.6167 43.8908 98.74 41.3145 98.74 37.9557L98.6546 27.9939Z" fill="#0D131A"/>
<path d="M44.929 48.49C45.1567 48.3755 45.1946 48.5187 45.0428 48.9194C44.8911 49.3202 44.6255 49.6351 44.246 49.8641C41.04 51.7343 39.1808 52.908 38.6686 53.3851C36.468 55.3507 34.9313 58.1847 34.0587 61.8869C33.4895 64.3297 33.3093 67.2114 33.518 70.532C33.6508 72.364 33.9448 74.635 34.4001 77.3449L34.6563 79.0052C34.7132 79.7495 34.5235 80.6178 34.0871 81.6102L32.5505 84.301L32.1805 84.8736C31.8391 85.4461 31.7063 86.0758 31.7822 86.7629C31.8201 87.1827 31.9624 87.7648 32.209 88.509L32.4936 89.4823C32.6453 90.1503 32.7117 91.4003 32.6928 93.2323C32.6928 95.1025 32.6169 96.7628 32.4651 98.2132C32.1995 97.946 31.9814 97.5167 31.8106 96.925L31.8675 92.6025L31.6683 89.6827L31.3838 88.7953C31.0423 87.9938 30.8241 87.3735 30.7293 86.9346C30.5585 86.1331 30.6818 85.3888 31.0992 84.7018L31.4407 84.1007L33.0627 81.4957C33.6129 80.4842 33.8595 79.6732 33.8026 79.0625L33.5749 77.4881C32.9868 74.0911 32.6358 71.8106 32.522 70.6465C32.1805 67.2686 32.3039 64.3392 32.892 61.8583C33.8974 57.5835 35.766 54.3297 38.4979 52.0969C39.4464 51.3335 40.5847 50.6083 41.9126 49.9213L44.929 48.49Z" fill="#0D131A"/>
<path d="M99.1668 9.64468C100.305 8.82407 101.405 8.16567 102.468 7.66949C102.885 7.45957 103.046 7.41186 102.952 7.52636L102.24 8.15613L99.5937 10.1599C98.0191 11.4577 97.0705 12.6027 96.748 13.5951C96.5773 14.1676 97.4689 15.7134 99.4229 18.2324C99.6506 18.5569 99.7265 18.7286 99.6506 18.7477C99.5747 18.7477 99.4229 18.6523 99.1953 18.4615C98.076 17.45 97.2128 16.4576 96.6058 15.4844C96.0366 14.5492 95.8279 13.8336 95.9797 13.3374C96.3781 12.1542 97.4405 10.9233 99.1668 9.64468Z" fill="#0D131A"/>
<path d="M45.9534 48.1465C44.265 50.4366 43.1078 52.9175 42.4818 55.5892C41.8178 58.5282 41.9411 61.1808 42.8517 63.5472C43.288 64.6732 43.6105 65.2457 43.8192 65.2648C43.9899 65.2648 44.3599 64.5396 44.929 63.0892C45.4602 61.677 45.9534 60.532 46.4087 59.6541C48.7042 55.2267 51.3317 52.3831 54.2911 51.1236L54.1773 52.1541C53.2288 52.5931 52.1379 53.4614 50.9048 54.7591C49.3872 56.3621 48.0592 58.2419 46.9209 60.3984L45.5266 63.3182L44.6729 65.2362C44.4073 65.6942 44.1227 65.9232 43.8192 65.9232C43.326 65.9041 42.8043 65.1885 42.2541 63.7763C41.2676 61.219 41.04 58.49 41.5711 55.5892C42.1023 52.7457 43.2975 50.1122 45.1567 47.6885C47.3573 44.8068 50.0606 42.8316 53.2667 41.7629C55.6381 40.9805 58.1517 40.7229 60.8077 40.99L60.3808 41.7057C57.9905 41.4576 55.6096 41.7725 53.2383 42.6503C50.2788 43.7572 47.8505 45.5893 45.9534 48.1465Z" fill="#0D131A"/>
<path d="M72.8447 44.3679L72.2756 45.198C68.6142 46.5721 65.5883 49.4156 63.198 53.7286C61.5475 56.7057 60.4851 59.635 60.0109 62.5167L59.6125 64.6064C59.4797 64.9881 59.271 65.2171 58.9864 65.2934C58.6829 65.3888 58.2656 65.2362 57.7344 64.8354C57.1652 64.3965 56.5487 63.7285 55.8847 62.8316C54.405 60.8087 53.6841 58.0511 53.722 54.5587C53.76 51.0854 54.5283 48.0702 56.027 45.5129C57.1842 43.5282 58.8916 41.887 61.1491 40.5893C63.3118 39.3488 66.0816 38.3755 69.4584 37.6694L69.9706 38.3851C63.3877 39.6255 58.939 42.2305 56.6246 46.2C55.2207 48.6045 54.5093 51.4194 54.4903 54.6446C54.4524 57.8507 55.1259 60.3984 56.5107 62.2877C57.5731 63.7572 58.313 64.4346 58.7303 64.3201C58.8062 64.3011 58.8821 63.9576 58.958 63.2896L59.3564 60.7992C60.0962 57.5167 61.4147 54.4156 63.3118 51.4957C65.9867 47.3354 69.1643 44.9595 72.8447 44.3679Z" fill="#0D131A"/>
<path d="M71.4503 46.429C71.8867 46.0091 72.674 44.5396 73.8122 42.0206L74.5521 42.3641C73.5656 44.5015 72.6929 45.9328 71.9341 46.658C71.5167 47.0778 71.2511 47.2305 71.1373 47.116C71.0425 47.0015 71.1468 46.7725 71.4503 46.429Z" fill="#0D131A"/>
<path d="M51.3601 74.1388L63.1126 74.6541L69.3446 75.0835V75.7133L63.0842 75.1694L55.657 74.6255C53.1529 74.4919 51.6637 74.511 51.1894 74.6827L51.1325 74.4251C51.1135 74.2533 51.1894 74.1579 51.3601 74.1388Z" fill="#0D131A"/>
<path d="M95.126 58.1656C95.145 57.6503 95.2399 57.3927 95.4106 57.3927C95.5813 57.3736 95.7995 57.5644 96.0651 57.9652C96.786 59.1484 97.3741 60.637 97.8294 62.4308C98.3416 64.4919 98.4554 66.2572 98.1709 67.7266L97.5448 68.6713L97.6871 67.5549L97.7725 66.4098C97.7725 65.3411 97.5922 64.1102 97.2318 62.7171C96.9093 61.5148 96.5204 60.4175 96.0651 59.4251L95.9228 59.2534L95.8374 59.4537C95.6288 62.2782 94.851 65.198 93.504 68.2133C92.4796 70.4843 91.4552 72.2018 90.4307 73.3659L90.3738 72.2782C91.0568 71.5911 91.9105 70.0072 92.9349 67.5263C94.3008 64.2438 95.0312 61.1236 95.126 58.1656Z" fill="#0D131A"/>
<path d="M91.4552 22.1828C91.7207 22.0492 91.9769 21.9061 92.2235 21.7534C92.3752 22.0969 92.2899 23.1466 91.9674 24.9023C91.6069 26.7725 91.2085 27.8412 90.7722 28.1084C90.0703 28.5664 88.3913 29.0244 85.7354 29.4824L80.6702 30.1694L81.78 29.5397L86.9021 28.7668C88.7423 28.3851 89.909 28.0034 90.4023 27.6217C90.6299 27.45 90.8955 26.5435 91.199 24.9023C91.4836 23.2992 91.569 22.3927 91.4552 22.1828Z" fill="#0D131A"/>
<path d="M93.0487 20.2363C94.0352 19.1866 94.5474 18.4996 94.5854 18.1752V18.0893C94.6612 17.5359 94.6233 16.8393 94.4715 15.9996C94.3008 14.9691 93.9973 13.9672 93.5609 12.9939C92.9728 11.6771 91.863 10.7229 90.2315 10.1313C88.657 9.57788 86.4563 9.31071 83.6297 9.32979C81.2962 9.36796 79.181 9.93094 77.2839 11.0187C75.6334 11.9538 74.258 13.2134 73.1577 14.7973C72.0384 16.3622 71.365 18.5378 71.1373 21.324C70.9097 24.1103 71.2227 26.4672 72.0764 28.3946C72.6265 29.6542 74.0588 30.2839 76.3733 30.2839C78.1376 30.2839 79.8355 29.9881 81.467 29.3965L88.8087 24.0149C90.4592 22.7744 91.8725 21.5149 93.0487 20.2363ZM93.9593 12.1638C95.1166 14.7019 95.6098 16.7439 95.4391 18.2897L95.4106 18.3756C95.3727 18.8336 94.7656 19.6542 93.5894 20.8374C92.4132 22.0397 90.9714 23.2897 89.264 24.5874C85.8682 27.1446 83.3736 28.8908 81.78 29.8259C80.6038 30.532 78.811 30.8565 76.4017 30.7992C73.6889 30.742 72.0289 30.0359 71.4219 28.6809C70.5302 26.658 70.1698 24.2343 70.3405 21.4099C70.5113 18.6046 71.1278 16.3431 72.1902 14.6256C73.2526 12.9462 74.7797 11.5626 76.7717 10.4748C78.9723 9.27254 81.3247 8.66185 83.8289 8.64277C86.5227 8.6046 88.7518 8.89086 90.5161 9.50155C92.2804 10.1122 93.4281 10.9996 93.9593 12.1638Z" fill="#0D131A"/>
<path d="M77.7676 28.7095C78.3557 25.8851 79.181 23.6237 80.2433 21.9252C80.5089 21.4863 80.7271 21.305 80.8978 21.3813C81.0496 21.4385 81.0117 21.6962 80.784 22.1542C80.4615 22.784 80.0442 23.7191 79.5319 24.9595L78.4506 27.8508C78.2799 28.4424 78.0996 28.824 77.9099 28.9958C77.7392 29.1675 77.6918 29.0721 77.7676 28.7095Z" fill="#0D131A"/>
<path d="M86.4753 15.1981C86.0769 16.0187 85.7165 17.326 85.394 19.1199C85.0714 21.0092 85.062 22.0588 85.3655 22.2687C86.1054 22.784 87.016 22.574 88.0973 21.6389L88.2965 21.4958L90.3738 19.6637C91.1896 18.824 91.6069 18.1466 91.6259 17.6313C91.7018 16.2763 91.6544 15.1886 91.4836 14.368C91.3318 13.5473 91.0852 13.118 90.7438 13.0798C89.8711 13.0034 89.0364 13.1561 88.2396 13.5378C87.4238 13.9386 86.8357 14.492 86.4753 15.1981ZM88.0119 12.9367C88.8656 12.5931 89.7952 12.4786 90.8007 12.5931C91.3888 12.6504 91.7966 13.242 92.0243 14.368C92.214 15.2458 92.2709 16.3718 92.195 17.7458C92.1571 18.3374 91.7113 19.0721 90.8576 19.95L88.6095 21.8966L88.4388 22.0397C87.1108 23.1656 85.9536 23.3851 84.9671 22.6981C84.4739 22.3546 84.4359 21.0569 84.8533 18.805C85.2327 16.8393 85.6311 15.4462 86.0485 14.6256C86.4279 13.8622 87.0824 13.2993 88.0119 12.9367Z" fill="#0D131A"/>
<path d="M69.8852 34.7782C70.0749 34.2439 71.033 34.0149 72.7593 34.0912C74.4857 34.1866 75.4722 34.511 75.7188 35.0645C75.9654 35.6179 75.7093 36.3431 74.9505 37.24C74.1916 38.1179 73.4992 38.49 72.8731 38.3565C72.2092 38.2038 71.5167 37.7076 70.7958 36.8679C70.018 35.99 69.7145 35.2935 69.8852 34.7782Z" fill="#0D131A"/>
<path d="M70.3974 35.8946C70.682 36.3908 71.0804 36.8584 71.5926 37.2973C72.1048 37.7553 72.5506 38.0225 72.9301 38.0988C73.1767 38.1561 73.4802 38.0797 73.8407 37.8698L74.8366 36.9824C75.4627 36.2 75.6808 35.5893 75.4911 35.1504C75.3963 34.9023 74.9694 34.7019 74.2106 34.5492L71.8487 34.3488C70.7863 34.4061 70.2172 34.5778 70.1413 34.8641C70.0465 35.1122 70.1319 35.4557 70.3974 35.8946ZM71.8203 33.8336L74.296 34.0339C75.2255 34.2439 75.7852 34.5492 75.9749 34.95C76.2215 35.5797 75.9749 36.3622 75.235 37.2973C74.3624 38.3278 73.5561 38.7572 72.8162 38.5855C72.3609 38.49 71.8487 38.2038 71.2796 37.7267C70.7105 37.2305 70.2646 36.7057 69.9421 36.1523C69.6386 35.5988 69.5438 35.1122 69.6576 34.6923C69.8283 34.158 70.5492 33.8717 71.8203 33.8336Z" fill="#0D131A"/>
<path d="M86.7883 39.9023C87.2057 39.9023 87.7084 39.0435 88.2965 37.3259L88.7803 37.3545C88.1542 39.3393 87.4902 40.3316 86.7883 40.3316C86.4279 40.3316 86.039 39.9786 85.6216 39.2725C85.2232 38.6045 85.0335 38.0416 85.0525 37.5836H85.5362C85.5173 38.0988 85.688 38.6332 86.0485 39.1866C86.352 39.6637 86.5986 39.9023 86.7883 39.9023Z" fill="#0D131A"/>
<path d="M71.1373 27.0206C71.2701 26.8679 71.3839 26.9061 71.4788 27.1351C71.5547 27.3832 71.5262 27.5931 71.3934 27.7649C70.7105 28.7191 70.0844 30.0645 69.5153 31.8011C68.9841 33.4042 68.747 34.4633 68.8039 34.9786C68.9746 36.5435 69.9421 38.1942 71.7064 39.9309C73.6984 41.8965 75.7188 42.6599 77.7676 42.221C77.9384 42.1828 78.536 41.5435 79.5604 40.303C80.6417 39.0053 81.448 38.2229 81.9792 37.9557C82.3586 37.7649 83.4779 37.5454 85.337 37.2973L89.1217 37.0397C89.5012 37.0778 89.7098 37.1733 89.7478 37.3259C89.7667 37.4786 89.5486 37.5454 89.0933 37.5263L85.1378 37.8984C83.4494 38.1465 82.4345 38.366 82.093 38.5568C81.8843 38.6713 81.3437 39.2343 80.471 40.2458L78.1376 42.7648C77.9668 42.9175 77.5115 43.0129 76.7717 43.0511L81.0401 43.8813L86.0769 44.4538C87.4997 44.4538 89.1976 43.3374 91.1706 41.1045C93.1246 38.8717 94.0826 36.9633 94.0447 35.3794C94.0067 33.9862 93.6558 32.5454 92.9918 31.0568C92.2519 29.4347 91.4172 28.4901 90.4876 28.2229L90.9714 27.7935C92.0717 28.0988 93.0013 29.1389 93.7601 30.9137C94.4241 32.4786 94.7561 34.0149 94.7561 35.5225C94.7561 37.24 93.7886 39.282 91.8535 41.6484C89.8426 44.1103 87.9361 45.3412 86.1338 45.3412L81.3816 44.6542C78.8395 44.1389 76.895 43.6045 75.548 43.0511C74.0493 42.9175 72.4368 41.9061 70.7105 40.0168C69.0031 38.1656 68.064 36.4862 67.8933 34.9786C67.8174 34.2152 68.102 32.9652 68.747 31.2286C69.4679 29.3393 70.2646 27.9366 71.1373 27.0206Z" fill="#0D131A"/>
<path d="M41.5711 109.349L42.5671 110.207C42.7758 110.78 42.8612 111.582 42.8232 112.612L41.998 113.328C42.1118 111.858 42.0739 110.866 41.8842 110.351L41.2581 109.749C40.7269 109.33 40.3286 108.9 40.063 108.461C39.9112 108.194 39.8733 108.032 39.9491 107.975C40.025 107.898 40.1768 107.984 40.4044 108.232C40.7839 108.671 41.1728 109.043 41.5711 109.349Z" fill="#0D131A"/>
<path d="M44.616 107.517C45.2041 107.879 45.5361 108.165 45.612 108.375C45.7637 108.757 45.7922 109.578 45.6973 110.837C45.28 111.543 45.0997 111.753 45.1566 111.467L45.1851 110.093L45.0428 108.69L44.2176 107.889L43.2501 107.087C43.0604 106.858 43.0035 106.677 43.0793 106.543C43.1742 106.41 43.3165 106.467 43.5062 106.715L44.616 107.517Z" fill="#0D131A"/>
<path d="M43.2785 96.9823C43.1647 96.009 42.9276 95.3602 42.5671 95.0357C42.3015 95.3983 42.1498 95.7228 42.1118 96.009L42.0834 96.6674C42.4628 96.7438 42.4533 97.0682 42.0549 97.6407C41.1064 98.9766 39.3421 99.7876 36.762 100.074C35.0546 100.246 33.7267 99.9212 32.7781 99.1006C32.3797 98.738 32.0098 98.175 31.6683 97.4117C31.5924 97.2018 31.583 97.03 31.6399 96.8964L31.7822 96.7533L31.8106 95.2647C31.2225 95.7228 30.8526 96.1331 30.7008 96.4957C30.5301 96.9346 30.4447 97.9174 30.4447 99.4441C30.4447 101.524 30.5965 102.898 30.9 103.566C31.6588 105.227 33.7362 105.914 37.132 105.627C38.5548 105.494 39.8448 105.141 41.002 104.568C42.0264 104.072 42.7379 103.519 43.1362 102.908C43.3639 102.583 43.4777 101.744 43.4777 100.389L43.2785 96.9823ZM43.4208 94.8354C43.6864 95.1789 43.8666 95.7609 43.9615 96.5815C44.3219 100.265 44.2366 102.507 43.7054 103.309C43.1742 104.072 42.311 104.73 41.1158 105.284C39.9207 105.818 38.6117 106.152 37.1889 106.286C35.3487 106.457 33.812 106.333 32.5789 105.914C31.3269 105.494 30.4827 104.797 30.0463 103.824C29.7618 103.175 29.6005 101.868 29.5626 99.9021C29.5246 97.9938 29.6195 96.7628 29.8471 96.2094C30.0368 95.7705 30.4447 95.3315 31.0707 94.8926C31.583 94.53 31.9434 94.3392 32.1521 94.3201L32.6358 94.7495L32.4651 97.4117C32.6169 97.8697 32.9109 98.2705 33.3473 98.614C34.163 99.2819 35.2823 99.5395 36.7051 99.3869C39.4559 99.1006 41.0874 98.2323 41.5996 96.7819L41.998 94.3773L42.5956 94.2056L43.4208 94.8354Z" fill="#0D131A"/>
<path d="M91.7397 111.925C91.6069 111.734 91.5974 111.601 91.7113 111.524C91.8251 111.429 91.9863 111.477 92.195 111.667C92.4606 111.877 92.9444 112.135 93.6463 112.44L94.5 112.927C94.8035 113.175 95.0122 113.528 95.126 113.986L95.4106 115.246V116.391C95.3347 116.83 95.2114 117.059 95.0407 117.078C94.851 117.078 94.7466 116.877 94.7276 116.477C94.7087 115.885 94.5664 115.131 94.3008 114.215C94.168 113.776 93.836 113.414 93.3048 113.127C92.4891 112.65 91.9674 112.249 91.7397 111.925Z" fill="#0D131A"/>
<path d="M95.2968 109.835C95.0881 109.721 95.0312 109.597 95.126 109.463C95.2209 109.311 95.3537 109.272 95.5244 109.349L96.5204 109.721L97.4594 109.921C97.763 109.998 98.0191 110.169 98.2278 110.436C98.4744 110.742 98.6736 111.181 98.8254 111.753L99.0815 113.471C99.1004 114.082 99.0151 114.435 98.8254 114.53C98.6357 114.625 98.5029 114.349 98.427 113.7C98.2562 111.639 97.5828 110.475 96.4066 110.207L95.2968 109.835Z" fill="#0D131A"/>
<path d="M89.0079 100.131L88.638 98.4136C88.4103 97.2495 88.325 96.6674 88.3819 96.6674C89.9754 96.6674 90.9714 97.1922 91.3698 98.2418L92.3089 101.019C92.8969 102.946 93.1246 104.12 92.9918 104.54C92.4606 106.41 90.7627 108.003 87.8981 109.32C85.7734 110.312 83.7245 110.914 81.7515 111.123C80.5564 111.257 79.6458 111.047 79.0197 110.494C78.7162 110.227 78.2799 109.559 77.7107 108.49C77.1416 107.402 76.6389 106.181 76.2025 104.826C75.6334 103.089 75.4817 101.916 75.7472 101.305C75.9559 100.828 76.25 100.408 76.6294 100.045C76.9709 99.7018 77.1795 99.5873 77.2554 99.7018L77.8815 100.561L79.0482 102.45C80.0157 102.889 81.5713 102.994 83.715 102.765C86.333 102.459 88.0973 101.582 89.0079 100.131ZM89.9754 97.6979L89.0933 97.5262H89.0648L89.5201 99.2437L89.8901 99.4155C90.0608 99.6063 89.9754 99.9499 89.6339 100.446C88.5336 102.011 86.6271 102.984 83.9142 103.366C81.5998 103.69 79.845 103.576 78.6498 103.022C78.1566 102.793 77.9194 102.593 77.9384 102.421L78.1376 102.249L77.2839 100.818C76.9804 101.162 76.7622 101.477 76.6294 101.763C76.5725 101.916 76.544 102.097 76.544 102.307C76.544 103.318 76.9045 104.597 77.6254 106.143L77.6823 106.228C78.3273 107.698 78.868 108.69 79.3043 109.206C80.0062 110.045 80.8409 110.408 81.8084 110.293C83.6866 110.083 85.5837 109.578 87.4997 108.776C90.1936 107.631 91.7871 106.209 92.2804 104.511L92.3089 104.167C92.3089 103.461 91.8061 101.715 90.8007 98.9289L90.7153 98.6999C90.5446 98.2037 90.2979 97.8697 89.9754 97.6979Z" fill="#0D131A"/>
</svg>
