<svg width="150" height="151" viewBox="0 0 150 151" fill="none" xmlns="http://www.w3.org/2000/svg">
<g clip-path="url(#clip0_46_1009)">
<path d="M84.1595 117.376C80.1219 119.984 77.1809 121.76 75.3366 122.704C73.9159 123.449 72.7321 123.2 71.785 121.958C70.8628 120.717 70.8005 119.86 71.598 119.388C73.567 118.196 75.9846 116.469 78.8508 114.209C81.6422 111.999 83.5613 110.335 84.6081 109.217C82.7887 107.006 81.4304 105.529 80.5331 104.783L83.5239 102.548L87.8232 101.319L87.0008 103.889C87.3497 103.691 88.4713 103.256 90.3654 102.585L90.029 105.938L89.356 106.609L92.6086 111.303C91.3624 112.495 88.546 114.52 84.1595 117.376Z" fill="#763A00"/>
<path d="M124.461 46.2168C124.411 53.668 124.473 59.1447 124.648 62.6468C120.361 63.5906 115.152 65.0684 109.021 67.0802C101.718 69.4895 96.1228 71.7621 92.2347 73.8981L95.7116 78.9277L100.235 84.9631C95.9234 87.8194 92.7955 90.0672 90.8515 91.7065L97.7304 99.3812L90.029 105.938L90.3655 102.585C88.4713 103.256 87.3497 103.691 87.0008 103.889L87.8233 101.319L83.524 102.548L87.2251 99.4185C84.8823 97.9779 81.9912 95.9413 78.5517 93.3085L86.5522 84.218L77.1685 73.3392L65.3921 60.1879C88.7704 45.1612 108.522 35.4995 124.648 31.2026C124.548 35.4498 124.486 40.4546 124.461 46.2168Z" fill="#FFE100"/>
<path d="M83.524 102.436L87.7485 100.797L88.1971 100.834L88.2719 101.169L87.4868 103.256L90.1411 102.064C90.5648 101.915 90.7767 102.026 90.7767 102.399C90.7518 103.392 90.5773 104.572 90.2533 105.938L89.5056 106.497L89.8795 103.181C89.2564 103.33 88.3342 103.666 87.1129 104.187C86.6394 104.361 86.4649 104.224 86.5895 103.777L87.2251 101.877C85.2063 102.498 83.6735 102.995 82.6267 103.368L83.524 102.436Z" fill="#763A00"/>
<path d="M84.4211 117.227L75.2617 122.405C77.2556 121.139 80.072 119.04 83.7108 116.109L91.3748 109.552L92.6833 111.303C90.814 113.017 88.0599 114.991 84.4211 117.227Z" fill="#542400"/>
<path d="M108.722 67.2292C102.59 69.2907 96.8953 71.4019 91.6365 73.5627C94.6024 71.5509 99.6369 68.8933 106.74 65.5899C114.541 61.9637 120.436 59.7035 124.423 58.8093L124.573 62.6467C120.61 63.4912 115.326 65.0187 108.722 67.2292Z" fill="#F9BE00"/>
<path d="M98.1789 82.3923L100.31 85.0003L90.1785 91.5201C94.1164 86.6768 96.7832 83.6342 98.1789 82.3923Z" fill="#F9BE00"/>
<path d="M97.5808 99.4557L94.3657 102.026L90.4028 105.268L90.6271 103.777C92.945 100.3 94.59 98.0648 95.562 97.0713L97.5808 99.4557Z" fill="#F9BE00"/>
<path d="M90.4029 105.268L88.9075 106.385L90.6272 103.777L90.4029 105.268Z" fill="#542400"/>
<path d="M125.283 30.8301C125.109 33.2145 125.047 38.4427 125.096 46.5149L125.246 63.0193L124.984 63.3546C119.626 64.4971 113.831 66.124 107.6 68.2352C101.743 70.247 96.9079 72.2091 93.0946 74.1216C94.6897 76.5308 97.3067 80.1323 100.946 84.9259C101.095 85.0997 101.07 85.2488 100.871 85.3729C96.9328 87.956 93.8797 90.092 91.7114 91.781L98.3659 99.344C98.5155 99.493 98.503 99.642 98.3286 99.791L93.3937 103.852C91.674 105.268 90.5773 106.224 90.1038 106.721L93.2068 111.303L93.1694 111.713C92.1974 112.682 90.029 114.246 86.6643 116.407C83.1003 118.667 79.4365 120.791 75.6731 122.778L75.0001 122.853C74.9254 122.704 75.0625 122.53 75.4114 122.331C84.4088 116.767 89.8919 113.079 91.8609 111.266L88.8327 106.832C88.733 106.683 88.7455 106.547 88.8701 106.423L92.0104 103.405L96.6836 99.3812C93.8922 96.0282 91.6989 93.5569 90.1038 91.9673C89.9293 91.7934 89.9418 91.6444 90.1412 91.5202C93.1569 89.111 96.1976 86.9004 99.2632 84.8886C96.0979 80.6663 93.5059 77.04 91.4871 74.0098C91.3375 73.8111 91.3749 73.6621 91.5992 73.5628C95.5371 71.5758 100.422 69.5391 106.254 67.4528C112.709 65.1181 118.591 63.3795 123.9 62.2369C123.676 58.859 123.576 53.6805 123.601 46.7012C123.626 39.8709 123.738 35.0152 123.937 32.134C115.738 34.3694 105.793 38.4303 94.104 44.3168C83.1875 49.8058 74.0406 55.1955 66.6632 60.4859C70.0528 64.1122 76.9193 71.9856 87.2625 84.1062C87.3871 84.2553 87.3871 84.3919 87.2625 84.5161L83.1875 89.024L79.449 93.2712C83.8854 96.5994 86.6394 98.5988 87.7111 99.2695C87.9354 99.4185 87.9479 99.5923 87.7485 99.791L81.6173 104.858C82.7887 106.025 84.01 107.466 85.2811 109.18C85.4057 109.329 85.4057 109.465 85.2811 109.589C84.3838 110.657 82.4647 112.284 79.5238 114.47C76.6326 116.606 74.1029 118.282 71.9345 119.5L71.3364 119.574C71.2367 119.45 71.3239 119.288 71.5981 119.09L78.5517 113.911C81.2435 111.8 83.0131 110.26 83.8605 109.291C82.4398 107.453 81.1687 106.05 80.0472 105.081C79.8727 104.908 79.8852 104.746 80.0845 104.597L86.2531 99.5675C83.8355 97.9779 81.0441 96.0158 77.8788 93.681C77.7043 93.532 77.6919 93.383 77.8414 93.234L85.6923 84.2553L75.1123 71.998L64.794 60.5231C64.6444 60.3493 64.6569 60.1878 64.8313 60.0388C72.3084 54.5249 81.9912 48.8247 93.8797 42.9383C106.092 36.878 116.436 32.7301 124.91 30.4948C125.209 30.4203 125.333 30.532 125.283 30.8301Z" fill="#0D131A"/>
<path d="M34.5492 22.0376C33.0289 22.882 31.6955 24.8318 30.549 27.8868C29.577 30.4699 29.0162 32.9784 28.8666 35.4125C27.7202 31.9849 26.8354 27.5266 26.2123 22.0376C25.5643 16.4243 25.6515 13.5059 26.474 13.2824C27.2715 13.0589 28.4928 13.9033 30.1377 15.8158C31.4587 17.3557 32.9292 19.4297 34.5492 22.0376Z" fill="#0D131A"/>
<path d="M93.431 18.5356C94.2535 19.852 94.59 22.2861 94.4404 25.8378C94.2909 28.9673 93.8672 31.687 93.1693 33.9969C91.325 35.9591 89.1317 37.8964 86.5895 39.8089C83.7233 41.9945 81.2808 43.4475 79.262 44.1678C81.5799 46.0306 83.4367 48.1791 84.8324 50.6131C85.7546 52.2027 86.5646 54.1524 87.2625 56.4623C88.4588 60.2128 88.5336 64.2116 87.4868 68.4588C86.5646 72.1844 85.1066 75.0531 83.1127 77.0649C78.5268 81.337 72.595 83.9573 65.3173 84.9259C59.0864 85.7704 53.0923 85.3358 47.335 83.622C44.8675 82.8024 42.5995 81.3245 40.5308 79.1885C38.213 76.829 36.5929 74.072 35.6708 70.9177C34.7735 67.8875 34.5866 64.7704 35.11 61.5664C35.5088 59.033 36.3188 56.6113 37.54 54.3015C35.9948 52.5629 34.2626 49.5451 32.3435 45.2482C30.7484 41.5972 29.6143 38.5173 28.9414 36.0087C29.066 32.3576 29.7888 29.1785 31.1098 26.4712C32.1067 24.4345 33.2033 22.994 34.3997 22.1495C36.3686 24.9561 38.3251 28.8432 40.2691 33.8106C42.3129 39.0016 43.4718 43.224 43.746 46.4777C47.31 43.224 51.8087 41.0135 57.2421 39.8461C62.2019 38.7781 66.551 38.8029 70.2895 39.9206C72.8317 35.897 76.7323 31.538 81.9911 26.8437C86.7515 22.6214 90.5648 19.852 93.431 18.5356Z" fill="#FFE100"/>
<path d="M50.5876 81.7591C55.3978 79.4492 59.6597 77.8845 63.3733 77.0649C66.3642 76.4191 70.3395 76.1086 75.2992 76.1335C80.1843 76.1335 82.7888 76.4439 83.1128 77.0649C84.5085 79.7225 85.9042 83.4729 87.2999 88.3162C88.7953 93.5817 89.892 98.7851 90.5898 103.926C92.3594 117.239 90.9138 125.634 86.2531 129.112C82.8386 131.695 76.8694 131.409 68.3456 128.255C64.6071 126.913 61.853 126.032 60.0834 125.61C57.8154 125.088 55.485 124.877 53.0924 124.976C50.6748 125.076 48.5314 124.802 46.6621 124.157C44.9673 123.585 43.7461 122.828 42.9984 121.884C41.3036 119.698 40.668 116.01 41.0917 110.819C41.4157 106.919 42.2133 102.958 43.4844 98.9342L45.6153 92.8987L47.7089 87.273C47.9831 86.6024 48.5438 85.4847 49.3912 83.92L50.5876 81.7591Z" fill="#FFE100"/>
<path d="M50.5874 81.7591C51.3849 81.4859 52.008 82.231 52.4566 83.9944C52.9302 85.8572 52.843 87.7946 52.1949 89.8064C51.4971 91.9424 50.1637 94.0287 48.1947 96.0654C46.2507 98.1021 44.6805 99.0583 43.4842 98.9341C42.1632 98.959 40.8672 98.7603 39.5961 98.338C38.4745 97.9406 37.8888 97.5681 37.839 97.2203C37.839 96.6988 38.1132 96.2393 38.6615 95.8419L37.3156 93.383C36.867 92.4888 36.6676 91.9672 36.7174 91.8182C36.8421 91.6195 37.3281 91.5574 38.1755 91.6319C38.1505 90.1665 38.6989 89.7319 39.8204 90.328C39.8703 89.1606 40.3563 88.9992 41.2784 89.8436C42.0261 88.6515 43.0231 87.4468 44.2693 86.2298C45.341 85.1618 46.3628 84.2925 47.3349 83.6219C48.1324 82.8519 49.2166 82.231 50.5874 81.7591Z" fill="#FFE100"/>
<path d="M93.4311 18.5354C96.0232 17.1942 98.6775 16.0889 101.394 15.2196C104.759 14.1516 106.715 14.0274 107.264 14.8471C107.962 15.8902 106.391 18.8956 102.553 23.863C99.014 28.4083 95.7988 31.9104 92.9077 34.3693C93.805 31.6123 94.3159 28.8305 94.4405 26.0239C94.5651 23.0682 94.2287 20.5721 93.4311 18.5354Z" fill="#0D131A"/>
<path d="M37.1288 121.66C38.4497 120.568 39.8704 119.785 41.3907 119.313C42.7864 122.617 45.7897 124.492 50.4006 124.939C48.2073 126.032 45.6028 126.814 42.587 127.286C39.5464 127.733 37.7643 127.609 37.2409 126.913C36.2191 127.162 35.6209 127.025 35.4464 126.504C35.2969 126.081 35.3966 125.61 35.7455 125.088C35.0227 124.144 35.4838 123.002 37.1288 121.66Z" fill="#FFE100"/>
<path d="M79.6357 130.825C81.6545 130.9 83.4989 130.552 85.1688 129.782C86.7389 129.062 87.848 128.131 88.4961 126.988C89.7921 129.124 90.5896 131.148 90.8887 133.061C91.1878 135.023 90.8887 136.265 89.9915 136.786C89.9665 137.507 89.6301 137.867 88.9821 137.867C88.4088 137.842 87.9353 137.606 87.5614 137.159C87.2623 137.979 86.066 137.618 83.9724 136.079C81.829 134.489 80.3834 132.738 79.6357 130.825Z" fill="#FFE100"/>
<path d="M55.8215 70.7686L58.3637 69.1293C58.8622 68.7567 59.6099 68.4214 60.6068 68.1234L62.7004 67.7508L65.8782 67.4155C65.8034 68.1358 65.5292 68.8561 65.0557 69.5764L60.9433 69.7999C59.5227 70.3215 58.6379 71.1039 58.289 72.1471L55.8215 70.7686Z" fill="#B50005"/>
<path d="M58.2515 72.1097C58.7499 71.1411 59.6596 70.3835 60.9806 69.8371C62.4262 69.241 63.8094 69.1665 65.1304 69.6136C63.0866 72.296 60.7937 73.1281 58.2515 72.1097Z" fill="#E50012"/>
<path d="M37.9138 96.6987C38.3126 96.9968 39.2098 97.1582 40.6056 97.1831L44.045 96.8105L43.5216 98.8596C42.1508 98.9093 40.7925 98.6981 39.4466 98.2262C38.026 97.7295 37.515 97.2203 37.9138 96.6987Z" fill="#F9BE00"/>
<path d="M60.532 85.7454C60.5071 85.3976 61.367 85.0872 63.1116 84.814L65.8033 84.963C65.8283 85.261 65.4918 85.5715 64.7939 85.8944L63.149 86.3787L61.5414 86.3042C60.8685 86.18 60.532 85.9937 60.532 85.7454Z" fill="#F9BE00"/>
<path d="M41.0915 112.98C41.9888 119.611 45.6525 122.666 52.0828 122.145C55.3229 121.872 58.4508 122.095 61.4665 122.815C64.0586 123.436 67.1865 124.591 70.8502 126.28C74.9875 128.217 79.075 128.441 83.1126 126.951C88.2718 125.063 91.0881 120.518 91.5617 113.315C91.5118 118.953 90.7641 123.089 89.3186 125.721C87.0007 130.018 82.7014 131.595 76.4206 130.453C74.3271 130.08 70.3891 128.938 64.6069 127.025C59.8714 125.461 56.7684 124.765 55.298 124.939C50.6622 125.485 47.0732 124.827 44.531 122.964C41.7146 120.903 40.5681 117.575 41.0915 112.98Z" fill="#F9BE00"/>
<path d="M38.3999 120.878C38.5245 120.704 39.0479 120.443 39.9701 120.096L41.6524 119.5C42.1509 120.94 43.3846 122.219 45.3536 123.337C47.1481 124.355 48.8179 124.864 50.3632 124.864C48.793 125.709 47.0359 126.342 45.0919 126.764C42.774 123.312 40.5433 121.35 38.3999 120.878Z" fill="#F9BE00"/>
<path d="M82.477 134.812L80.9443 132.949C80.4458 132.204 80.0968 131.496 79.8975 130.825C83.5363 131.198 86.3776 129.931 88.4213 127.025C89.2438 128.292 89.7423 129.211 89.9167 129.782C88.2468 129.881 86.714 130.391 85.3183 131.31C83.8977 132.229 82.9506 133.396 82.477 134.812Z" fill="#F9BE00"/>
<path d="M44.0077 59.48C45.1791 59.1571 46.3006 59.3558 47.3723 60.0761C48.4191 60.7964 49.1294 61.8395 49.5033 63.2056C49.9021 64.522 49.7899 65.7142 49.1668 66.7822C48.5936 67.7757 47.7088 68.4587 46.5125 68.8313C45.3161 69.179 44.1323 69.0548 42.9609 68.4587C41.8144 67.8626 41.0791 66.9809 40.7551 65.8135C40.3564 64.4475 40.4561 63.1559 41.0542 61.9389C41.6524 60.6722 42.6369 59.8526 44.0077 59.48Z" fill="#0D131A"/>
<path d="M43.7833 60.0015L45.4657 60.076C45.9891 60.3243 46.3505 60.7093 46.5498 61.2309C46.7492 61.8022 46.7492 62.3486 46.5498 62.8702C46.3255 63.4166 45.9143 63.8016 45.3161 64.0251L43.6338 63.9506C43.1104 63.7022 42.7615 63.2924 42.587 62.7212C42.4125 62.1251 42.4499 61.5662 42.6992 61.0446C42.9235 60.5231 43.2849 60.1753 43.7833 60.0015Z" fill="white"/>
<path d="M70.7757 51.0601C72.1714 50.613 73.5297 50.762 74.8507 51.5071C76.2215 52.2523 77.0564 53.3824 77.3555 54.8974C77.6296 56.1642 77.4427 57.3812 76.7947 58.5485C76.1716 59.7159 75.2744 60.4983 74.103 60.8957C72.7322 61.3676 71.4237 61.2807 70.1775 60.6349C68.9812 60.0139 68.1712 59.0825 67.7475 57.8407C67.249 56.3008 67.3238 54.8726 67.9718 53.5562C68.5699 52.2895 69.5046 51.4575 70.7757 51.0601Z" fill="#0D131A"/>
<path d="M70.5138 51.6189C71.0621 51.3705 71.6229 51.3705 72.1961 51.6189C72.7694 51.8424 73.1682 52.2398 73.3925 52.8111C73.5919 53.3327 73.5919 53.8791 73.3925 54.4504C73.1931 55.0713 72.8068 55.4811 72.2335 55.6798C71.6354 55.9033 71.0746 55.9033 70.5512 55.6798C70.0029 55.4563 69.6166 55.0713 69.3922 54.5249C69.1679 53.9784 69.1555 53.4196 69.3549 52.8483C69.5542 52.2771 69.9406 51.8673 70.5138 51.6189Z" fill="white"/>
<path d="M58.0273 65.3292C58.0023 65.2299 58.264 65.1057 58.8124 64.9566L59.6348 64.8076L59.4105 65.2919L58.9245 65.6273L58.4011 65.59L58.0273 65.3292Z" fill="#0D131A"/>
<path d="M83.5986 60.2995C84.5457 60.6721 85.1688 61.6532 85.4679 63.2427C85.7919 64.8323 85.6673 66.3847 85.0941 67.8998C84.471 69.6135 83.4989 70.8927 82.178 71.7371C80.8571 72.5816 79.6358 72.7306 78.5142 72.1842C77.3927 71.6626 76.6574 70.6567 76.3085 69.1665C75.9347 67.6017 76.1216 66.0121 76.8693 64.3977C77.6668 62.6839 78.7261 61.442 80.047 60.6721C81.2932 59.9766 82.4771 59.8524 83.5986 60.2995Z" fill="#E50012"/>
<path d="M43.9703 74.457C45.067 75.8479 45.8022 77.2263 46.1761 78.5924C46.5499 80.0329 46.3879 81.0016 45.6901 81.4984C45.0171 81.9703 44.0576 81.8337 42.8114 81.0885C41.7397 80.4676 40.5932 79.4865 39.372 78.1453C38.3002 76.9283 37.5525 75.674 37.1288 74.3824C36.7051 73.0661 36.7675 72.1347 37.3158 71.5882C37.9887 70.9673 39.0106 70.9549 40.3814 71.551C41.7023 72.1222 42.8986 73.0909 43.9703 74.457Z" fill="#E50012"/>
<path d="M29.0535 14.1393C32.0444 16.9708 34.948 21.1311 37.7643 26.6201C41.1041 33.1523 43.2226 39.6722 44.1198 46.1795L43.3721 46.8502C42.3502 40.3179 40.0822 33.6739 36.568 26.9182C33.9012 21.752 31.2219 17.6911 28.5301 14.7354C27.7575 13.9406 27.1967 13.5557 26.8478 13.5805C26.3992 13.6302 26.1624 14.2884 26.1375 15.5551C26.0129 19.8768 26.8977 25.6887 28.7918 32.9909C31.0848 41.833 34.0507 48.7999 37.6895 53.8915L37.3157 54.823C33.3528 49.7313 30.1751 42.7892 27.7824 33.9968C25.6889 26.2724 24.8539 20.0879 25.2776 15.4433C25.4022 13.804 25.7886 12.8975 26.4366 12.7236C27.0347 12.5746 27.9071 13.0465 29.0535 14.1393Z" fill="#0D131A"/>
<path d="M29.3901 36.7166L28.605 34.8165C28.8293 31.8112 29.4275 29.166 30.3995 26.881C31.3466 24.6208 32.5927 22.8946 34.138 21.7024L34.6988 22.4848C33.0788 23.7515 31.8077 25.6764 30.8855 28.2595C29.9882 30.7432 29.4898 33.5622 29.3901 36.7166Z" fill="#0D131A"/>
<path d="M95.1507 31.4633C100.285 26.1233 103.986 21.4787 106.254 17.5295C106.977 16.2877 107.201 15.4804 106.927 15.1079L104.123 15.0334C99.7615 15.8778 94.864 18.0884 89.4307 21.6649C82.2029 26.4089 75.9595 32.5313 70.7007 40.0322L69.8408 39.7714C75.3738 31.6496 81.692 25.2664 88.7952 20.6218C94.1039 17.1445 99.1384 15.0085 103.899 14.2137C106.042 13.8412 107.326 13.9778 107.75 14.6235C108.123 15.2196 107.887 16.3249 107.039 17.9393C104.671 22.3604 100.883 27.2285 95.6741 32.5437C89.7921 38.5295 84.4585 42.5159 79.6731 44.5029L78.8881 43.9441C83.5986 41.9571 89.0195 37.7968 95.1507 31.4633Z" fill="#0D131A"/>
<path d="M93.6928 33.5496L92.3096 34.7046C93.4311 31.2025 94.0044 27.8246 94.0293 24.5709C94.0293 21.8637 93.7302 20.0009 93.132 18.9825L93.8798 18.4609C94.5278 19.5786 94.9016 21.3793 95.0013 23.8631C95.101 26.9429 94.6648 30.1718 93.6928 33.5496Z" fill="#0D131A"/>
<path d="M84.6829 81.5355C84.5084 80.9643 84.5084 80.6414 84.6829 80.5669C84.8823 80.4923 85.0816 80.7407 85.281 81.312C89.6426 93.3581 91.7985 104.138 91.7487 113.65C91.6739 123.262 89.3311 128.962 84.7202 130.751C82.203 131.719 78.6015 131.682 73.9159 130.639C71.0746 130.018 67.3485 128.863 62.7377 127.174C60.8186 126.479 59.3481 126.019 58.3262 125.796L53.6905 125.46L47.821 125.088C45.5778 124.591 43.7335 123.536 42.2879 121.921C40.4436 119.909 39.9825 115.575 40.9047 108.919C41.8269 102.113 43.9329 95.0595 47.2228 87.7573C47.4471 87.2605 47.659 87.0494 47.8584 87.1239C48.0328 87.1984 48.0079 87.4841 47.7836 87.9808C44.7678 95.3327 42.8238 102.25 41.9515 108.732C41.129 115.091 41.5652 119.214 43.26 121.101C44.6308 122.641 46.2882 123.635 48.2322 124.082L53.6905 124.492L58.7749 124.827C59.7967 125.026 61.2298 125.485 63.0742 126.206C73.0685 129.981 80.1219 131.086 84.2342 129.521C88.4463 127.932 90.515 122.43 90.4402 113.017C90.3904 104.075 88.4712 93.5816 84.6829 81.5355Z" fill="#0D131A"/>
<path d="M46.7367 83.4355L47.8209 83.7709C45.2288 85.5591 42.9483 87.8939 40.9794 90.775C40.7052 91.1972 40.4934 91.3711 40.3438 91.2966C40.1943 91.1972 40.2566 90.9364 40.5307 90.5142C42.3252 87.4592 44.3939 85.0997 46.7367 83.4355Z" fill="#0D131A"/>
<path d="M52.8679 71.1783C52.6436 71.0292 52.5813 70.8926 52.681 70.7684L53.2044 70.7312C54.1266 71.0789 55.5098 70.5946 57.3542 69.2782C58.4259 68.5082 59.3605 67.9991 60.1581 67.7507C60.9556 67.4775 62.0897 67.316 63.5601 67.2664L66.065 66.8938C66.7379 66.6454 67.1616 66.2232 67.3361 65.6271C67.4607 65.3291 67.5978 65.2049 67.7473 65.2545C67.8968 65.2794 67.9467 65.4532 67.8968 65.7761C67.5978 67.2912 66.1522 68.0984 63.5601 68.1978L60.4198 68.6448C59.6721 68.8932 58.8122 69.3651 57.8402 70.0606C55.6968 71.6005 54.0394 71.973 52.8679 71.1783Z" fill="#0D131A"/>
<path d="M56.2326 70.4705C58.2265 72.0104 60.0709 72.4824 61.7657 71.8863C62.6629 71.5634 63.448 70.9921 64.1209 70.1725C64.7939 69.3528 65.2549 68.4339 65.5042 67.4155L66.5136 67.2292C66.3391 68.3966 65.8157 69.477 64.9434 70.4705C64.1209 71.4144 63.1489 72.0974 62.0274 72.5196L58.8122 72.7059C57.6408 72.4575 56.5068 71.8987 55.4102 71.0294L56.2326 70.4705Z" fill="#0D131A"/>
<path d="M35.7454 122.517C36.8919 121.027 38.7487 119.81 41.3158 118.866L41.6523 119.76C39.459 120.63 37.8265 121.611 36.7548 122.704C35.8327 123.672 35.5585 124.393 35.9324 124.864L35.3716 125.647C34.574 124.927 34.6986 123.883 35.7454 122.517Z" fill="#0D131A"/>
<path d="M38.6989 122.406C39.0479 122.232 39.2597 122.232 39.3345 122.406C39.4342 122.555 39.3096 122.728 38.9606 122.927C38.1132 123.424 37.378 124.02 36.7549 124.715C36.082 125.436 35.8203 125.982 35.9698 126.355L37.2409 126.466L37.5774 127.286L36.0446 127.435C35.4464 127.361 35.085 127.149 34.9604 126.802C34.7112 126.131 35.0476 125.312 35.9698 124.343C36.7923 123.474 37.702 122.828 38.6989 122.406Z" fill="#0D131A"/>
<path d="M49.8399 124.827L51.3727 125.051C48.6062 126.417 45.5032 127.336 42.0637 127.808C38.6742 128.255 36.8423 128.019 36.5681 127.1C36.4186 126.628 36.7301 126.032 37.5027 125.311C38.3252 124.517 39.2848 123.983 40.3814 123.709C40.7303 123.635 40.9297 123.672 40.9796 123.821C41.0294 123.995 40.8923 124.144 40.5683 124.268C39.7459 124.591 39.0355 125.001 38.4374 125.498C37.8641 125.994 37.6149 126.392 37.6897 126.69C37.7894 127.112 39.0355 127.211 41.4282 126.988C44.2196 126.715 47.0235 125.994 49.8399 124.827Z" fill="#0D131A"/>
<path d="M79.1125 130.788L80.1967 130.714C80.8697 132.527 82.1158 134.141 83.9353 135.557C85.5553 136.824 86.6021 137.32 87.0756 137.047C87.2999 136.898 87.2625 136.414 86.9635 135.594C86.6893 134.775 86.2531 133.88 85.655 132.912C85.4805 132.663 85.4681 132.489 85.6176 132.39C85.7422 132.316 85.9042 132.39 86.1036 132.614C86.8762 133.533 87.4245 134.576 87.7486 135.743C88.0726 136.96 87.9978 137.693 87.5242 137.941C86.8015 138.314 85.468 137.78 83.524 136.339C81.3557 134.725 79.8852 132.874 79.1125 130.788Z" fill="#0D131A"/>
<path d="M88.4213 132.129C88.2718 131.781 88.2843 131.57 88.4587 131.496C88.6083 131.421 88.7703 131.545 88.9447 131.868C89.817 133.508 90.2781 134.961 90.328 136.227C90.3529 137.32 90.0912 137.978 89.5429 138.202L88.5335 138.239C88.0849 138.14 87.6861 137.904 87.3372 137.531L87.711 136.712C88.3341 137.333 88.8326 137.556 89.2064 137.382C89.5055 137.233 89.6052 136.712 89.5055 135.818C89.3809 134.824 89.0195 133.595 88.4213 132.129Z" fill="#0D131A"/>
<path d="M88.1223 127.36L88.7953 126.541C90.166 128.801 91.001 131.011 91.3001 133.172C91.5991 135.532 91.1131 136.985 89.842 137.531L89.9542 136.488C90.5773 135.892 90.7019 134.675 90.328 132.837C89.9542 131.049 89.2189 129.223 88.1223 127.36Z" fill="#0D131A"/>
<path d="M65.2052 69.2038L64.8687 69.8744C63.7721 69.5267 62.5633 69.6012 61.2424 70.0979C59.9214 70.5947 59.0491 71.3025 58.6254 72.2215L57.8777 71.998C58.4011 70.8803 59.3856 70.0358 60.8311 69.4646C62.2767 68.8933 63.7347 68.8064 65.2052 69.2038Z" fill="#0D131A"/>
<path d="M38.3626 52.2896C38.6368 51.8922 38.8611 51.7432 39.0355 51.8425C39.21 51.9667 39.1726 52.2275 38.9234 52.6249C37.2286 55.5061 36.1569 58.4865 35.7083 61.5664C35.2596 64.6711 35.459 67.7509 36.3064 70.8059C37.2286 74.1341 38.886 76.9407 41.2787 79.2258C43.6464 81.4611 46.5749 83.0631 50.0642 84.0318C50.7371 84.2305 51.0487 84.4168 50.9988 84.5906L49.9147 84.7024C46.3257 84.007 43.1728 82.4298 40.4562 79.9709C37.7395 77.512 35.9076 74.5687 34.9605 71.1412C34.0882 68.0117 33.9511 64.7828 34.5493 61.4546C35.1475 58.1016 36.4186 55.0466 38.3626 52.2896Z" fill="#0D131A"/>
<path d="M62.8498 38.7655C66.2145 38.6662 69.2303 39.1132 71.8971 40.1067C72.3457 40.2806 72.5451 40.4544 72.4953 40.6283L71.7102 40.7028C65.9279 39.1132 59.7967 39.4361 53.3166 41.6715C49.2042 43.0624 45.7398 45.0742 42.9235 47.707C42.5746 48.0298 42.3378 48.1292 42.2132 48.005C42.0636 47.856 42.1509 47.6076 42.4749 47.2599C45.1168 44.2794 48.6061 42.044 52.9427 40.5538C56.2576 39.4361 59.5599 38.84 62.8498 38.7655Z" fill="#0D131A"/>
<path d="M87.412 54.6367C88.6332 58.0891 88.9821 61.8643 88.4588 65.9625C87.8606 70.6071 86.2156 74.3327 83.5239 77.1393C83.1999 77.4871 82.9756 77.5988 82.851 77.4746C82.7014 77.3504 82.7637 77.1021 83.0379 76.7295C85.3807 73.6745 86.8013 69.9986 87.2998 65.7017C87.7484 61.8271 87.387 58.2629 86.2156 55.0092C84.4959 50.1163 81.6546 46.2789 77.6918 43.4971C77.2681 43.1991 77.1185 42.9755 77.2432 42.8265C77.3429 42.6775 77.617 42.7272 78.0656 42.9755C80.1592 44.1926 82.0285 45.8194 83.6734 47.8561C85.2935 49.8927 86.5396 52.1529 87.412 54.6367Z" fill="#0D131A"/>
<path d="M41.3906 89.5084L40.942 90.0672C40.6429 89.8437 40.4311 89.7568 40.3064 89.8064L40.1569 90.2535L39.9326 90.7379L39.3718 90.5888L38.811 90.4771C38.6366 90.5516 38.5369 90.7999 38.5119 91.2222L38.3624 91.93H37.6895L37.1287 92.0418C37.029 92.1908 37.3156 92.849 37.9885 94.0164L39.0353 95.8419L38.6241 96.3635C38.325 96.6616 38.1879 96.9099 38.2129 97.1086C38.2627 97.4067 38.973 97.7172 40.3438 98.04L43.559 98.3753L43.372 99.2695C42.3003 99.3688 41.0417 99.1701 39.5961 98.6734C38.1506 98.2015 37.3779 97.7296 37.2782 97.2577C37.2035 96.8106 37.5025 96.3263 38.1755 95.8047C36.7548 93.4451 36.1317 92.0542 36.3062 91.632C36.381 91.4581 36.6053 91.3464 36.9791 91.2967L37.9138 91.3712C37.8639 91.0483 37.8889 90.7254 37.9885 90.4025C38.0633 90.0797 38.1879 89.8685 38.3624 89.7692L38.9232 89.6947C39.1724 89.7444 39.3843 89.8313 39.5587 89.9555C39.6086 89.3842 39.783 89.0613 40.0821 88.9868L40.7177 89.0986L41.3906 89.5084Z" fill="#0D131A"/>
<path d="M95.5246 86.1554C92.9076 89.4587 89.7049 91.7686 85.9166 93.085C83.2996 93.9791 80.3711 92.8987 77.131 89.8437C73.866 86.7639 73.0187 84.1311 74.5888 81.9454C76.1839 79.7349 78.3523 77.5492 81.0939 75.3884C84.2841 72.855 87.2874 71.2033 90.1037 70.4333C91.1256 68.8189 91.7861 67.9744 92.0851 67.8999L93.1693 68.1234C93.6927 68.3718 94.1538 68.8065 94.5526 69.4274C95.8735 69.6013 96.9826 70.2098 97.8799 71.2529C98.827 72.321 99.3379 73.6373 99.4127 75.2021C99.5622 79.027 98.2662 82.6781 95.5246 86.1554Z" fill="#FFE100"/>
<path d="M99.0014 73.2646C100.397 77.0151 99.4251 81.1257 96.0853 85.5964C92.945 89.8436 89.5429 92.2156 85.8792 92.7123C89.2687 91.1476 92.3593 88.2788 95.1507 84.1062C97.9172 79.9583 99.2008 76.3445 99.0014 73.2646Z" fill="#F9BE00"/>
<path d="M93.431 67.8997C93.9793 68.1481 94.4404 68.5704 94.8143 69.1665C97.9547 69.539 99.6744 71.7123 99.9735 75.6863C100.223 79.0145 99.1136 82.3799 96.6462 85.7827C93.9544 89.4337 90.4776 91.9299 86.2157 93.2711L85.4306 93.1966C85.3558 92.9979 85.5427 92.8116 85.9914 92.6378C89.8545 91.1724 93.0572 88.7383 95.5994 85.3356C98.0668 82.0322 99.2008 78.853 99.0014 75.798C98.7522 72.4698 97.3565 70.5077 94.8143 69.9116C94.4903 69.8867 94.2784 69.7625 94.1787 69.539C94.0043 69.2161 93.6927 68.9553 93.2441 68.7566L92.0852 68.5704C91.8608 68.6449 91.5618 68.9926 91.1879 69.6135C90.8141 70.2841 90.515 70.6567 90.2907 70.7312C87.3746 71.8737 84.8075 73.2274 82.5893 74.7921C79.9973 76.6301 77.5049 78.9772 75.1122 81.8335C74.8132 82.1812 74.5764 82.293 74.4019 82.1688C74.2524 82.0446 74.3147 81.7838 74.5888 81.3864C77.2058 78.0086 79.9599 75.351 82.851 73.4136C84.9196 72.0227 87.2251 70.9175 89.7673 70.0979L90.7019 68.9057C91.1505 68.1854 91.5618 67.788 91.9356 67.7135C92.4092 67.5893 92.9076 67.6514 93.431 67.8997Z" fill="#0D131A"/>
<path d="M92.5712 70.0979L93.2441 69.9861C93.3688 70.0606 93.3064 70.2345 93.0572 70.5077C92.7831 70.8306 92.646 71.0417 92.646 71.141C92.646 71.3149 92.7207 71.5136 92.8703 71.7371L93.0946 72.1842L92.7955 72.594C92.5961 72.8175 92.4964 73.0659 92.4964 73.3391C92.4964 73.662 92.5961 73.9725 92.7955 74.2705L93.0946 74.8294L92.9077 75.2764C92.7581 75.5248 92.6958 75.7484 92.7207 75.9471C92.7457 76.1458 92.8952 76.3941 93.1694 76.6922L93.618 77.251L93.4311 77.8099C93.3314 78.1079 93.3064 78.3811 93.3563 78.6295L93.9545 79.1511L94.9639 79.4864C95.2879 79.5112 95.4499 79.6106 95.4499 79.7844L95.0386 80.0825L93.6554 79.8589C93.1071 79.6354 92.7706 79.3374 92.646 78.9648C92.5712 78.7661 92.5587 78.5053 92.6086 78.1824C92.6584 77.8347 92.7706 77.5615 92.9451 77.3628L92.3095 76.8412C92.1101 76.5928 91.998 76.3444 91.973 76.0961C91.8733 75.649 92.0478 75.2268 92.4964 74.8294C92.0229 74.432 91.7487 73.9725 91.674 73.4509C91.6241 72.9045 91.8733 72.445 92.4217 72.0724C92.0977 71.824 91.9357 71.4887 91.9357 71.0665C91.9107 70.8926 91.973 70.7064 92.1226 70.5077L92.5712 70.0979Z" fill="#0D131A"/>
<path d="M38.3626 52.2896C38.6368 51.8922 38.8611 51.7432 39.0355 51.8425C39.21 51.9667 39.1726 52.2275 38.9234 52.6249C37.2286 55.5061 36.1569 58.4865 35.7083 61.5664C35.2596 64.6711 35.459 67.7509 36.3064 70.8059C37.2286 74.1341 38.886 76.9407 41.2787 79.2258C43.6464 81.4611 46.5749 83.0631 50.0642 84.0318C50.7371 84.2305 51.0487 84.4168 50.9988 84.5906L49.9147 84.7024C46.3257 84.007 43.1728 82.4298 40.4562 79.9709C37.7395 77.512 35.9076 74.5687 34.9605 71.1412C34.0882 68.0117 33.9511 64.7828 34.5493 61.4546C35.1475 58.1016 36.4186 55.0466 38.3626 52.2896Z" fill="#0D131A"/>
</g>
<defs>
<clipPath id="clip0_46_1009">
<rect width="101" height="126" fill="white" transform="translate(24.5 12.5)"/>
</clipPath>
</defs>
</svg>
