<svg width="94" height="107" viewBox="0 0 94 107" fill="none" xmlns="http://www.w3.org/2000/svg">
<path d="M85.5316 69.8263C85.2117 75.2492 83.3367 79.8005 79.9065 83.4803C76.885 86.7199 72.9839 89 68.2029 90.3205C63.7774 91.5529 59.423 91.773 55.1397 90.9807C50.8209 90.1884 47.6039 88.551 45.4889 86.0685C45.8622 85.2057 46.2621 83.9645 46.6886 82.3446C47.3107 79.9854 47.5684 78.1279 47.4618 76.7721C49.5412 79.0082 52.1183 80.7248 55.193 81.9221C58.4455 83.1898 61.7246 83.6563 65.0304 83.3218C73.1171 82.5119 79.2133 77.494 83.3189 68.2681L83.7988 69.0604C84.2609 69.571 84.8385 69.8263 85.5316 69.8263Z" fill="#EF8200"/>
<path d="M45.4889 86.1477C50.1988 90.3381 55.9484 92.1076 62.7377 91.4561C68.9405 90.8575 74.619 88.463 79.7732 84.2726C74.5301 90.3117 67.8652 93.4193 59.7785 93.5953C56.5616 93.6481 53.5312 93.1992 50.6876 92.2484C48.0216 91.3329 46.031 90.1532 44.7158 88.7095L45.4889 86.1477Z" fill="#DDD583"/>
<path d="M46.2887 83.5595C49.95 87.4154 55.1397 89.2993 61.8579 89.2113C68.2029 89.1232 74.068 87.3714 79.4532 83.9557C75.01 88.3573 69.4292 90.8399 62.711 91.4033C55.7795 91.9843 50.0388 90.2324 45.4889 86.1477L46.2887 83.5595Z" fill="#CF7100"/>
<path d="M38.1842 23.3711C37.9709 24.4979 37.3667 26.6283 36.3714 29.7623C35.4649 32.6322 34.9939 34.3136 34.9584 34.8066C34.9051 35.4933 35.0828 37.1395 35.4916 39.7453C35.8115 41.8757 36.1225 43.698 36.4247 45.2122C37.9532 53.1528 39.6683 58.6373 41.57 61.6656C43.8272 65.2398 45.3556 68.0128 46.1554 69.9848C47.6306 73.6293 48.0038 76.9482 47.2751 79.9413L45.2223 87.0456C44.6892 88.7711 44.4048 90.1972 44.3692 91.3241L45.9155 94.5989C46.8397 96.923 47.0796 98.4636 46.6353 99.2206C46.0132 100.242 45.2579 101.078 44.3692 101.73C43.2851 102.522 42.0854 102.98 40.7702 103.103C39.2239 103.244 37.5888 102.997 35.8648 102.363C33.9987 101.694 33.0567 100.893 33.0389 99.9601L33.1189 95.7873C33.1011 93.7802 32.8878 92.3276 32.4791 91.4297L30.7995 89.6866C29.6265 88.3133 28.9156 87.1425 28.6667 86.1741L24.6411 85.461L23.3881 86.3854C22.5173 87.1073 22.0374 87.7411 21.9485 88.2869L22.8283 90.03C23.3793 91.2976 23.5392 92.1428 23.3082 92.5653C22.9883 93.1463 21.5486 93.8946 18.9893 94.8102C16.2167 95.7961 13.8529 96.2891 11.8979 96.2891C9.76509 96.2891 7.77451 95.6729 5.92611 94.4404C4.05994 93.208 3.74003 92.2572 4.96637 91.5882L8.29882 89.7394C6.8592 88.8063 5.85502 87.477 5.28628 85.7515C4.18435 82.3182 5.84614 78.6561 10.2716 74.765C9.38297 73.3212 8.72537 70.8827 8.29882 67.4494C7.7834 63.5055 7.86338 59.8345 8.53875 56.4364L6.88586 58.1795C6.05053 58.9894 5.41958 59.3327 4.99303 59.2095C4.69089 59.1214 4.45095 58.6637 4.27322 57.8361L4.11326 56.5949C2.24709 57.2111 1.24291 57.2815 1.10073 56.8062C0.940772 56.2604 0.931885 55.7322 1.07407 55.2216C1.32289 54.3412 2.00716 53.3112 3.12686 52.1316C3.82001 50.5822 4.78864 48.8479 6.03275 46.9288C8.52098 43.1258 11.1603 40.3351 13.9507 38.5568C12.7599 38.3279 11.809 37.9142 11.0981 37.3156C9.83619 36.2768 8.27216 34.4369 6.40599 31.7959C3.81112 28.1689 2.54035 25.167 2.59367 22.7901C2.61144 21.5928 3.13574 20.2547 4.16658 18.7757C5.09078 17.4024 5.81948 16.6805 6.35267 16.6101L9.20524 9.453C9.08083 9.22411 9.00085 8.95121 8.96531 8.63429C8.87644 8.01805 9.02751 7.49865 9.41852 7.07609C11.0536 5.31543 12.6532 4.01253 14.2172 3.16741C17.8429 1.19546 22.0729 0.561623 26.9072 1.26589C30.4085 1.75888 33.3855 4.23262 35.8382 8.68711C38.3975 13.3529 39.1795 18.2475 38.1842 23.3711Z" fill="#EF8200"/>
<path d="M2.67364 55.2744C3.82889 54.4293 4.74421 53.9715 5.41958 53.9011C5.95277 53.8482 6.16605 54.0067 6.05941 54.3764C5.935 54.7286 5.53511 55.0367 4.85973 55.3008L3.26016 55.4857L2.67364 55.2744Z" fill="#CF7100"/>
<path d="M4.91305 59.3679C6.2638 57.2551 7.58789 55.4769 8.88533 54.0331L8.69871 56.2251C6.60149 58.3732 5.3396 59.4208 4.91305 59.3679Z" fill="#CF7100"/>
<path d="M17.7896 38.0286C20.3134 37.5885 22.304 37.0251 23.7614 36.3384L25.281 36.312C25.3698 36.7169 25.1032 37.3244 24.4812 38.1343C22.8638 40.2999 21.1221 41.3739 19.2559 41.3563C17.8341 41.3387 16.7499 41.0746 16.0034 40.564C15.3814 40.1414 14.8571 39.446 14.4305 38.4776L17.7896 38.0286Z" fill="#CF7100"/>
<path d="M29.1466 87.389C27.1027 84.0085 26.6228 80.7072 27.707 77.4852C27.5115 79.4748 28.3113 81.2178 30.1064 82.7144C31.7593 84.0701 33.8565 84.9328 36.398 85.3026C38.9573 85.6899 41.2145 85.4346 43.1696 84.5367C45.2135 83.6035 46.4931 82.1158 47.0085 80.0734L46.4487 82.5823L45.4356 86.5702C45.1868 87.2745 44.9557 88.1813 44.7425 89.2905C44.5114 90.4173 44.4048 91.148 44.4226 91.4825C44.4581 91.9579 45.0713 93.5777 46.2621 96.342C45.1957 94.4756 42.8674 93.6217 39.2773 93.7802C35.6516 93.9386 33.5454 95.0655 32.9589 97.1607C32.9589 93.921 32.8256 92.0283 32.559 91.4825C31.3149 90.4437 30.1775 89.0792 29.1466 87.389Z" fill="#CF7100"/>
<path d="M12.1111 85.461C13.2131 84.7744 13.8262 83.8148 13.9506 82.5823C14.0751 81.3851 13.7018 80.1438 12.8309 78.8585C14.5549 81.0241 16.9898 82.7408 20.1357 84.0085C21.8774 84.6951 23.4415 85.1353 24.8278 85.329C24.1524 85.5931 23.4681 86.1741 22.775 87.072L21.9219 88.3133C22.3484 88.8767 22.6772 89.5634 22.9083 90.3733C23.1215 91.1304 23.2104 91.8082 23.1749 92.4069C23.1393 92.9351 22.4639 93.4721 21.1487 94.0179C20.3312 94.37 18.6338 94.9422 16.0568 95.7345L12.6443 96.2891L10.5915 96.2099C12.4222 95.7345 13.0798 94.907 12.5644 93.7274C12.1023 92.6357 10.7248 91.3945 8.43211 90.0035C7.24132 89.2817 6.30823 88.0316 5.63286 86.2533L4.96637 83.7972C5.89057 85.0825 7.07248 85.8572 8.51209 86.1213C9.8273 86.3678 11.027 86.1477 12.1111 85.461Z" fill="#CF7100"/>
<path d="M20.189 42.3599C21.6997 44.3142 23.1127 46.7087 24.4279 49.5434C28.0358 57.2199 29.5909 65.0461 29.0933 73.0219L27.6803 77.2475C26.9694 80.5576 27.2093 83.4187 28.4001 85.8308C25.5565 85.7251 22.5884 84.9856 19.4958 83.6123C13.3286 80.8481 9.67623 76.2791 8.53875 69.9055C7.63233 64.87 7.86338 59.1831 9.2319 52.8447C10.0139 49.3057 11.0448 45.934 12.3244 42.7296C12.751 42.219 13.2753 41.6996 13.8973 41.1714C15.1414 40.1502 16.2434 39.6573 17.2031 39.6925C17.8429 39.7101 18.8382 40.5992 20.189 42.3599Z" fill="#FFF697"/>
<path d="M19.6291 41.3299L17.2564 41.1978C16.6166 41.0218 16.0301 40.6696 15.4969 40.1414L16.1634 39.8773L17.523 39.9038C18.1629 40.1502 18.8649 40.6256 19.6291 41.3299Z" fill="#DDD583"/>
<path d="M18.1629 76.4816C21.9485 77.2563 25.2188 77.0098 27.9736 75.7421C27.6004 76.0062 27.3604 77.2387 27.2538 79.4395C27.1294 82.1158 27.5115 84.2638 28.4001 85.8836C25.592 86.0597 22.4995 85.285 19.1226 83.5595C13.8618 80.8833 10.3694 76.464 8.64539 70.3017C10.6537 73.5413 13.8262 75.6013 18.1629 76.4816Z" fill="#DDD583"/>
<path d="M5.4729 25.0349L6.7259 26.1177C7.75674 26.91 8.77869 27.5086 9.79175 27.9136L11.0981 28.2305C9.78287 28.6179 8.65428 29.2429 7.71231 30.1056C6.77033 28.5562 6.02387 26.866 5.4729 25.0349Z" fill="#922F00"/>
<path d="M11.0981 28.2305L19.6025 29.0492C23.2637 29.2781 25.5653 29.3397 26.5073 29.2341C25.8675 30.5546 24.0013 31.9455 20.9088 33.4069C17.4964 35.0443 14.5905 35.6165 12.1911 35.1235C11.8179 35.0355 11.2314 34.5689 10.4316 33.7238C9.45407 32.7202 8.54764 31.5142 7.71231 30.1056C8.65428 29.2429 9.78287 28.6179 11.0981 28.2305Z" fill="#ED8599"/>
<path d="M7.87226 30.1585C7.74785 29.9648 8.25438 29.5774 9.39186 28.9964L11.1247 28.2041L20.9888 29.0228L26.5073 29.2341C25.8497 30.1496 24.8455 31.0388 23.4948 31.9015C22.8372 32.3417 22.2329 32.685 21.6819 32.9315C20.3312 31.7519 18.154 30.8451 15.1503 30.2113C12.0934 29.5598 9.66734 29.5422 7.87226 30.1585Z" fill="#CE7486"/>
<path d="M27.2271 13.1504C26.3562 14.9991 25.7964 16.9006 25.5476 18.855C25.2632 20.9854 25.3876 22.9573 25.9208 24.7708C24.9255 24.718 24.3834 24.5947 24.2946 24.4011C23.8325 23.2038 23.8858 21.3551 24.4545 18.855C25.0588 16.1787 25.983 14.2772 27.2271 13.1504Z" fill="white"/>
<path d="M29.4932 12.2525C31.1105 12.3933 31.9459 14.242 31.9992 17.7986C32.0525 20.7213 31.8215 22.7901 31.306 24.0049C31.1639 24.3394 30.4707 24.5771 29.2266 24.718C28.1602 24.8236 27.0583 24.8412 25.9208 24.7708C25.3876 22.9573 25.2632 20.9854 25.5476 18.855C25.7964 16.9006 26.3562 14.9991 27.2271 13.1504C27.938 12.4813 28.6934 12.182 29.4932 12.2525Z" fill="#0D131A"/>
<path d="M6.40599 16.5573C6.74367 15.1135 7.17023 13.705 7.68565 12.3317C8.71648 9.56744 9.68512 8.37019 10.5915 8.73993C11.4269 9.09206 11.3824 11.0992 10.4582 14.7614C9.51627 18.4236 8.68094 20.1403 7.95224 19.9114C7.43682 19.7353 7.02804 19.1279 6.7259 18.0891L6.40599 16.5573Z" fill="#0D131A"/>
<path d="M4.37986 24.137C4.57536 24.5771 5.3396 25.1846 6.67258 25.9593C5.97943 26.5931 5.49067 26.866 5.20631 26.778C4.93971 26.6899 4.66423 25.8096 4.37986 24.137Z" fill="white"/>
<path d="M7.81894 30.2641L8.45877 30.1056L9.20524 30.1849C9.31188 30.3609 9.21413 30.8891 8.91199 31.7695L7.81894 30.2641Z" fill="white"/>
<path d="M17.0965 34.833L17.2831 33.9879C17.4431 33.4245 17.6208 33.1252 17.8163 33.09C18.1362 33.0548 18.5006 33.3893 18.9093 34.0935L17.0965 34.833Z" fill="white"/>
<path d="M17.7097 28.8379L20.9621 29.0756C20.0024 30.2201 19.3359 30.7923 18.9627 30.7923C18.5716 30.7923 18.154 30.1408 17.7097 28.8379Z" fill="white"/>
<path d="M9.95171 94.863C10.165 94.5637 10.5471 94.2556 11.0981 93.9386L11.8445 93.5425C12.4311 93.6481 12.902 94.0883 13.2575 94.863L13.6041 96.025C13.0353 96.5532 11.9778 96.9406 10.4316 97.1871L8.03222 97.2663C7.92558 97.1607 8.02333 96.9406 8.32548 96.6061L8.77869 96.1043L5.95277 96.5004L4.37986 96.342C4.27322 96.2363 4.40652 95.981 4.77975 95.5761L5.36626 95.0214L3.26016 95.2063C1.82054 95.2591 1.06518 95.1271 0.994091 94.8102C0.905226 94.5109 1.50062 93.8858 2.78028 92.9351C4.09549 91.9667 4.95748 91.6234 5.36626 91.9051C5.81059 92.1868 6.15716 92.8294 6.40599 93.833L6.9925 93.252C7.4546 92.8646 7.90781 92.6886 8.35214 92.7238C8.79646 92.759 9.19636 93.1287 9.55182 93.833L9.95171 94.863Z" fill="white"/>
<path d="M79.3466 45.6611L79.6399 46.7704C79.6932 47.2986 79.631 47.7651 79.4532 48.1701C79.3288 48.487 79.3111 48.8391 79.3999 49.2265C79.4888 49.649 79.6843 50.0364 79.9864 50.3885L80.1997 49.517L81.9326 51.2336L81.9059 52.6862L82.4125 53.5841C82.608 53.9187 82.7235 54.4909 82.759 55.3008L84.2253 56.1987L83.2122 57.889C83.0167 58.2059 82.9101 58.7165 82.8923 59.4208C82.8746 59.7729 82.8835 60.0898 82.919 60.3715L85.2917 58.9454L85.345 59.4736V60.2923C85.1495 61.3487 85.1851 62.0265 85.4517 62.3259C86.0559 63.0301 86.4203 63.5935 86.5447 64.0161C86.7047 64.5619 86.6069 65.1957 86.2514 65.9176C85.8782 66.6747 85.6827 67.467 85.6649 68.2945C85.6649 69.0164 85.7805 69.4918 86.0115 69.7207L84.8118 69.6414C84.3497 69.4302 83.8787 68.9988 83.3989 68.3473C82.9723 67.7311 82.2081 67.2821 81.1061 67.0004L79.0267 66.6307C78.5824 66.5427 78.0936 66.1201 77.5604 65.363C76.9739 64.5355 76.7429 63.7696 76.8673 63.0653C76.9561 62.5195 77.2316 61.7888 77.6937 60.8733C78.0847 60.0458 78.2802 59.5176 78.2802 59.2887C78.2625 59.0598 78.0669 58.602 77.6937 57.9154C77.3205 57.2639 77.1339 56.8062 77.1339 56.5421C77.1339 56.2956 77.3205 55.7234 77.6937 54.8254C78.0669 53.9627 78.2358 53.4345 78.2002 53.2408L77.8537 52.2372C77.6582 51.7442 77.5604 51.3569 77.5604 51.0752C77.5604 50.7935 77.7026 50.4061 77.987 49.9131L78.4402 48.9888C78.4757 48.5134 78.3957 47.8884 78.2002 47.1137C77.9159 45.9164 78.2269 44.8864 79.1333 44.0237L79.16 44.6576C79.1778 45.1329 79.24 45.4675 79.3466 45.6611Z" fill="#EFE908"/>
<path d="M87.6377 46.6383C88.1709 47.0433 88.4553 47.5627 88.4908 48.1965C88.5442 49.2705 88.4464 50.459 88.1976 51.7618L89.104 50.996C89.7616 50.503 90.1704 50.3093 90.3304 50.4149C90.597 50.6086 90.4814 52.202 89.9838 55.1951L90.4637 54.8254C90.8013 54.5965 91.0057 54.5349 91.0768 54.6405C91.1835 54.799 91.1213 56.1635 90.8902 58.7341L93.0496 55.2216L93.023 56.278C93.0052 57.035 93.0141 57.4928 93.0496 57.6513L93.103 58.7869L92.863 60.1866C92.4542 61.3135 92.312 62.0265 92.4365 62.3259C92.5076 62.5195 92.4898 62.7836 92.3831 63.1182C92.2587 63.5055 92.0632 63.8136 91.7966 64.0425L90.597 65.0461C90.0815 65.5215 89.7883 65.9088 89.7172 66.2081L89.2906 67.0797L88.2243 67.9248L85.9848 69.6943C85.7716 69.4478 85.6649 68.9724 85.6649 68.2681C85.6827 67.4406 85.8782 66.6571 86.2514 65.9176C86.6069 65.1957 86.7047 64.5619 86.5447 64.0161C86.4203 63.5935 86.0559 63.0301 85.4517 62.3259C85.1851 62.0265 85.1495 61.3487 85.345 60.2923V59.4736L85.2917 58.9454L82.919 60.3715C82.8835 60.0898 82.8746 59.7729 82.8923 59.4208C82.9101 58.7165 83.0167 58.2059 83.2122 57.889L84.2253 56.1987L82.759 55.3008C82.7235 54.4909 82.608 53.9187 82.4125 53.5841L81.9059 52.6862L81.9326 51.2336L80.2264 49.5434C80.9373 48.4342 81.3105 47.7035 81.3461 47.3514L81.2661 45.7932C81.2306 44.9481 81.3905 44.2702 81.746 43.7596C82.0837 43.2666 82.7235 42.5448 83.6655 41.594L85.1317 40.0886C85.3095 39.8245 85.4961 39.2787 85.6916 38.4512C85.9049 37.518 85.9848 36.7874 85.9315 36.2592L86.598 37.7117C87.0423 38.8385 87.2112 39.8069 87.1045 40.6168L86.4381 43.5483C86.1715 44.6223 86.1537 45.3178 86.3847 45.6347L87.6377 46.6383Z" fill="#E50020"/>
<path d="M6.11273 93.0671L6.35267 93.9122L5.23296 95.0215L2.88692 95.1535L1.18071 95.0215C1.41176 94.7398 2.30041 94.326 3.84667 93.7802C4.62868 93.5161 5.38404 93.2784 6.11273 93.0671Z" fill="#DBDCDC"/>
<path d="M4.61979 96.6061C6.5926 95.1975 8.22772 94.326 9.52516 93.9915L9.76509 94.863L8.80535 96.1307L4.61979 96.6061Z" fill="#DBDCDC"/>
<path d="M8.21884 97.4776C8.78758 97.0902 9.41852 96.6853 10.1117 96.2627C11.4802 95.4176 12.4488 94.9158 13.0176 94.7574L13.3375 95.3384C13.5152 95.7785 13.5152 96.1043 13.3375 96.3156C13.0531 96.6853 12.1911 96.9758 10.7515 97.1871L8.21884 97.4776Z" fill="#DBDCDC"/>
<path d="M80.0931 49.5698L80.3863 49.1208C80.5996 49.5786 81.1328 50.1684 81.9859 50.8903C82.1992 51.0664 82.2792 51.4273 82.2258 51.9731C82.1725 52.5189 82.2081 52.8447 82.3325 52.9503C82.6169 53.1968 82.7946 53.4697 82.8657 53.769L82.919 54.7198C82.919 55.1423 83.2567 55.4593 83.9321 55.6705C84.8029 55.9346 84.8385 56.5245 84.0387 57.44C83.7188 57.7745 83.4877 58.1971 83.3456 58.7077C83.2389 59.1302 83.2122 59.5 83.2656 59.8169L84.7852 58.919C85.2295 58.5668 85.4783 58.3996 85.5316 58.4172C85.6205 58.4348 85.6827 58.7253 85.7183 59.2887L85.5583 60.9261C85.4872 61.5424 85.6027 62.0001 85.9049 62.2994C86.4914 62.8805 86.838 63.4439 86.9446 63.9897C87.1046 64.6763 86.9179 65.4774 86.3847 66.393C86.2248 66.6923 86.1181 67.0797 86.0648 67.555C85.9937 68.1537 86.0204 68.7611 86.1448 69.3773C86.1804 69.6062 86.0915 69.7735 85.8782 69.8791C85.6472 69.9848 85.5316 69.9672 85.5316 69.8263L85.265 68.2681C85.1939 67.6695 85.345 66.9652 85.7183 66.1553C86.0382 65.451 86.1804 64.87 86.1448 64.4122C86.0915 63.8664 85.8249 63.3558 85.345 62.8805C84.9007 62.4403 84.7318 61.9473 84.8385 61.4015C84.9984 60.5916 85.0251 59.993 84.9185 59.6056L83.7721 60.3451C83.2389 60.662 82.9012 60.7765 82.759 60.6884C82.6524 60.6004 82.5991 60.2307 82.5991 59.5792C82.5635 58.47 82.839 57.5809 83.4255 56.9118C83.621 56.7005 83.6832 56.5245 83.6122 56.3836C83.5411 56.2427 83.2745 56.0403 82.8124 55.7762C82.5991 55.6529 82.4658 55.5121 82.4125 55.3536L82.3591 54.7462C82.3591 54.2356 82.1459 53.7514 81.7193 53.2936C81.5238 53.1 81.4527 52.7654 81.506 52.2901L81.4527 51.2601L80.7862 50.4678L80.0931 49.5698Z" fill="#EFE908"/>
<path d="M29.8131 12.9655C30.2219 13.036 30.5329 13.4145 30.7462 14.1012C30.9417 14.8054 30.9772 15.6505 30.8528 16.6365C30.6929 17.8162 30.3641 18.7141 29.8664 19.3303C29.4576 19.8233 29.0666 20.0346 28.6934 19.9642C28.2668 19.8585 27.9469 19.392 27.7337 18.5645C27.5559 17.7898 27.5293 16.971 27.6537 16.1083C27.8314 15.0519 28.1424 14.2332 28.5868 13.6522C28.9778 13.124 29.3865 12.8951 29.8131 12.9655Z" fill="white"/>
<path d="M10.4849 9.24172C10.6271 9.25932 10.716 9.62026 10.7515 10.3245C10.7693 11.0112 10.716 11.6626 10.5915 12.2789C10.3605 13.3353 10.085 14.1364 9.76509 14.6822C9.48073 15.1576 9.21413 15.3688 8.96531 15.316C8.75203 15.2632 8.61873 14.9903 8.56541 14.4973C8.49432 13.8811 8.60096 13.0536 8.88533 12.0148C9.13415 11.1168 9.41852 10.4126 9.73843 9.90197C10.0228 9.44419 10.2716 9.22411 10.4849 9.24172Z" fill="white"/>
<path d="M25.3876 19.4888C25.7786 18.8198 26.2052 18.4588 26.6673 18.406C26.5073 19.6737 26.5429 20.7037 26.7739 21.496C27.0227 22.2883 27.4582 22.7284 28.0802 22.8165C28.5601 22.8869 29.0489 22.6756 29.5465 22.1826C30.133 21.6192 30.5507 20.7917 30.7995 19.7001C31.3149 20.3515 31.5904 21.2055 31.626 22.2619L31.0394 24.137C30.2752 24.5595 29.2177 24.7972 27.867 24.85L26.0541 24.7708C25.6276 23.8905 25.3876 22.746 25.3343 21.3375L25.3876 19.4888Z" fill="#007F78"/>
<path d="M9.76509 15.2368C9.9606 15.5889 10.0583 15.9411 10.0583 16.2932L9.47184 18.0627C8.99197 19.2247 8.52098 19.8145 8.05888 19.8321C7.57901 19.8497 7.17911 19.4272 6.8592 18.5645L6.40599 16.8214C6.35267 16.5749 6.41487 16.0731 6.5926 15.316L6.8592 14.2596L7.17911 13.9427L7.87226 13.5465C7.55235 14.5325 7.42794 15.4041 7.49903 16.1611C7.57012 16.8302 7.77451 17.2175 8.1122 17.3232C8.39657 17.4288 8.69871 17.2968 9.01863 16.927C9.37409 16.5221 9.62291 15.9587 9.76509 15.2368Z" fill="#007F78"/>
<path d="M24.7211 0.57923C30.995 1.19546 35.2694 4.81364 37.5444 11.4337C38.4864 14.198 38.9218 17.1647 38.8507 20.3339C38.7974 23.4151 38.282 26.2234 37.3044 28.7587C36.5047 30.8363 36.0159 32.1568 35.8382 32.7202C35.3228 34.252 35.0295 35.5109 34.9584 36.4969C34.834 38.3984 34.6207 39.3315 34.3186 39.2963C34.0342 39.2611 33.972 38.3015 34.132 36.4176C34.2919 34.1992 35.0117 31.567 36.2914 28.521C37.2334 26.2674 37.7399 23.6704 37.811 20.7301C37.8821 17.7193 37.4733 14.867 36.5846 12.1732C34.4519 5.64115 30.4707 2.0846 24.6411 1.50358C22.0463 1.25709 19.3981 1.62683 16.6966 2.6128C13.9773 3.61638 11.8268 5.00731 10.245 6.78558C9.83619 7.24336 9.56959 7.66592 9.44518 8.05327C9.303 8.49343 9.32965 8.96881 9.52516 9.47941C9.5607 9.58505 9.47184 9.68188 9.25856 9.76992L8.88533 9.74351C8.42323 8.44061 8.68094 7.25216 9.65846 6.17815C11.3647 4.27663 13.613 2.80647 16.4033 1.76768C19.2115 0.71128 21.9841 0.31513 24.7211 0.57923Z" fill="#0D131A"/>
<path d="M30.7728 23.7672C31.5371 21.8305 31.7859 19.5592 31.5193 16.9534C31.2527 14.2596 30.5685 12.8511 29.4665 12.7278C28.258 12.587 27.0849 13.6434 25.9475 15.897C24.7211 18.3444 24.2768 21.0734 24.6145 24.0841C24.81 24.4011 25.8231 24.5155 27.6537 24.4275C29.5021 24.3394 30.5418 24.1194 30.7728 23.7672ZM23.8947 24.2954C23.4148 21.496 23.788 18.7053 25.0144 15.9235C26.2763 13.0888 27.787 11.7595 29.5465 11.9355C31.4127 12.1116 32.3458 14.0219 32.3458 17.6665C32.3458 20.7653 31.9903 22.9397 31.2794 24.1898C30.9772 24.7356 29.6976 25.0437 27.4404 25.1141C25.1832 25.1846 24.0013 24.9117 23.8947 24.2954Z" fill="#0D131A"/>
<path d="M10.3249 9.08326C9.79175 9.08326 9.06306 10.078 8.13886 12.0676C7.21466 14.0747 6.75256 15.6594 6.75256 16.8214V16.8478C6.75256 17.4816 6.9214 18.0979 7.25909 18.6965C7.56123 19.2599 7.81006 19.5152 8.00556 19.4624C8.73426 19.2687 9.47184 17.4904 10.2183 14.1276C10.9648 10.7647 11.0003 9.08326 10.3249 9.08326ZM7.65899 11.5658C8.72537 9.27693 9.64957 8.18532 10.4316 8.29096C11.6046 8.43181 11.7734 10.4126 10.9381 14.2332C10.1206 18.0363 9.16081 20.0346 8.05888 20.2283C7.66787 20.2987 7.25021 19.9114 6.80588 19.0662C6.37933 18.2563 6.15716 17.4992 6.13939 16.795C6.12162 15.4921 6.62815 13.749 7.65899 11.5658Z" fill="#0D131A"/>
<path d="M7.89892 23.688C7.73897 23.283 7.75674 23.0101 7.95224 22.8693C8.14775 22.746 8.33436 22.8957 8.51209 23.3183L8.64539 24.1106C8.66316 24.4275 8.62762 24.6123 8.53875 24.6652C8.39657 24.7532 8.18329 24.4275 7.89892 23.688Z" fill="#0D131A"/>
<path d="M14.8571 25.0877C15.3014 24.8941 15.5502 24.9293 15.6035 25.1934C15.6569 25.4399 15.4614 25.6776 15.017 25.9064C14.395 26.2058 14.0395 26.3114 13.9507 26.2234C13.8973 26.1529 13.9684 25.9769 14.1639 25.6952C14.3772 25.4135 14.6083 25.211 14.8571 25.0877Z" fill="#0D131A"/>
<path d="M6.35267 16.0291C6.44153 15.9587 6.51262 16.0555 6.56594 16.3196C6.61926 16.5837 6.60149 16.751 6.51262 16.8214C4.43318 18.7053 3.28682 20.4836 3.07354 22.1562C2.78917 24.2514 3.8911 27.2445 6.37933 31.1356C8.84978 35.0091 11.0448 37.2187 12.9642 37.7645C13.8174 37.9934 15.1059 37.9934 16.8299 37.7645C18.5361 37.518 20.2956 37.0955 22.1085 36.4969C23.3348 36.0919 23.9747 36.0039 24.028 36.2328C24.0991 36.444 23.5126 36.7786 22.2684 37.2363C20.42 37.923 18.5272 38.3896 16.5899 38.6361C14.866 38.8297 13.5863 38.8121 12.751 38.5832C10.7248 38.0198 8.39657 35.7398 5.76616 31.7431C3.04688 27.6407 1.83831 24.3659 2.14045 21.9185C2.28264 20.9502 2.73585 19.9378 3.50009 18.8814C4.24656 17.8074 5.19742 16.8566 6.35267 16.0291Z" fill="#0D131A"/>
<path d="M27.547 11.0904C26.9605 11.5306 26.5429 11.8827 26.294 12.1468C25.9919 12.4813 25.7253 12.8951 25.4943 13.3881C25.2454 13.9691 24.9966 14.2332 24.7478 14.1804C24.499 14.11 24.4901 13.7666 24.7211 13.1504C25.1299 12.1116 25.8764 11.3017 26.9605 10.7207C27.4937 10.4566 27.8225 10.3773 27.9469 10.483C28.0536 10.6062 27.9203 10.8087 27.547 11.0904Z" fill="#0D131A"/>
<path d="M11.3647 7.73635C11.2047 7.36661 11.1869 7.14652 11.3113 7.07609C11.4358 7.00567 11.6135 7.12892 11.8445 7.44584C12.4488 8.20292 12.6976 9.21531 12.591 10.483C12.5377 11.0816 12.3777 11.3633 12.1111 11.3281C11.8445 11.3105 11.7379 11.0112 11.7912 10.4302C11.8623 9.42659 11.7201 8.52865 11.3647 7.73635Z" fill="#0D131A"/>
<path d="M3.26016 22.0242C3.38457 21.3551 3.50898 21.0206 3.63339 21.0206C3.77557 21.0382 3.83778 21.3903 3.82001 22.077C3.82001 22.6404 3.97996 23.107 4.29988 23.4767C4.86862 24.1106 5.8017 24.9117 7.09914 25.88C8.3788 26.8308 9.28522 27.403 9.81841 27.5967C10.6715 27.896 13.2664 28.2129 17.603 28.5474L25.6809 28.9172C26.143 28.8996 26.5073 28.8203 26.7739 28.6795L27.627 27.94C28.0358 27.5175 28.2846 27.3678 28.3735 27.491C28.4801 27.5967 28.3824 27.896 28.0802 28.389C27.8314 28.7939 27.5381 29.0932 27.2005 29.2869C26.845 29.4806 26.3918 29.5862 25.8408 29.6038L17.9229 29.2341C13.373 28.9172 10.5827 28.5739 9.55182 28.2041C8.96531 28.0104 7.95224 27.3766 6.51263 26.3026C5.07301 25.2286 4.13104 24.4099 3.68671 23.8465C3.52675 23.6352 3.40234 23.3535 3.31347 23.0013C3.22461 22.6316 3.20684 22.3059 3.26016 22.0242Z" fill="#0D131A"/>
<path d="M5.92611 26.4082L6.35267 26.4346C7.04582 28.3362 8.09443 30.1849 9.4985 31.9807C10.7959 33.6358 11.8357 34.5689 12.6177 34.7802C14.2172 35.2028 16.4566 34.8418 19.3359 33.6974C22.3218 32.5001 24.6323 30.9596 26.2674 29.0756L26.7739 29.0492C27.0227 29.1021 27.1116 29.1637 27.0405 29.2341C25.4054 31.2941 22.9705 33.0019 19.7358 34.3576C16.6077 35.6605 14.1639 36.0743 12.4044 35.5989C11.4802 35.3524 10.3161 34.3312 8.91199 32.5354C7.43682 30.669 6.32601 28.7235 5.57954 26.6987C5.56177 26.5931 5.67729 26.4963 5.92611 26.4082Z" fill="#0D131A"/>
<path d="M4.13992 24.269C4.13992 24.1634 4.26433 24.1106 4.51316 24.1106C4.74421 24.1106 4.85973 24.1634 4.85973 24.269C4.85973 24.4803 4.92194 24.8853 5.04635 25.4839C5.17076 26.1353 5.2774 26.4699 5.36626 26.4875C5.4729 26.5051 5.64175 26.4258 5.87279 26.2498L6.32601 25.7744L6.83254 26.2762L5.95277 26.8836L5.20631 27.1213C5.0108 27.0509 4.77975 26.6459 4.51316 25.9064C4.26433 25.2022 4.13992 24.6564 4.13992 24.269Z" fill="#0D131A"/>
<path d="M20.9355 28.9964C21.131 29.1197 21.2021 29.2253 21.1487 29.3133L20.0557 30.449C19.5225 30.8539 19.1315 31.0564 18.8827 31.0564C18.6694 31.0564 18.385 30.8099 18.0296 30.3169C17.6563 29.8239 17.4164 29.3838 17.3098 28.9964C17.292 28.8908 17.3986 28.8115 17.6297 28.7587C17.8785 28.7059 18.0118 28.7323 18.0296 28.8379L18.4561 29.8679C18.6694 30.2553 18.8205 30.449 18.9093 30.449C19.0515 30.4666 19.327 30.2905 19.7358 29.9208L20.5622 28.9436L20.9355 28.9964Z" fill="#0D131A"/>
<path d="M7.76563 30.3169C7.67676 30.1585 7.68565 30.0616 7.79228 30.0264L8.61873 29.8679C9.02751 29.8503 9.28522 29.8944 9.39186 30C9.4985 30.1056 9.50739 30.4049 9.41852 30.8979C9.34743 31.3733 9.24967 31.7078 9.12526 31.9015C9.0364 32.0248 8.86755 31.9279 8.61873 31.611L8.96531 30.7659L9.01863 30.3169C8.92976 30.2289 8.60985 30.2905 8.05888 30.5018C7.95224 30.537 7.85449 30.4754 7.76563 30.3169Z" fill="#0D131A"/>
<path d="M17.7097 32.8259C17.8518 32.7906 18.0651 32.9051 18.3495 33.1692L19.1493 34.0407C19.2204 34.1288 19.1759 34.2256 19.016 34.3312C18.8738 34.4193 18.7671 34.4193 18.6961 34.3312C18.2695 33.6622 17.9762 33.3453 17.8163 33.3805C17.7274 33.3981 17.6386 33.583 17.5497 33.9351L17.4431 34.7802C17.4431 34.8858 17.3453 34.9387 17.1498 34.9387C16.9543 34.9387 16.8565 34.877 16.8565 34.7538C16.8565 34.4721 16.9454 34.1023 17.1231 33.6446C17.3364 33.134 17.5319 32.8611 17.7097 32.8259Z" fill="#0D131A"/>
<path d="M13.5774 38.2663C13.6663 38.2135 13.7729 38.328 13.8973 38.6097L13.9773 39.085C11.8268 40.6168 10.0495 42.2719 8.64539 44.0501C7.29464 45.758 5.57954 48.4782 3.50009 52.2108C2.54035 53.2672 1.90052 54.2532 1.5806 55.1687C1.31401 55.8906 1.30512 56.3396 1.55394 56.5157C1.89163 56.7798 2.7714 56.6829 4.19324 56.2251L4.56647 56.1987L4.61979 56.7005C4.61979 57.9506 4.80641 58.6285 5.17965 58.7341C5.44624 58.8045 5.91723 58.514 6.5926 57.8626C7.28575 57.2287 7.89004 56.5157 8.40546 55.7234C8.51209 55.7938 8.58319 55.917 8.61873 56.0931L8.56541 56.5685C8.26327 57.1671 7.72119 57.8274 6.93918 58.5492C6.05053 59.3591 5.40181 59.6937 4.99303 59.5528C4.28211 59.3591 3.93553 58.4964 3.9533 56.9646C3.24238 57.2463 2.56701 57.396 1.92718 57.4136C1.32289 57.4312 0.922999 57.3344 0.727495 57.1231C0.443126 56.8238 0.425353 56.2516 0.674176 55.4064C0.994091 54.3148 1.73167 53.1088 2.88692 51.7883C4.85973 48.038 6.69924 45.1329 8.40546 43.073C9.8273 41.3299 11.5513 39.7277 13.5774 38.2663Z" fill="#0D131A"/>
<path d="M3.71337 53.4785C3.14463 54.306 2.94913 54.8166 3.12686 55.0103C3.30459 55.1687 3.86444 55.0895 4.80641 54.7726C5.3396 54.5437 5.64175 54.5085 5.71284 54.667C5.76616 54.843 5.53511 55.0455 5.01969 55.2744C3.74003 55.8554 2.86026 56.0139 2.38039 55.7498C1.82942 55.4328 2.11379 54.5525 3.2335 53.1088C3.60673 52.6334 3.86444 52.4485 4.00662 52.5541C4.16658 52.6422 4.06883 52.9503 3.71337 53.4785Z" fill="#0D131A"/>
<path d="M13.6841 38.3191L14.1106 38.372C14.3417 38.5128 14.4305 38.6273 14.3772 38.7153C9.59625 49.4906 7.70342 58.9806 8.69871 67.1853C9.99614 78.0486 16.5633 84.211 28.4001 85.6723C28.5068 85.6899 28.5956 85.8308 28.6667 86.0949C28.7556 86.3766 28.7378 86.5086 28.6134 86.491C15.9946 85.0825 9.00974 78.7617 7.65899 67.5286C6.6637 59.1479 8.67205 49.4114 13.6841 38.3191Z" fill="#0D131A"/>
<path d="M11.418 43.9709C12.0934 42.5271 12.9198 41.3915 13.8973 40.564C14.8571 39.7541 15.8346 39.3491 16.8299 39.3491C18.1629 39.3491 19.6647 40.5376 21.3354 42.9145C22.9172 45.1505 24.4012 48.0644 25.7875 51.6562C29.0044 60.0194 30.1774 67.1501 29.3066 73.0483L28.8534 73.7878L28.4535 74.184C29.3599 67.7575 28.1513 60.3539 24.8278 51.9731C23.4948 48.5926 22.0729 45.7932 20.5622 43.5747C19.0337 41.3387 17.7896 40.2207 16.8299 40.2207C16.1367 40.2207 15.3281 40.5904 14.4039 41.3299C13.2842 42.2278 12.3688 43.4427 11.6579 44.9745C11.6046 45.0801 11.5424 44.9657 11.4713 44.6311C11.3824 44.279 11.3647 44.0589 11.418 43.9709Z" fill="#0D131A"/>
<path d="M34.3452 36.2063C34.3275 36.0831 34.443 35.6517 34.6918 34.9123C34.9584 34.1904 35.1006 33.8823 35.1184 33.9879C36.2025 41.6644 37.2334 47.3778 38.2109 51.128C39.5083 56.2163 41.2767 60.5476 43.5161 64.1217C47.1596 69.9319 48.5192 75.3372 47.595 80.3375C47.3995 81.3587 46.8486 83.2954 45.9421 86.1477C45.1957 88.4542 44.7958 90.3557 44.7425 91.8522C44.6891 93.2608 44.5203 93.9298 44.2359 93.8594C43.9693 93.789 43.8716 93.0319 43.9427 91.5882C44.0493 89.9331 44.4492 87.9348 45.1424 85.5931C45.9599 82.8817 46.4487 81.0153 46.6086 79.9942C47.3196 75.3988 45.8888 70.1256 42.3164 64.1746C40.0948 60.4772 38.4241 56.3396 37.3044 51.7618C37.0378 50.7054 36.0514 45.5203 34.3452 36.2063Z" fill="#0D131A"/>
<path d="M32.2658 91.1392C32.5857 91.2976 32.7634 91.4297 32.799 91.5353C33.2789 92.7502 33.501 94.5285 33.4655 96.8702C33.4477 99.0534 33.5632 100.33 33.812 100.7C34.2386 101.333 35.0739 101.835 36.318 102.205C37.5622 102.575 38.8685 102.716 40.237 102.628C43.7383 102.416 45.7822 100.999 46.3687 98.3755C46.5109 97.7241 46.1821 96.4652 45.3823 94.5989C44.5292 92.5917 44.0938 91.4913 44.076 91.2977C44.0582 91.192 44.1382 90.9807 44.3159 90.6638C44.4759 90.3469 44.5647 90.2501 44.5825 90.3733C44.6358 90.9895 45.1424 92.3188 46.1021 94.3612C46.9552 96.2099 47.3196 97.5832 47.1952 98.4812C46.7864 101.369 44.5736 102.971 40.5569 103.288C38.9573 103.411 37.4289 103.27 35.9715 102.865C34.5141 102.46 33.5277 101.897 33.0123 101.175C32.6035 100.576 32.4702 99.0622 32.6124 96.6325C32.7545 94.1147 32.5057 92.2572 31.8659 91.06L32.2658 91.1392Z" fill="#0D131A"/>
<path d="M29.0933 72.1768C29.7509 70.9971 30.1774 70.4689 30.373 70.5922C30.5507 70.733 30.3374 71.4197 29.7331 72.6522C28.0625 76.0855 27.4937 79.4131 28.0269 82.6352C28.5601 85.8748 30.1952 88.7711 32.9323 91.324C33.9098 92.2396 34.3186 92.7942 34.1586 92.9879C34.0164 93.1816 33.4477 92.8382 32.4524 91.9579C29.431 89.3169 27.6004 86.359 26.9605 83.0841C26.2851 79.598 26.9961 75.9622 29.0933 72.1768Z" fill="#0D131A"/>
<path d="M10.0317 74.3952C10.1206 74.3424 10.2539 74.4569 10.4316 74.7386C10.5915 75.0027 10.6271 75.1699 10.5382 75.2403C9.24079 76.1559 8.05888 77.538 6.9925 79.3867C5.85502 81.3235 5.3396 83.0049 5.44624 84.431C5.53511 85.5403 6.03275 86.6495 6.93918 87.7587C7.81006 88.8503 8.88533 89.6954 10.165 90.2941C11.2669 90.8223 11.7646 91.1744 11.6579 91.3505C11.5691 91.5441 10.9203 91.3945 9.71177 90.9015C8.27216 90.3029 7.06359 89.4049 6.08607 88.2077C5.09078 87.0104 4.5487 85.7691 4.45984 84.4839C4.31765 82.6704 4.91305 80.6984 6.24603 78.568C7.36573 76.7721 8.62762 75.3812 10.0317 74.3952Z" fill="#0D131A"/>
<path d="M21.5753 88.6302C21.5042 88.5422 21.5842 88.419 21.8152 88.2605C22.0285 88.102 22.1707 88.0668 22.2418 88.1549C22.8461 89 23.2726 89.8363 23.5214 90.6638C23.7703 91.5265 23.788 92.2308 23.5748 92.7766C23.3615 93.3752 22.2151 94.0795 20.1357 94.8894C17.914 95.7697 15.7013 96.3156 13.4974 96.5268C13.373 96.5444 13.3019 96.4212 13.2842 96.1571C13.2486 95.893 13.293 95.7521 13.4175 95.7345C15.568 95.5233 17.6208 95.0215 19.5758 94.2292C21.3354 93.5073 22.3751 92.847 22.695 92.2484C22.8549 91.9315 22.8372 91.4385 22.6417 90.7695C22.4284 90.0476 22.0729 89.3345 21.5753 88.6302Z" fill="#0D131A"/>
<path d="M8.08554 89.449C8.19218 89.4137 8.33436 89.5194 8.51209 89.7659C8.68982 90.0124 8.72537 90.1444 8.61873 90.162C8.13886 90.3381 7.53458 90.6198 6.80588 91.0071C6.07719 91.4121 5.51733 91.7642 5.12633 92.0635L4.61979 91.9843C4.37097 91.8611 4.29099 91.7642 4.37986 91.6938C4.84196 91.3241 5.42847 90.9103 6.13939 90.4525C6.93918 89.9595 7.58789 89.625 8.08554 89.449Z" fill="#0D131A"/>
<path d="M21.6553 89.6866C21.282 90.5318 21.0066 90.9191 20.8288 90.8487C20.6511 90.7782 20.6866 90.3029 20.9355 89.4225C21.2198 88.4718 21.7353 87.5738 22.4817 86.7287C23.1926 85.866 23.8591 85.3642 24.4812 85.2233C24.5878 85.2057 24.7833 85.2938 25.0677 85.4874C25.3521 85.6811 25.4409 85.7868 25.3343 85.8044C24.8722 85.91 24.259 86.3414 23.4948 87.0984C22.6594 87.9436 22.0463 88.8063 21.6553 89.6866Z" fill="#0D131A"/>
<path d="M6.21937 92.2748C6.48597 92.715 6.6637 93.2168 6.75256 93.7802C6.77033 93.8858 6.6637 93.9563 6.43265 93.9915C6.2016 94.0091 6.0683 93.9651 6.03275 93.8594L5.63286 92.803C5.40181 92.4509 5.21519 92.2748 5.07301 92.2748C4.53982 92.2572 3.82001 92.5917 2.91358 93.2784C2.02493 93.9298 1.61615 94.37 1.68724 94.5989C1.75833 94.775 2.21155 94.8542 3.04688 94.8366L5.28628 94.5989C5.39292 94.5813 5.4729 94.6869 5.52622 94.9158C5.57954 95.1447 5.55288 95.268 5.44624 95.2856L1.87386 95.4704C1.07407 95.3824 0.656403 95.2327 0.620857 95.0215C0.549765 94.5637 1.13628 93.8506 2.38039 92.8822C3.60673 91.9139 4.53093 91.4385 5.15299 91.4561C5.54399 91.4737 5.89945 91.7466 6.21937 92.2748Z" fill="#0D131A"/>
<path d="M9.44518 94.9686C9.42741 94.5109 9.31188 94.0883 9.0986 93.701C8.84978 93.296 8.59207 93.1111 8.32548 93.1464C7.8456 93.2168 7.13468 93.6922 6.19271 94.5725C5.26851 95.4176 4.84196 95.937 4.91305 96.1307C4.96637 96.2891 5.49956 96.2891 6.51263 96.1307L8.88533 95.6289C8.99197 95.5937 9.04529 95.6905 9.04529 95.9194C9.04529 96.1659 8.99197 96.2979 8.88533 96.3156C8.01445 96.5973 7.01916 96.7821 5.89945 96.8702C4.74421 96.9582 4.10438 96.879 3.97996 96.6325C3.80223 96.2627 4.27322 95.4968 5.39292 94.3348C6.51262 93.1376 7.4546 92.4861 8.21884 92.3805C8.69871 92.31 9.12526 92.5389 9.4985 93.0671C9.88951 93.5953 10.0939 94.2292 10.1117 94.9686C10.1117 95.0743 10.005 95.1271 9.79175 95.1271C9.5607 95.1271 9.44518 95.0743 9.44518 94.9686Z" fill="#0D131A"/>
<path d="M7.60567 97.6361C7.41016 97.3191 7.87226 96.5268 8.99197 95.2592C10.1294 93.9739 11.0359 93.3048 11.7112 93.252C12.2089 93.1992 12.7243 93.5689 13.2575 94.3612C13.7907 95.1183 13.9862 95.7521 13.844 96.2627C13.7196 96.7381 12.671 97.1431 10.6982 97.4776L7.60567 97.6361ZM8.51209 97.0815L10.6982 96.8438C12.12 96.5444 12.8754 96.2627 12.9642 95.9986C13.0709 95.6993 12.982 95.2944 12.6976 94.7838C12.4133 94.2732 12.1111 94.0267 11.7912 94.0443C11.3469 94.0795 10.6626 94.5637 9.73843 95.4968C8.84978 96.3772 8.441 96.9054 8.51209 97.0815Z" fill="#0D131A"/>
<path d="M82.8657 68.1889C82.9012 68.0832 83.0434 68.0832 83.2922 68.1889C83.541 68.2945 83.6477 68.4002 83.6121 68.5058C81.6571 73.1011 78.9911 76.7281 75.6143 79.3867C72.5751 81.7636 69.1626 83.2074 65.377 83.718C61.8757 84.1934 58.4633 83.8236 55.1397 82.6087C51.8517 81.4115 49.1591 79.5804 47.0619 77.1155C46.9908 77.0274 47.0174 76.7809 47.1418 76.376C47.284 75.971 47.3907 75.8126 47.4617 75.9006C49.7367 78.5768 52.5271 80.5135 55.8329 81.7108C59.0853 82.9081 62.4178 83.2338 65.8302 82.688C69.3848 82.107 72.6017 80.6544 75.481 78.3303C78.6268 75.795 81.0884 72.4145 82.8657 68.1889Z" fill="#0D131A"/>
<path d="M85.2117 69.8527C85.2295 69.7471 85.3717 69.7119 85.6383 69.7471C85.9049 69.7823 86.0293 69.8527 86.0115 69.9584C85.265 76.0679 83.0789 81.1474 79.4532 85.1969C76.2896 88.7183 72.2818 91.2184 67.4298 92.6974C63.0754 94.0003 58.7121 94.3172 54.3399 93.6481C50.0922 92.9967 46.8397 91.5618 44.5825 89.3433C44.5114 89.2729 44.547 89.0616 44.6891 88.7095C44.8313 88.3573 44.938 88.2165 45.0091 88.2869C47.1241 90.3821 50.2343 91.7818 54.3399 92.4861C58.5877 93.2256 62.8177 93.0143 67.0299 91.8523C71.7575 90.5494 75.6676 88.2077 78.7601 84.8272C82.3147 80.9361 84.4653 75.9446 85.2117 69.8527Z" fill="#0D131A"/>
<path d="M84.6252 74.6065L84.5452 75.927C82.839 80.5224 80.1108 84.1934 76.3607 86.94C73.0727 89.3697 69.2515 90.9191 64.8971 91.5882C60.9337 92.2044 57.1214 92.0195 53.4602 91.0335C49.8522 90.0828 47.1507 88.5598 45.3556 86.4646C45.2845 86.3766 45.3201 86.1917 45.4623 85.91C45.6045 85.6459 45.7111 85.5579 45.7822 85.6459C47.5595 87.7059 50.2432 89.2201 53.8334 90.1884C57.4946 91.1568 61.2981 91.3241 65.2437 90.6902C69.5803 90.0035 73.3749 88.4189 76.6273 85.9364C80.3241 83.1017 82.9901 79.3251 84.6252 74.6065Z" fill="#0D131A"/>
<path d="M90.0904 51.7618V50.9431C90.0371 50.8375 89.8505 50.9079 89.5306 51.1544C88.6597 51.8763 88.162 52.1844 88.0376 52.0788C87.931 51.9907 87.931 51.4361 88.0376 50.4149C88.2509 48.2317 87.7888 46.876 86.6513 46.3478C86.1715 46.1365 85.9138 45.8108 85.8782 45.3706C85.8427 45.0361 85.9493 44.2966 86.1981 43.1522C86.4825 41.7965 86.6247 40.7753 86.6247 40.0886C86.6247 39.3667 86.4825 38.4512 86.1981 37.342C86.0559 38.3103 85.8871 39.0498 85.6916 39.5604C85.4961 40.071 85.2295 40.4672 84.8918 40.7489C83.5766 41.8757 82.6702 42.8353 82.1725 43.6276C81.746 44.3142 81.5594 45.0273 81.6127 45.7668C81.6838 46.471 81.6749 47.008 81.586 47.3778L81.1061 48.4078L80.6529 49.1208C80.5107 49.3849 80.413 49.7195 80.3597 50.1244C80.2708 50.7231 80.173 51.0312 80.0664 51.0488C79.9775 51.0664 79.7643 50.8199 79.4266 50.3093C79.0711 49.7987 79.0267 48.9976 79.2933 47.906C79.4355 47.3778 79.391 46.8056 79.16 46.1893C78.9289 45.5907 78.8756 45.1065 79 44.7368C78.7512 44.9657 78.5646 45.3794 78.4402 45.9781C78.3158 46.6295 78.3602 47.1929 78.5735 47.6683C78.769 48.0909 78.8045 48.6191 78.6801 49.2529L78.3602 50.2037C78.1292 50.6438 78.0136 51.04 78.0136 51.3921L78.2269 52.3429C78.4402 53.0119 78.4846 53.5225 78.3602 53.8746C77.8448 55.0895 77.5871 55.9346 77.5871 56.41C77.5871 56.7974 77.7737 57.2727 78.1469 57.8362C78.5202 58.382 78.689 58.8837 78.6535 59.3415L78.2002 60.7413L77.6671 61.7712C77.5071 62.1586 77.4182 62.5723 77.4005 63.0125C77.3649 63.7344 77.5693 64.4387 78.0136 65.1253C78.458 65.8648 79 66.305 79.6399 66.4458L82.1459 67.1589C82.839 67.4406 83.4344 67.8632 83.9321 68.4266C84.4652 68.99 84.9274 69.2981 85.3184 69.3509C85.7449 69.4213 86.207 69.2013 86.7047 68.6907C87.1845 68.1801 87.7088 67.7839 88.2776 67.5022C88.7041 67.3085 89.0507 66.8684 89.3173 66.1817C89.5839 65.4775 89.8505 65.0549 90.1171 64.914C90.8102 64.5267 91.3079 64.1658 91.61 63.8312C92.0366 63.3558 92.2143 62.8012 92.1432 62.1674C92.0899 61.78 92.1788 61.1814 92.4098 60.3715C92.6409 59.5616 92.7386 58.963 92.7031 58.5756V57.0967C92.7564 56.5333 92.8364 56.0843 92.943 55.7498L92.3032 56.991L91.4767 58.47C91.0679 59.2623 90.7836 59.6496 90.6236 59.632C90.4637 59.632 90.4192 59.2271 90.4903 58.4172L90.7036 56.7798L90.8369 55.1951C90.3037 55.6177 89.9571 55.7938 89.7972 55.7234C89.655 55.6529 89.6105 55.3448 89.6639 54.799L90.0904 51.7618ZM87.2378 39.0058L87.3711 40.7225C87.3534 41.1978 87.1312 42.2278 86.7047 43.8124C86.4203 44.816 86.5092 45.4234 86.9713 45.6347C87.931 46.0573 88.5175 46.7351 88.7308 47.6683C88.9441 48.4782 88.8907 49.6314 88.5708 51.128C89.7083 50.0012 90.3926 49.6667 90.6236 50.1244C90.8902 50.5998 90.7747 52.1404 90.277 54.7462C90.828 54.2884 91.1746 54.1916 91.3168 54.4557C91.5123 54.7902 91.4767 55.7586 91.2101 57.3608L92.0366 56.1987L92.5698 55.1687C92.8541 54.4469 93.0496 54.0771 93.1563 54.0595C93.2985 54.0595 93.3784 54.4733 93.3962 55.3008L93.2896 56.7798C93.254 57.4488 93.2985 57.9946 93.4229 58.4172C93.5828 58.9102 93.494 59.588 93.1563 60.4507C92.8008 61.3311 92.6853 61.9649 92.8097 62.3523C93.0408 63.1446 92.7653 63.84 91.9833 64.4387C90.8991 65.2486 90.2682 65.8472 90.0904 66.2345L89.6105 67.2909C89.344 67.7311 89.0418 68.0216 88.7041 68.1625C88.0287 68.4442 87.5133 68.7787 87.1579 69.166C86.3048 70.0288 85.6472 70.4337 85.1851 70.3809C84.7941 70.3457 84.1809 69.8703 83.3456 68.9548C82.3325 67.8279 80.9551 67.1589 79.2133 66.9476C78.5024 66.8596 77.8714 66.4194 77.3205 65.6271C76.8051 64.8876 76.5207 64.1217 76.4674 63.3294C76.4141 62.7836 76.6451 62.0265 77.1605 61.0582C77.6759 60.1074 77.9248 59.5088 77.907 59.2623C77.8892 58.9454 77.7648 58.6549 77.5338 58.3908L77.0006 57.7305C76.6451 57.0615 76.8495 55.7674 77.6137 53.8482C77.827 53.3553 77.8181 52.8799 77.5871 52.4221C77.3205 51.8763 77.1872 51.4361 77.1872 51.1016C77.205 50.8023 77.356 50.3797 77.6404 49.8339L78.0136 48.936C78.0847 48.5662 78.0669 48.1349 77.9603 47.6419C77.7648 46.7792 77.7737 46.0309 77.987 45.397C78.1114 45.0625 78.3958 44.5607 78.8401 43.8917C79.1067 43.4867 79.2755 43.293 79.3466 43.3106C79.4355 43.3282 79.4888 43.5835 79.5066 44.0765L79.4799 44.816C79.4977 45.2562 79.6043 45.7228 79.7998 46.2157C80.0131 46.7792 79.9953 47.4482 79.7465 48.2229C79.5866 48.6807 79.6132 49.1737 79.8265 49.7019L80.6796 48.0644C80.9106 47.6595 81.0173 47.2457 80.9995 46.8232L80.8929 45.6875C80.8929 44.3494 81.2661 43.2842 82.0126 42.4919C82.4569 41.9989 83.31 41.2419 84.5719 40.2207C85.0695 39.622 85.3806 38.6273 85.505 37.2363C85.6472 35.9863 85.7716 35.3524 85.8782 35.3348C86.0204 35.2996 86.3314 35.9334 86.8113 37.2363C86.989 37.7117 87.1312 38.3015 87.2378 39.0058Z" fill="#0D131A"/>
<path d="M27.2271 13.0976L27.7337 13.0183C27.9647 13.036 28.0447 13.0888 27.9736 13.1768C26.8183 14.4269 26.1074 16.4164 25.8408 19.1455C25.592 21.6632 25.7875 23.5119 26.4273 24.6916C26.4807 24.7972 26.4007 24.8853 26.1874 24.9557L25.7875 24.9029C25.041 23.4767 24.8189 21.4608 25.121 18.855C25.4232 16.214 26.1252 14.2948 27.2271 13.0976Z" fill="#0D131A"/>
<path d="M11.4446 28.0457C11.5691 28.0457 11.7557 28.1337 12.0045 28.3097C12.2533 28.4858 12.3244 28.5739 12.2178 28.5739C11.4891 28.6267 10.7071 28.8291 9.87173 29.1813C9.12526 29.5158 8.47655 29.9032 7.92558 30.3433C7.85449 30.4137 7.75674 30.3609 7.63233 30.1849C7.50792 30.0088 7.48126 29.8855 7.55235 29.8151C8.86755 28.7411 10.165 28.1513 11.4446 28.0457Z" fill="#0D131A"/>
<path d="M33.6787 101.254C33.7854 100.884 34.0164 100.55 34.3719 100.251C34.7984 99.9161 35.2161 99.8105 35.6249 99.9337C36.1759 100.11 36.5935 100.488 36.8779 101.069C37.1267 101.58 37.1978 102.02 37.0912 102.39C36.9134 102.988 36.4602 103.746 35.7315 104.661C35.0206 105.524 34.5496 105.964 34.3186 105.982C34.0342 105.999 33.812 105.357 33.6521 104.054C33.4921 102.768 33.501 101.835 33.6787 101.254Z" fill="white"/>
<path d="M39.0906 102.205C39.0195 101.694 39.064 101.245 39.2239 100.858C39.4194 100.383 39.766 100.092 40.2637 99.9865C41.2234 99.8105 41.8988 100.171 42.2898 101.069C42.5208 101.615 42.5742 102.566 42.4497 103.922C42.3253 105.26 42.1387 105.982 41.8899 106.087C41.6411 106.193 41.1701 105.85 40.4769 105.057C39.7127 104.177 39.2506 103.226 39.0906 102.205Z" fill="white"/>
<path d="M44.2093 101.65C44.3337 100.506 44.6891 99.6608 45.2757 99.115C45.8266 98.6044 46.2976 98.5692 46.6886 99.0094C47.0441 99.4143 47.3729 100.436 47.675 102.073C47.9949 103.675 48.0571 104.52 47.8616 104.608C47.6306 104.714 46.9552 104.309 45.8355 103.393C44.7158 102.478 44.1737 101.897 44.2093 101.65Z" fill="white"/>
<path d="M29.7065 38.6097L35.7582 47.9324C34.9762 50.6966 33.2522 53.4609 30.5862 56.2251C29.6443 57.1935 28.2135 58.4348 26.294 59.949L24.108 61.8505C23.2015 62.59 22.5972 62.9069 22.2951 62.8012C22.0285 62.7308 21.7975 62.1938 21.6019 61.1902L21.3887 59.7113L20.029 60.5564C19.0693 61.067 18.465 61.199 18.2162 60.9525C17.9851 60.7236 17.9407 60.1778 18.0829 59.3151L18.3495 58.1003C17.0343 58.1003 16.3856 57.8978 16.4033 57.4928C16.4211 57.2111 16.7588 56.7974 17.4164 56.2516C18.234 55.5649 18.7938 55.0015 19.0959 54.5613C19.8246 51.0576 21.8152 47.3514 25.0677 43.4427C26.685 41.4883 28.2313 39.8773 29.7065 38.6097Z" fill="#EF8200"/>
<path d="M22.4284 62.7484C23.4415 60.8821 24.2057 59.6408 24.7211 59.0246L29.7864 54.4557C32.5057 52.0436 34.3986 49.9308 35.4649 48.1173C35.2517 49.9308 34.0875 52.1668 31.9725 54.8254C30.0175 57.2903 28.2668 58.9102 26.7206 59.6849C24.4456 61.4983 23.0149 62.5195 22.4284 62.7484Z" fill="#CF7100"/>
<path d="M36.478 100.488C37.1534 101.492 37.1356 102.645 36.4247 103.948C35.8204 105.057 35.1983 105.709 34.5585 105.902L35.9181 102.971C36.3269 101.862 36.5135 101.034 36.478 100.488Z" fill="#DBDCDC"/>
<path d="M39.5705 100.462L40.237 103.024C40.5214 104.045 40.8502 104.969 41.2234 105.797C40.9035 105.867 40.4858 105.48 39.9704 104.635C39.4372 103.772 39.1351 102.962 39.064 102.205C39.0107 101.554 39.0817 101.069 39.2773 100.752L39.5705 100.462Z" fill="#DBDCDC"/>
<path d="M44.6358 100.303L46.0221 102.126C46.9641 103.411 47.4617 104.265 47.5151 104.688L45.9421 103.552C44.8935 102.689 44.3692 102.038 44.3692 101.598C44.3692 101.157 44.4137 100.814 44.5025 100.568L44.6358 100.303Z" fill="#DBDCDC"/>
<path d="M35.4649 100.356C34.7896 100.303 34.3452 100.559 34.132 101.122C33.9187 101.65 33.8742 102.513 33.9987 103.71C34.0875 104.837 34.2208 105.436 34.3985 105.506C34.5763 105.577 34.9673 105.198 35.5716 104.371C36.1759 103.525 36.5313 102.839 36.638 102.311C36.709 101.888 36.6291 101.474 36.398 101.069C36.167 100.647 35.8559 100.409 35.4649 100.356ZM35.6249 99.696C36.2114 99.8369 36.6735 100.198 37.0112 100.779C37.3133 101.289 37.4377 101.826 37.3844 102.39C37.3133 102.918 36.8512 103.728 35.9981 104.82C35.145 105.911 34.5585 106.439 34.2386 106.404C33.8476 106.387 33.5543 105.603 33.3588 104.054C33.1811 102.522 33.2078 101.448 33.4388 100.832C33.581 100.462 33.8742 100.154 34.3186 99.9073C34.7807 99.6608 35.2161 99.5904 35.6249 99.696Z" fill="#0D131A"/>
<path d="M41.8632 101.122C41.7388 100.84 41.5344 100.629 41.2501 100.488C40.9835 100.347 40.708 100.303 40.4236 100.356C40.1748 100.409 39.9526 100.559 39.7571 100.805C39.5261 101.087 39.4194 101.404 39.4372 101.756C39.455 102.601 39.8016 103.508 40.4769 104.476C41.0812 105.339 41.4811 105.735 41.6766 105.665C41.8543 105.612 41.9965 105.013 42.1032 103.869C42.2454 102.636 42.1654 101.721 41.8632 101.122ZM41.5433 99.8017C41.9521 100.013 42.2631 100.339 42.4764 100.779C42.7785 101.43 42.8496 102.531 42.6897 104.08C42.5297 105.594 42.2809 106.395 41.9432 106.483C41.4811 106.607 40.8146 106.043 39.9437 104.793C39.0551 103.525 38.6285 102.495 38.6641 101.703C38.6996 101.228 38.8507 100.796 39.1173 100.409C39.4194 99.9689 39.8104 99.7048 40.2903 99.6168C40.7346 99.5288 41.1523 99.5904 41.5433 99.8017Z" fill="#0D131A"/>
<path d="M44.7158 101.518C44.7336 101.923 45.1868 102.478 46.0754 103.182C46.9108 103.869 47.3818 104.177 47.4884 104.107C47.6306 103.983 47.5595 103.217 47.2751 101.809C46.973 100.312 46.6086 99.4319 46.1821 99.1678C45.7733 99.1326 45.4178 99.3967 45.1157 99.9601C44.8136 100.471 44.6803 100.99 44.7158 101.518ZM43.9693 101.571C43.916 100.884 44.1471 100.171 44.6625 99.4319C45.1957 98.6396 45.7555 98.2963 46.342 98.4019C46.9819 98.5428 47.5062 99.6608 47.915 101.756C48.3237 103.816 48.3504 104.934 47.9949 105.11C47.7639 105.233 47.053 104.811 45.8622 103.842C44.6358 102.839 44.0049 102.082 43.9693 101.571Z" fill="#0D131A"/>
<path d="M28.0002 39.5868C28.9244 38.8826 29.4576 38.5832 29.5998 38.6889C29.7598 38.8121 29.4221 39.2699 28.5868 40.0622C26.5251 42.0342 24.7122 44.2174 23.1482 46.6119C21.3887 49.2881 20.1801 51.8675 19.5225 54.35C19.3981 54.7726 19.1226 55.2216 18.6961 55.6969L17.523 56.7533C17.0965 57.1055 16.9543 57.352 17.0965 57.4928C17.2387 57.6337 17.6919 57.7041 18.4561 57.7041C18.5628 57.7041 18.6072 57.8273 18.5894 58.0738C18.5716 58.3203 18.5094 58.4436 18.4028 58.4436C17.4075 58.4436 16.6877 58.3027 16.2434 58.021C15.6391 57.6161 15.8435 56.9998 16.8565 56.1723L18.1629 55.0631C18.465 54.7638 18.6516 54.4557 18.7227 54.1388C19.4692 51.3921 20.66 48.7159 22.2951 46.1101C24.0013 43.3811 25.903 41.2066 28.0002 39.5868Z" fill="#0D131A"/>
<path d="M34.5052 49.5698C35.0028 48.3373 35.3316 47.7651 35.4916 47.8532C35.6693 47.9412 35.5449 48.6367 35.1184 49.9396C34.4785 51.9467 33.4033 53.857 31.8925 55.6705C30.4885 57.3784 28.9244 58.7517 27.2005 59.7905C26.8628 60.0018 26.0452 60.6884 24.7478 61.8505C23.4859 62.8717 22.5972 63.303 22.0818 63.1446C21.7975 63.0565 21.5486 62.722 21.3354 62.141C21.1221 61.56 21.0243 60.9525 21.0421 60.3187C20.3489 60.8117 19.6736 61.1286 19.016 61.2695L17.8696 61.2166C17.6386 61.023 17.5675 60.5828 17.6563 59.8961C17.7452 59.2271 17.9585 58.5668 18.2962 57.9154C18.776 56.9998 19.1137 56.5773 19.3092 56.6477C19.5047 56.7005 19.3892 57.2199 18.9627 58.2059C18.4472 59.4031 18.3139 60.125 18.5628 60.3715L19.5492 60.2131C20.0824 60.0194 20.5978 59.7641 21.0954 59.4472C21.3442 59.2887 21.5042 59.2271 21.5753 59.2623C21.6642 59.2799 21.7175 59.4296 21.7352 59.7113C21.8419 61.2607 22.0729 62.0882 22.4284 62.1938C22.7305 62.2818 23.3793 61.9033 24.3745 61.0582L26.8805 59.0246C28.2846 58.1619 29.7065 56.859 31.1461 55.1159C32.639 53.3024 33.7587 51.4537 34.5052 49.5698Z" fill="#0D131A"/>
</svg>
